ISO-10303-21;
HEADER;
FILE_DESCRIPTION(('FreeCAD Model'),'2;1');
FILE_NAME('Open CASCADE Shape Model','2025-05-13T23:37:17',(''),(''),
  'Open CASCADE STEP processor 7.8','FreeCAD','Unknown');
FILE_SCHEMA(('AUTOMOTIVE_DESIGN { 1 0 10303 214 1 1 1 1 }'));
ENDSEC;
DATA;
#1 = APPLICATION_PROTOCOL_DEFINITION('international standard',
  'automotive_design',2000,#2);
#2 = APPLICATION_CONTEXT(
  'core data for automotive mechanical design processes');
#3 = SHAPE_DEFINITION_REPRESENTATION(#4,#10);
#4 = PRODUCT_DEFINITION_SHAPE('','',#5);
#5 = PRODUCT_DEFINITION('design','',#6,#9);
#6 = PRODUCT_DEFINITION_FORMATION('','',#7);
#7 = PRODUCT('bay_insert','bay_insert','',(#8));
#8 = PRODUCT_CONTEXT('',#2,'mechanical');
#9 = PRODUCT_DEFINITION_CONTEXT('part definition',#2,'design');
#10 = ADVANCED_BREP_SHAPE_REPRESENTATION('',(#11,#15),#2243);
#11 = AXIS2_PLACEMENT_3D('',#12,#13,#14);
#12 = CARTESIAN_POINT('',(0.,0.,0.));
#13 = DIRECTION('',(0.,0.,1.));
#14 = DIRECTION('',(1.,0.,-0.));
#15 = MANIFOLD_SOLID_BREP('',#16);
#16 = CLOSED_SHELL('',(#17,#286,#311,#344,#370,#396,#421,#446,#472,#498,
    #523,#548,#574,#600,#625,#650,#676,#702,#719,#750,#775,#800,#824,
    #848,#873,#898,#915,#940,#965,#990,#1015,#1040,#1071,#1096,#1121,
    #1145,#1169,#1194,#1219,#1243,#1267,#1292,#1317,#1341,#1365,#1390,
    #1415,#1432,#1465,#1482,#1499,#1524,#1549,#1566,#1583,#1600,#1625,
    #1650,#1675,#1700,#1725,#1756,#1781,#1806,#1830,#1854,#1879,#1904,
    #1928,#1952,#1977,#2002,#2026,#2050,#2075,#2100,#2117,#2129,#2154,
    #2179,#2226));
#17 = ADVANCED_FACE('',(#18,#29,#167,#237,#248,#259,#270),#281,.T.);
#18 = FACE_BOUND('',#19,.T.);
#19 = EDGE_LOOP('',(#20));
#20 = ORIENTED_EDGE('',*,*,#21,.F.);
#21 = EDGE_CURVE('',#22,#22,#24,.T.);
#22 = VERTEX_POINT('',#23);
#23 = CARTESIAN_POINT('',(9.85,8.7,0.4));
#24 = CIRCLE('',#25,1.15);
#25 = AXIS2_PLACEMENT_3D('',#26,#27,#28);
#26 = CARTESIAN_POINT('',(8.7,8.7,0.4));
#27 = DIRECTION('',(0.,0.,1.));
#28 = DIRECTION('',(1.,0.,-0.));
#29 = FACE_BOUND('',#30,.T.);
#30 = EDGE_LOOP('',(#31,#41,#50,#58,#67,#75,#84,#92,#101,#109,#118,#126,
    #135,#143,#152,#160));
#31 = ORIENTED_EDGE('',*,*,#32,.T.);
#32 = EDGE_CURVE('',#33,#35,#37,.T.);
#33 = VERTEX_POINT('',#34);
#34 = CARTESIAN_POINT('',(12.2,0.1,0.4));
#35 = VERTEX_POINT('',#36);
#36 = CARTESIAN_POINT('',(16.9,0.1,0.4));
#37 = LINE('',#38,#39);
#38 = CARTESIAN_POINT('',(12.2,1.E-01,0.4));
#39 = VECTOR('',#40,1.);
#40 = DIRECTION('',(1.,0.,0.));
#41 = ORIENTED_EDGE('',*,*,#42,.T.);
#42 = EDGE_CURVE('',#35,#43,#45,.T.);
#43 = VERTEX_POINT('',#44);
#44 = CARTESIAN_POINT('',(17.3,0.5,0.4));
#45 = CIRCLE('',#46,0.4);
#46 = AXIS2_PLACEMENT_3D('',#47,#48,#49);
#47 = CARTESIAN_POINT('',(16.9,0.5,0.4));
#48 = DIRECTION('',(-0.,0.,1.));
#49 = DIRECTION('',(0.,-1.,0.));
#50 = ORIENTED_EDGE('',*,*,#51,.T.);
#51 = EDGE_CURVE('',#43,#52,#54,.T.);
#52 = VERTEX_POINT('',#53);
#53 = CARTESIAN_POINT('',(17.3,16.9,0.4));
#54 = LINE('',#55,#56);
#55 = CARTESIAN_POINT('',(17.3,0.5,0.4));
#56 = VECTOR('',#57,1.);
#57 = DIRECTION('',(0.,1.,0.));
#58 = ORIENTED_EDGE('',*,*,#59,.T.);
#59 = EDGE_CURVE('',#52,#60,#62,.T.);
#60 = VERTEX_POINT('',#61);
#61 = CARTESIAN_POINT('',(16.9,17.3,0.4));
#62 = CIRCLE('',#63,0.4);
#63 = AXIS2_PLACEMENT_3D('',#64,#65,#66);
#64 = CARTESIAN_POINT('',(16.9,16.9,0.4));
#65 = DIRECTION('',(0.,0.,1.));
#66 = DIRECTION('',(1.,0.,0.));
#67 = ORIENTED_EDGE('',*,*,#68,.T.);
#68 = EDGE_CURVE('',#60,#69,#71,.T.);
#69 = VERTEX_POINT('',#70);
#70 = CARTESIAN_POINT('',(0.5,17.3,0.4));
#71 = LINE('',#72,#73);
#72 = CARTESIAN_POINT('',(16.9,17.3,0.4));
#73 = VECTOR('',#74,1.);
#74 = DIRECTION('',(-1.,0.,0.));
#75 = ORIENTED_EDGE('',*,*,#76,.T.);
#76 = EDGE_CURVE('',#69,#77,#79,.T.);
#77 = VERTEX_POINT('',#78);
#78 = CARTESIAN_POINT('',(0.1,16.9,0.4));
#79 = CIRCLE('',#80,0.4);
#80 = AXIS2_PLACEMENT_3D('',#81,#82,#83);
#81 = CARTESIAN_POINT('',(0.5,16.9,0.4));
#82 = DIRECTION('',(0.,0.,1.));
#83 = DIRECTION('',(-3.3E-16,1.,0.));
#84 = ORIENTED_EDGE('',*,*,#85,.T.);
#85 = EDGE_CURVE('',#77,#86,#88,.T.);
#86 = VERTEX_POINT('',#87);
#87 = CARTESIAN_POINT('',(0.1,0.5,0.4));
#88 = LINE('',#89,#90);
#89 = CARTESIAN_POINT('',(1.E-01,16.9,0.4));
#90 = VECTOR('',#91,1.);
#91 = DIRECTION('',(0.,-1.,0.));
#92 = ORIENTED_EDGE('',*,*,#93,.T.);
#93 = EDGE_CURVE('',#86,#94,#96,.T.);
#94 = VERTEX_POINT('',#95);
#95 = CARTESIAN_POINT('',(0.5,0.1,0.4));
#96 = CIRCLE('',#97,0.4);
#97 = AXIS2_PLACEMENT_3D('',#98,#99,#100);
#98 = CARTESIAN_POINT('',(0.5,0.5,0.4));
#99 = DIRECTION('',(0.,0.,1.));
#100 = DIRECTION('',(-1.,-3.3E-16,0.));
#101 = ORIENTED_EDGE('',*,*,#102,.T.);
#102 = EDGE_CURVE('',#94,#103,#105,.T.);
#103 = VERTEX_POINT('',#104);
#104 = CARTESIAN_POINT('',(5.2,0.1,0.4));
#105 = LINE('',#106,#107);
#106 = CARTESIAN_POINT('',(0.5,1.E-01,0.4));
#107 = VECTOR('',#108,1.);
#108 = DIRECTION('',(1.,0.,0.));
#109 = ORIENTED_EDGE('',*,*,#110,.T.);
#110 = EDGE_CURVE('',#103,#111,#113,.T.);
#111 = VERTEX_POINT('',#112);
#112 = CARTESIAN_POINT('',(5.6,0.5,0.4));
#113 = CIRCLE('',#114,0.4);
#114 = AXIS2_PLACEMENT_3D('',#115,#116,#117);
#115 = CARTESIAN_POINT('',(5.2,0.5,0.4));
#116 = DIRECTION('',(-0.,0.,1.));
#117 = DIRECTION('',(0.,-1.,0.));
#118 = ORIENTED_EDGE('',*,*,#119,.T.);
#119 = EDGE_CURVE('',#111,#120,#122,.T.);
#120 = VERTEX_POINT('',#121);
#121 = CARTESIAN_POINT('',(5.6,1.,0.4));
#122 = LINE('',#123,#124);
#123 = CARTESIAN_POINT('',(5.6,0.5,0.4));
#124 = VECTOR('',#125,1.);
#125 = DIRECTION('',(0.,1.,0.));
#126 = ORIENTED_EDGE('',*,*,#127,.T.);
#127 = EDGE_CURVE('',#120,#128,#130,.T.);
#128 = VERTEX_POINT('',#129);
#129 = CARTESIAN_POINT('',(6.2,1.6,0.4));
#130 = CIRCLE('',#131,0.6);
#131 = AXIS2_PLACEMENT_3D('',#132,#133,#134);
#132 = CARTESIAN_POINT('',(6.2,1.,0.4));
#133 = DIRECTION('',(0.,0.,-1.));
#134 = DIRECTION('',(-1.,0.,0.));
#135 = ORIENTED_EDGE('',*,*,#136,.T.);
#136 = EDGE_CURVE('',#128,#137,#139,.T.);
#137 = VERTEX_POINT('',#138);
#138 = CARTESIAN_POINT('',(11.2,1.6,0.4));
#139 = LINE('',#140,#141);
#140 = CARTESIAN_POINT('',(6.2,1.6,0.4));
#141 = VECTOR('',#142,1.);
#142 = DIRECTION('',(1.,0.,0.));
#143 = ORIENTED_EDGE('',*,*,#144,.T.);
#144 = EDGE_CURVE('',#137,#145,#147,.T.);
#145 = VERTEX_POINT('',#146);
#146 = CARTESIAN_POINT('',(11.8,1.,0.4));
#147 = CIRCLE('',#148,0.6);
#148 = AXIS2_PLACEMENT_3D('',#149,#150,#151);
#149 = CARTESIAN_POINT('',(11.2,1.,0.4));
#150 = DIRECTION('',(0.,0.,-1.));
#151 = DIRECTION('',(0.,1.,0.));
#152 = ORIENTED_EDGE('',*,*,#153,.T.);
#153 = EDGE_CURVE('',#145,#154,#156,.T.);
#154 = VERTEX_POINT('',#155);
#155 = CARTESIAN_POINT('',(11.8,0.5,0.4));
#156 = LINE('',#157,#158);
#157 = CARTESIAN_POINT('',(11.8,1.,0.4));
#158 = VECTOR('',#159,1.);
#159 = DIRECTION('',(-0.,-1.,-0.));
#160 = ORIENTED_EDGE('',*,*,#161,.T.);
#161 = EDGE_CURVE('',#154,#33,#162,.T.);
#162 = CIRCLE('',#163,0.4);
#163 = AXIS2_PLACEMENT_3D('',#164,#165,#166);
#164 = CARTESIAN_POINT('',(12.2,0.5,0.4));
#165 = DIRECTION('',(0.,0.,1.));
#166 = DIRECTION('',(-1.,-4.4E-16,0.));
#167 = FACE_BOUND('',#168,.T.);
#168 = EDGE_LOOP('',(#169,#179,#188,#196,#205,#213,#222,#230));
#169 = ORIENTED_EDGE('',*,*,#170,.F.);
#170 = EDGE_CURVE('',#171,#173,#175,.T.);
#171 = VERTEX_POINT('',#172);
#172 = CARTESIAN_POINT('',(6.45,14.2,0.4));
#173 = VERTEX_POINT('',#174);
#174 = CARTESIAN_POINT('',(6.45,13.7,0.4));
#175 = LINE('',#176,#177);
#176 = CARTESIAN_POINT('',(6.45,15.2,0.4));
#177 = VECTOR('',#178,1.);
#178 = DIRECTION('',(0.,-1.,0.));
#179 = ORIENTED_EDGE('',*,*,#180,.T.);
#180 = EDGE_CURVE('',#171,#181,#183,.T.);
#181 = VERTEX_POINT('',#182);
#182 = CARTESIAN_POINT('',(7.45,15.2,0.4));
#183 = CIRCLE('',#184,1.);
#184 = AXIS2_PLACEMENT_3D('',#185,#186,#187);
#185 = CARTESIAN_POINT('',(7.45,14.2,0.4));
#186 = DIRECTION('',(-0.,-0.,-1.));
#187 = DIRECTION('',(0.,-1.,0.));
#188 = ORIENTED_EDGE('',*,*,#189,.F.);
#189 = EDGE_CURVE('',#190,#181,#192,.T.);
#190 = VERTEX_POINT('',#191);
#191 = CARTESIAN_POINT('',(9.95,15.2,0.4));
#192 = LINE('',#193,#194);
#193 = CARTESIAN_POINT('',(10.95,15.2,0.4));
#194 = VECTOR('',#195,1.);
#195 = DIRECTION('',(-1.,0.,0.));
#196 = ORIENTED_EDGE('',*,*,#197,.F.);
#197 = EDGE_CURVE('',#198,#190,#200,.T.);
#198 = VERTEX_POINT('',#199);
#199 = CARTESIAN_POINT('',(10.95,14.2,0.4));
#200 = CIRCLE('',#201,1.);
#201 = AXIS2_PLACEMENT_3D('',#202,#203,#204);
#202 = CARTESIAN_POINT('',(9.95,14.2,0.4));
#203 = DIRECTION('',(-0.,0.,1.));
#204 = DIRECTION('',(0.,-1.,0.));
#205 = ORIENTED_EDGE('',*,*,#206,.F.);
#206 = EDGE_CURVE('',#207,#198,#209,.T.);
#207 = VERTEX_POINT('',#208);
#208 = CARTESIAN_POINT('',(10.95,13.7,0.4));
#209 = LINE('',#210,#211);
#210 = CARTESIAN_POINT('',(10.95,12.7,0.4));
#211 = VECTOR('',#212,1.);
#212 = DIRECTION('',(0.,1.,0.));
#213 = ORIENTED_EDGE('',*,*,#214,.F.);
#214 = EDGE_CURVE('',#215,#207,#217,.T.);
#215 = VERTEX_POINT('',#216);
#216 = CARTESIAN_POINT('',(9.95,12.7,0.4));
#217 = CIRCLE('',#218,1.);
#218 = AXIS2_PLACEMENT_3D('',#219,#220,#221);
#219 = CARTESIAN_POINT('',(9.95,13.7,0.4));
#220 = DIRECTION('',(-0.,0.,1.));
#221 = DIRECTION('',(0.,-1.,0.));
#222 = ORIENTED_EDGE('',*,*,#223,.F.);
#223 = EDGE_CURVE('',#224,#215,#226,.T.);
#224 = VERTEX_POINT('',#225);
#225 = CARTESIAN_POINT('',(7.45,12.7,0.4));
#226 = LINE('',#227,#228);
#227 = CARTESIAN_POINT('',(6.45,12.7,0.4));
#228 = VECTOR('',#229,1.);
#229 = DIRECTION('',(1.,0.,0.));
#230 = ORIENTED_EDGE('',*,*,#231,.F.);
#231 = EDGE_CURVE('',#173,#224,#232,.T.);
#232 = CIRCLE('',#233,1.);
#233 = AXIS2_PLACEMENT_3D('',#234,#235,#236);
#234 = CARTESIAN_POINT('',(7.45,13.7,0.4));
#235 = DIRECTION('',(-0.,0.,1.));
#236 = DIRECTION('',(0.,-1.,0.));
#237 = FACE_BOUND('',#238,.T.);
#238 = EDGE_LOOP('',(#239));
#239 = ORIENTED_EDGE('',*,*,#240,.F.);
#240 = EDGE_CURVE('',#241,#241,#243,.T.);
#241 = VERTEX_POINT('',#242);
#242 = CARTESIAN_POINT('',(15.85,14.7,0.4));
#243 = CIRCLE('',#244,1.15);
#244 = AXIS2_PLACEMENT_3D('',#245,#246,#247);
#245 = CARTESIAN_POINT('',(14.7,14.7,0.4));
#246 = DIRECTION('',(0.,0.,1.));
#247 = DIRECTION('',(1.,0.,-0.));
#248 = FACE_BOUND('',#249,.T.);
#249 = EDGE_LOOP('',(#250));
#250 = ORIENTED_EDGE('',*,*,#251,.F.);
#251 = EDGE_CURVE('',#252,#252,#254,.T.);
#252 = VERTEX_POINT('',#253);
#253 = CARTESIAN_POINT('',(3.85,14.7,0.4));
#254 = CIRCLE('',#255,1.15);
#255 = AXIS2_PLACEMENT_3D('',#256,#257,#258);
#256 = CARTESIAN_POINT('',(2.7,14.7,0.4));
#257 = DIRECTION('',(0.,0.,1.));
#258 = DIRECTION('',(1.,0.,-0.));
#259 = FACE_BOUND('',#260,.T.);
#260 = EDGE_LOOP('',(#261));
#261 = ORIENTED_EDGE('',*,*,#262,.F.);
#262 = EDGE_CURVE('',#263,#263,#265,.T.);
#263 = VERTEX_POINT('',#264);
#264 = CARTESIAN_POINT('',(3.85,2.7,0.4));
#265 = CIRCLE('',#266,1.15);
#266 = AXIS2_PLACEMENT_3D('',#267,#268,#269);
#267 = CARTESIAN_POINT('',(2.7,2.7,0.4));
#268 = DIRECTION('',(0.,0.,1.));
#269 = DIRECTION('',(1.,0.,-0.));
#270 = FACE_BOUND('',#271,.T.);
#271 = EDGE_LOOP('',(#272));
#272 = ORIENTED_EDGE('',*,*,#273,.F.);
#273 = EDGE_CURVE('',#274,#274,#276,.T.);
#274 = VERTEX_POINT('',#275);
#275 = CARTESIAN_POINT('',(15.85,2.7,0.4));
#276 = CIRCLE('',#277,1.15);
#277 = AXIS2_PLACEMENT_3D('',#278,#279,#280);
#278 = CARTESIAN_POINT('',(14.7,2.7,0.4));
#279 = DIRECTION('',(0.,0.,1.));
#280 = DIRECTION('',(1.,0.,-0.));
#281 = PLANE('',#282);
#282 = AXIS2_PLACEMENT_3D('',#283,#284,#285);
#283 = CARTESIAN_POINT('',(8.7,8.7,0.4));
#284 = DIRECTION('',(0.,0.,1.));
#285 = DIRECTION('',(1.,0.,0.));
#286 = ADVANCED_FACE('',(#287),#306,.F.);
#287 = FACE_BOUND('',#288,.T.);
#288 = EDGE_LOOP('',(#289,#297,#298,#299));
#289 = ORIENTED_EDGE('',*,*,#290,.F.);
#290 = EDGE_CURVE('',#22,#291,#293,.T.);
#291 = VERTEX_POINT('',#292);
#292 = CARTESIAN_POINT('',(9.7,8.7,0.25));
#293 = LINE('',#294,#295);
#294 = CARTESIAN_POINT('',(9.7,8.7,0.25));
#295 = VECTOR('',#296,1.);
#296 = DIRECTION('',(-0.707106781187,-0.,-0.707106781187));
#297 = ORIENTED_EDGE('',*,*,#21,.T.);
#298 = ORIENTED_EDGE('',*,*,#290,.T.);
#299 = ORIENTED_EDGE('',*,*,#300,.F.);
#300 = EDGE_CURVE('',#291,#291,#301,.T.);
#301 = CIRCLE('',#302,1.);
#302 = AXIS2_PLACEMENT_3D('',#303,#304,#305);
#303 = CARTESIAN_POINT('',(8.7,8.7,0.25));
#304 = DIRECTION('',(0.,0.,1.));
#305 = DIRECTION('',(1.,0.,-0.));
#306 = CONICAL_SURFACE('',#307,1.,0.785398163397);
#307 = AXIS2_PLACEMENT_3D('',#308,#309,#310);
#308 = CARTESIAN_POINT('',(8.7,8.7,0.25));
#309 = DIRECTION('',(0.,0.,1.));
#310 = DIRECTION('',(1.,0.,0.));
#311 = ADVANCED_FACE('',(#312),#339,.T.);
#312 = FACE_BOUND('',#313,.F.);
#313 = EDGE_LOOP('',(#314,#323,#324,#333));
#314 = ORIENTED_EDGE('',*,*,#315,.T.);
#315 = EDGE_CURVE('',#316,#33,#318,.T.);
#316 = VERTEX_POINT('',#317);
#317 = CARTESIAN_POINT('',(12.2,0.,0.3));
#318 = CIRCLE('',#319,0.1);
#319 = AXIS2_PLACEMENT_3D('',#320,#321,#322);
#320 = CARTESIAN_POINT('',(12.2,1.E-01,0.3));
#321 = DIRECTION('',(-1.,0.,0.));
#322 = DIRECTION('',(0.,-1.,0.));
#323 = ORIENTED_EDGE('',*,*,#32,.T.);
#324 = ORIENTED_EDGE('',*,*,#325,.F.);
#325 = EDGE_CURVE('',#326,#35,#328,.T.);
#326 = VERTEX_POINT('',#327);
#327 = CARTESIAN_POINT('',(16.9,0.,0.3));
#328 = CIRCLE('',#329,0.1);
#329 = AXIS2_PLACEMENT_3D('',#330,#331,#332);
#330 = CARTESIAN_POINT('',(16.9,1.E-01,0.3));
#331 = DIRECTION('',(-1.,0.,0.));
#332 = DIRECTION('',(0.,-1.,0.));
#333 = ORIENTED_EDGE('',*,*,#334,.F.);
#334 = EDGE_CURVE('',#316,#326,#335,.T.);
#335 = LINE('',#336,#337);
#336 = CARTESIAN_POINT('',(12.2,-1.E-17,0.3));
#337 = VECTOR('',#338,1.);
#338 = DIRECTION('',(1.,0.,0.));
#339 = CYLINDRICAL_SURFACE('',#340,0.1);
#340 = AXIS2_PLACEMENT_3D('',#341,#342,#343);
#341 = CARTESIAN_POINT('',(12.2,1.E-01,0.3));
#342 = DIRECTION('',(1.,0.,0.));
#343 = DIRECTION('',(0.,-1.,0.));
#344 = ADVANCED_FACE('',(#345),#365,.T.);
#345 = FACE_BOUND('',#346,.T.);
#346 = EDGE_LOOP('',(#347,#356,#363,#364));
#347 = ORIENTED_EDGE('',*,*,#348,.F.);
#348 = EDGE_CURVE('',#349,#154,#351,.T.);
#349 = VERTEX_POINT('',#350);
#350 = CARTESIAN_POINT('',(11.7,0.5,0.3));
#351 = CIRCLE('',#352,0.1);
#352 = AXIS2_PLACEMENT_3D('',#353,#354,#355);
#353 = CARTESIAN_POINT('',(11.8,0.5,0.3));
#354 = DIRECTION('',(0.,1.,-0.));
#355 = DIRECTION('',(-1.,0.,0.));
#356 = ORIENTED_EDGE('',*,*,#357,.T.);
#357 = EDGE_CURVE('',#349,#316,#358,.T.);
#358 = CIRCLE('',#359,0.5);
#359 = AXIS2_PLACEMENT_3D('',#360,#361,#362);
#360 = CARTESIAN_POINT('',(12.2,0.5,0.3));
#361 = DIRECTION('',(0.,0.,1.));
#362 = DIRECTION('',(-1.,-4.4E-16,0.));
#363 = ORIENTED_EDGE('',*,*,#315,.T.);
#364 = ORIENTED_EDGE('',*,*,#161,.F.);
#365 = TOROIDAL_SURFACE('',#366,0.4,0.1);
#366 = AXIS2_PLACEMENT_3D('',#367,#368,#369);
#367 = CARTESIAN_POINT('',(12.2,0.5,0.3));
#368 = DIRECTION('',(0.,0.,1.));
#369 = DIRECTION('',(-1.,-4.4E-16,0.));
#370 = ADVANCED_FACE('',(#371),#391,.T.);
#371 = FACE_BOUND('',#372,.T.);
#372 = EDGE_LOOP('',(#373,#374,#383,#390));
#373 = ORIENTED_EDGE('',*,*,#325,.F.);
#374 = ORIENTED_EDGE('',*,*,#375,.T.);
#375 = EDGE_CURVE('',#326,#376,#378,.T.);
#376 = VERTEX_POINT('',#377);
#377 = CARTESIAN_POINT('',(17.4,0.5,0.3));
#378 = CIRCLE('',#379,0.5);
#379 = AXIS2_PLACEMENT_3D('',#380,#381,#382);
#380 = CARTESIAN_POINT('',(16.9,0.5,0.3));
#381 = DIRECTION('',(-0.,0.,1.));
#382 = DIRECTION('',(0.,-1.,0.));
#383 = ORIENTED_EDGE('',*,*,#384,.T.);
#384 = EDGE_CURVE('',#376,#43,#385,.T.);
#385 = CIRCLE('',#386,0.1);
#386 = AXIS2_PLACEMENT_3D('',#387,#388,#389);
#387 = CARTESIAN_POINT('',(17.3,0.5,0.3));
#388 = DIRECTION('',(-6.E-17,-1.,0.));
#389 = DIRECTION('',(1.,-6.E-17,0.));
#390 = ORIENTED_EDGE('',*,*,#42,.F.);
#391 = TOROIDAL_SURFACE('',#392,0.4,0.1);
#392 = AXIS2_PLACEMENT_3D('',#393,#394,#395);
#393 = CARTESIAN_POINT('',(16.9,0.5,0.3));
#394 = DIRECTION('',(0.,0.,1.));
#395 = DIRECTION('',(0.,-1.,0.));
#396 = ADVANCED_FACE('',(#397),#416,.T.);
#397 = FACE_BOUND('',#398,.F.);
#398 = EDGE_LOOP('',(#399,#408,#409,#410));
#399 = ORIENTED_EDGE('',*,*,#400,.T.);
#400 = EDGE_CURVE('',#401,#145,#403,.T.);
#401 = VERTEX_POINT('',#402);
#402 = CARTESIAN_POINT('',(11.7,1.,0.3));
#403 = CIRCLE('',#404,0.1);
#404 = AXIS2_PLACEMENT_3D('',#405,#406,#407);
#405 = CARTESIAN_POINT('',(11.8,1.,0.3));
#406 = DIRECTION('',(-6.E-17,1.,0.));
#407 = DIRECTION('',(1.,6.E-17,0.));
#408 = ORIENTED_EDGE('',*,*,#153,.T.);
#409 = ORIENTED_EDGE('',*,*,#348,.F.);
#410 = ORIENTED_EDGE('',*,*,#411,.F.);
#411 = EDGE_CURVE('',#401,#349,#412,.T.);
#412 = LINE('',#413,#414);
#413 = CARTESIAN_POINT('',(11.7,1.,0.3));
#414 = VECTOR('',#415,1.);
#415 = DIRECTION('',(-0.,-1.,-0.));
#416 = CYLINDRICAL_SURFACE('',#417,0.1);
#417 = AXIS2_PLACEMENT_3D('',#418,#419,#420);
#418 = CARTESIAN_POINT('',(11.8,1.,0.3));
#419 = DIRECTION('',(-0.,-1.,-0.));
#420 = DIRECTION('',(-1.,0.,0.));
#421 = ADVANCED_FACE('',(#422),#441,.T.);
#422 = FACE_BOUND('',#423,.F.);
#423 = EDGE_LOOP('',(#424,#425,#426,#435));
#424 = ORIENTED_EDGE('',*,*,#384,.T.);
#425 = ORIENTED_EDGE('',*,*,#51,.T.);
#426 = ORIENTED_EDGE('',*,*,#427,.F.);
#427 = EDGE_CURVE('',#428,#52,#430,.T.);
#428 = VERTEX_POINT('',#429);
#429 = CARTESIAN_POINT('',(17.4,16.9,0.3));
#430 = CIRCLE('',#431,0.1);
#431 = AXIS2_PLACEMENT_3D('',#432,#433,#434);
#432 = CARTESIAN_POINT('',(17.3,16.9,0.3));
#433 = DIRECTION('',(0.,-1.,0.));
#434 = DIRECTION('',(1.,0.,0.));
#435 = ORIENTED_EDGE('',*,*,#436,.F.);
#436 = EDGE_CURVE('',#376,#428,#437,.T.);
#437 = LINE('',#438,#439);
#438 = CARTESIAN_POINT('',(17.4,0.5,0.3));
#439 = VECTOR('',#440,1.);
#440 = DIRECTION('',(0.,1.,0.));
#441 = CYLINDRICAL_SURFACE('',#442,0.1);
#442 = AXIS2_PLACEMENT_3D('',#443,#444,#445);
#443 = CARTESIAN_POINT('',(17.3,0.5,0.3));
#444 = DIRECTION('',(0.,1.,0.));
#445 = DIRECTION('',(1.,0.,0.));
#446 = ADVANCED_FACE('',(#447),#467,.T.);
#447 = FACE_BOUND('',#448,.T.);
#448 = EDGE_LOOP('',(#449,#458,#465,#466));
#449 = ORIENTED_EDGE('',*,*,#450,.F.);
#450 = EDGE_CURVE('',#451,#137,#453,.T.);
#451 = VERTEX_POINT('',#452);
#452 = CARTESIAN_POINT('',(11.2,1.5,0.3));
#453 = CIRCLE('',#454,0.1);
#454 = AXIS2_PLACEMENT_3D('',#455,#456,#457);
#455 = CARTESIAN_POINT('',(11.2,1.6,0.3));
#456 = DIRECTION('',(-1.,0.,0.));
#457 = DIRECTION('',(0.,-1.,0.));
#458 = ORIENTED_EDGE('',*,*,#459,.T.);
#459 = EDGE_CURVE('',#451,#401,#460,.T.);
#460 = CIRCLE('',#461,0.5);
#461 = AXIS2_PLACEMENT_3D('',#462,#463,#464);
#462 = CARTESIAN_POINT('',(11.2,1.,0.3));
#463 = DIRECTION('',(0.,0.,-1.));
#464 = DIRECTION('',(0.,1.,0.));
#465 = ORIENTED_EDGE('',*,*,#400,.T.);
#466 = ORIENTED_EDGE('',*,*,#144,.F.);
#467 = TOROIDAL_SURFACE('',#468,0.6,0.1);
#468 = AXIS2_PLACEMENT_3D('',#469,#470,#471);
#469 = CARTESIAN_POINT('',(11.2,1.,0.3));
#470 = DIRECTION('',(-0.,-0.,-1.));
#471 = DIRECTION('',(0.,1.,0.));
#472 = ADVANCED_FACE('',(#473),#493,.T.);
#473 = FACE_BOUND('',#474,.T.);
#474 = EDGE_LOOP('',(#475,#476,#485,#492));
#475 = ORIENTED_EDGE('',*,*,#427,.F.);
#476 = ORIENTED_EDGE('',*,*,#477,.T.);
#477 = EDGE_CURVE('',#428,#478,#480,.T.);
#478 = VERTEX_POINT('',#479);
#479 = CARTESIAN_POINT('',(16.9,17.4,0.3));
#480 = CIRCLE('',#481,0.5);
#481 = AXIS2_PLACEMENT_3D('',#482,#483,#484);
#482 = CARTESIAN_POINT('',(16.9,16.9,0.3));
#483 = DIRECTION('',(0.,0.,1.));
#484 = DIRECTION('',(1.,0.,0.));
#485 = ORIENTED_EDGE('',*,*,#486,.T.);
#486 = EDGE_CURVE('',#478,#60,#487,.T.);
#487 = CIRCLE('',#488,0.1);
#488 = AXIS2_PLACEMENT_3D('',#489,#490,#491);
#489 = CARTESIAN_POINT('',(16.9,17.3,0.3));
#490 = DIRECTION('',(1.,-6.E-17,0.));
#491 = DIRECTION('',(6.E-17,1.,0.));
#492 = ORIENTED_EDGE('',*,*,#59,.F.);
#493 = TOROIDAL_SURFACE('',#494,0.4,0.1);
#494 = AXIS2_PLACEMENT_3D('',#495,#496,#497);
#495 = CARTESIAN_POINT('',(16.9,16.9,0.3));
#496 = DIRECTION('',(0.,0.,1.));
#497 = DIRECTION('',(1.,0.,0.));
#498 = ADVANCED_FACE('',(#499),#518,.T.);
#499 = FACE_BOUND('',#500,.F.);
#500 = EDGE_LOOP('',(#501,#510,#511,#512));
#501 = ORIENTED_EDGE('',*,*,#502,.T.);
#502 = EDGE_CURVE('',#503,#128,#505,.T.);
#503 = VERTEX_POINT('',#504);
#504 = CARTESIAN_POINT('',(6.2,1.5,0.3));
#505 = CIRCLE('',#506,0.1);
#506 = AXIS2_PLACEMENT_3D('',#507,#508,#509);
#507 = CARTESIAN_POINT('',(6.2,1.6,0.3));
#508 = DIRECTION('',(-1.,-6.E-17,-0.));
#509 = DIRECTION('',(-6.E-17,1.,0.));
#510 = ORIENTED_EDGE('',*,*,#136,.T.);
#511 = ORIENTED_EDGE('',*,*,#450,.F.);
#512 = ORIENTED_EDGE('',*,*,#513,.F.);
#513 = EDGE_CURVE('',#503,#451,#514,.T.);
#514 = LINE('',#515,#516);
#515 = CARTESIAN_POINT('',(6.2,1.5,0.3));
#516 = VECTOR('',#517,1.);
#517 = DIRECTION('',(1.,0.,0.));
#518 = CYLINDRICAL_SURFACE('',#519,0.1);
#519 = AXIS2_PLACEMENT_3D('',#520,#521,#522);
#520 = CARTESIAN_POINT('',(6.2,1.6,0.3));
#521 = DIRECTION('',(1.,0.,0.));
#522 = DIRECTION('',(0.,-1.,0.));
#523 = ADVANCED_FACE('',(#524),#543,.T.);
#524 = FACE_BOUND('',#525,.F.);
#525 = EDGE_LOOP('',(#526,#527,#528,#537));
#526 = ORIENTED_EDGE('',*,*,#486,.T.);
#527 = ORIENTED_EDGE('',*,*,#68,.T.);
#528 = ORIENTED_EDGE('',*,*,#529,.F.);
#529 = EDGE_CURVE('',#530,#69,#532,.T.);
#530 = VERTEX_POINT('',#531);
#531 = CARTESIAN_POINT('',(0.5,17.4,0.3));
#532 = CIRCLE('',#533,0.1);
#533 = AXIS2_PLACEMENT_3D('',#534,#535,#536);
#534 = CARTESIAN_POINT('',(0.5,17.3,0.3));
#535 = DIRECTION('',(1.,0.,0.));
#536 = DIRECTION('',(0.,1.,0.));
#537 = ORIENTED_EDGE('',*,*,#538,.F.);
#538 = EDGE_CURVE('',#478,#530,#539,.T.);
#539 = LINE('',#540,#541);
#540 = CARTESIAN_POINT('',(16.9,17.4,0.3));
#541 = VECTOR('',#542,1.);
#542 = DIRECTION('',(-1.,0.,0.));
#543 = CYLINDRICAL_SURFACE('',#544,0.1);
#544 = AXIS2_PLACEMENT_3D('',#545,#546,#547);
#545 = CARTESIAN_POINT('',(16.9,17.3,0.3));
#546 = DIRECTION('',(-1.,0.,0.));
#547 = DIRECTION('',(0.,1.,0.));
#548 = ADVANCED_FACE('',(#549),#569,.T.);
#549 = FACE_BOUND('',#550,.T.);
#550 = EDGE_LOOP('',(#551,#560,#567,#568));
#551 = ORIENTED_EDGE('',*,*,#552,.F.);
#552 = EDGE_CURVE('',#553,#120,#555,.T.);
#553 = VERTEX_POINT('',#554);
#554 = CARTESIAN_POINT('',(5.7,1.,0.3));
#555 = CIRCLE('',#556,0.1);
#556 = AXIS2_PLACEMENT_3D('',#557,#558,#559);
#557 = CARTESIAN_POINT('',(5.6,1.,0.3));
#558 = DIRECTION('',(0.,-1.,0.));
#559 = DIRECTION('',(1.,0.,0.));
#560 = ORIENTED_EDGE('',*,*,#561,.T.);
#561 = EDGE_CURVE('',#553,#503,#562,.T.);
#562 = CIRCLE('',#563,0.5);
#563 = AXIS2_PLACEMENT_3D('',#564,#565,#566);
#564 = CARTESIAN_POINT('',(6.2,1.,0.3));
#565 = DIRECTION('',(0.,0.,-1.));
#566 = DIRECTION('',(-1.,0.,0.));
#567 = ORIENTED_EDGE('',*,*,#502,.T.);
#568 = ORIENTED_EDGE('',*,*,#127,.F.);
#569 = TOROIDAL_SURFACE('',#570,0.6,0.1);
#570 = AXIS2_PLACEMENT_3D('',#571,#572,#573);
#571 = CARTESIAN_POINT('',(6.2,1.,0.3));
#572 = DIRECTION('',(-0.,-0.,-1.));
#573 = DIRECTION('',(-1.,0.,0.));
#574 = ADVANCED_FACE('',(#575),#595,.T.);
#575 = FACE_BOUND('',#576,.T.);
#576 = EDGE_LOOP('',(#577,#578,#587,#594));
#577 = ORIENTED_EDGE('',*,*,#529,.F.);
#578 = ORIENTED_EDGE('',*,*,#579,.T.);
#579 = EDGE_CURVE('',#530,#580,#582,.T.);
#580 = VERTEX_POINT('',#581);
#581 = CARTESIAN_POINT('',(0.,16.9,0.3));
#582 = CIRCLE('',#583,0.5);
#583 = AXIS2_PLACEMENT_3D('',#584,#585,#586);
#584 = CARTESIAN_POINT('',(0.5,16.9,0.3));
#585 = DIRECTION('',(0.,0.,1.));
#586 = DIRECTION('',(-3.3E-16,1.,0.));
#587 = ORIENTED_EDGE('',*,*,#588,.T.);
#588 = EDGE_CURVE('',#580,#77,#589,.T.);
#589 = CIRCLE('',#590,0.1);
#590 = AXIS2_PLACEMENT_3D('',#591,#592,#593);
#591 = CARTESIAN_POINT('',(1.E-01,16.9,0.3));
#592 = DIRECTION('',(-2.7E-16,1.,0.));
#593 = DIRECTION('',(-1.,-2.7E-16,0.));
#594 = ORIENTED_EDGE('',*,*,#76,.F.);
#595 = TOROIDAL_SURFACE('',#596,0.4,0.1);
#596 = AXIS2_PLACEMENT_3D('',#597,#598,#599);
#597 = CARTESIAN_POINT('',(0.5,16.9,0.3));
#598 = DIRECTION('',(0.,0.,1.));
#599 = DIRECTION('',(-3.3E-16,1.,0.));
#600 = ADVANCED_FACE('',(#601),#620,.T.);
#601 = FACE_BOUND('',#602,.F.);
#602 = EDGE_LOOP('',(#603,#612,#613,#614));
#603 = ORIENTED_EDGE('',*,*,#604,.T.);
#604 = EDGE_CURVE('',#605,#111,#607,.T.);
#605 = VERTEX_POINT('',#606);
#606 = CARTESIAN_POINT('',(5.7,0.5,0.3));
#607 = CIRCLE('',#608,0.1);
#608 = AXIS2_PLACEMENT_3D('',#609,#610,#611);
#609 = CARTESIAN_POINT('',(5.6,0.5,0.3));
#610 = DIRECTION('',(-6.E-17,-1.,0.));
#611 = DIRECTION('',(1.,-6.E-17,0.));
#612 = ORIENTED_EDGE('',*,*,#119,.T.);
#613 = ORIENTED_EDGE('',*,*,#552,.F.);
#614 = ORIENTED_EDGE('',*,*,#615,.F.);
#615 = EDGE_CURVE('',#605,#553,#616,.T.);
#616 = LINE('',#617,#618);
#617 = CARTESIAN_POINT('',(5.7,0.5,0.3));
#618 = VECTOR('',#619,1.);
#619 = DIRECTION('',(0.,1.,0.));
#620 = CYLINDRICAL_SURFACE('',#621,0.1);
#621 = AXIS2_PLACEMENT_3D('',#622,#623,#624);
#622 = CARTESIAN_POINT('',(5.6,0.5,0.3));
#623 = DIRECTION('',(0.,1.,0.));
#624 = DIRECTION('',(1.,0.,0.));
#625 = ADVANCED_FACE('',(#626),#645,.T.);
#626 = FACE_BOUND('',#627,.F.);
#627 = EDGE_LOOP('',(#628,#629,#630,#639));
#628 = ORIENTED_EDGE('',*,*,#588,.T.);
#629 = ORIENTED_EDGE('',*,*,#85,.T.);
#630 = ORIENTED_EDGE('',*,*,#631,.F.);
#631 = EDGE_CURVE('',#632,#86,#634,.T.);
#632 = VERTEX_POINT('',#633);
#633 = CARTESIAN_POINT('',(0.,0.5,0.3));
#634 = CIRCLE('',#635,0.1);
#635 = AXIS2_PLACEMENT_3D('',#636,#637,#638);
#636 = CARTESIAN_POINT('',(1.E-01,0.5,0.3));
#637 = DIRECTION('',(0.,1.,-0.));
#638 = DIRECTION('',(-1.,0.,0.));
#639 = ORIENTED_EDGE('',*,*,#640,.F.);
#640 = EDGE_CURVE('',#580,#632,#641,.T.);
#641 = LINE('',#642,#643);
#642 = CARTESIAN_POINT('',(-1.E-17,16.9,0.3));
#643 = VECTOR('',#644,1.);
#644 = DIRECTION('',(0.,-1.,0.));
#645 = CYLINDRICAL_SURFACE('',#646,0.1);
#646 = AXIS2_PLACEMENT_3D('',#647,#648,#649);
#647 = CARTESIAN_POINT('',(1.E-01,16.9,0.3));
#648 = DIRECTION('',(0.,-1.,0.));
#649 = DIRECTION('',(-1.,0.,0.));
#650 = ADVANCED_FACE('',(#651),#671,.T.);
#651 = FACE_BOUND('',#652,.T.);
#652 = EDGE_LOOP('',(#653,#662,#669,#670));
#653 = ORIENTED_EDGE('',*,*,#654,.F.);
#654 = EDGE_CURVE('',#655,#103,#657,.T.);
#655 = VERTEX_POINT('',#656);
#656 = CARTESIAN_POINT('',(5.2,0.,0.3));
#657 = CIRCLE('',#658,0.1);
#658 = AXIS2_PLACEMENT_3D('',#659,#660,#661);
#659 = CARTESIAN_POINT('',(5.2,1.E-01,0.3));
#660 = DIRECTION('',(-1.,0.,0.));
#661 = DIRECTION('',(0.,-1.,0.));
#662 = ORIENTED_EDGE('',*,*,#663,.T.);
#663 = EDGE_CURVE('',#655,#605,#664,.T.);
#664 = CIRCLE('',#665,0.5);
#665 = AXIS2_PLACEMENT_3D('',#666,#667,#668);
#666 = CARTESIAN_POINT('',(5.2,0.5,0.3));
#667 = DIRECTION('',(-0.,0.,1.));
#668 = DIRECTION('',(0.,-1.,0.));
#669 = ORIENTED_EDGE('',*,*,#604,.T.);
#670 = ORIENTED_EDGE('',*,*,#110,.F.);
#671 = TOROIDAL_SURFACE('',#672,0.4,0.1);
#672 = AXIS2_PLACEMENT_3D('',#673,#674,#675);
#673 = CARTESIAN_POINT('',(5.2,0.5,0.3));
#674 = DIRECTION('',(0.,0.,1.));
#675 = DIRECTION('',(0.,-1.,0.));
#676 = ADVANCED_FACE('',(#677),#697,.T.);
#677 = FACE_BOUND('',#678,.T.);
#678 = EDGE_LOOP('',(#679,#680,#689,#696));
#679 = ORIENTED_EDGE('',*,*,#631,.F.);
#680 = ORIENTED_EDGE('',*,*,#681,.T.);
#681 = EDGE_CURVE('',#632,#682,#684,.T.);
#682 = VERTEX_POINT('',#683);
#683 = CARTESIAN_POINT('',(0.5,0.,0.3));
#684 = CIRCLE('',#685,0.5);
#685 = AXIS2_PLACEMENT_3D('',#686,#687,#688);
#686 = CARTESIAN_POINT('',(0.5,0.5,0.3));
#687 = DIRECTION('',(0.,0.,1.));
#688 = DIRECTION('',(-1.,-3.3E-16,0.));
#689 = ORIENTED_EDGE('',*,*,#690,.T.);
#690 = EDGE_CURVE('',#682,#94,#691,.T.);
#691 = CIRCLE('',#692,0.1);
#692 = AXIS2_PLACEMENT_3D('',#693,#694,#695);
#693 = CARTESIAN_POINT('',(0.5,1.E-01,0.3));
#694 = DIRECTION('',(-1.,-2.7E-16,0.));
#695 = DIRECTION('',(2.7E-16,-1.,0.));
#696 = ORIENTED_EDGE('',*,*,#93,.F.);
#697 = TOROIDAL_SURFACE('',#698,0.4,0.1);
#698 = AXIS2_PLACEMENT_3D('',#699,#700,#701);
#699 = CARTESIAN_POINT('',(0.5,0.5,0.3));
#700 = DIRECTION('',(0.,0.,1.));
#701 = DIRECTION('',(-1.,-3.3E-16,0.));
#702 = ADVANCED_FACE('',(#703),#714,.T.);
#703 = FACE_BOUND('',#704,.F.);
#704 = EDGE_LOOP('',(#705,#706,#707,#708));
#705 = ORIENTED_EDGE('',*,*,#690,.T.);
#706 = ORIENTED_EDGE('',*,*,#102,.T.);
#707 = ORIENTED_EDGE('',*,*,#654,.F.);
#708 = ORIENTED_EDGE('',*,*,#709,.F.);
#709 = EDGE_CURVE('',#682,#655,#710,.T.);
#710 = LINE('',#711,#712);
#711 = CARTESIAN_POINT('',(0.5,-1.E-17,0.3));
#712 = VECTOR('',#713,1.);
#713 = DIRECTION('',(1.,0.,0.));
#714 = CYLINDRICAL_SURFACE('',#715,0.1);
#715 = AXIS2_PLACEMENT_3D('',#716,#717,#718);
#716 = CARTESIAN_POINT('',(0.5,1.E-01,0.3));
#717 = DIRECTION('',(1.,0.,0.));
#718 = DIRECTION('',(0.,-1.,0.));
#719 = ADVANCED_FACE('',(#720),#745,.F.);
#720 = FACE_BOUND('',#721,.F.);
#721 = EDGE_LOOP('',(#722,#730,#738,#744));
#722 = ORIENTED_EDGE('',*,*,#723,.T.);
#723 = EDGE_CURVE('',#171,#724,#726,.T.);
#724 = VERTEX_POINT('',#725);
#725 = CARTESIAN_POINT('',(6.45,14.2,2.4));
#726 = LINE('',#727,#728);
#727 = CARTESIAN_POINT('',(6.45,14.2,0.4));
#728 = VECTOR('',#729,1.);
#729 = DIRECTION('',(0.,0.,1.));
#730 = ORIENTED_EDGE('',*,*,#731,.T.);
#731 = EDGE_CURVE('',#724,#732,#734,.T.);
#732 = VERTEX_POINT('',#733);
#733 = CARTESIAN_POINT('',(6.45,13.7,2.4));
#734 = LINE('',#735,#736);
#735 = CARTESIAN_POINT('',(6.45,14.2,2.4));
#736 = VECTOR('',#737,1.);
#737 = DIRECTION('',(0.,-1.,0.));
#738 = ORIENTED_EDGE('',*,*,#739,.F.);
#739 = EDGE_CURVE('',#173,#732,#740,.T.);
#740 = LINE('',#741,#742);
#741 = CARTESIAN_POINT('',(6.45,13.7,0.4));
#742 = VECTOR('',#743,1.);
#743 = DIRECTION('',(0.,0.,1.));
#744 = ORIENTED_EDGE('',*,*,#170,.F.);
#745 = PLANE('',#746);
#746 = AXIS2_PLACEMENT_3D('',#747,#748,#749);
#747 = CARTESIAN_POINT('',(6.45,15.2,0.4));
#748 = DIRECTION('',(1.,0.,0.));
#749 = DIRECTION('',(0.,-1.,0.));
#750 = ADVANCED_FACE('',(#751),#770,.T.);
#751 = FACE_BOUND('',#752,.F.);
#752 = EDGE_LOOP('',(#753,#754,#755,#763));
#753 = ORIENTED_EDGE('',*,*,#723,.F.);
#754 = ORIENTED_EDGE('',*,*,#180,.T.);
#755 = ORIENTED_EDGE('',*,*,#756,.T.);
#756 = EDGE_CURVE('',#181,#757,#759,.T.);
#757 = VERTEX_POINT('',#758);
#758 = CARTESIAN_POINT('',(7.45,15.2,2.4));
#759 = LINE('',#760,#761);
#760 = CARTESIAN_POINT('',(7.45,15.2,0.4));
#761 = VECTOR('',#762,1.);
#762 = DIRECTION('',(0.,0.,1.));
#763 = ORIENTED_EDGE('',*,*,#764,.T.);
#764 = EDGE_CURVE('',#757,#724,#765,.T.);
#765 = CIRCLE('',#766,1.);
#766 = AXIS2_PLACEMENT_3D('',#767,#768,#769);
#767 = CARTESIAN_POINT('',(7.45,14.2,2.4));
#768 = DIRECTION('',(0.,-0.,1.));
#769 = DIRECTION('',(0.,1.,0.));
#770 = CYLINDRICAL_SURFACE('',#771,1.);
#771 = AXIS2_PLACEMENT_3D('',#772,#773,#774);
#772 = CARTESIAN_POINT('',(7.45,14.2,0.4));
#773 = DIRECTION('',(0.,0.,1.));
#774 = DIRECTION('',(-1.,0.,0.));
#775 = ADVANCED_FACE('',(#776),#795,.T.);
#776 = FACE_BOUND('',#777,.T.);
#777 = EDGE_LOOP('',(#778,#779,#780,#788));
#778 = ORIENTED_EDGE('',*,*,#739,.F.);
#779 = ORIENTED_EDGE('',*,*,#231,.T.);
#780 = ORIENTED_EDGE('',*,*,#781,.T.);
#781 = EDGE_CURVE('',#224,#782,#784,.T.);
#782 = VERTEX_POINT('',#783);
#783 = CARTESIAN_POINT('',(7.45,12.7,2.4));
#784 = LINE('',#785,#786);
#785 = CARTESIAN_POINT('',(7.45,12.7,0.4));
#786 = VECTOR('',#787,1.);
#787 = DIRECTION('',(0.,0.,1.));
#788 = ORIENTED_EDGE('',*,*,#789,.F.);
#789 = EDGE_CURVE('',#732,#782,#790,.T.);
#790 = CIRCLE('',#791,1.);
#791 = AXIS2_PLACEMENT_3D('',#792,#793,#794);
#792 = CARTESIAN_POINT('',(7.45,13.7,2.4));
#793 = DIRECTION('',(0.,0.,1.));
#794 = DIRECTION('',(-1.,0.,0.));
#795 = CYLINDRICAL_SURFACE('',#796,1.);
#796 = AXIS2_PLACEMENT_3D('',#797,#798,#799);
#797 = CARTESIAN_POINT('',(7.45,13.7,0.4));
#798 = DIRECTION('',(0.,0.,1.));
#799 = DIRECTION('',(-1.,0.,0.));
#800 = ADVANCED_FACE('',(#801),#819,.F.);
#801 = FACE_BOUND('',#802,.F.);
#802 = EDGE_LOOP('',(#803,#811,#817,#818));
#803 = ORIENTED_EDGE('',*,*,#804,.T.);
#804 = EDGE_CURVE('',#190,#805,#807,.T.);
#805 = VERTEX_POINT('',#806);
#806 = CARTESIAN_POINT('',(9.95,15.2,2.4));
#807 = LINE('',#808,#809);
#808 = CARTESIAN_POINT('',(9.95,15.2,0.4));
#809 = VECTOR('',#810,1.);
#810 = DIRECTION('',(0.,0.,1.));
#811 = ORIENTED_EDGE('',*,*,#812,.T.);
#812 = EDGE_CURVE('',#805,#757,#813,.T.);
#813 = LINE('',#814,#815);
#814 = CARTESIAN_POINT('',(9.95,15.2,2.4));
#815 = VECTOR('',#816,1.);
#816 = DIRECTION('',(-1.,0.,0.));
#817 = ORIENTED_EDGE('',*,*,#756,.F.);
#818 = ORIENTED_EDGE('',*,*,#189,.F.);
#819 = PLANE('',#820);
#820 = AXIS2_PLACEMENT_3D('',#821,#822,#823);
#821 = CARTESIAN_POINT('',(10.95,15.2,0.4));
#822 = DIRECTION('',(0.,-1.,0.));
#823 = DIRECTION('',(-1.,0.,0.));
#824 = ADVANCED_FACE('',(#825),#843,.F.);
#825 = FACE_BOUND('',#826,.F.);
#826 = EDGE_LOOP('',(#827,#828,#836,#842));
#827 = ORIENTED_EDGE('',*,*,#781,.T.);
#828 = ORIENTED_EDGE('',*,*,#829,.T.);
#829 = EDGE_CURVE('',#782,#830,#832,.T.);
#830 = VERTEX_POINT('',#831);
#831 = CARTESIAN_POINT('',(9.95,12.7,2.4));
#832 = LINE('',#833,#834);
#833 = CARTESIAN_POINT('',(7.45,12.7,2.4));
#834 = VECTOR('',#835,1.);
#835 = DIRECTION('',(1.,0.,0.));
#836 = ORIENTED_EDGE('',*,*,#837,.F.);
#837 = EDGE_CURVE('',#215,#830,#838,.T.);
#838 = LINE('',#839,#840);
#839 = CARTESIAN_POINT('',(9.95,12.7,0.4));
#840 = VECTOR('',#841,1.);
#841 = DIRECTION('',(0.,0.,1.));
#842 = ORIENTED_EDGE('',*,*,#223,.F.);
#843 = PLANE('',#844);
#844 = AXIS2_PLACEMENT_3D('',#845,#846,#847);
#845 = CARTESIAN_POINT('',(6.45,12.7,0.4));
#846 = DIRECTION('',(0.,1.,0.));
#847 = DIRECTION('',(1.,0.,0.));
#848 = ADVANCED_FACE('',(#849),#868,.T.);
#849 = FACE_BOUND('',#850,.T.);
#850 = EDGE_LOOP('',(#851,#859,#860,#861));
#851 = ORIENTED_EDGE('',*,*,#852,.F.);
#852 = EDGE_CURVE('',#198,#853,#855,.T.);
#853 = VERTEX_POINT('',#854);
#854 = CARTESIAN_POINT('',(10.95,14.2,2.4));
#855 = LINE('',#856,#857);
#856 = CARTESIAN_POINT('',(10.95,14.2,0.4));
#857 = VECTOR('',#858,1.);
#858 = DIRECTION('',(0.,0.,1.));
#859 = ORIENTED_EDGE('',*,*,#197,.T.);
#860 = ORIENTED_EDGE('',*,*,#804,.T.);
#861 = ORIENTED_EDGE('',*,*,#862,.F.);
#862 = EDGE_CURVE('',#853,#805,#863,.T.);
#863 = CIRCLE('',#864,1.);
#864 = AXIS2_PLACEMENT_3D('',#865,#866,#867);
#865 = CARTESIAN_POINT('',(9.95,14.2,2.4));
#866 = DIRECTION('',(0.,0.,1.));
#867 = DIRECTION('',(1.,0.,0.));
#868 = CYLINDRICAL_SURFACE('',#869,1.);
#869 = AXIS2_PLACEMENT_3D('',#870,#871,#872);
#870 = CARTESIAN_POINT('',(9.95,14.2,0.4));
#871 = DIRECTION('',(0.,0.,1.));
#872 = DIRECTION('',(1.,0.,0.));
#873 = ADVANCED_FACE('',(#874),#893,.T.);
#874 = FACE_BOUND('',#875,.T.);
#875 = EDGE_LOOP('',(#876,#877,#878,#886));
#876 = ORIENTED_EDGE('',*,*,#837,.F.);
#877 = ORIENTED_EDGE('',*,*,#214,.T.);
#878 = ORIENTED_EDGE('',*,*,#879,.T.);
#879 = EDGE_CURVE('',#207,#880,#882,.T.);
#880 = VERTEX_POINT('',#881);
#881 = CARTESIAN_POINT('',(10.95,13.7,2.4));
#882 = LINE('',#883,#884);
#883 = CARTESIAN_POINT('',(10.95,13.7,0.4));
#884 = VECTOR('',#885,1.);
#885 = DIRECTION('',(0.,0.,1.));
#886 = ORIENTED_EDGE('',*,*,#887,.F.);
#887 = EDGE_CURVE('',#830,#880,#888,.T.);
#888 = CIRCLE('',#889,1.);
#889 = AXIS2_PLACEMENT_3D('',#890,#891,#892);
#890 = CARTESIAN_POINT('',(9.95,13.7,2.4));
#891 = DIRECTION('',(-0.,0.,1.));
#892 = DIRECTION('',(0.,-1.,0.));
#893 = CYLINDRICAL_SURFACE('',#894,1.);
#894 = AXIS2_PLACEMENT_3D('',#895,#896,#897);
#895 = CARTESIAN_POINT('',(9.95,13.7,0.4));
#896 = DIRECTION('',(0.,0.,1.));
#897 = DIRECTION('',(0.,-1.,0.));
#898 = ADVANCED_FACE('',(#899),#910,.F.);
#899 = FACE_BOUND('',#900,.F.);
#900 = EDGE_LOOP('',(#901,#902,#908,#909));
#901 = ORIENTED_EDGE('',*,*,#879,.T.);
#902 = ORIENTED_EDGE('',*,*,#903,.T.);
#903 = EDGE_CURVE('',#880,#853,#904,.T.);
#904 = LINE('',#905,#906);
#905 = CARTESIAN_POINT('',(10.95,13.7,2.4));
#906 = VECTOR('',#907,1.);
#907 = DIRECTION('',(0.,1.,0.));
#908 = ORIENTED_EDGE('',*,*,#852,.F.);
#909 = ORIENTED_EDGE('',*,*,#206,.F.);
#910 = PLANE('',#911);
#911 = AXIS2_PLACEMENT_3D('',#912,#913,#914);
#912 = CARTESIAN_POINT('',(10.95,12.7,0.4));
#913 = DIRECTION('',(-1.,0.,0.));
#914 = DIRECTION('',(0.,1.,0.));
#915 = ADVANCED_FACE('',(#916),#935,.F.);
#916 = FACE_BOUND('',#917,.T.);
#917 = EDGE_LOOP('',(#918,#926,#927,#928));
#918 = ORIENTED_EDGE('',*,*,#919,.F.);
#919 = EDGE_CURVE('',#241,#920,#922,.T.);
#920 = VERTEX_POINT('',#921);
#921 = CARTESIAN_POINT('',(15.7,14.7,0.25));
#922 = LINE('',#923,#924);
#923 = CARTESIAN_POINT('',(15.7,14.7,0.25));
#924 = VECTOR('',#925,1.);
#925 = DIRECTION('',(-0.707106781187,-0.,-0.707106781187));
#926 = ORIENTED_EDGE('',*,*,#240,.T.);
#927 = ORIENTED_EDGE('',*,*,#919,.T.);
#928 = ORIENTED_EDGE('',*,*,#929,.F.);
#929 = EDGE_CURVE('',#920,#920,#930,.T.);
#930 = CIRCLE('',#931,1.);
#931 = AXIS2_PLACEMENT_3D('',#932,#933,#934);
#932 = CARTESIAN_POINT('',(14.7,14.7,0.25));
#933 = DIRECTION('',(0.,0.,1.));
#934 = DIRECTION('',(1.,0.,-0.));
#935 = CONICAL_SURFACE('',#936,1.,0.785398163397);
#936 = AXIS2_PLACEMENT_3D('',#937,#938,#939);
#937 = CARTESIAN_POINT('',(14.7,14.7,0.25));
#938 = DIRECTION('',(0.,0.,1.));
#939 = DIRECTION('',(1.,0.,0.));
#940 = ADVANCED_FACE('',(#941),#960,.F.);
#941 = FACE_BOUND('',#942,.T.);
#942 = EDGE_LOOP('',(#943,#951,#952,#953));
#943 = ORIENTED_EDGE('',*,*,#944,.F.);
#944 = EDGE_CURVE('',#252,#945,#947,.T.);
#945 = VERTEX_POINT('',#946);
#946 = CARTESIAN_POINT('',(3.7,14.7,0.25));
#947 = LINE('',#948,#949);
#948 = CARTESIAN_POINT('',(3.7,14.7,0.25));
#949 = VECTOR('',#950,1.);
#950 = DIRECTION('',(-0.707106781187,-0.,-0.707106781187));
#951 = ORIENTED_EDGE('',*,*,#251,.T.);
#952 = ORIENTED_EDGE('',*,*,#944,.T.);
#953 = ORIENTED_EDGE('',*,*,#954,.F.);
#954 = EDGE_CURVE('',#945,#945,#955,.T.);
#955 = CIRCLE('',#956,1.);
#956 = AXIS2_PLACEMENT_3D('',#957,#958,#959);
#957 = CARTESIAN_POINT('',(2.7,14.7,0.25));
#958 = DIRECTION('',(0.,0.,1.));
#959 = DIRECTION('',(1.,0.,-0.));
#960 = CONICAL_SURFACE('',#961,1.,0.785398163397);
#961 = AXIS2_PLACEMENT_3D('',#962,#963,#964);
#962 = CARTESIAN_POINT('',(2.7,14.7,0.25));
#963 = DIRECTION('',(0.,0.,1.));
#964 = DIRECTION('',(1.,0.,0.));
#965 = ADVANCED_FACE('',(#966),#985,.F.);
#966 = FACE_BOUND('',#967,.T.);
#967 = EDGE_LOOP('',(#968,#976,#977,#978));
#968 = ORIENTED_EDGE('',*,*,#969,.F.);
#969 = EDGE_CURVE('',#263,#970,#972,.T.);
#970 = VERTEX_POINT('',#971);
#971 = CARTESIAN_POINT('',(3.7,2.7,0.25));
#972 = LINE('',#973,#974);
#973 = CARTESIAN_POINT('',(3.7,2.7,0.25));
#974 = VECTOR('',#975,1.);
#975 = DIRECTION('',(-0.707106781187,-0.,-0.707106781187));
#976 = ORIENTED_EDGE('',*,*,#262,.T.);
#977 = ORIENTED_EDGE('',*,*,#969,.T.);
#978 = ORIENTED_EDGE('',*,*,#979,.F.);
#979 = EDGE_CURVE('',#970,#970,#980,.T.);
#980 = CIRCLE('',#981,1.);
#981 = AXIS2_PLACEMENT_3D('',#982,#983,#984);
#982 = CARTESIAN_POINT('',(2.7,2.7,0.25));
#983 = DIRECTION('',(0.,0.,1.));
#984 = DIRECTION('',(1.,0.,-0.));
#985 = CONICAL_SURFACE('',#986,1.,0.785398163397);
#986 = AXIS2_PLACEMENT_3D('',#987,#988,#989);
#987 = CARTESIAN_POINT('',(2.7,2.7,0.25));
#988 = DIRECTION('',(0.,0.,1.));
#989 = DIRECTION('',(1.,0.,0.));
#990 = ADVANCED_FACE('',(#991),#1010,.F.);
#991 = FACE_BOUND('',#992,.T.);
#992 = EDGE_LOOP('',(#993,#1001,#1002,#1003));
#993 = ORIENTED_EDGE('',*,*,#994,.F.);
#994 = EDGE_CURVE('',#274,#995,#997,.T.);
#995 = VERTEX_POINT('',#996);
#996 = CARTESIAN_POINT('',(15.7,2.7,0.25));
#997 = LINE('',#998,#999);
#998 = CARTESIAN_POINT('',(15.7,2.7,0.25));
#999 = VECTOR('',#1000,1.);
#1000 = DIRECTION('',(-0.707106781187,-0.,-0.707106781187));
#1001 = ORIENTED_EDGE('',*,*,#273,.T.);
#1002 = ORIENTED_EDGE('',*,*,#994,.T.);
#1003 = ORIENTED_EDGE('',*,*,#1004,.F.);
#1004 = EDGE_CURVE('',#995,#995,#1005,.T.);
#1005 = CIRCLE('',#1006,1.);
#1006 = AXIS2_PLACEMENT_3D('',#1007,#1008,#1009);
#1007 = CARTESIAN_POINT('',(14.7,2.7,0.25));
#1008 = DIRECTION('',(0.,0.,1.));
#1009 = DIRECTION('',(1.,0.,-0.));
#1010 = CONICAL_SURFACE('',#1011,1.,0.785398163397);
#1011 = AXIS2_PLACEMENT_3D('',#1012,#1013,#1014);
#1012 = CARTESIAN_POINT('',(14.7,2.7,0.25));
#1013 = DIRECTION('',(0.,0.,1.));
#1014 = DIRECTION('',(1.,0.,0.));
#1015 = ADVANCED_FACE('',(#1016),#1035,.F.);
#1016 = FACE_BOUND('',#1017,.F.);
#1017 = EDGE_LOOP('',(#1018,#1026,#1027,#1028));
#1018 = ORIENTED_EDGE('',*,*,#1019,.F.);
#1019 = EDGE_CURVE('',#291,#1020,#1022,.T.);
#1020 = VERTEX_POINT('',#1021);
#1021 = CARTESIAN_POINT('',(9.7,8.7,0.15));
#1022 = LINE('',#1023,#1024);
#1023 = CARTESIAN_POINT('',(9.7,8.7,0.4));
#1024 = VECTOR('',#1025,1.);
#1025 = DIRECTION('',(-0.,-0.,-1.));
#1026 = ORIENTED_EDGE('',*,*,#300,.F.);
#1027 = ORIENTED_EDGE('',*,*,#1019,.T.);
#1028 = ORIENTED_EDGE('',*,*,#1029,.T.);
#1029 = EDGE_CURVE('',#1020,#1020,#1030,.T.);
#1030 = CIRCLE('',#1031,1.);
#1031 = AXIS2_PLACEMENT_3D('',#1032,#1033,#1034);
#1032 = CARTESIAN_POINT('',(8.7,8.7,0.15));
#1033 = DIRECTION('',(0.,0.,1.));
#1034 = DIRECTION('',(1.,0.,-0.));
#1035 = CYLINDRICAL_SURFACE('',#1036,1.);
#1036 = AXIS2_PLACEMENT_3D('',#1037,#1038,#1039);
#1037 = CARTESIAN_POINT('',(8.7,8.7,0.4));
#1038 = DIRECTION('',(0.,0.,1.));
#1039 = DIRECTION('',(1.,0.,0.));
#1040 = ADVANCED_FACE('',(#1041),#1066,.F.);
#1041 = FACE_BOUND('',#1042,.F.);
#1042 = EDGE_LOOP('',(#1043,#1051,#1052,#1060));
#1043 = ORIENTED_EDGE('',*,*,#1044,.F.);
#1044 = EDGE_CURVE('',#316,#1045,#1047,.T.);
#1045 = VERTEX_POINT('',#1046);
#1046 = CARTESIAN_POINT('',(12.2,0.,0.15));
#1047 = LINE('',#1048,#1049);
#1048 = CARTESIAN_POINT('',(12.2,-1.1E-16,0.4));
#1049 = VECTOR('',#1050,1.);
#1050 = DIRECTION('',(-0.,-0.,-1.));
#1051 = ORIENTED_EDGE('',*,*,#334,.T.);
#1052 = ORIENTED_EDGE('',*,*,#1053,.F.);
#1053 = EDGE_CURVE('',#1054,#326,#1056,.T.);
#1054 = VERTEX_POINT('',#1055);
#1055 = CARTESIAN_POINT('',(16.9,0.,0.15));
#1056 = LINE('',#1057,#1058);
#1057 = CARTESIAN_POINT('',(16.9,-1.1E-16,0.));
#1058 = VECTOR('',#1059,1.);
#1059 = DIRECTION('',(0.,0.,1.));
#1060 = ORIENTED_EDGE('',*,*,#1061,.F.);
#1061 = EDGE_CURVE('',#1045,#1054,#1062,.T.);
#1062 = LINE('',#1063,#1064);
#1063 = CARTESIAN_POINT('',(12.2,0.,0.15));
#1064 = VECTOR('',#1065,1.);
#1065 = DIRECTION('',(1.,0.,0.));
#1066 = PLANE('',#1067);
#1067 = AXIS2_PLACEMENT_3D('',#1068,#1069,#1070);
#1068 = CARTESIAN_POINT('',(0.,0.,0.));
#1069 = DIRECTION('',(0.,1.,0.));
#1070 = DIRECTION('',(1.,0.,0.));
#1071 = ADVANCED_FACE('',(#1072),#1091,.T.);
#1072 = FACE_BOUND('',#1073,.T.);
#1073 = EDGE_LOOP('',(#1074,#1075,#1076,#1084));
#1074 = ORIENTED_EDGE('',*,*,#1044,.F.);
#1075 = ORIENTED_EDGE('',*,*,#357,.F.);
#1076 = ORIENTED_EDGE('',*,*,#1077,.T.);
#1077 = EDGE_CURVE('',#349,#1078,#1080,.T.);
#1078 = VERTEX_POINT('',#1079);
#1079 = CARTESIAN_POINT('',(11.7,0.5,0.15));
#1080 = LINE('',#1081,#1082);
#1081 = CARTESIAN_POINT('',(11.7,0.5,0.4));
#1082 = VECTOR('',#1083,1.);
#1083 = DIRECTION('',(-0.,-0.,-1.));
#1084 = ORIENTED_EDGE('',*,*,#1085,.T.);
#1085 = EDGE_CURVE('',#1078,#1045,#1086,.T.);
#1086 = CIRCLE('',#1087,0.5);
#1087 = AXIS2_PLACEMENT_3D('',#1088,#1089,#1090);
#1088 = CARTESIAN_POINT('',(12.2,0.5,0.15));
#1089 = DIRECTION('',(0.,0.,1.));
#1090 = DIRECTION('',(-1.,-4.4E-16,0.));
#1091 = CYLINDRICAL_SURFACE('',#1092,0.5);
#1092 = AXIS2_PLACEMENT_3D('',#1093,#1094,#1095);
#1093 = CARTESIAN_POINT('',(12.2,0.5,0.4));
#1094 = DIRECTION('',(-0.,-0.,-1.));
#1095 = DIRECTION('',(0.,-1.,0.));
#1096 = ADVANCED_FACE('',(#1097),#1116,.T.);
#1097 = FACE_BOUND('',#1098,.T.);
#1098 = EDGE_LOOP('',(#1099,#1100,#1109,#1115));
#1099 = ORIENTED_EDGE('',*,*,#1053,.F.);
#1100 = ORIENTED_EDGE('',*,*,#1101,.T.);
#1101 = EDGE_CURVE('',#1054,#1102,#1104,.T.);
#1102 = VERTEX_POINT('',#1103);
#1103 = CARTESIAN_POINT('',(17.4,0.5,0.15));
#1104 = CIRCLE('',#1105,0.5);
#1105 = AXIS2_PLACEMENT_3D('',#1106,#1107,#1108);
#1106 = CARTESIAN_POINT('',(16.9,0.5,0.15));
#1107 = DIRECTION('',(-0.,0.,1.));
#1108 = DIRECTION('',(0.,-1.,0.));
#1109 = ORIENTED_EDGE('',*,*,#1110,.T.);
#1110 = EDGE_CURVE('',#1102,#376,#1111,.T.);
#1111 = LINE('',#1112,#1113);
#1112 = CARTESIAN_POINT('',(17.4,0.5,0.));
#1113 = VECTOR('',#1114,1.);
#1114 = DIRECTION('',(0.,0.,1.));
#1115 = ORIENTED_EDGE('',*,*,#375,.F.);
#1116 = CYLINDRICAL_SURFACE('',#1117,0.5);
#1117 = AXIS2_PLACEMENT_3D('',#1118,#1119,#1120);
#1118 = CARTESIAN_POINT('',(16.9,0.5,0.));
#1119 = DIRECTION('',(0.,0.,1.));
#1120 = DIRECTION('',(0.,-1.,0.));
#1121 = ADVANCED_FACE('',(#1122),#1140,.F.);
#1122 = FACE_BOUND('',#1123,.F.);
#1123 = EDGE_LOOP('',(#1124,#1125,#1133,#1139));
#1124 = ORIENTED_EDGE('',*,*,#1077,.T.);
#1125 = ORIENTED_EDGE('',*,*,#1126,.F.);
#1126 = EDGE_CURVE('',#1127,#1078,#1129,.T.);
#1127 = VERTEX_POINT('',#1128);
#1128 = CARTESIAN_POINT('',(11.7,1.,0.15));
#1129 = LINE('',#1130,#1131);
#1130 = CARTESIAN_POINT('',(11.7,1.,0.15));
#1131 = VECTOR('',#1132,1.);
#1132 = DIRECTION('',(-0.,-1.,-0.));
#1133 = ORIENTED_EDGE('',*,*,#1134,.F.);
#1134 = EDGE_CURVE('',#401,#1127,#1135,.T.);
#1135 = LINE('',#1136,#1137);
#1136 = CARTESIAN_POINT('',(11.7,1.,0.4));
#1137 = VECTOR('',#1138,1.);
#1138 = DIRECTION('',(-0.,-0.,-1.));
#1139 = ORIENTED_EDGE('',*,*,#411,.T.);
#1140 = PLANE('',#1141);
#1141 = AXIS2_PLACEMENT_3D('',#1142,#1143,#1144);
#1142 = CARTESIAN_POINT('',(11.7,0.,0.4));
#1143 = DIRECTION('',(1.,0.,0.));
#1144 = DIRECTION('',(0.,1.,0.));
#1145 = ADVANCED_FACE('',(#1146),#1164,.F.);
#1146 = FACE_BOUND('',#1147,.F.);
#1147 = EDGE_LOOP('',(#1148,#1149,#1150,#1158));
#1148 = ORIENTED_EDGE('',*,*,#1110,.T.);
#1149 = ORIENTED_EDGE('',*,*,#436,.T.);
#1150 = ORIENTED_EDGE('',*,*,#1151,.F.);
#1151 = EDGE_CURVE('',#1152,#428,#1154,.T.);
#1152 = VERTEX_POINT('',#1153);
#1153 = CARTESIAN_POINT('',(17.4,16.9,0.15));
#1154 = LINE('',#1155,#1156);
#1155 = CARTESIAN_POINT('',(17.4,16.9,0.));
#1156 = VECTOR('',#1157,1.);
#1157 = DIRECTION('',(0.,0.,1.));
#1158 = ORIENTED_EDGE('',*,*,#1159,.F.);
#1159 = EDGE_CURVE('',#1102,#1152,#1160,.T.);
#1160 = LINE('',#1161,#1162);
#1161 = CARTESIAN_POINT('',(17.4,0.5,0.15));
#1162 = VECTOR('',#1163,1.);
#1163 = DIRECTION('',(0.,1.,0.));
#1164 = PLANE('',#1165);
#1165 = AXIS2_PLACEMENT_3D('',#1166,#1167,#1168);
#1166 = CARTESIAN_POINT('',(17.4,0.,0.));
#1167 = DIRECTION('',(-1.,0.,0.));
#1168 = DIRECTION('',(0.,1.,0.));
#1169 = ADVANCED_FACE('',(#1170),#1189,.F.);
#1170 = FACE_BOUND('',#1171,.T.);
#1171 = EDGE_LOOP('',(#1172,#1173,#1174,#1182));
#1172 = ORIENTED_EDGE('',*,*,#1134,.F.);
#1173 = ORIENTED_EDGE('',*,*,#459,.F.);
#1174 = ORIENTED_EDGE('',*,*,#1175,.T.);
#1175 = EDGE_CURVE('',#451,#1176,#1178,.T.);
#1176 = VERTEX_POINT('',#1177);
#1177 = CARTESIAN_POINT('',(11.2,1.5,0.15));
#1178 = LINE('',#1179,#1180);
#1179 = CARTESIAN_POINT('',(11.2,1.5,0.4));
#1180 = VECTOR('',#1181,1.);
#1181 = DIRECTION('',(-0.,-0.,-1.));
#1182 = ORIENTED_EDGE('',*,*,#1183,.T.);
#1183 = EDGE_CURVE('',#1176,#1127,#1184,.T.);
#1184 = CIRCLE('',#1185,0.5);
#1185 = AXIS2_PLACEMENT_3D('',#1186,#1187,#1188);
#1186 = CARTESIAN_POINT('',(11.2,1.,0.15));
#1187 = DIRECTION('',(0.,0.,-1.));
#1188 = DIRECTION('',(0.,1.,0.));
#1189 = CYLINDRICAL_SURFACE('',#1190,0.5);
#1190 = AXIS2_PLACEMENT_3D('',#1191,#1192,#1193);
#1191 = CARTESIAN_POINT('',(11.2,1.,0.4));
#1192 = DIRECTION('',(-0.,-0.,-1.));
#1193 = DIRECTION('',(1.,0.,0.));
#1194 = ADVANCED_FACE('',(#1195),#1214,.T.);
#1195 = FACE_BOUND('',#1196,.T.);
#1196 = EDGE_LOOP('',(#1197,#1198,#1207,#1213));
#1197 = ORIENTED_EDGE('',*,*,#1151,.F.);
#1198 = ORIENTED_EDGE('',*,*,#1199,.T.);
#1199 = EDGE_CURVE('',#1152,#1200,#1202,.T.);
#1200 = VERTEX_POINT('',#1201);
#1201 = CARTESIAN_POINT('',(16.9,17.4,0.15));
#1202 = CIRCLE('',#1203,0.5);
#1203 = AXIS2_PLACEMENT_3D('',#1204,#1205,#1206);
#1204 = CARTESIAN_POINT('',(16.9,16.9,0.15));
#1205 = DIRECTION('',(0.,0.,1.));
#1206 = DIRECTION('',(1.,0.,0.));
#1207 = ORIENTED_EDGE('',*,*,#1208,.T.);
#1208 = EDGE_CURVE('',#1200,#478,#1209,.T.);
#1209 = LINE('',#1210,#1211);
#1210 = CARTESIAN_POINT('',(16.9,17.4,0.));
#1211 = VECTOR('',#1212,1.);
#1212 = DIRECTION('',(0.,0.,1.));
#1213 = ORIENTED_EDGE('',*,*,#477,.F.);
#1214 = CYLINDRICAL_SURFACE('',#1215,0.5);
#1215 = AXIS2_PLACEMENT_3D('',#1216,#1217,#1218);
#1216 = CARTESIAN_POINT('',(16.9,16.9,0.));
#1217 = DIRECTION('',(0.,0.,1.));
#1218 = DIRECTION('',(1.,0.,0.));
#1219 = ADVANCED_FACE('',(#1220),#1238,.F.);
#1220 = FACE_BOUND('',#1221,.F.);
#1221 = EDGE_LOOP('',(#1222,#1223,#1231,#1237));
#1222 = ORIENTED_EDGE('',*,*,#1175,.T.);
#1223 = ORIENTED_EDGE('',*,*,#1224,.F.);
#1224 = EDGE_CURVE('',#1225,#1176,#1227,.T.);
#1225 = VERTEX_POINT('',#1226);
#1226 = CARTESIAN_POINT('',(6.2,1.5,0.15));
#1227 = LINE('',#1228,#1229);
#1228 = CARTESIAN_POINT('',(6.2,1.5,0.15));
#1229 = VECTOR('',#1230,1.);
#1230 = DIRECTION('',(1.,0.,0.));
#1231 = ORIENTED_EDGE('',*,*,#1232,.F.);
#1232 = EDGE_CURVE('',#503,#1225,#1233,.T.);
#1233 = LINE('',#1234,#1235);
#1234 = CARTESIAN_POINT('',(6.2,1.5,0.4));
#1235 = VECTOR('',#1236,1.);
#1236 = DIRECTION('',(-0.,-0.,-1.));
#1237 = ORIENTED_EDGE('',*,*,#513,.T.);
#1238 = PLANE('',#1239);
#1239 = AXIS2_PLACEMENT_3D('',#1240,#1241,#1242);
#1240 = CARTESIAN_POINT('',(11.7,1.5,0.4));
#1241 = DIRECTION('',(0.,1.,0.));
#1242 = DIRECTION('',(-1.,0.,0.));
#1243 = ADVANCED_FACE('',(#1244),#1262,.F.);
#1244 = FACE_BOUND('',#1245,.F.);
#1245 = EDGE_LOOP('',(#1246,#1247,#1248,#1256));
#1246 = ORIENTED_EDGE('',*,*,#1208,.T.);
#1247 = ORIENTED_EDGE('',*,*,#538,.T.);
#1248 = ORIENTED_EDGE('',*,*,#1249,.F.);
#1249 = EDGE_CURVE('',#1250,#530,#1252,.T.);
#1250 = VERTEX_POINT('',#1251);
#1251 = CARTESIAN_POINT('',(0.5,17.4,0.15));
#1252 = LINE('',#1253,#1254);
#1253 = CARTESIAN_POINT('',(0.5,17.4,0.));
#1254 = VECTOR('',#1255,1.);
#1255 = DIRECTION('',(0.,0.,1.));
#1256 = ORIENTED_EDGE('',*,*,#1257,.F.);
#1257 = EDGE_CURVE('',#1200,#1250,#1258,.T.);
#1258 = LINE('',#1259,#1260);
#1259 = CARTESIAN_POINT('',(16.9,17.4,0.15));
#1260 = VECTOR('',#1261,1.);
#1261 = DIRECTION('',(-1.,0.,0.));
#1262 = PLANE('',#1263);
#1263 = AXIS2_PLACEMENT_3D('',#1264,#1265,#1266);
#1264 = CARTESIAN_POINT('',(17.4,17.4,0.));
#1265 = DIRECTION('',(0.,-1.,0.));
#1266 = DIRECTION('',(-1.,0.,0.));
#1267 = ADVANCED_FACE('',(#1268),#1287,.F.);
#1268 = FACE_BOUND('',#1269,.T.);
#1269 = EDGE_LOOP('',(#1270,#1271,#1272,#1280));
#1270 = ORIENTED_EDGE('',*,*,#1232,.F.);
#1271 = ORIENTED_EDGE('',*,*,#561,.F.);
#1272 = ORIENTED_EDGE('',*,*,#1273,.T.);
#1273 = EDGE_CURVE('',#553,#1274,#1276,.T.);
#1274 = VERTEX_POINT('',#1275);
#1275 = CARTESIAN_POINT('',(5.7,1.,0.15));
#1276 = LINE('',#1277,#1278);
#1277 = CARTESIAN_POINT('',(5.7,1.,0.4));
#1278 = VECTOR('',#1279,1.);
#1279 = DIRECTION('',(-0.,-0.,-1.));
#1280 = ORIENTED_EDGE('',*,*,#1281,.T.);
#1281 = EDGE_CURVE('',#1274,#1225,#1282,.T.);
#1282 = CIRCLE('',#1283,0.5);
#1283 = AXIS2_PLACEMENT_3D('',#1284,#1285,#1286);
#1284 = CARTESIAN_POINT('',(6.2,1.,0.15));
#1285 = DIRECTION('',(0.,0.,-1.));
#1286 = DIRECTION('',(-1.,0.,0.));
#1287 = CYLINDRICAL_SURFACE('',#1288,0.5);
#1288 = AXIS2_PLACEMENT_3D('',#1289,#1290,#1291);
#1289 = CARTESIAN_POINT('',(6.2,1.,0.4));
#1290 = DIRECTION('',(-0.,-0.,-1.));
#1291 = DIRECTION('',(0.,1.,0.));
#1292 = ADVANCED_FACE('',(#1293),#1312,.T.);
#1293 = FACE_BOUND('',#1294,.F.);
#1294 = EDGE_LOOP('',(#1295,#1303,#1310,#1311));
#1295 = ORIENTED_EDGE('',*,*,#1296,.F.);
#1296 = EDGE_CURVE('',#1297,#580,#1299,.T.);
#1297 = VERTEX_POINT('',#1298);
#1298 = CARTESIAN_POINT('',(0.,16.9,0.15));
#1299 = LINE('',#1300,#1301);
#1300 = CARTESIAN_POINT('',(-1.1E-16,16.9,0.));
#1301 = VECTOR('',#1302,1.);
#1302 = DIRECTION('',(0.,0.,1.));
#1303 = ORIENTED_EDGE('',*,*,#1304,.F.);
#1304 = EDGE_CURVE('',#1250,#1297,#1305,.T.);
#1305 = CIRCLE('',#1306,0.5);
#1306 = AXIS2_PLACEMENT_3D('',#1307,#1308,#1309);
#1307 = CARTESIAN_POINT('',(0.5,16.9,0.15));
#1308 = DIRECTION('',(0.,0.,1.));
#1309 = DIRECTION('',(-3.3E-16,1.,0.));
#1310 = ORIENTED_EDGE('',*,*,#1249,.T.);
#1311 = ORIENTED_EDGE('',*,*,#579,.T.);
#1312 = CYLINDRICAL_SURFACE('',#1313,0.5);
#1313 = AXIS2_PLACEMENT_3D('',#1314,#1315,#1316);
#1314 = CARTESIAN_POINT('',(0.5,16.9,0.));
#1315 = DIRECTION('',(0.,0.,1.));
#1316 = DIRECTION('',(-1.,0.,0.));
#1317 = ADVANCED_FACE('',(#1318),#1336,.F.);
#1318 = FACE_BOUND('',#1319,.F.);
#1319 = EDGE_LOOP('',(#1320,#1321,#1329,#1335));
#1320 = ORIENTED_EDGE('',*,*,#1273,.T.);
#1321 = ORIENTED_EDGE('',*,*,#1322,.F.);
#1322 = EDGE_CURVE('',#1323,#1274,#1325,.T.);
#1323 = VERTEX_POINT('',#1324);
#1324 = CARTESIAN_POINT('',(5.7,0.5,0.15));
#1325 = LINE('',#1326,#1327);
#1326 = CARTESIAN_POINT('',(5.7,0.5,0.15));
#1327 = VECTOR('',#1328,1.);
#1328 = DIRECTION('',(0.,1.,0.));
#1329 = ORIENTED_EDGE('',*,*,#1330,.F.);
#1330 = EDGE_CURVE('',#605,#1323,#1331,.T.);
#1331 = LINE('',#1332,#1333);
#1332 = CARTESIAN_POINT('',(5.7,0.5,0.4));
#1333 = VECTOR('',#1334,1.);
#1334 = DIRECTION('',(-0.,-0.,-1.));
#1335 = ORIENTED_EDGE('',*,*,#615,.T.);
#1336 = PLANE('',#1337);
#1337 = AXIS2_PLACEMENT_3D('',#1338,#1339,#1340);
#1338 = CARTESIAN_POINT('',(5.7,1.5,0.4));
#1339 = DIRECTION('',(-1.,0.,0.));
#1340 = DIRECTION('',(0.,-1.,0.));
#1341 = ADVANCED_FACE('',(#1342),#1360,.F.);
#1342 = FACE_BOUND('',#1343,.F.);
#1343 = EDGE_LOOP('',(#1344,#1345,#1346,#1354));
#1344 = ORIENTED_EDGE('',*,*,#1296,.T.);
#1345 = ORIENTED_EDGE('',*,*,#640,.T.);
#1346 = ORIENTED_EDGE('',*,*,#1347,.F.);
#1347 = EDGE_CURVE('',#1348,#632,#1350,.T.);
#1348 = VERTEX_POINT('',#1349);
#1349 = CARTESIAN_POINT('',(0.,0.5,0.15));
#1350 = LINE('',#1351,#1352);
#1351 = CARTESIAN_POINT('',(-1.1E-16,0.5,0.));
#1352 = VECTOR('',#1353,1.);
#1353 = DIRECTION('',(0.,0.,1.));
#1354 = ORIENTED_EDGE('',*,*,#1355,.F.);
#1355 = EDGE_CURVE('',#1297,#1348,#1356,.T.);
#1356 = LINE('',#1357,#1358);
#1357 = CARTESIAN_POINT('',(0.,16.9,0.15));
#1358 = VECTOR('',#1359,1.);
#1359 = DIRECTION('',(0.,-1.,0.));
#1360 = PLANE('',#1361);
#1361 = AXIS2_PLACEMENT_3D('',#1362,#1363,#1364);
#1362 = CARTESIAN_POINT('',(0.,17.4,0.));
#1363 = DIRECTION('',(1.,0.,0.));
#1364 = DIRECTION('',(0.,-1.,0.));
#1365 = ADVANCED_FACE('',(#1366),#1385,.T.);
#1366 = FACE_BOUND('',#1367,.T.);
#1367 = EDGE_LOOP('',(#1368,#1369,#1370,#1378));
#1368 = ORIENTED_EDGE('',*,*,#1330,.F.);
#1369 = ORIENTED_EDGE('',*,*,#663,.F.);
#1370 = ORIENTED_EDGE('',*,*,#1371,.T.);
#1371 = EDGE_CURVE('',#655,#1372,#1374,.T.);
#1372 = VERTEX_POINT('',#1373);
#1373 = CARTESIAN_POINT('',(5.2,0.,0.15));
#1374 = LINE('',#1375,#1376);
#1375 = CARTESIAN_POINT('',(5.2,-1.1E-16,0.4));
#1376 = VECTOR('',#1377,1.);
#1377 = DIRECTION('',(-0.,-0.,-1.));
#1378 = ORIENTED_EDGE('',*,*,#1379,.T.);
#1379 = EDGE_CURVE('',#1372,#1323,#1380,.T.);
#1380 = CIRCLE('',#1381,0.5);
#1381 = AXIS2_PLACEMENT_3D('',#1382,#1383,#1384);
#1382 = CARTESIAN_POINT('',(5.2,0.5,0.15));
#1383 = DIRECTION('',(-0.,0.,1.));
#1384 = DIRECTION('',(0.,-1.,0.));
#1385 = CYLINDRICAL_SURFACE('',#1386,0.5);
#1386 = AXIS2_PLACEMENT_3D('',#1387,#1388,#1389);
#1387 = CARTESIAN_POINT('',(5.2,0.5,0.4));
#1388 = DIRECTION('',(-0.,-0.,-1.));
#1389 = DIRECTION('',(1.,0.,0.));
#1390 = ADVANCED_FACE('',(#1391),#1410,.T.);
#1391 = FACE_BOUND('',#1392,.F.);
#1392 = EDGE_LOOP('',(#1393,#1401,#1408,#1409));
#1393 = ORIENTED_EDGE('',*,*,#1394,.F.);
#1394 = EDGE_CURVE('',#1395,#682,#1397,.T.);
#1395 = VERTEX_POINT('',#1396);
#1396 = CARTESIAN_POINT('',(0.5,0.,0.15));
#1397 = LINE('',#1398,#1399);
#1398 = CARTESIAN_POINT('',(0.5,-1.1E-16,0.));
#1399 = VECTOR('',#1400,1.);
#1400 = DIRECTION('',(0.,0.,1.));
#1401 = ORIENTED_EDGE('',*,*,#1402,.F.);
#1402 = EDGE_CURVE('',#1348,#1395,#1403,.T.);
#1403 = CIRCLE('',#1404,0.5);
#1404 = AXIS2_PLACEMENT_3D('',#1405,#1406,#1407);
#1405 = CARTESIAN_POINT('',(0.5,0.5,0.15));
#1406 = DIRECTION('',(0.,0.,1.));
#1407 = DIRECTION('',(-1.,-3.3E-16,0.));
#1408 = ORIENTED_EDGE('',*,*,#1347,.T.);
#1409 = ORIENTED_EDGE('',*,*,#681,.T.);
#1410 = CYLINDRICAL_SURFACE('',#1411,0.5);
#1411 = AXIS2_PLACEMENT_3D('',#1412,#1413,#1414);
#1412 = CARTESIAN_POINT('',(0.5,0.5,0.));
#1413 = DIRECTION('',(0.,0.,1.));
#1414 = DIRECTION('',(0.,-1.,0.));
#1415 = ADVANCED_FACE('',(#1416),#1427,.F.);
#1416 = FACE_BOUND('',#1417,.F.);
#1417 = EDGE_LOOP('',(#1418,#1419,#1425,#1426));
#1418 = ORIENTED_EDGE('',*,*,#1371,.T.);
#1419 = ORIENTED_EDGE('',*,*,#1420,.F.);
#1420 = EDGE_CURVE('',#1395,#1372,#1421,.T.);
#1421 = LINE('',#1422,#1423);
#1422 = CARTESIAN_POINT('',(0.5,0.,0.15));
#1423 = VECTOR('',#1424,1.);
#1424 = DIRECTION('',(1.,0.,0.));
#1425 = ORIENTED_EDGE('',*,*,#1394,.T.);
#1426 = ORIENTED_EDGE('',*,*,#709,.T.);
#1427 = PLANE('',#1428);
#1428 = AXIS2_PLACEMENT_3D('',#1429,#1430,#1431);
#1429 = CARTESIAN_POINT('',(0.,0.,0.));
#1430 = DIRECTION('',(0.,1.,0.));
#1431 = DIRECTION('',(1.,0.,0.));
#1432 = ADVANCED_FACE('',(#1433),#1460,.T.);
#1433 = FACE_BOUND('',#1434,.F.);
#1434 = EDGE_LOOP('',(#1435,#1444,#1452,#1459));
#1435 = ORIENTED_EDGE('',*,*,#1436,.T.);
#1436 = EDGE_CURVE('',#724,#1437,#1439,.T.);
#1437 = VERTEX_POINT('',#1438);
#1438 = CARTESIAN_POINT('',(7.45,14.2,3.4));
#1439 = CIRCLE('',#1440,1.);
#1440 = AXIS2_PLACEMENT_3D('',#1441,#1442,#1443);
#1441 = CARTESIAN_POINT('',(7.45,14.2,2.4));
#1442 = DIRECTION('',(6.E-17,1.,-0.));
#1443 = DIRECTION('',(-1.,6.E-17,0.));
#1444 = ORIENTED_EDGE('',*,*,#1445,.T.);
#1445 = EDGE_CURVE('',#1437,#1446,#1448,.T.);
#1446 = VERTEX_POINT('',#1447);
#1447 = CARTESIAN_POINT('',(7.45,13.7,3.4));
#1448 = LINE('',#1449,#1450);
#1449 = CARTESIAN_POINT('',(7.45,14.2,3.4));
#1450 = VECTOR('',#1451,1.);
#1451 = DIRECTION('',(0.,-1.,0.));
#1452 = ORIENTED_EDGE('',*,*,#1453,.F.);
#1453 = EDGE_CURVE('',#732,#1446,#1454,.T.);
#1454 = CIRCLE('',#1455,1.);
#1455 = AXIS2_PLACEMENT_3D('',#1456,#1457,#1458);
#1456 = CARTESIAN_POINT('',(7.45,13.7,2.4));
#1457 = DIRECTION('',(0.,1.,-0.));
#1458 = DIRECTION('',(-1.,0.,0.));
#1459 = ORIENTED_EDGE('',*,*,#731,.F.);
#1460 = CYLINDRICAL_SURFACE('',#1461,1.);
#1461 = AXIS2_PLACEMENT_3D('',#1462,#1463,#1464);
#1462 = CARTESIAN_POINT('',(7.45,14.2,2.4));
#1463 = DIRECTION('',(0.,-1.,0.));
#1464 = DIRECTION('',(-1.,0.,0.));
#1465 = ADVANCED_FACE('',(#1466),#1477,.T.);
#1466 = FACE_BOUND('',#1467,.T.);
#1467 = EDGE_LOOP('',(#1468,#1475,#1476));
#1468 = ORIENTED_EDGE('',*,*,#1469,.F.);
#1469 = EDGE_CURVE('',#757,#1437,#1470,.T.);
#1470 = CIRCLE('',#1471,1.);
#1471 = AXIS2_PLACEMENT_3D('',#1472,#1473,#1474);
#1472 = CARTESIAN_POINT('',(7.45,14.2,2.4));
#1473 = DIRECTION('',(1.,0.,0.));
#1474 = DIRECTION('',(0.,1.,0.));
#1475 = ORIENTED_EDGE('',*,*,#764,.T.);
#1476 = ORIENTED_EDGE('',*,*,#1436,.T.);
#1477 = SPHERICAL_SURFACE('',#1478,1.);
#1478 = AXIS2_PLACEMENT_3D('',#1479,#1480,#1481);
#1479 = CARTESIAN_POINT('',(7.45,14.2,2.4));
#1480 = DIRECTION('',(0.,0.,1.));
#1481 = DIRECTION('',(0.,1.,0.));
#1482 = ADVANCED_FACE('',(#1483),#1494,.T.);
#1483 = FACE_BOUND('',#1484,.T.);
#1484 = EDGE_LOOP('',(#1485,#1486,#1487));
#1485 = ORIENTED_EDGE('',*,*,#1453,.F.);
#1486 = ORIENTED_EDGE('',*,*,#789,.T.);
#1487 = ORIENTED_EDGE('',*,*,#1488,.T.);
#1488 = EDGE_CURVE('',#782,#1446,#1489,.T.);
#1489 = CIRCLE('',#1490,1.);
#1490 = AXIS2_PLACEMENT_3D('',#1491,#1492,#1493);
#1491 = CARTESIAN_POINT('',(7.45,13.7,2.4));
#1492 = DIRECTION('',(-1.,0.,0.));
#1493 = DIRECTION('',(0.,-1.,0.));
#1494 = SPHERICAL_SURFACE('',#1495,1.);
#1495 = AXIS2_PLACEMENT_3D('',#1496,#1497,#1498);
#1496 = CARTESIAN_POINT('',(7.45,13.7,2.4));
#1497 = DIRECTION('',(0.,0.,1.));
#1498 = DIRECTION('',(-1.,0.,0.));
#1499 = ADVANCED_FACE('',(#1500),#1519,.T.);
#1500 = FACE_BOUND('',#1501,.F.);
#1501 = EDGE_LOOP('',(#1502,#1511,#1517,#1518));
#1502 = ORIENTED_EDGE('',*,*,#1503,.T.);
#1503 = EDGE_CURVE('',#805,#1504,#1506,.T.);
#1504 = VERTEX_POINT('',#1505);
#1505 = CARTESIAN_POINT('',(9.95,14.2,3.4));
#1506 = CIRCLE('',#1507,1.);
#1507 = AXIS2_PLACEMENT_3D('',#1508,#1509,#1510);
#1508 = CARTESIAN_POINT('',(9.95,14.2,2.4));
#1509 = DIRECTION('',(1.,-6.E-17,0.));
#1510 = DIRECTION('',(6.E-17,1.,0.));
#1511 = ORIENTED_EDGE('',*,*,#1512,.T.);
#1512 = EDGE_CURVE('',#1504,#1437,#1513,.T.);
#1513 = LINE('',#1514,#1515);
#1514 = CARTESIAN_POINT('',(9.95,14.2,3.4));
#1515 = VECTOR('',#1516,1.);
#1516 = DIRECTION('',(-1.,0.,0.));
#1517 = ORIENTED_EDGE('',*,*,#1469,.F.);
#1518 = ORIENTED_EDGE('',*,*,#812,.F.);
#1519 = CYLINDRICAL_SURFACE('',#1520,1.);
#1520 = AXIS2_PLACEMENT_3D('',#1521,#1522,#1523);
#1521 = CARTESIAN_POINT('',(9.95,14.2,2.4));
#1522 = DIRECTION('',(-1.,0.,0.));
#1523 = DIRECTION('',(0.,1.,0.));
#1524 = ADVANCED_FACE('',(#1525),#1544,.T.);
#1525 = FACE_BOUND('',#1526,.F.);
#1526 = EDGE_LOOP('',(#1527,#1528,#1536,#1543));
#1527 = ORIENTED_EDGE('',*,*,#1488,.T.);
#1528 = ORIENTED_EDGE('',*,*,#1529,.T.);
#1529 = EDGE_CURVE('',#1446,#1530,#1532,.T.);
#1530 = VERTEX_POINT('',#1531);
#1531 = CARTESIAN_POINT('',(9.95,13.7,3.4));
#1532 = LINE('',#1533,#1534);
#1533 = CARTESIAN_POINT('',(7.45,13.7,3.4));
#1534 = VECTOR('',#1535,1.);
#1535 = DIRECTION('',(1.,0.,0.));
#1536 = ORIENTED_EDGE('',*,*,#1537,.F.);
#1537 = EDGE_CURVE('',#830,#1530,#1538,.T.);
#1538 = CIRCLE('',#1539,1.);
#1539 = AXIS2_PLACEMENT_3D('',#1540,#1541,#1542);
#1540 = CARTESIAN_POINT('',(9.95,13.7,2.4));
#1541 = DIRECTION('',(-1.,0.,0.));
#1542 = DIRECTION('',(0.,-1.,0.));
#1543 = ORIENTED_EDGE('',*,*,#829,.F.);
#1544 = CYLINDRICAL_SURFACE('',#1545,1.);
#1545 = AXIS2_PLACEMENT_3D('',#1546,#1547,#1548);
#1546 = CARTESIAN_POINT('',(7.45,13.7,2.4));
#1547 = DIRECTION('',(1.,0.,0.));
#1548 = DIRECTION('',(0.,-1.,0.));
#1549 = ADVANCED_FACE('',(#1550),#1561,.T.);
#1550 = FACE_BOUND('',#1551,.T.);
#1551 = EDGE_LOOP('',(#1552,#1559,#1560));
#1552 = ORIENTED_EDGE('',*,*,#1553,.F.);
#1553 = EDGE_CURVE('',#853,#1504,#1554,.T.);
#1554 = CIRCLE('',#1555,1.);
#1555 = AXIS2_PLACEMENT_3D('',#1556,#1557,#1558);
#1556 = CARTESIAN_POINT('',(9.95,14.2,2.4));
#1557 = DIRECTION('',(0.,-1.,0.));
#1558 = DIRECTION('',(1.,0.,0.));
#1559 = ORIENTED_EDGE('',*,*,#862,.T.);
#1560 = ORIENTED_EDGE('',*,*,#1503,.T.);
#1561 = SPHERICAL_SURFACE('',#1562,1.);
#1562 = AXIS2_PLACEMENT_3D('',#1563,#1564,#1565);
#1563 = CARTESIAN_POINT('',(9.95,14.2,2.4));
#1564 = DIRECTION('',(0.,0.,1.));
#1565 = DIRECTION('',(1.,0.,0.));
#1566 = ADVANCED_FACE('',(#1567),#1578,.T.);
#1567 = FACE_BOUND('',#1568,.T.);
#1568 = EDGE_LOOP('',(#1569,#1570,#1571));
#1569 = ORIENTED_EDGE('',*,*,#1537,.F.);
#1570 = ORIENTED_EDGE('',*,*,#887,.T.);
#1571 = ORIENTED_EDGE('',*,*,#1572,.T.);
#1572 = EDGE_CURVE('',#880,#1530,#1573,.T.);
#1573 = CIRCLE('',#1574,1.);
#1574 = AXIS2_PLACEMENT_3D('',#1575,#1576,#1577);
#1575 = CARTESIAN_POINT('',(9.95,13.7,2.4));
#1576 = DIRECTION('',(-6.E-17,-1.,0.));
#1577 = DIRECTION('',(1.,-6.E-17,0.));
#1578 = SPHERICAL_SURFACE('',#1579,1.);
#1579 = AXIS2_PLACEMENT_3D('',#1580,#1581,#1582);
#1580 = CARTESIAN_POINT('',(9.95,13.7,2.4));
#1581 = DIRECTION('',(0.,0.,1.));
#1582 = DIRECTION('',(0.,-1.,0.));
#1583 = ADVANCED_FACE('',(#1584),#1595,.T.);
#1584 = FACE_BOUND('',#1585,.F.);
#1585 = EDGE_LOOP('',(#1586,#1587,#1593,#1594));
#1586 = ORIENTED_EDGE('',*,*,#1572,.T.);
#1587 = ORIENTED_EDGE('',*,*,#1588,.T.);
#1588 = EDGE_CURVE('',#1530,#1504,#1589,.T.);
#1589 = LINE('',#1590,#1591);
#1590 = CARTESIAN_POINT('',(9.95,13.7,3.4));
#1591 = VECTOR('',#1592,1.);
#1592 = DIRECTION('',(0.,1.,0.));
#1593 = ORIENTED_EDGE('',*,*,#1553,.F.);
#1594 = ORIENTED_EDGE('',*,*,#903,.F.);
#1595 = CYLINDRICAL_SURFACE('',#1596,1.);
#1596 = AXIS2_PLACEMENT_3D('',#1597,#1598,#1599);
#1597 = CARTESIAN_POINT('',(9.95,13.7,2.4));
#1598 = DIRECTION('',(0.,1.,0.));
#1599 = DIRECTION('',(1.,0.,0.));
#1600 = ADVANCED_FACE('',(#1601),#1620,.F.);
#1601 = FACE_BOUND('',#1602,.F.);
#1602 = EDGE_LOOP('',(#1603,#1611,#1612,#1613));
#1603 = ORIENTED_EDGE('',*,*,#1604,.F.);
#1604 = EDGE_CURVE('',#920,#1605,#1607,.T.);
#1605 = VERTEX_POINT('',#1606);
#1606 = CARTESIAN_POINT('',(15.7,14.7,0.15));
#1607 = LINE('',#1608,#1609);
#1608 = CARTESIAN_POINT('',(15.7,14.7,0.4));
#1609 = VECTOR('',#1610,1.);
#1610 = DIRECTION('',(-0.,-0.,-1.));
#1611 = ORIENTED_EDGE('',*,*,#929,.F.);
#1612 = ORIENTED_EDGE('',*,*,#1604,.T.);
#1613 = ORIENTED_EDGE('',*,*,#1614,.T.);
#1614 = EDGE_CURVE('',#1605,#1605,#1615,.T.);
#1615 = CIRCLE('',#1616,1.);
#1616 = AXIS2_PLACEMENT_3D('',#1617,#1618,#1619);
#1617 = CARTESIAN_POINT('',(14.7,14.7,0.15));
#1618 = DIRECTION('',(0.,0.,1.));
#1619 = DIRECTION('',(1.,0.,-0.));
#1620 = CYLINDRICAL_SURFACE('',#1621,1.);
#1621 = AXIS2_PLACEMENT_3D('',#1622,#1623,#1624);
#1622 = CARTESIAN_POINT('',(14.7,14.7,0.4));
#1623 = DIRECTION('',(0.,0.,1.));
#1624 = DIRECTION('',(1.,0.,0.));
#1625 = ADVANCED_FACE('',(#1626),#1645,.F.);
#1626 = FACE_BOUND('',#1627,.F.);
#1627 = EDGE_LOOP('',(#1628,#1636,#1637,#1638));
#1628 = ORIENTED_EDGE('',*,*,#1629,.F.);
#1629 = EDGE_CURVE('',#945,#1630,#1632,.T.);
#1630 = VERTEX_POINT('',#1631);
#1631 = CARTESIAN_POINT('',(3.7,14.7,0.15));
#1632 = LINE('',#1633,#1634);
#1633 = CARTESIAN_POINT('',(3.7,14.7,0.4));
#1634 = VECTOR('',#1635,1.);
#1635 = DIRECTION('',(-0.,-0.,-1.));
#1636 = ORIENTED_EDGE('',*,*,#954,.F.);
#1637 = ORIENTED_EDGE('',*,*,#1629,.T.);
#1638 = ORIENTED_EDGE('',*,*,#1639,.T.);
#1639 = EDGE_CURVE('',#1630,#1630,#1640,.T.);
#1640 = CIRCLE('',#1641,1.);
#1641 = AXIS2_PLACEMENT_3D('',#1642,#1643,#1644);
#1642 = CARTESIAN_POINT('',(2.7,14.7,0.15));
#1643 = DIRECTION('',(0.,0.,1.));
#1644 = DIRECTION('',(1.,0.,-0.));
#1645 = CYLINDRICAL_SURFACE('',#1646,1.);
#1646 = AXIS2_PLACEMENT_3D('',#1647,#1648,#1649);
#1647 = CARTESIAN_POINT('',(2.7,14.7,0.4));
#1648 = DIRECTION('',(0.,0.,1.));
#1649 = DIRECTION('',(1.,0.,0.));
#1650 = ADVANCED_FACE('',(#1651),#1670,.F.);
#1651 = FACE_BOUND('',#1652,.F.);
#1652 = EDGE_LOOP('',(#1653,#1661,#1662,#1663));
#1653 = ORIENTED_EDGE('',*,*,#1654,.F.);
#1654 = EDGE_CURVE('',#970,#1655,#1657,.T.);
#1655 = VERTEX_POINT('',#1656);
#1656 = CARTESIAN_POINT('',(3.7,2.7,0.));
#1657 = LINE('',#1658,#1659);
#1658 = CARTESIAN_POINT('',(3.7,2.7,0.4));
#1659 = VECTOR('',#1660,1.);
#1660 = DIRECTION('',(-0.,-0.,-1.));
#1661 = ORIENTED_EDGE('',*,*,#979,.F.);
#1662 = ORIENTED_EDGE('',*,*,#1654,.T.);
#1663 = ORIENTED_EDGE('',*,*,#1664,.T.);
#1664 = EDGE_CURVE('',#1655,#1655,#1665,.T.);
#1665 = CIRCLE('',#1666,1.);
#1666 = AXIS2_PLACEMENT_3D('',#1667,#1668,#1669);
#1667 = CARTESIAN_POINT('',(2.7,2.7,0.));
#1668 = DIRECTION('',(0.,0.,1.));
#1669 = DIRECTION('',(1.,0.,0.));
#1670 = CYLINDRICAL_SURFACE('',#1671,1.);
#1671 = AXIS2_PLACEMENT_3D('',#1672,#1673,#1674);
#1672 = CARTESIAN_POINT('',(2.7,2.7,0.4));
#1673 = DIRECTION('',(0.,0.,1.));
#1674 = DIRECTION('',(1.,0.,0.));
#1675 = ADVANCED_FACE('',(#1676),#1695,.F.);
#1676 = FACE_BOUND('',#1677,.F.);
#1677 = EDGE_LOOP('',(#1678,#1686,#1687,#1688));
#1678 = ORIENTED_EDGE('',*,*,#1679,.F.);
#1679 = EDGE_CURVE('',#995,#1680,#1682,.T.);
#1680 = VERTEX_POINT('',#1681);
#1681 = CARTESIAN_POINT('',(15.7,2.7,0.15));
#1682 = LINE('',#1683,#1684);
#1683 = CARTESIAN_POINT('',(15.7,2.7,0.4));
#1684 = VECTOR('',#1685,1.);
#1685 = DIRECTION('',(-0.,-0.,-1.));
#1686 = ORIENTED_EDGE('',*,*,#1004,.F.);
#1687 = ORIENTED_EDGE('',*,*,#1679,.T.);
#1688 = ORIENTED_EDGE('',*,*,#1689,.T.);
#1689 = EDGE_CURVE('',#1680,#1680,#1690,.T.);
#1690 = CIRCLE('',#1691,1.);
#1691 = AXIS2_PLACEMENT_3D('',#1692,#1693,#1694);
#1692 = CARTESIAN_POINT('',(14.7,2.7,0.15));
#1693 = DIRECTION('',(0.,0.,1.));
#1694 = DIRECTION('',(1.,0.,-0.));
#1695 = CYLINDRICAL_SURFACE('',#1696,1.);
#1696 = AXIS2_PLACEMENT_3D('',#1697,#1698,#1699);
#1697 = CARTESIAN_POINT('',(14.7,2.7,0.4));
#1698 = DIRECTION('',(0.,0.,1.));
#1699 = DIRECTION('',(1.,0.,0.));
#1700 = ADVANCED_FACE('',(#1701),#1720,.F.);
#1701 = FACE_BOUND('',#1702,.F.);
#1702 = EDGE_LOOP('',(#1703,#1711,#1718,#1719));
#1703 = ORIENTED_EDGE('',*,*,#1704,.F.);
#1704 = EDGE_CURVE('',#1705,#1020,#1707,.T.);
#1705 = VERTEX_POINT('',#1706);
#1706 = CARTESIAN_POINT('',(9.85,8.7,0.));
#1707 = LINE('',#1708,#1709);
#1708 = CARTESIAN_POINT('',(9.7,8.7,0.15));
#1709 = VECTOR('',#1710,1.);
#1710 = DIRECTION('',(-0.707106781187,0.,0.707106781187));
#1711 = ORIENTED_EDGE('',*,*,#1712,.T.);
#1712 = EDGE_CURVE('',#1705,#1705,#1713,.T.);
#1713 = CIRCLE('',#1714,1.15);
#1714 = AXIS2_PLACEMENT_3D('',#1715,#1716,#1717);
#1715 = CARTESIAN_POINT('',(8.7,8.7,0.));
#1716 = DIRECTION('',(0.,0.,1.));
#1717 = DIRECTION('',(1.,0.,-0.));
#1718 = ORIENTED_EDGE('',*,*,#1704,.T.);
#1719 = ORIENTED_EDGE('',*,*,#1029,.F.);
#1720 = CONICAL_SURFACE('',#1721,1.,0.785398163397);
#1721 = AXIS2_PLACEMENT_3D('',#1722,#1723,#1724);
#1722 = CARTESIAN_POINT('',(8.7,8.7,0.15));
#1723 = DIRECTION('',(-0.,-0.,-1.));
#1724 = DIRECTION('',(1.,0.,-0.));
#1725 = ADVANCED_FACE('',(#1726),#1751,.T.);
#1726 = FACE_BOUND('',#1727,.F.);
#1727 = EDGE_LOOP('',(#1728,#1736,#1737,#1745));
#1728 = ORIENTED_EDGE('',*,*,#1729,.F.);
#1729 = EDGE_CURVE('',#1045,#1730,#1732,.T.);
#1730 = VERTEX_POINT('',#1731);
#1731 = CARTESIAN_POINT('',(12.2,0.15,0.));
#1732 = LINE('',#1733,#1734);
#1733 = CARTESIAN_POINT('',(12.2,0.,0.15));
#1734 = VECTOR('',#1735,1.);
#1735 = DIRECTION('',(-1.1E-16,0.707106781187,-0.707106781187));
#1736 = ORIENTED_EDGE('',*,*,#1061,.T.);
#1737 = ORIENTED_EDGE('',*,*,#1738,.T.);
#1738 = EDGE_CURVE('',#1054,#1739,#1741,.T.);
#1739 = VERTEX_POINT('',#1740);
#1740 = CARTESIAN_POINT('',(16.9,0.15,0.));
#1741 = LINE('',#1742,#1743);
#1742 = CARTESIAN_POINT('',(16.9,7.5E-02,7.5E-02));
#1743 = VECTOR('',#1744,1.);
#1744 = DIRECTION('',(0.,0.707106781187,-0.707106781187));
#1745 = ORIENTED_EDGE('',*,*,#1746,.F.);
#1746 = EDGE_CURVE('',#1730,#1739,#1747,.T.);
#1747 = LINE('',#1748,#1749);
#1748 = CARTESIAN_POINT('',(12.2,0.15,0.));
#1749 = VECTOR('',#1750,1.);
#1750 = DIRECTION('',(1.,0.,0.));
#1751 = PLANE('',#1752);
#1752 = AXIS2_PLACEMENT_3D('',#1753,#1754,#1755);
#1753 = CARTESIAN_POINT('',(12.2,7.5E-02,7.5E-02));
#1754 = DIRECTION('',(0.,-0.707106781187,-0.707106781187));
#1755 = DIRECTION('',(-1.,-0.,-0.));
#1756 = ADVANCED_FACE('',(#1757),#1776,.T.);
#1757 = FACE_BOUND('',#1758,.F.);
#1758 = EDGE_LOOP('',(#1759,#1767,#1768,#1769));
#1759 = ORIENTED_EDGE('',*,*,#1760,.F.);
#1760 = EDGE_CURVE('',#1078,#1761,#1763,.T.);
#1761 = VERTEX_POINT('',#1762);
#1762 = CARTESIAN_POINT('',(11.85,0.5,-1.E-15));
#1763 = LINE('',#1764,#1765);
#1764 = CARTESIAN_POINT('',(11.775,0.5,7.5E-02));
#1765 = VECTOR('',#1766,1.);
#1766 = DIRECTION('',(0.707106781187,0.,-0.707106781187));
#1767 = ORIENTED_EDGE('',*,*,#1085,.T.);
#1768 = ORIENTED_EDGE('',*,*,#1729,.T.);
#1769 = ORIENTED_EDGE('',*,*,#1770,.F.);
#1770 = EDGE_CURVE('',#1761,#1730,#1771,.T.);
#1771 = CIRCLE('',#1772,0.35);
#1772 = AXIS2_PLACEMENT_3D('',#1773,#1774,#1775);
#1773 = CARTESIAN_POINT('',(12.2,0.5,0.));
#1774 = DIRECTION('',(0.,0.,1.));
#1775 = DIRECTION('',(-1.,-4.4E-16,0.));
#1776 = CONICAL_SURFACE('',#1777,0.5,0.785398163397);
#1777 = AXIS2_PLACEMENT_3D('',#1778,#1779,#1780);
#1778 = CARTESIAN_POINT('',(12.2,0.5,0.15));
#1779 = DIRECTION('',(0.,0.,1.));
#1780 = DIRECTION('',(-1.,-4.4E-16,0.));
#1781 = ADVANCED_FACE('',(#1782),#1801,.T.);
#1782 = FACE_BOUND('',#1783,.F.);
#1783 = EDGE_LOOP('',(#1784,#1785,#1786,#1794));
#1784 = ORIENTED_EDGE('',*,*,#1738,.F.);
#1785 = ORIENTED_EDGE('',*,*,#1101,.T.);
#1786 = ORIENTED_EDGE('',*,*,#1787,.T.);
#1787 = EDGE_CURVE('',#1102,#1788,#1790,.T.);
#1788 = VERTEX_POINT('',#1789);
#1789 = CARTESIAN_POINT('',(17.25,0.5,-1.E-15));
#1790 = LINE('',#1791,#1792);
#1791 = CARTESIAN_POINT('',(17.4,0.5,0.15));
#1792 = VECTOR('',#1793,1.);
#1793 = DIRECTION('',(-0.707106781187,4.E-17,-0.707106781187));
#1794 = ORIENTED_EDGE('',*,*,#1795,.F.);
#1795 = EDGE_CURVE('',#1739,#1788,#1796,.T.);
#1796 = CIRCLE('',#1797,0.35);
#1797 = AXIS2_PLACEMENT_3D('',#1798,#1799,#1800);
#1798 = CARTESIAN_POINT('',(16.9,0.5,0.));
#1799 = DIRECTION('',(-0.,0.,1.));
#1800 = DIRECTION('',(0.,-1.,0.));
#1801 = CONICAL_SURFACE('',#1802,0.5,0.785398163397);
#1802 = AXIS2_PLACEMENT_3D('',#1803,#1804,#1805);
#1803 = CARTESIAN_POINT('',(16.9,0.5,0.15));
#1804 = DIRECTION('',(0.,0.,1.));
#1805 = DIRECTION('',(0.,-1.,0.));
#1806 = ADVANCED_FACE('',(#1807),#1825,.T.);
#1807 = FACE_BOUND('',#1808,.F.);
#1808 = EDGE_LOOP('',(#1809,#1817,#1818,#1819));
#1809 = ORIENTED_EDGE('',*,*,#1810,.F.);
#1810 = EDGE_CURVE('',#1127,#1811,#1813,.T.);
#1811 = VERTEX_POINT('',#1812);
#1812 = CARTESIAN_POINT('',(11.85,1.,0.));
#1813 = LINE('',#1814,#1815);
#1814 = CARTESIAN_POINT('',(11.7,1.,0.15));
#1815 = VECTOR('',#1816,1.);
#1816 = DIRECTION('',(0.707106781187,4.E-17,-0.707106781187));
#1817 = ORIENTED_EDGE('',*,*,#1126,.T.);
#1818 = ORIENTED_EDGE('',*,*,#1760,.T.);
#1819 = ORIENTED_EDGE('',*,*,#1820,.F.);
#1820 = EDGE_CURVE('',#1811,#1761,#1821,.T.);
#1821 = LINE('',#1822,#1823);
#1822 = CARTESIAN_POINT('',(11.85,1.,0.));
#1823 = VECTOR('',#1824,1.);
#1824 = DIRECTION('',(-0.,-1.,-0.));
#1825 = PLANE('',#1826);
#1826 = AXIS2_PLACEMENT_3D('',#1827,#1828,#1829);
#1827 = CARTESIAN_POINT('',(11.775,1.,7.5E-02));
#1828 = DIRECTION('',(-0.707106781187,-0.,-0.707106781187));
#1829 = DIRECTION('',(0.,1.,0.));
#1830 = ADVANCED_FACE('',(#1831),#1849,.T.);
#1831 = FACE_BOUND('',#1832,.F.);
#1832 = EDGE_LOOP('',(#1833,#1834,#1835,#1843));
#1833 = ORIENTED_EDGE('',*,*,#1787,.F.);
#1834 = ORIENTED_EDGE('',*,*,#1159,.T.);
#1835 = ORIENTED_EDGE('',*,*,#1836,.T.);
#1836 = EDGE_CURVE('',#1152,#1837,#1839,.T.);
#1837 = VERTEX_POINT('',#1838);
#1838 = CARTESIAN_POINT('',(17.25,16.9,0.));
#1839 = LINE('',#1840,#1841);
#1840 = CARTESIAN_POINT('',(17.325,16.9,7.5E-02));
#1841 = VECTOR('',#1842,1.);
#1842 = DIRECTION('',(-0.707106781187,0.,-0.707106781187));
#1843 = ORIENTED_EDGE('',*,*,#1844,.F.);
#1844 = EDGE_CURVE('',#1788,#1837,#1845,.T.);
#1845 = LINE('',#1846,#1847);
#1846 = CARTESIAN_POINT('',(17.25,0.5,0.));
#1847 = VECTOR('',#1848,1.);
#1848 = DIRECTION('',(0.,1.,0.));
#1849 = PLANE('',#1850);
#1850 = AXIS2_PLACEMENT_3D('',#1851,#1852,#1853);
#1851 = CARTESIAN_POINT('',(17.325,0.5,7.5E-02));
#1852 = DIRECTION('',(0.707106781187,0.,-0.707106781187));
#1853 = DIRECTION('',(-0.,-1.,-0.));
#1854 = ADVANCED_FACE('',(#1855),#1874,.F.);
#1855 = FACE_BOUND('',#1856,.F.);
#1856 = EDGE_LOOP('',(#1857,#1865,#1866,#1867));
#1857 = ORIENTED_EDGE('',*,*,#1858,.F.);
#1858 = EDGE_CURVE('',#1176,#1859,#1861,.T.);
#1859 = VERTEX_POINT('',#1860);
#1860 = CARTESIAN_POINT('',(11.2,1.65,0.));
#1861 = LINE('',#1862,#1863);
#1862 = CARTESIAN_POINT('',(11.2,1.575,7.5E-02));
#1863 = VECTOR('',#1864,1.);
#1864 = DIRECTION('',(0.,0.707106781187,-0.707106781187));
#1865 = ORIENTED_EDGE('',*,*,#1183,.T.);
#1866 = ORIENTED_EDGE('',*,*,#1810,.T.);
#1867 = ORIENTED_EDGE('',*,*,#1868,.F.);
#1868 = EDGE_CURVE('',#1859,#1811,#1869,.T.);
#1869 = CIRCLE('',#1870,0.65);
#1870 = AXIS2_PLACEMENT_3D('',#1871,#1872,#1873);
#1871 = CARTESIAN_POINT('',(11.2,1.,0.));
#1872 = DIRECTION('',(0.,0.,-1.));
#1873 = DIRECTION('',(0.,1.,0.));
#1874 = CONICAL_SURFACE('',#1875,0.5,0.785398163397);
#1875 = AXIS2_PLACEMENT_3D('',#1876,#1877,#1878);
#1876 = CARTESIAN_POINT('',(11.2,1.,0.15));
#1877 = DIRECTION('',(-0.,-0.,-1.));
#1878 = DIRECTION('',(0.,1.,0.));
#1879 = ADVANCED_FACE('',(#1880),#1899,.T.);
#1880 = FACE_BOUND('',#1881,.F.);
#1881 = EDGE_LOOP('',(#1882,#1883,#1884,#1892));
#1882 = ORIENTED_EDGE('',*,*,#1836,.F.);
#1883 = ORIENTED_EDGE('',*,*,#1199,.T.);
#1884 = ORIENTED_EDGE('',*,*,#1885,.T.);
#1885 = EDGE_CURVE('',#1200,#1886,#1888,.T.);
#1886 = VERTEX_POINT('',#1887);
#1887 = CARTESIAN_POINT('',(16.9,17.25,-1.E-15));
#1888 = LINE('',#1889,#1890);
#1889 = CARTESIAN_POINT('',(16.9,17.4,0.15));
#1890 = VECTOR('',#1891,1.);
#1891 = DIRECTION('',(-4.E-17,-0.707106781187,-0.707106781187));
#1892 = ORIENTED_EDGE('',*,*,#1893,.F.);
#1893 = EDGE_CURVE('',#1837,#1886,#1894,.T.);
#1894 = CIRCLE('',#1895,0.35);
#1895 = AXIS2_PLACEMENT_3D('',#1896,#1897,#1898);
#1896 = CARTESIAN_POINT('',(16.9,16.9,0.));
#1897 = DIRECTION('',(0.,0.,1.));
#1898 = DIRECTION('',(1.,0.,0.));
#1899 = CONICAL_SURFACE('',#1900,0.5,0.785398163397);
#1900 = AXIS2_PLACEMENT_3D('',#1901,#1902,#1903);
#1901 = CARTESIAN_POINT('',(16.9,16.9,0.15));
#1902 = DIRECTION('',(0.,0.,1.));
#1903 = DIRECTION('',(1.,0.,0.));
#1904 = ADVANCED_FACE('',(#1905),#1923,.T.);
#1905 = FACE_BOUND('',#1906,.F.);
#1906 = EDGE_LOOP('',(#1907,#1915,#1916,#1917));
#1907 = ORIENTED_EDGE('',*,*,#1908,.F.);
#1908 = EDGE_CURVE('',#1225,#1909,#1911,.T.);
#1909 = VERTEX_POINT('',#1910);
#1910 = CARTESIAN_POINT('',(6.2,1.65,0.));
#1911 = LINE('',#1912,#1913);
#1912 = CARTESIAN_POINT('',(6.2,1.5,0.15));
#1913 = VECTOR('',#1914,1.);
#1914 = DIRECTION('',(-4.E-17,0.707106781187,-0.707106781187));
#1915 = ORIENTED_EDGE('',*,*,#1224,.T.);
#1916 = ORIENTED_EDGE('',*,*,#1858,.T.);
#1917 = ORIENTED_EDGE('',*,*,#1918,.F.);
#1918 = EDGE_CURVE('',#1909,#1859,#1919,.T.);
#1919 = LINE('',#1920,#1921);
#1920 = CARTESIAN_POINT('',(6.2,1.65,0.));
#1921 = VECTOR('',#1922,1.);
#1922 = DIRECTION('',(1.,0.,0.));
#1923 = PLANE('',#1924);
#1924 = AXIS2_PLACEMENT_3D('',#1925,#1926,#1927);
#1925 = CARTESIAN_POINT('',(6.2,1.575,7.5E-02));
#1926 = DIRECTION('',(0.,-0.707106781187,-0.707106781187));
#1927 = DIRECTION('',(-1.,-0.,-0.));
#1928 = ADVANCED_FACE('',(#1929),#1947,.T.);
#1929 = FACE_BOUND('',#1930,.F.);
#1930 = EDGE_LOOP('',(#1931,#1932,#1933,#1941));
#1931 = ORIENTED_EDGE('',*,*,#1885,.F.);
#1932 = ORIENTED_EDGE('',*,*,#1257,.T.);
#1933 = ORIENTED_EDGE('',*,*,#1934,.T.);
#1934 = EDGE_CURVE('',#1250,#1935,#1937,.T.);
#1935 = VERTEX_POINT('',#1936);
#1936 = CARTESIAN_POINT('',(0.5,17.25,0.));
#1937 = LINE('',#1938,#1939);
#1938 = CARTESIAN_POINT('',(0.5,17.325,7.5E-02));
#1939 = VECTOR('',#1940,1.);
#1940 = DIRECTION('',(-0.,-0.707106781187,-0.707106781187));
#1941 = ORIENTED_EDGE('',*,*,#1942,.F.);
#1942 = EDGE_CURVE('',#1886,#1935,#1943,.T.);
#1943 = LINE('',#1944,#1945);
#1944 = CARTESIAN_POINT('',(16.9,17.25,0.));
#1945 = VECTOR('',#1946,1.);
#1946 = DIRECTION('',(-1.,0.,0.));
#1947 = PLANE('',#1948);
#1948 = AXIS2_PLACEMENT_3D('',#1949,#1950,#1951);
#1949 = CARTESIAN_POINT('',(16.9,17.325,7.5E-02));
#1950 = DIRECTION('',(0.,0.707106781187,-0.707106781187));
#1951 = DIRECTION('',(1.,0.,0.));
#1952 = ADVANCED_FACE('',(#1953),#1972,.F.);
#1953 = FACE_BOUND('',#1954,.F.);
#1954 = EDGE_LOOP('',(#1955,#1963,#1964,#1965));
#1955 = ORIENTED_EDGE('',*,*,#1956,.F.);
#1956 = EDGE_CURVE('',#1274,#1957,#1959,.T.);
#1957 = VERTEX_POINT('',#1958);
#1958 = CARTESIAN_POINT('',(5.55,1.,0.));
#1959 = LINE('',#1960,#1961);
#1960 = CARTESIAN_POINT('',(5.625,1.,7.5E-02));
#1961 = VECTOR('',#1962,1.);
#1962 = DIRECTION('',(-0.707106781187,-0.,-0.707106781187));
#1963 = ORIENTED_EDGE('',*,*,#1281,.T.);
#1964 = ORIENTED_EDGE('',*,*,#1908,.T.);
#1965 = ORIENTED_EDGE('',*,*,#1966,.F.);
#1966 = EDGE_CURVE('',#1957,#1909,#1967,.T.);
#1967 = CIRCLE('',#1968,0.65);
#1968 = AXIS2_PLACEMENT_3D('',#1969,#1970,#1971);
#1969 = CARTESIAN_POINT('',(6.2,1.,0.));
#1970 = DIRECTION('',(0.,0.,-1.));
#1971 = DIRECTION('',(-1.,0.,0.));
#1972 = CONICAL_SURFACE('',#1973,0.5,0.785398163397);
#1973 = AXIS2_PLACEMENT_3D('',#1974,#1975,#1976);
#1974 = CARTESIAN_POINT('',(6.2,1.,0.15));
#1975 = DIRECTION('',(-0.,-0.,-1.));
#1976 = DIRECTION('',(-1.,0.,0.));
#1977 = ADVANCED_FACE('',(#1978),#1997,.T.);
#1978 = FACE_BOUND('',#1979,.F.);
#1979 = EDGE_LOOP('',(#1980,#1981,#1982,#1990));
#1980 = ORIENTED_EDGE('',*,*,#1934,.F.);
#1981 = ORIENTED_EDGE('',*,*,#1304,.T.);
#1982 = ORIENTED_EDGE('',*,*,#1983,.T.);
#1983 = EDGE_CURVE('',#1297,#1984,#1986,.T.);
#1984 = VERTEX_POINT('',#1985);
#1985 = CARTESIAN_POINT('',(0.15,16.9,0.));
#1986 = LINE('',#1987,#1988);
#1987 = CARTESIAN_POINT('',(7.5E-02,16.9,7.5E-02));
#1988 = VECTOR('',#1989,1.);
#1989 = DIRECTION('',(0.707106781187,0.,-0.707106781187));
#1990 = ORIENTED_EDGE('',*,*,#1991,.F.);
#1991 = EDGE_CURVE('',#1935,#1984,#1992,.T.);
#1992 = CIRCLE('',#1993,0.35);
#1993 = AXIS2_PLACEMENT_3D('',#1994,#1995,#1996);
#1994 = CARTESIAN_POINT('',(0.5,16.9,0.));
#1995 = DIRECTION('',(0.,0.,1.));
#1996 = DIRECTION('',(-3.3E-16,1.,0.));
#1997 = CONICAL_SURFACE('',#1998,0.5,0.785398163397);
#1998 = AXIS2_PLACEMENT_3D('',#1999,#2000,#2001);
#1999 = CARTESIAN_POINT('',(0.5,16.9,0.15));
#2000 = DIRECTION('',(0.,0.,1.));
#2001 = DIRECTION('',(-3.3E-16,1.,0.));
#2002 = ADVANCED_FACE('',(#2003),#2021,.T.);
#2003 = FACE_BOUND('',#2004,.F.);
#2004 = EDGE_LOOP('',(#2005,#2013,#2014,#2015));
#2005 = ORIENTED_EDGE('',*,*,#2006,.F.);
#2006 = EDGE_CURVE('',#1323,#2007,#2009,.T.);
#2007 = VERTEX_POINT('',#2008);
#2008 = CARTESIAN_POINT('',(5.55,0.5,0.));
#2009 = LINE('',#2010,#2011);
#2010 = CARTESIAN_POINT('',(5.7,0.5,0.15));
#2011 = VECTOR('',#2012,1.);
#2012 = DIRECTION('',(-0.707106781187,4.E-17,-0.707106781187));
#2013 = ORIENTED_EDGE('',*,*,#1322,.T.);
#2014 = ORIENTED_EDGE('',*,*,#1956,.T.);
#2015 = ORIENTED_EDGE('',*,*,#2016,.F.);
#2016 = EDGE_CURVE('',#2007,#1957,#2017,.T.);
#2017 = LINE('',#2018,#2019);
#2018 = CARTESIAN_POINT('',(5.55,0.5,0.));
#2019 = VECTOR('',#2020,1.);
#2020 = DIRECTION('',(0.,1.,0.));
#2021 = PLANE('',#2022);
#2022 = AXIS2_PLACEMENT_3D('',#2023,#2024,#2025);
#2023 = CARTESIAN_POINT('',(5.625,0.5,7.5E-02));
#2024 = DIRECTION('',(0.707106781187,0.,-0.707106781187));
#2025 = DIRECTION('',(-0.,-1.,-0.));
#2026 = ADVANCED_FACE('',(#2027),#2045,.T.);
#2027 = FACE_BOUND('',#2028,.F.);
#2028 = EDGE_LOOP('',(#2029,#2030,#2031,#2039));
#2029 = ORIENTED_EDGE('',*,*,#1983,.F.);
#2030 = ORIENTED_EDGE('',*,*,#1355,.T.);
#2031 = ORIENTED_EDGE('',*,*,#2032,.T.);
#2032 = EDGE_CURVE('',#1348,#2033,#2035,.T.);
#2033 = VERTEX_POINT('',#2034);
#2034 = CARTESIAN_POINT('',(0.15,0.5,0.));
#2035 = LINE('',#2036,#2037);
#2036 = CARTESIAN_POINT('',(7.5E-02,0.5,7.5E-02));
#2037 = VECTOR('',#2038,1.);
#2038 = DIRECTION('',(0.707106781187,0.,-0.707106781187));
#2039 = ORIENTED_EDGE('',*,*,#2040,.F.);
#2040 = EDGE_CURVE('',#1984,#2033,#2041,.T.);
#2041 = LINE('',#2042,#2043);
#2042 = CARTESIAN_POINT('',(0.15,16.9,0.));
#2043 = VECTOR('',#2044,1.);
#2044 = DIRECTION('',(0.,-1.,0.));
#2045 = PLANE('',#2046);
#2046 = AXIS2_PLACEMENT_3D('',#2047,#2048,#2049);
#2047 = CARTESIAN_POINT('',(7.5E-02,16.9,7.5E-02));
#2048 = DIRECTION('',(-0.707106781187,0.,-0.707106781187));
#2049 = DIRECTION('',(0.,1.,0.));
#2050 = ADVANCED_FACE('',(#2051),#2070,.T.);
#2051 = FACE_BOUND('',#2052,.F.);
#2052 = EDGE_LOOP('',(#2053,#2061,#2062,#2063));
#2053 = ORIENTED_EDGE('',*,*,#2054,.F.);
#2054 = EDGE_CURVE('',#1372,#2055,#2057,.T.);
#2055 = VERTEX_POINT('',#2056);
#2056 = CARTESIAN_POINT('',(5.2,0.15,0.));
#2057 = LINE('',#2058,#2059);
#2058 = CARTESIAN_POINT('',(5.2,7.5E-02,7.5E-02));
#2059 = VECTOR('',#2060,1.);
#2060 = DIRECTION('',(0.,0.707106781187,-0.707106781187));
#2061 = ORIENTED_EDGE('',*,*,#1379,.T.);
#2062 = ORIENTED_EDGE('',*,*,#2006,.T.);
#2063 = ORIENTED_EDGE('',*,*,#2064,.F.);
#2064 = EDGE_CURVE('',#2055,#2007,#2065,.T.);
#2065 = CIRCLE('',#2066,0.35);
#2066 = AXIS2_PLACEMENT_3D('',#2067,#2068,#2069);
#2067 = CARTESIAN_POINT('',(5.2,0.5,0.));
#2068 = DIRECTION('',(-0.,0.,1.));
#2069 = DIRECTION('',(0.,-1.,0.));
#2070 = CONICAL_SURFACE('',#2071,0.5,0.785398163397);
#2071 = AXIS2_PLACEMENT_3D('',#2072,#2073,#2074);
#2072 = CARTESIAN_POINT('',(5.2,0.5,0.15));
#2073 = DIRECTION('',(0.,0.,1.));
#2074 = DIRECTION('',(0.,-1.,0.));
#2075 = ADVANCED_FACE('',(#2076),#2095,.T.);
#2076 = FACE_BOUND('',#2077,.F.);
#2077 = EDGE_LOOP('',(#2078,#2079,#2080,#2088));
#2078 = ORIENTED_EDGE('',*,*,#2032,.F.);
#2079 = ORIENTED_EDGE('',*,*,#1402,.T.);
#2080 = ORIENTED_EDGE('',*,*,#2081,.T.);
#2081 = EDGE_CURVE('',#1395,#2082,#2084,.T.);
#2082 = VERTEX_POINT('',#2083);
#2083 = CARTESIAN_POINT('',(0.5,0.15,0.));
#2084 = LINE('',#2085,#2086);
#2085 = CARTESIAN_POINT('',(0.5,0.,0.15));
#2086 = VECTOR('',#2087,1.);
#2087 = DIRECTION('',(-1.9E-16,0.707106781187,-0.707106781187));
#2088 = ORIENTED_EDGE('',*,*,#2089,.F.);
#2089 = EDGE_CURVE('',#2033,#2082,#2090,.T.);
#2090 = CIRCLE('',#2091,0.35);
#2091 = AXIS2_PLACEMENT_3D('',#2092,#2093,#2094);
#2092 = CARTESIAN_POINT('',(0.5,0.5,0.));
#2093 = DIRECTION('',(0.,0.,1.));
#2094 = DIRECTION('',(-1.,-3.3E-16,0.));
#2095 = CONICAL_SURFACE('',#2096,0.5,0.785398163397);
#2096 = AXIS2_PLACEMENT_3D('',#2097,#2098,#2099);
#2097 = CARTESIAN_POINT('',(0.5,0.5,0.15));
#2098 = DIRECTION('',(0.,0.,1.));
#2099 = DIRECTION('',(-1.,-3.3E-16,0.));
#2100 = ADVANCED_FACE('',(#2101),#2112,.T.);
#2101 = FACE_BOUND('',#2102,.F.);
#2102 = EDGE_LOOP('',(#2103,#2104,#2105,#2106));
#2103 = ORIENTED_EDGE('',*,*,#2081,.F.);
#2104 = ORIENTED_EDGE('',*,*,#1420,.T.);
#2105 = ORIENTED_EDGE('',*,*,#2054,.T.);
#2106 = ORIENTED_EDGE('',*,*,#2107,.F.);
#2107 = EDGE_CURVE('',#2082,#2055,#2108,.T.);
#2108 = LINE('',#2109,#2110);
#2109 = CARTESIAN_POINT('',(0.5,0.15,0.));
#2110 = VECTOR('',#2111,1.);
#2111 = DIRECTION('',(1.,0.,0.));
#2112 = PLANE('',#2113);
#2113 = AXIS2_PLACEMENT_3D('',#2114,#2115,#2116);
#2114 = CARTESIAN_POINT('',(0.5,7.5E-02,7.5E-02));
#2115 = DIRECTION('',(0.,-0.707106781187,-0.707106781187));
#2116 = DIRECTION('',(-1.,-0.,-0.));
#2117 = ADVANCED_FACE('',(#2118),#2124,.T.);
#2118 = FACE_BOUND('',#2119,.T.);
#2119 = EDGE_LOOP('',(#2120,#2121,#2122,#2123));
#2120 = ORIENTED_EDGE('',*,*,#1529,.T.);
#2121 = ORIENTED_EDGE('',*,*,#1588,.T.);
#2122 = ORIENTED_EDGE('',*,*,#1512,.T.);
#2123 = ORIENTED_EDGE('',*,*,#1445,.T.);
#2124 = PLANE('',#2125);
#2125 = AXIS2_PLACEMENT_3D('',#2126,#2127,#2128);
#2126 = CARTESIAN_POINT('',(8.7,13.95,3.4));
#2127 = DIRECTION('',(0.,0.,1.));
#2128 = DIRECTION('',(1.,0.,0.));
#2129 = ADVANCED_FACE('',(#2130),#2149,.F.);
#2130 = FACE_BOUND('',#2131,.F.);
#2131 = EDGE_LOOP('',(#2132,#2140,#2147,#2148));
#2132 = ORIENTED_EDGE('',*,*,#2133,.F.);
#2133 = EDGE_CURVE('',#2134,#1605,#2136,.T.);
#2134 = VERTEX_POINT('',#2135);
#2135 = CARTESIAN_POINT('',(15.85,14.7,0.));
#2136 = LINE('',#2137,#2138);
#2137 = CARTESIAN_POINT('',(15.7,14.7,0.15));
#2138 = VECTOR('',#2139,1.);
#2139 = DIRECTION('',(-0.707106781187,0.,0.707106781187));
#2140 = ORIENTED_EDGE('',*,*,#2141,.T.);
#2141 = EDGE_CURVE('',#2134,#2134,#2142,.T.);
#2142 = CIRCLE('',#2143,1.15);
#2143 = AXIS2_PLACEMENT_3D('',#2144,#2145,#2146);
#2144 = CARTESIAN_POINT('',(14.7,14.7,0.));
#2145 = DIRECTION('',(0.,0.,1.));
#2146 = DIRECTION('',(1.,0.,-0.));
#2147 = ORIENTED_EDGE('',*,*,#2133,.T.);
#2148 = ORIENTED_EDGE('',*,*,#1614,.F.);
#2149 = CONICAL_SURFACE('',#2150,1.,0.785398163397);
#2150 = AXIS2_PLACEMENT_3D('',#2151,#2152,#2153);
#2151 = CARTESIAN_POINT('',(14.7,14.7,0.15));
#2152 = DIRECTION('',(-0.,-0.,-1.));
#2153 = DIRECTION('',(1.,0.,-0.));
#2154 = ADVANCED_FACE('',(#2155),#2174,.F.);
#2155 = FACE_BOUND('',#2156,.F.);
#2156 = EDGE_LOOP('',(#2157,#2165,#2172,#2173));
#2157 = ORIENTED_EDGE('',*,*,#2158,.F.);
#2158 = EDGE_CURVE('',#2159,#1630,#2161,.T.);
#2159 = VERTEX_POINT('',#2160);
#2160 = CARTESIAN_POINT('',(3.85,14.7,0.));
#2161 = LINE('',#2162,#2163);
#2162 = CARTESIAN_POINT('',(3.7,14.7,0.15));
#2163 = VECTOR('',#2164,1.);
#2164 = DIRECTION('',(-0.707106781187,0.,0.707106781187));
#2165 = ORIENTED_EDGE('',*,*,#2166,.T.);
#2166 = EDGE_CURVE('',#2159,#2159,#2167,.T.);
#2167 = CIRCLE('',#2168,1.15);
#2168 = AXIS2_PLACEMENT_3D('',#2169,#2170,#2171);
#2169 = CARTESIAN_POINT('',(2.7,14.7,0.));
#2170 = DIRECTION('',(0.,0.,1.));
#2171 = DIRECTION('',(1.,0.,-0.));
#2172 = ORIENTED_EDGE('',*,*,#2158,.T.);
#2173 = ORIENTED_EDGE('',*,*,#1639,.F.);
#2174 = CONICAL_SURFACE('',#2175,1.,0.785398163397);
#2175 = AXIS2_PLACEMENT_3D('',#2176,#2177,#2178);
#2176 = CARTESIAN_POINT('',(2.7,14.7,0.15));
#2177 = DIRECTION('',(-0.,-0.,-1.));
#2178 = DIRECTION('',(1.,0.,-0.));
#2179 = ADVANCED_FACE('',(#2180,#2183,#2201,#2204,#2207,#2210),#2221,.F.
  );
#2180 = FACE_BOUND('',#2181,.F.);
#2181 = EDGE_LOOP('',(#2182));
#2182 = ORIENTED_EDGE('',*,*,#2141,.F.);
#2183 = FACE_BOUND('',#2184,.F.);
#2184 = EDGE_LOOP('',(#2185,#2186,#2187,#2188,#2189,#2190,#2191,#2192,
    #2193,#2194,#2195,#2196,#2197,#2198,#2199,#2200));
#2185 = ORIENTED_EDGE('',*,*,#2040,.T.);
#2186 = ORIENTED_EDGE('',*,*,#2089,.T.);
#2187 = ORIENTED_EDGE('',*,*,#2107,.T.);
#2188 = ORIENTED_EDGE('',*,*,#2064,.T.);
#2189 = ORIENTED_EDGE('',*,*,#2016,.T.);
#2190 = ORIENTED_EDGE('',*,*,#1966,.T.);
#2191 = ORIENTED_EDGE('',*,*,#1918,.T.);
#2192 = ORIENTED_EDGE('',*,*,#1868,.T.);
#2193 = ORIENTED_EDGE('',*,*,#1820,.T.);
#2194 = ORIENTED_EDGE('',*,*,#1770,.T.);
#2195 = ORIENTED_EDGE('',*,*,#1746,.T.);
#2196 = ORIENTED_EDGE('',*,*,#1795,.T.);
#2197 = ORIENTED_EDGE('',*,*,#1844,.T.);
#2198 = ORIENTED_EDGE('',*,*,#1893,.T.);
#2199 = ORIENTED_EDGE('',*,*,#1942,.T.);
#2200 = ORIENTED_EDGE('',*,*,#1991,.T.);
#2201 = FACE_BOUND('',#2202,.F.);
#2202 = EDGE_LOOP('',(#2203));
#2203 = ORIENTED_EDGE('',*,*,#1664,.F.);
#2204 = FACE_BOUND('',#2205,.F.);
#2205 = EDGE_LOOP('',(#2206));
#2206 = ORIENTED_EDGE('',*,*,#1712,.F.);
#2207 = FACE_BOUND('',#2208,.F.);
#2208 = EDGE_LOOP('',(#2209));
#2209 = ORIENTED_EDGE('',*,*,#2166,.F.);
#2210 = FACE_BOUND('',#2211,.F.);
#2211 = EDGE_LOOP('',(#2212));
#2212 = ORIENTED_EDGE('',*,*,#2213,.F.);
#2213 = EDGE_CURVE('',#2214,#2214,#2216,.T.);
#2214 = VERTEX_POINT('',#2215);
#2215 = CARTESIAN_POINT('',(15.85,2.7,0.));
#2216 = CIRCLE('',#2217,1.15);
#2217 = AXIS2_PLACEMENT_3D('',#2218,#2219,#2220);
#2218 = CARTESIAN_POINT('',(14.7,2.7,0.));
#2219 = DIRECTION('',(0.,0.,1.));
#2220 = DIRECTION('',(1.,0.,-0.));
#2221 = PLANE('',#2222);
#2222 = AXIS2_PLACEMENT_3D('',#2223,#2224,#2225);
#2223 = CARTESIAN_POINT('',(8.7,8.7,0.));
#2224 = DIRECTION('',(0.,0.,1.));
#2225 = DIRECTION('',(1.,0.,0.));
#2226 = ADVANCED_FACE('',(#2227),#2238,.F.);
#2227 = FACE_BOUND('',#2228,.F.);
#2228 = EDGE_LOOP('',(#2229,#2235,#2236,#2237));
#2229 = ORIENTED_EDGE('',*,*,#2230,.F.);
#2230 = EDGE_CURVE('',#2214,#1680,#2231,.T.);
#2231 = LINE('',#2232,#2233);
#2232 = CARTESIAN_POINT('',(15.7,2.7,0.15));
#2233 = VECTOR('',#2234,1.);
#2234 = DIRECTION('',(-0.707106781187,0.,0.707106781187));
#2235 = ORIENTED_EDGE('',*,*,#2213,.T.);
#2236 = ORIENTED_EDGE('',*,*,#2230,.T.);
#2237 = ORIENTED_EDGE('',*,*,#1689,.F.);
#2238 = CONICAL_SURFACE('',#2239,1.,0.785398163397);
#2239 = AXIS2_PLACEMENT_3D('',#2240,#2241,#2242);
#2240 = CARTESIAN_POINT('',(14.7,2.7,0.15));
#2241 = DIRECTION('',(-0.,-0.,-1.));
#2242 = DIRECTION('',(1.,0.,-0.));
#2243 = ( GEOMETRIC_REPRESENTATION_CONTEXT(3) 
GLOBAL_UNCERTAINTY_ASSIGNED_CONTEXT((#2247)) 
GLOBAL_UNIT_ASSIGNED_CONTEXT((#2244,#2245,#2246)) REPRESENTATION_CONTEXT
('Context #1','3D Context with UNIT and UNCERTAINTY') );
#2244 = ( LENGTH_UNIT() NAMED_UNIT(*) SI_UNIT(.MILLI.,.METRE.) );
#2245 = ( NAMED_UNIT(*) PLANE_ANGLE_UNIT() SI_UNIT($,.RADIAN.) );
#2246 = ( NAMED_UNIT(*) SI_UNIT($,.STERADIAN.) SOLID_ANGLE_UNIT() );
#2247 = UNCERTAINTY_MEASURE_WITH_UNIT(LENGTH_MEASURE(1.E-07),#2244,
  'distance_accuracy_value','confusion accuracy');
#2248 = PRODUCT_RELATED_PRODUCT_CATEGORY('part',$,(#7));
#2249 = MECHANICAL_DESIGN_GEOMETRIC_PRESENTATION_REPRESENTATION('',(
    #2250),#2243);
#2250 = STYLED_ITEM('color',(#2251),#15);
#2251 = PRESENTATION_STYLE_ASSIGNMENT((#2252,#2258));
#2252 = SURFACE_STYLE_USAGE(.BOTH.,#2253);
#2253 = SURFACE_SIDE_STYLE('',(#2254));
#2254 = SURFACE_STYLE_FILL_AREA(#2255);
#2255 = FILL_AREA_STYLE('',(#2256));
#2256 = FILL_AREA_STYLE_COLOUR('',#2257);
#2257 = COLOUR_RGB('',0.447058818107,0.474509808674,0.501960817233);
#2258 = CURVE_STYLE('',#2259,POSITIVE_LENGTH_MEASURE(0.1),#2260);
#2259 = DRAUGHTING_PRE_DEFINED_CURVE_FONT('continuous');
#2260 = COLOUR_RGB('',9.803921802644E-02,9.803921802644E-02,
  9.803921802644E-02);
ENDSEC;
END-ISO-10303-21;
