ISO-10303-21;
HEADER;
FILE_DESCRIPTION(('FreeCAD Model'),'2;1');
FILE_NAME('Open CASCADE Shape Model','2025-04-08T13:51:15',(''),(''),
  'Open CASCADE STEP processor 7.8','FreeCAD','Unknown');
FILE_SCHEMA(('AUTOMOTIVE_DESIGN { 1 0 10303 214 1 1 1 1 }'));
ENDSEC;
DATA;
#1 = APPLICATION_PROTOCOL_DEFINITION('international standard',
  'automotive_design',2000,#2);
#2 = APPLICATION_CONTEXT(
  'core data for automotive mechanical design processes');
#3 = SHAPE_DEFINITION_REPRESENTATION(#4,#10);
#4 = PRODUCT_DEFINITION_SHAPE('','',#5);
#5 = PRODUCT_DEFINITION('design','',#6,#9);
#6 = PRODUCT_DEFINITION_FORMATION('','',#7);
#7 = PRODUCT('pin','pin','',(#8));
#8 = PRODUCT_CONTEXT('',#2,'mechanical');
#9 = PRODUCT_DEFINITION_CONTEXT('part definition',#2,'design');
#10 = ADVANCED_BREP_SHAPE_REPRESENTATION('',(#11,#15),#287);
#11 = AXIS2_PLACEMENT_3D('',#12,#13,#14);
#12 = CARTESIAN_POINT('',(0.,0.,0.));
#13 = DIRECTION('',(0.,0.,1.));
#14 = DIRECTION('',(1.,0.,-0.));
#15 = MANIFOLD_SOLID_BREP('',#16);
#16 = CLOSED_SHELL('',(#17,#50,#83,#103,#112,#138,#163,#183,#208,#233,
    #253,#278));
#17 = ADVANCED_FACE('',(#18),#45,.T.);
#18 = FACE_BOUND('',#19,.T.);
#19 = EDGE_LOOP('',(#20,#30,#37,#38));
#20 = ORIENTED_EDGE('',*,*,#21,.F.);
#21 = EDGE_CURVE('',#22,#24,#26,.T.);
#22 = VERTEX_POINT('',#23);
#23 = CARTESIAN_POINT('',(-0.45,1.032507412901E-15,4.65));
#24 = VERTEX_POINT('',#25);
#25 = CARTESIAN_POINT('',(-0.45,1.032529617362E-15,4.6501));
#26 = LINE('',#27,#28);
#27 = CARTESIAN_POINT('',(-0.45,1.032507412901E-15,4.65));
#28 = VECTOR('',#29,1.);
#29 = DIRECTION('',(0.,2.22044604925E-16,1.));
#30 = ORIENTED_EDGE('',*,*,#31,.T.);
#31 = EDGE_CURVE('',#22,#22,#32,.T.);
#32 = CIRCLE('',#33,0.45);
#33 = AXIS2_PLACEMENT_3D('',#34,#35,#36);
#34 = CARTESIAN_POINT('',(0.,1.032507412901E-15,4.65));
#35 = DIRECTION('',(0.,2.22044604925E-16,1.));
#36 = DIRECTION('',(-1.,0.,0.));
#37 = ORIENTED_EDGE('',*,*,#21,.T.);
#38 = ORIENTED_EDGE('',*,*,#39,.F.);
#39 = EDGE_CURVE('',#24,#24,#40,.T.);
#40 = CIRCLE('',#41,0.45);
#41 = AXIS2_PLACEMENT_3D('',#42,#43,#44);
#42 = CARTESIAN_POINT('',(0.,1.032529617362E-15,4.6501));
#43 = DIRECTION('',(0.,2.22044604925E-16,1.));
#44 = DIRECTION('',(-1.,-0.,0.));
#45 = CYLINDRICAL_SURFACE('',#46,0.45);
#46 = AXIS2_PLACEMENT_3D('',#47,#48,#49);
#47 = CARTESIAN_POINT('',(0.,1.032507412901E-15,4.65));
#48 = DIRECTION('',(0.,2.22044604925E-16,1.));
#49 = DIRECTION('',(-1.,0.,0.));
#50 = ADVANCED_FACE('',(#51),#71,.T.);
#51 = FACE_BOUND('',#52,.T.);
#52 = EDGE_LOOP('',(#53,#62,#63,#64));
#53 = ORIENTED_EDGE('',*,*,#54,.F.);
#54 = EDGE_CURVE('',#24,#55,#57,.T.);
#55 = VERTEX_POINT('',#56);
#56 = CARTESIAN_POINT('',(-0.1001,1.110223024625E-15,5.));
#57 = CIRCLE('',#58,0.3499);
#58 = AXIS2_PLACEMENT_3D('',#59,#60,#61);
#59 = CARTESIAN_POINT('',(-0.1001,1.032529617362E-15,4.6501));
#60 = DIRECTION('',(-0.,1.,-2.22044604925E-16));
#61 = DIRECTION('',(-1.,-0.,0.));
#62 = ORIENTED_EDGE('',*,*,#39,.T.);
#63 = ORIENTED_EDGE('',*,*,#54,.T.);
#64 = ORIENTED_EDGE('',*,*,#65,.F.);
#65 = EDGE_CURVE('',#55,#55,#66,.T.);
#66 = CIRCLE('',#67,0.1001);
#67 = AXIS2_PLACEMENT_3D('',#68,#69,#70);
#68 = CARTESIAN_POINT('',(0.,1.110223024625E-15,5.));
#69 = DIRECTION('',(0.,2.22044604925E-16,1.));
#70 = DIRECTION('',(-1.,-0.,0.));
#71 = SURFACE_OF_REVOLUTION('',#72,#80);
#72 = B_SPLINE_CURVE_WITH_KNOTS('',6,(#73,#74,#75,#76,#77,#78,#79),
  .UNSPECIFIED.,.F.,.F.,(7,7),(0.,1.570796326795),
  .PIECEWISE_BEZIER_KNOTS.);
#73 = CARTESIAN_POINT('',(-0.45,1.032529617362E-15,4.6501));
#74 = CARTESIAN_POINT('',(-0.45,1.052869703819E-15,4.741703605791));
#75 = CARTESIAN_POINT('',(-0.421228532662,1.073208059665E-15,
    4.833299417597));
#76 = CARTESIAN_POINT('',(-0.363641233359,1.091047526405E-15,
    4.913641233359));
#77 = CARTESIAN_POINT('',(-0.283299417597,1.103834475527E-15,
    4.971228532661));
#78 = CARTESIAN_POINT('',(-0.191703605791,1.110223024625E-15,5.));
#79 = CARTESIAN_POINT('',(-0.1001,1.110223024625E-15,5.));
#80 = AXIS1_PLACEMENT('',#81,#82);
#81 = CARTESIAN_POINT('',(0.,1.032529617362E-15,4.6501));
#82 = DIRECTION('',(0.,2.22044604925E-16,1.));
#83 = ADVANCED_FACE('',(#84,#95),#98,.T.);
#84 = FACE_BOUND('',#85,.T.);
#85 = EDGE_LOOP('',(#86));
#86 = ORIENTED_EDGE('',*,*,#87,.T.);
#87 = EDGE_CURVE('',#88,#88,#90,.T.);
#88 = VERTEX_POINT('',#89);
#89 = CARTESIAN_POINT('',(-0.6,1.032507412901E-15,4.65));
#90 = CIRCLE('',#91,0.6);
#91 = AXIS2_PLACEMENT_3D('',#92,#93,#94);
#92 = CARTESIAN_POINT('',(0.,1.032507412901E-15,4.65));
#93 = DIRECTION('',(0.,2.22044604925E-16,1.));
#94 = DIRECTION('',(-1.,0.,0.));
#95 = FACE_BOUND('',#96,.T.);
#96 = EDGE_LOOP('',(#97));
#97 = ORIENTED_EDGE('',*,*,#31,.F.);
#98 = PLANE('',#99);
#99 = AXIS2_PLACEMENT_3D('',#100,#101,#102);
#100 = CARTESIAN_POINT('',(0.,1.032507412901E-15,4.65));
#101 = DIRECTION('',(0.,2.22044604925E-16,1.));
#102 = DIRECTION('',(-1.,0.,0.));
#103 = ADVANCED_FACE('',(#104),#107,.T.);
#104 = FACE_BOUND('',#105,.T.);
#105 = EDGE_LOOP('',(#106));
#106 = ORIENTED_EDGE('',*,*,#65,.T.);
#107 = PLANE('',#108);
#108 = AXIS2_PLACEMENT_3D('',#109,#110,#111);
#109 = CARTESIAN_POINT('',(0.,1.110223024625E-15,5.));
#110 = DIRECTION('',(0.,2.22044604925E-16,1.));
#111 = DIRECTION('',(-1.,0.,0.));
#112 = ADVANCED_FACE('',(#113),#133,.T.);
#113 = FACE_BOUND('',#114,.T.);
#114 = EDGE_LOOP('',(#115,#124,#131,#132));
#115 = ORIENTED_EDGE('',*,*,#116,.F.);
#116 = EDGE_CURVE('',#117,#88,#119,.T.);
#117 = VERTEX_POINT('',#118);
#118 = CARTESIAN_POINT('',(-0.75,9.992007221626E-16,4.5));
#119 = CIRCLE('',#120,0.15);
#120 = AXIS2_PLACEMENT_3D('',#121,#122,#123);
#121 = CARTESIAN_POINT('',(-0.6,9.992007221626E-16,4.5));
#122 = DIRECTION('',(0.,1.,-2.22044604925E-16));
#123 = DIRECTION('',(-1.,0.,0.));
#124 = ORIENTED_EDGE('',*,*,#125,.T.);
#125 = EDGE_CURVE('',#117,#117,#126,.T.);
#126 = CIRCLE('',#127,0.75);
#127 = AXIS2_PLACEMENT_3D('',#128,#129,#130);
#128 = CARTESIAN_POINT('',(0.,9.992007221626E-16,4.5));
#129 = DIRECTION('',(0.,2.22044604925E-16,1.));
#130 = DIRECTION('',(-1.,0.,0.));
#131 = ORIENTED_EDGE('',*,*,#116,.T.);
#132 = ORIENTED_EDGE('',*,*,#87,.F.);
#133 = TOROIDAL_SURFACE('',#134,0.6,0.15);
#134 = AXIS2_PLACEMENT_3D('',#135,#136,#137);
#135 = CARTESIAN_POINT('',(0.,9.992007221626E-16,4.5));
#136 = DIRECTION('',(0.,2.22044604925E-16,1.));
#137 = DIRECTION('',(-1.,0.,0.));
#138 = ADVANCED_FACE('',(#139),#158,.T.);
#139 = FACE_BOUND('',#140,.T.);
#140 = EDGE_LOOP('',(#141,#149,#156,#157));
#141 = ORIENTED_EDGE('',*,*,#142,.F.);
#142 = EDGE_CURVE('',#143,#117,#145,.T.);
#143 = VERTEX_POINT('',#144);
#144 = CARTESIAN_POINT('',(-0.75,6.661338147751E-17,0.3));
#145 = LINE('',#146,#147);
#146 = CARTESIAN_POINT('',(-0.75,6.661338147751E-17,0.3));
#147 = VECTOR('',#148,1.);
#148 = DIRECTION('',(0.,2.22044604925E-16,1.));
#149 = ORIENTED_EDGE('',*,*,#150,.T.);
#150 = EDGE_CURVE('',#143,#143,#151,.T.);
#151 = CIRCLE('',#152,0.75);
#152 = AXIS2_PLACEMENT_3D('',#153,#154,#155);
#153 = CARTESIAN_POINT('',(0.,6.661338147751E-17,0.3));
#154 = DIRECTION('',(0.,2.22044604925E-16,1.));
#155 = DIRECTION('',(-1.,0.,0.));
#156 = ORIENTED_EDGE('',*,*,#142,.T.);
#157 = ORIENTED_EDGE('',*,*,#125,.F.);
#158 = CYLINDRICAL_SURFACE('',#159,0.75);
#159 = AXIS2_PLACEMENT_3D('',#160,#161,#162);
#160 = CARTESIAN_POINT('',(0.,6.661338147751E-17,0.3));
#161 = DIRECTION('',(0.,2.22044604925E-16,1.));
#162 = DIRECTION('',(-1.,0.,0.));
#163 = ADVANCED_FACE('',(#164,#175),#178,.T.);
#164 = FACE_BOUND('',#165,.T.);
#165 = EDGE_LOOP('',(#166));
#166 = ORIENTED_EDGE('',*,*,#167,.T.);
#167 = EDGE_CURVE('',#168,#168,#170,.T.);
#168 = VERTEX_POINT('',#169);
#169 = CARTESIAN_POINT('',(-0.9,6.661338147751E-17,0.3));
#170 = CIRCLE('',#171,0.9);
#171 = AXIS2_PLACEMENT_3D('',#172,#173,#174);
#172 = CARTESIAN_POINT('',(0.,6.661338147751E-17,0.3));
#173 = DIRECTION('',(0.,2.22044604925E-16,1.));
#174 = DIRECTION('',(-1.,0.,0.));
#175 = FACE_BOUND('',#176,.T.);
#176 = EDGE_LOOP('',(#177));
#177 = ORIENTED_EDGE('',*,*,#150,.F.);
#178 = PLANE('',#179);
#179 = AXIS2_PLACEMENT_3D('',#180,#181,#182);
#180 = CARTESIAN_POINT('',(0.,6.661338147751E-17,0.3));
#181 = DIRECTION('',(0.,2.22044604925E-16,1.));
#182 = DIRECTION('',(-1.,0.,0.));
#183 = ADVANCED_FACE('',(#184),#203,.T.);
#184 = FACE_BOUND('',#185,.T.);
#185 = EDGE_LOOP('',(#186,#194,#201,#202));
#186 = ORIENTED_EDGE('',*,*,#187,.F.);
#187 = EDGE_CURVE('',#188,#168,#190,.T.);
#188 = VERTEX_POINT('',#189);
#189 = CARTESIAN_POINT('',(-1.,4.440892098501E-17,0.2));
#190 = LINE('',#191,#192);
#191 = CARTESIAN_POINT('',(-1.,4.440892098501E-17,0.2));
#192 = VECTOR('',#193,1.);
#193 = DIRECTION('',(0.707106781187,1.570092458684E-16,0.707106781187));
#194 = ORIENTED_EDGE('',*,*,#195,.T.);
#195 = EDGE_CURVE('',#188,#188,#196,.T.);
#196 = CIRCLE('',#197,1.);
#197 = AXIS2_PLACEMENT_3D('',#198,#199,#200);
#198 = CARTESIAN_POINT('',(0.,4.440892098501E-17,0.2));
#199 = DIRECTION('',(0.,2.22044604925E-16,1.));
#200 = DIRECTION('',(-1.,0.,0.));
#201 = ORIENTED_EDGE('',*,*,#187,.T.);
#202 = ORIENTED_EDGE('',*,*,#167,.F.);
#203 = CONICAL_SURFACE('',#204,1.,0.785398163397);
#204 = AXIS2_PLACEMENT_3D('',#205,#206,#207);
#205 = CARTESIAN_POINT('',(0.,4.440892098501E-17,0.2));
#206 = DIRECTION('',(-0.,-2.22044604925E-16,-1.));
#207 = DIRECTION('',(-1.,0.,0.));
#208 = ADVANCED_FACE('',(#209),#228,.T.);
#209 = FACE_BOUND('',#210,.T.);
#210 = EDGE_LOOP('',(#211,#219,#226,#227));
#211 = ORIENTED_EDGE('',*,*,#212,.F.);
#212 = EDGE_CURVE('',#213,#188,#215,.T.);
#213 = VERTEX_POINT('',#214);
#214 = CARTESIAN_POINT('',(-1.,0.,-0.));
#215 = LINE('',#216,#217);
#216 = CARTESIAN_POINT('',(-1.,0.,0.));
#217 = VECTOR('',#218,1.);
#218 = DIRECTION('',(0.,2.22044604925E-16,1.));
#219 = ORIENTED_EDGE('',*,*,#220,.T.);
#220 = EDGE_CURVE('',#213,#213,#221,.T.);
#221 = CIRCLE('',#222,1.);
#222 = AXIS2_PLACEMENT_3D('',#223,#224,#225);
#223 = CARTESIAN_POINT('',(0.,0.,0.));
#224 = DIRECTION('',(0.,2.22044604925E-16,1.));
#225 = DIRECTION('',(-1.,0.,0.));
#226 = ORIENTED_EDGE('',*,*,#212,.T.);
#227 = ORIENTED_EDGE('',*,*,#195,.F.);
#228 = CYLINDRICAL_SURFACE('',#229,1.);
#229 = AXIS2_PLACEMENT_3D('',#230,#231,#232);
#230 = CARTESIAN_POINT('',(0.,0.,0.));
#231 = DIRECTION('',(0.,2.22044604925E-16,1.));
#232 = DIRECTION('',(-1.,0.,0.));
#233 = ADVANCED_FACE('',(#234,#245),#248,.F.);
#234 = FACE_BOUND('',#235,.T.);
#235 = EDGE_LOOP('',(#236));
#236 = ORIENTED_EDGE('',*,*,#237,.T.);
#237 = EDGE_CURVE('',#238,#238,#240,.T.);
#238 = VERTEX_POINT('',#239);
#239 = CARTESIAN_POINT('',(-0.4,0.,-0.));
#240 = CIRCLE('',#241,0.4);
#241 = AXIS2_PLACEMENT_3D('',#242,#243,#244);
#242 = CARTESIAN_POINT('',(0.,0.,0.));
#243 = DIRECTION('',(0.,2.22044604925E-16,1.));
#244 = DIRECTION('',(-1.,0.,0.));
#245 = FACE_BOUND('',#246,.T.);
#246 = EDGE_LOOP('',(#247));
#247 = ORIENTED_EDGE('',*,*,#220,.F.);
#248 = PLANE('',#249);
#249 = AXIS2_PLACEMENT_3D('',#250,#251,#252);
#250 = CARTESIAN_POINT('',(0.,0.,0.));
#251 = DIRECTION('',(0.,2.22044604925E-16,1.));
#252 = DIRECTION('',(-1.,-0.,-0.));
#253 = ADVANCED_FACE('',(#254),#273,.T.);
#254 = FACE_BOUND('',#255,.T.);
#255 = EDGE_LOOP('',(#256,#265,#271,#272));
#256 = ORIENTED_EDGE('',*,*,#257,.T.);
#257 = EDGE_CURVE('',#258,#258,#260,.T.);
#258 = VERTEX_POINT('',#259);
#259 = CARTESIAN_POINT('',(-0.4,-4.440892098501E-16,-2.));
#260 = CIRCLE('',#261,0.4);
#261 = AXIS2_PLACEMENT_3D('',#262,#263,#264);
#262 = CARTESIAN_POINT('',(0.,-4.440892098501E-16,-2.));
#263 = DIRECTION('',(0.,2.22044604925E-16,1.));
#264 = DIRECTION('',(-1.,0.,0.));
#265 = ORIENTED_EDGE('',*,*,#266,.T.);
#266 = EDGE_CURVE('',#258,#238,#267,.T.);
#267 = LINE('',#268,#269);
#268 = CARTESIAN_POINT('',(-0.4,-4.440892098501E-16,-2.));
#269 = VECTOR('',#270,1.);
#270 = DIRECTION('',(0.,2.22044604925E-16,1.));
#271 = ORIENTED_EDGE('',*,*,#237,.F.);
#272 = ORIENTED_EDGE('',*,*,#266,.F.);
#273 = CYLINDRICAL_SURFACE('',#274,0.4);
#274 = AXIS2_PLACEMENT_3D('',#275,#276,#277);
#275 = CARTESIAN_POINT('',(0.,-4.440892098501E-16,-2.));
#276 = DIRECTION('',(0.,2.22044604925E-16,1.));
#277 = DIRECTION('',(-1.,0.,0.));
#278 = ADVANCED_FACE('',(#279),#282,.F.);
#279 = FACE_BOUND('',#280,.T.);
#280 = EDGE_LOOP('',(#281));
#281 = ORIENTED_EDGE('',*,*,#257,.F.);
#282 = PLANE('',#283);
#283 = AXIS2_PLACEMENT_3D('',#284,#285,#286);
#284 = CARTESIAN_POINT('',(0.,-4.440892098501E-16,-2.));
#285 = DIRECTION('',(0.,2.22044604925E-16,1.));
#286 = DIRECTION('',(-1.,-0.,-0.));
#287 = ( GEOMETRIC_REPRESENTATION_CONTEXT(3) 
GLOBAL_UNCERTAINTY_ASSIGNED_CONTEXT((#291)) GLOBAL_UNIT_ASSIGNED_CONTEXT
((#288,#289,#290)) REPRESENTATION_CONTEXT('Context #1',
  '3D Context with UNIT and UNCERTAINTY') );
#288 = ( LENGTH_UNIT() NAMED_UNIT(*) SI_UNIT(.MILLI.,.METRE.) );
#289 = ( NAMED_UNIT(*) PLANE_ANGLE_UNIT() SI_UNIT($,.RADIAN.) );
#290 = ( NAMED_UNIT(*) SI_UNIT($,.STERADIAN.) SOLID_ANGLE_UNIT() );
#291 = UNCERTAINTY_MEASURE_WITH_UNIT(LENGTH_MEASURE(1.E-07),#288,
  'distance_accuracy_value','confusion accuracy');
#292 = PRODUCT_RELATED_PRODUCT_CATEGORY('part',$,(#7));
#293 = MECHANICAL_DESIGN_GEOMETRIC_PRESENTATION_REPRESENTATION('',(#294)
  ,#287);
#294 = STYLED_ITEM('color',(#295),#15);
#295 = PRESENTATION_STYLE_ASSIGNMENT((#296,#302));
#296 = SURFACE_STYLE_USAGE(.BOTH.,#297);
#297 = SURFACE_SIDE_STYLE('',(#298));
#298 = SURFACE_STYLE_FILL_AREA(#299);
#299 = FILL_AREA_STYLE('',(#300));
#300 = FILL_AREA_STYLE_COLOUR('',#301);
#301 = COLOUR_RGB('',0.780392170416,0.568627474046,0.113725493293);
#302 = CURVE_STYLE('',#303,POSITIVE_LENGTH_MEASURE(0.1),#304);
#303 = DRAUGHTING_PRE_DEFINED_CURVE_FONT('continuous');
#304 = COLOUR_RGB('',9.803921802644E-02,9.803921802644E-02,
  9.803921802644E-02);
ENDSEC;
END-ISO-10303-21;
