ISO-10303-21;
HEADER;
FILE_DESCRIPTION(('FreeCAD Model'),'2;1');
FILE_NAME('Open CASCADE Shape Model','2025-05-13T23:36:51',(''),(''),
  'Open CASCADE STEP processor 7.8','FreeCAD','Unknown');
FILE_SCHEMA(('AUTOMOTIVE_DESIGN { 1 0 10303 214 1 1 1 1 }'));
ENDSEC;
DATA;
#1 = APPLICATION_PROTOCOL_DEFINITION('international standard',
  'automotive_design',2000,#2);
#2 = APPLICATION_CONTEXT(
  'core data for automotive mechanical design processes');
#3 = SHAPE_DEFINITION_REPRESENTATION(#4,#10);
#4 = PRODUCT_DEFINITION_SHAPE('','',#5);
#5 = PRODUCT_DEFINITION('design','',#6,#9);
#6 = PRODUCT_DEFINITION_FORMATION('','',#7);
#7 = PRODUCT('bottom','bottom','',(#8));
#8 = PRODUCT_CONTEXT('',#2,'mechanical');
#9 = PRODUCT_DEFINITION_CONTEXT('part definition',#2,'design');
#10 = ADVANCED_BREP_SHAPE_REPRESENTATION('',(#11,#15),#2147);
#11 = AXIS2_PLACEMENT_3D('',#12,#13,#14);
#12 = CARTESIAN_POINT('',(0.,0.,0.));
#13 = DIRECTION('',(0.,0.,1.));
#14 = DIRECTION('',(1.,0.,-0.));
#15 = MANIFOLD_SOLID_BREP('',#16);
#16 = CLOSED_SHELL('',(#17,#57,#93,#125,#254,#282,#328,#352,#383,#428,
    #452,#480,#508,#525,#556,#581,#606,#630,#654,#679,#704,#721,#745,
    #770,#829,#846,#871,#917,#963,#980,#1134,#1151,#1173,#1190,#1202,
    #1214,#1245,#1269,#1293,#1310,#1341,#1366,#1438,#1463,#1487,#1512,
    #1584,#1602,#1633,#1657,#1681,#1698,#1729,#1753,#1777,#1794,#1813,
    #1832,#1849,#1866,#1894,#1911,#1923,#1954,#1978,#2002,#2019,#2031,
    #2056,#2068,#2093,#2113,#2138));
#17 = ADVANCED_FACE('',(#18),#52,.F.);
#18 = FACE_BOUND('',#19,.F.);
#19 = EDGE_LOOP('',(#20,#30,#38,#46));
#20 = ORIENTED_EDGE('',*,*,#21,.T.);
#21 = EDGE_CURVE('',#22,#24,#26,.T.);
#22 = VERTEX_POINT('',#23);
#23 = CARTESIAN_POINT('',(41.7,20.8,1.828427124746));
#24 = VERTEX_POINT('',#25);
#25 = CARTESIAN_POINT('',(41.7,20.8,11.));
#26 = LINE('',#27,#28);
#27 = CARTESIAN_POINT('',(41.7,20.8,0.));
#28 = VECTOR('',#29,1.);
#29 = DIRECTION('',(0.,0.,1.));
#30 = ORIENTED_EDGE('',*,*,#31,.F.);
#31 = EDGE_CURVE('',#32,#24,#34,.T.);
#32 = VERTEX_POINT('',#33);
#33 = CARTESIAN_POINT('',(2.,20.8,11.));
#34 = LINE('',#35,#36);
#35 = CARTESIAN_POINT('',(0.,20.8,11.));
#36 = VECTOR('',#37,1.);
#37 = DIRECTION('',(1.,0.,0.));
#38 = ORIENTED_EDGE('',*,*,#39,.F.);
#39 = EDGE_CURVE('',#40,#32,#42,.T.);
#40 = VERTEX_POINT('',#41);
#41 = CARTESIAN_POINT('',(2.,20.8,1.828427124746));
#42 = LINE('',#43,#44);
#43 = CARTESIAN_POINT('',(2.,20.8,0.));
#44 = VECTOR('',#45,1.);
#45 = DIRECTION('',(0.,0.,1.));
#46 = ORIENTED_EDGE('',*,*,#47,.F.);
#47 = EDGE_CURVE('',#22,#40,#48,.T.);
#48 = LINE('',#49,#50);
#49 = CARTESIAN_POINT('',(41.7,20.8,1.828427124746));
#50 = VECTOR('',#51,1.);
#51 = DIRECTION('',(-1.,0.,0.));
#52 = PLANE('',#53);
#53 = AXIS2_PLACEMENT_3D('',#54,#55,#56);
#54 = CARTESIAN_POINT('',(43.7,20.8,0.));
#55 = DIRECTION('',(0.,-1.,0.));
#56 = DIRECTION('',(-1.,0.,0.));
#57 = ADVANCED_FACE('',(#58),#88,.T.);
#58 = FACE_BOUND('',#59,.F.);
#59 = EDGE_LOOP('',(#60,#61,#73,#81));
#60 = ORIENTED_EDGE('',*,*,#21,.F.);
#61 = ORIENTED_EDGE('',*,*,#62,.F.);
#62 = EDGE_CURVE('',#63,#22,#65,.T.);
#63 = VERTEX_POINT('',#64);
#64 = CARTESIAN_POINT('',(43.7,18.8,1.828427124746));
#65 = ( BOUNDED_CURVE() B_SPLINE_CURVE(6,(#66,#67,#68,#69,#70,#71,#72),
.UNSPECIFIED.,.F.,.F.) B_SPLINE_CURVE_WITH_KNOTS((7,7),(59.64159265359,
62.78318530718),.PIECEWISE_BEZIER_KNOTS.) CURVE() 
GEOMETRIC_REPRESENTATION_ITEM() RATIONAL_B_SPLINE_CURVE((1.,1.,1.,1.,1.,
1.,1.)) REPRESENTATION_ITEM('') );
#66 = CARTESIAN_POINT('',(43.7,18.8,1.828427124746));
#67 = CARTESIAN_POINT('',(43.7,19.323596378633,1.828427124746));
#68 = CARTESIAN_POINT('',(43.535545902747,19.84715695039,1.828427124746)
  );
#69 = CARTESIAN_POINT('',(43.206377019028,20.306377019028,1.828427124746
    ));
#70 = CARTESIAN_POINT('',(42.74715695039,20.635545902747,1.828427124746)
  );
#71 = CARTESIAN_POINT('',(42.223596378633,20.8,1.828427124746));
#72 = CARTESIAN_POINT('',(41.7,20.8,1.828427124746));
#73 = ORIENTED_EDGE('',*,*,#74,.T.);
#74 = EDGE_CURVE('',#63,#75,#77,.T.);
#75 = VERTEX_POINT('',#76);
#76 = CARTESIAN_POINT('',(43.7,18.8,11.));
#77 = LINE('',#78,#79);
#78 = CARTESIAN_POINT('',(43.7,18.8,0.));
#79 = VECTOR('',#80,1.);
#80 = DIRECTION('',(0.,0.,1.));
#81 = ORIENTED_EDGE('',*,*,#82,.F.);
#82 = EDGE_CURVE('',#24,#75,#83,.T.);
#83 = CIRCLE('',#84,2.);
#84 = AXIS2_PLACEMENT_3D('',#85,#86,#87);
#85 = CARTESIAN_POINT('',(41.7,18.8,11.));
#86 = DIRECTION('',(-0.,-0.,-1.));
#87 = DIRECTION('',(0.,-1.,0.));
#88 = CYLINDRICAL_SURFACE('',#89,2.);
#89 = AXIS2_PLACEMENT_3D('',#90,#91,#92);
#90 = CARTESIAN_POINT('',(41.7,18.8,0.));
#91 = DIRECTION('',(0.,0.,1.));
#92 = DIRECTION('',(0.,1.,0.));
#93 = ADVANCED_FACE('',(#94),#120,.T.);
#94 = FACE_BOUND('',#95,.T.);
#95 = EDGE_LOOP('',(#96,#104,#112,#119));
#96 = ORIENTED_EDGE('',*,*,#97,.T.);
#97 = EDGE_CURVE('',#22,#98,#100,.T.);
#98 = VERTEX_POINT('',#99);
#99 = CARTESIAN_POINT('',(41.7,20.214213562373,0.414213562373));
#100 = ( BOUNDED_CURVE() B_SPLINE_CURVE(2,(#101,#102,#103),
.UNSPECIFIED.,.F.,.F.) B_SPLINE_CURVE_WITH_KNOTS((3,3),(0.,3.14159265359
),.PIECEWISE_BEZIER_KNOTS.) CURVE() GEOMETRIC_REPRESENTATION_ITEM() 
RATIONAL_B_SPLINE_CURVE((1.,0.923879532511,1.)) REPRESENTATION_ITEM('') 
  );
#101 = CARTESIAN_POINT('',(41.7,20.8,1.828427124746));
#102 = CARTESIAN_POINT('',(41.7,20.8,1.));
#103 = CARTESIAN_POINT('',(41.7,20.214213562373,0.414213562373));
#104 = ORIENTED_EDGE('',*,*,#105,.T.);
#105 = EDGE_CURVE('',#98,#106,#108,.T.);
#106 = VERTEX_POINT('',#107);
#107 = CARTESIAN_POINT('',(2.,20.214213562373,0.414213562373));
#108 = LINE('',#109,#110);
#109 = CARTESIAN_POINT('',(41.7,20.214213562373,0.414213562373));
#110 = VECTOR('',#111,1.);
#111 = DIRECTION('',(-1.,0.,0.));
#112 = ORIENTED_EDGE('',*,*,#113,.F.);
#113 = EDGE_CURVE('',#40,#106,#114,.T.);
#114 = CIRCLE('',#115,2.);
#115 = AXIS2_PLACEMENT_3D('',#116,#117,#118);
#116 = CARTESIAN_POINT('',(2.,18.8,1.828427124746));
#117 = DIRECTION('',(-1.,0.,0.));
#118 = DIRECTION('',(0.,1.,0.));
#119 = ORIENTED_EDGE('',*,*,#47,.F.);
#120 = CYLINDRICAL_SURFACE('',#121,2.);
#121 = AXIS2_PLACEMENT_3D('',#122,#123,#124);
#122 = CARTESIAN_POINT('',(41.7,18.8,1.828427124746));
#123 = DIRECTION('',(-1.,0.,0.));
#124 = DIRECTION('',(0.,1.,0.));
#125 = ADVANCED_FACE('',(#126,#179),#249,.T.);
#126 = FACE_BOUND('',#127,.T.);
#127 = EDGE_LOOP('',(#128,#129,#138,#146,#155,#163,#172,#178));
#128 = ORIENTED_EDGE('',*,*,#31,.F.);
#129 = ORIENTED_EDGE('',*,*,#130,.T.);
#130 = EDGE_CURVE('',#32,#131,#133,.T.);
#131 = VERTEX_POINT('',#132);
#132 = CARTESIAN_POINT('',(0.,18.8,11.));
#133 = CIRCLE('',#134,2.);
#134 = AXIS2_PLACEMENT_3D('',#135,#136,#137);
#135 = CARTESIAN_POINT('',(2.,18.8,11.));
#136 = DIRECTION('',(-0.,0.,1.));
#137 = DIRECTION('',(0.,-1.,0.));
#138 = ORIENTED_EDGE('',*,*,#139,.F.);
#139 = EDGE_CURVE('',#140,#131,#142,.T.);
#140 = VERTEX_POINT('',#141);
#141 = CARTESIAN_POINT('',(0.,2.,11.));
#142 = LINE('',#143,#144);
#143 = CARTESIAN_POINT('',(0.,0.,11.));
#144 = VECTOR('',#145,1.);
#145 = DIRECTION('',(0.,1.,0.));
#146 = ORIENTED_EDGE('',*,*,#147,.F.);
#147 = EDGE_CURVE('',#148,#140,#150,.T.);
#148 = VERTEX_POINT('',#149);
#149 = CARTESIAN_POINT('',(2.,0.,11.));
#150 = CIRCLE('',#151,2.);
#151 = AXIS2_PLACEMENT_3D('',#152,#153,#154);
#152 = CARTESIAN_POINT('',(2.,2.,11.));
#153 = DIRECTION('',(-0.,-0.,-1.));
#154 = DIRECTION('',(0.,-1.,0.));
#155 = ORIENTED_EDGE('',*,*,#156,.F.);
#156 = EDGE_CURVE('',#157,#148,#159,.T.);
#157 = VERTEX_POINT('',#158);
#158 = CARTESIAN_POINT('',(41.7,0.,11.));
#159 = LINE('',#160,#161);
#160 = CARTESIAN_POINT('',(43.7,0.,11.));
#161 = VECTOR('',#162,1.);
#162 = DIRECTION('',(-1.,0.,0.));
#163 = ORIENTED_EDGE('',*,*,#164,.F.);
#164 = EDGE_CURVE('',#165,#157,#167,.T.);
#165 = VERTEX_POINT('',#166);
#166 = CARTESIAN_POINT('',(43.7,2.,11.));
#167 = CIRCLE('',#168,2.);
#168 = AXIS2_PLACEMENT_3D('',#169,#170,#171);
#169 = CARTESIAN_POINT('',(41.7,2.,11.));
#170 = DIRECTION('',(-0.,-0.,-1.));
#171 = DIRECTION('',(0.,-1.,0.));
#172 = ORIENTED_EDGE('',*,*,#173,.F.);
#173 = EDGE_CURVE('',#75,#165,#174,.T.);
#174 = LINE('',#175,#176);
#175 = CARTESIAN_POINT('',(43.7,20.8,11.));
#176 = VECTOR('',#177,1.);
#177 = DIRECTION('',(0.,-1.,0.));
#178 = ORIENTED_EDGE('',*,*,#82,.F.);
#179 = FACE_BOUND('',#180,.T.);
#180 = EDGE_LOOP('',(#181,#191,#200,#208,#217,#225,#234,#242));
#181 = ORIENTED_EDGE('',*,*,#182,.F.);
#182 = EDGE_CURVE('',#183,#185,#187,.T.);
#183 = VERTEX_POINT('',#184);
#184 = CARTESIAN_POINT('',(1.4,18.400000000027,11.));
#185 = VERTEX_POINT('',#186);
#186 = CARTESIAN_POINT('',(1.4,2.399999999988,11.));
#187 = LINE('',#188,#189);
#188 = CARTESIAN_POINT('',(1.4,19.400000000027,11.));
#189 = VECTOR('',#190,1.);
#190 = DIRECTION('',(0.,-1.,0.));
#191 = ORIENTED_EDGE('',*,*,#192,.T.);
#192 = EDGE_CURVE('',#183,#193,#195,.T.);
#193 = VERTEX_POINT('',#194);
#194 = CARTESIAN_POINT('',(2.4,19.400000000027,11.));
#195 = CIRCLE('',#196,1.);
#196 = AXIS2_PLACEMENT_3D('',#197,#198,#199);
#197 = CARTESIAN_POINT('',(2.4,18.400000000027,11.));
#198 = DIRECTION('',(0.,0.,-1.));
#199 = DIRECTION('',(0.,1.,0.));
#200 = ORIENTED_EDGE('',*,*,#201,.F.);
#201 = EDGE_CURVE('',#202,#193,#204,.T.);
#202 = VERTEX_POINT('',#203);
#203 = CARTESIAN_POINT('',(41.3,19.400000000027,11.));
#204 = LINE('',#205,#206);
#205 = CARTESIAN_POINT('',(42.3,19.400000000027,11.));
#206 = VECTOR('',#207,1.);
#207 = DIRECTION('',(-1.,0.,0.));
#208 = ORIENTED_EDGE('',*,*,#209,.F.);
#209 = EDGE_CURVE('',#210,#202,#212,.T.);
#210 = VERTEX_POINT('',#211);
#211 = CARTESIAN_POINT('',(42.3,18.400000000027,11.));
#212 = CIRCLE('',#213,1.);
#213 = AXIS2_PLACEMENT_3D('',#214,#215,#216);
#214 = CARTESIAN_POINT('',(41.3,18.400000000027,11.));
#215 = DIRECTION('',(0.,-0.,1.));
#216 = DIRECTION('',(0.,1.,0.));
#217 = ORIENTED_EDGE('',*,*,#218,.F.);
#218 = EDGE_CURVE('',#219,#210,#221,.T.);
#219 = VERTEX_POINT('',#220);
#220 = CARTESIAN_POINT('',(42.3,2.399999999988,11.));
#221 = LINE('',#222,#223);
#222 = CARTESIAN_POINT('',(42.3,1.399999999988,11.));
#223 = VECTOR('',#224,1.);
#224 = DIRECTION('',(0.,1.,0.));
#225 = ORIENTED_EDGE('',*,*,#226,.F.);
#226 = EDGE_CURVE('',#227,#219,#229,.T.);
#227 = VERTEX_POINT('',#228);
#228 = CARTESIAN_POINT('',(41.3,1.399999999988,11.));
#229 = CIRCLE('',#230,1.);
#230 = AXIS2_PLACEMENT_3D('',#231,#232,#233);
#231 = CARTESIAN_POINT('',(41.3,2.399999999988,11.));
#232 = DIRECTION('',(0.,-0.,1.));
#233 = DIRECTION('',(0.,1.,0.));
#234 = ORIENTED_EDGE('',*,*,#235,.F.);
#235 = EDGE_CURVE('',#236,#227,#238,.T.);
#236 = VERTEX_POINT('',#237);
#237 = CARTESIAN_POINT('',(2.4,1.399999999988,11.));
#238 = LINE('',#239,#240);
#239 = CARTESIAN_POINT('',(1.4,1.399999999988,11.));
#240 = VECTOR('',#241,1.);
#241 = DIRECTION('',(1.,0.,0.));
#242 = ORIENTED_EDGE('',*,*,#243,.F.);
#243 = EDGE_CURVE('',#185,#236,#244,.T.);
#244 = CIRCLE('',#245,1.);
#245 = AXIS2_PLACEMENT_3D('',#246,#247,#248);
#246 = CARTESIAN_POINT('',(2.4,2.399999999988,11.));
#247 = DIRECTION('',(0.,-0.,1.));
#248 = DIRECTION('',(0.,1.,0.));
#249 = PLANE('',#250);
#250 = AXIS2_PLACEMENT_3D('',#251,#252,#253);
#251 = CARTESIAN_POINT('',(21.85,10.400000000004,11.));
#252 = DIRECTION('',(0.,0.,1.));
#253 = DIRECTION('',(1.,0.,0.));
#254 = ADVANCED_FACE('',(#255),#277,.T.);
#255 = FACE_BOUND('',#256,.T.);
#256 = EDGE_LOOP('',(#257,#258,#270,#276));
#257 = ORIENTED_EDGE('',*,*,#39,.F.);
#258 = ORIENTED_EDGE('',*,*,#259,.T.);
#259 = EDGE_CURVE('',#40,#260,#262,.T.);
#260 = VERTEX_POINT('',#261);
#261 = CARTESIAN_POINT('',(0.,18.8,1.828427124746));
#262 = ( BOUNDED_CURVE() B_SPLINE_CURVE(6,(#263,#264,#265,#266,#267,#268
,#269),.UNSPECIFIED.,.F.,.F.) B_SPLINE_CURVE_WITH_KNOTS((7,7),(
102.48318530718,105.62477796076),.PIECEWISE_BEZIER_KNOTS.) CURVE() 
GEOMETRIC_REPRESENTATION_ITEM() RATIONAL_B_SPLINE_CURVE((1.,1.,1.,1.,1.,
1.,1.)) REPRESENTATION_ITEM('') );
#263 = CARTESIAN_POINT('',(2.,20.8,1.828427124746));
#264 = CARTESIAN_POINT('',(1.476403621367,20.8,1.828427124746));
#265 = CARTESIAN_POINT('',(0.95284304961,20.635545902747,1.828427124746)
  );
#266 = CARTESIAN_POINT('',(0.493622980972,20.306377019028,1.828427124746
    ));
#267 = CARTESIAN_POINT('',(0.164454097253,19.84715695039,1.828427124746)
  );
#268 = CARTESIAN_POINT('',(-2.2E-16,19.323596378633,1.828427124746));
#269 = CARTESIAN_POINT('',(-4.4E-16,18.8,1.828427124746));
#270 = ORIENTED_EDGE('',*,*,#271,.T.);
#271 = EDGE_CURVE('',#260,#131,#272,.T.);
#272 = LINE('',#273,#274);
#273 = CARTESIAN_POINT('',(-4.4E-16,18.8,0.));
#274 = VECTOR('',#275,1.);
#275 = DIRECTION('',(0.,0.,1.));
#276 = ORIENTED_EDGE('',*,*,#130,.F.);
#277 = CYLINDRICAL_SURFACE('',#278,2.);
#278 = AXIS2_PLACEMENT_3D('',#279,#280,#281);
#279 = CARTESIAN_POINT('',(2.,18.8,0.));
#280 = DIRECTION('',(0.,0.,1.));
#281 = DIRECTION('',(0.,1.,0.));
#282 = ADVANCED_FACE('',(#283),#306,.T.);
#283 = FACE_BOUND('',#284,.T.);
#284 = EDGE_LOOP('',(#285,#294,#304,#305));
#285 = ORIENTED_EDGE('',*,*,#286,.T.);
#286 = EDGE_CURVE('',#63,#287,#289,.T.);
#287 = VERTEX_POINT('',#288);
#288 = CARTESIAN_POINT('',(43.114213562373,18.8,0.414213562373));
#289 = CIRCLE('',#290,2.);
#290 = AXIS2_PLACEMENT_3D('',#291,#292,#293);
#291 = CARTESIAN_POINT('',(41.7,18.8,1.828427124746));
#292 = DIRECTION('',(-0.,1.,0.));
#293 = DIRECTION('',(1.,0.,0.));
#294 = ORIENTED_EDGE('',*,*,#295,.T.);
#295 = EDGE_CURVE('',#287,#98,#296,.T.);
#296 = ( BOUNDED_CURVE() B_SPLINE_CURVE(6,(#297,#298,#299,#300,#301,#302
,#303),.UNSPECIFIED.,.F.,.F.) B_SPLINE_CURVE_WITH_KNOTS((7,7),(
59.64159265359,62.78318530718),.PIECEWISE_BEZIER_KNOTS.) CURVE() 
GEOMETRIC_REPRESENTATION_ITEM() RATIONAL_B_SPLINE_CURVE((1.,1.,1.,1.,1.,
1.,1.)) REPRESENTATION_ITEM('') );
#297 = CARTESIAN_POINT('',(43.114213562373,18.8,0.414213562373));
#298 = CARTESIAN_POINT('',(43.114213562373,19.170238549936,
    0.414213562373));
#299 = CARTESIAN_POINT('',(42.997926955011,19.540451780587,
    0.414213562373));
#300 = CARTESIAN_POINT('',(42.765169405178,19.865169405178,
    0.414213562373));
#301 = CARTESIAN_POINT('',(42.440451780587,20.097926955011,
    0.414213562373));
#302 = CARTESIAN_POINT('',(42.070238549936,20.214213562373,
    0.414213562373));
#303 = CARTESIAN_POINT('',(41.7,20.214213562373,0.414213562373));
#304 = ORIENTED_EDGE('',*,*,#97,.F.);
#305 = ORIENTED_EDGE('',*,*,#62,.F.);
#306 = ( BOUNDED_SURFACE() B_SPLINE_SURFACE(2,6,(
    (#307,#308,#309,#310,#311,#312,#313)
    ,(#314,#315,#316,#317,#318,#319,#320)
    ,(#321,#322,#323,#324,#325,#326,#327
)),.UNSPECIFIED.,.F.,.F.,.F.) B_SPLINE_SURFACE_WITH_KNOTS((3,3),(7,7),(
    0.,3.14159265359),(59.64159265359,62.78318530718),
.PIECEWISE_BEZIER_KNOTS.) GEOMETRIC_REPRESENTATION_ITEM() 
RATIONAL_B_SPLINE_SURFACE((
    (1.,1.,1.,1.,1.,1.,1.)
    ,(0.923879532511,0.923879532511,0.923879532511,0.923879532511
      ,0.923879532511,0.923879532511,0.923879532511)
,(1.,1.,1.,1.,1.,1.,1.))) REPRESENTATION_ITEM('') SURFACE() );
#307 = CARTESIAN_POINT('',(43.7,18.8,1.828427124746));
#308 = CARTESIAN_POINT('',(43.7,19.323596378633,1.828427124746));
#309 = CARTESIAN_POINT('',(43.535545902747,19.84715695039,1.828427124746
    ));
#310 = CARTESIAN_POINT('',(43.206377019028,20.306377019028,
    1.828427124746));
#311 = CARTESIAN_POINT('',(42.74715695039,20.635545902747,1.828427124746
    ));
#312 = CARTESIAN_POINT('',(42.223596378633,20.8,1.828427124746));
#313 = CARTESIAN_POINT('',(41.7,20.8,1.828427124746));
#314 = CARTESIAN_POINT('',(43.7,18.8,1.));
#315 = CARTESIAN_POINT('',(43.7,19.323596378633,1.));
#316 = CARTESIAN_POINT('',(43.535545902747,19.84715695039,1.));
#317 = CARTESIAN_POINT('',(43.206377019028,20.306377019028,1.));
#318 = CARTESIAN_POINT('',(42.74715695039,20.635545902747,1.));
#319 = CARTESIAN_POINT('',(42.223596378633,20.8,1.));
#320 = CARTESIAN_POINT('',(41.7,20.8,1.));
#321 = CARTESIAN_POINT('',(43.114213562373,18.8,0.414213562373));
#322 = CARTESIAN_POINT('',(43.114213562373,19.170238549936,
    0.414213562373));
#323 = CARTESIAN_POINT('',(42.997926955011,19.540451780587,
    0.414213562373));
#324 = CARTESIAN_POINT('',(42.765169405178,19.865169405178,
    0.414213562373));
#325 = CARTESIAN_POINT('',(42.440451780587,20.097926955011,
    0.414213562373));
#326 = CARTESIAN_POINT('',(42.070238549936,20.214213562373,
    0.414213562373));
#327 = CARTESIAN_POINT('',(41.7,20.214213562373,0.414213562373));
#328 = ADVANCED_FACE('',(#329),#347,.F.);
#329 = FACE_BOUND('',#330,.F.);
#330 = EDGE_LOOP('',(#331,#339,#340,#341));
#331 = ORIENTED_EDGE('',*,*,#332,.T.);
#332 = EDGE_CURVE('',#333,#165,#335,.T.);
#333 = VERTEX_POINT('',#334);
#334 = CARTESIAN_POINT('',(43.7,2.,1.828427124746));
#335 = LINE('',#336,#337);
#336 = CARTESIAN_POINT('',(43.7,2.,0.));
#337 = VECTOR('',#338,1.);
#338 = DIRECTION('',(0.,0.,1.));
#339 = ORIENTED_EDGE('',*,*,#173,.F.);
#340 = ORIENTED_EDGE('',*,*,#74,.F.);
#341 = ORIENTED_EDGE('',*,*,#342,.F.);
#342 = EDGE_CURVE('',#333,#63,#343,.T.);
#343 = LINE('',#344,#345);
#344 = CARTESIAN_POINT('',(43.7,2.,1.828427124746));
#345 = VECTOR('',#346,1.);
#346 = DIRECTION('',(0.,1.,0.));
#347 = PLANE('',#348);
#348 = AXIS2_PLACEMENT_3D('',#349,#350,#351);
#349 = CARTESIAN_POINT('',(43.7,0.,0.));
#350 = DIRECTION('',(-1.,0.,0.));
#351 = DIRECTION('',(0.,1.,0.));
#352 = ADVANCED_FACE('',(#353),#378,.T.);
#353 = FACE_BOUND('',#354,.F.);
#354 = EDGE_LOOP('',(#355,#363,#364,#372));
#355 = ORIENTED_EDGE('',*,*,#356,.F.);
#356 = EDGE_CURVE('',#98,#357,#359,.T.);
#357 = VERTEX_POINT('',#358);
#358 = CARTESIAN_POINT('',(41.7,19.8,0.));
#359 = LINE('',#360,#361);
#360 = CARTESIAN_POINT('',(41.7,20.8,1.));
#361 = VECTOR('',#362,1.);
#362 = DIRECTION('',(-4.E-17,-0.707106781187,-0.707106781187));
#363 = ORIENTED_EDGE('',*,*,#105,.T.);
#364 = ORIENTED_EDGE('',*,*,#365,.T.);
#365 = EDGE_CURVE('',#106,#366,#368,.T.);
#366 = VERTEX_POINT('',#367);
#367 = CARTESIAN_POINT('',(2.,19.8,0.));
#368 = LINE('',#369,#370);
#369 = CARTESIAN_POINT('',(2.,20.3,0.5));
#370 = VECTOR('',#371,1.);
#371 = DIRECTION('',(-0.,-0.707106781187,-0.707106781187));
#372 = ORIENTED_EDGE('',*,*,#373,.F.);
#373 = EDGE_CURVE('',#357,#366,#374,.T.);
#374 = LINE('',#375,#376);
#375 = CARTESIAN_POINT('',(41.7,19.8,0.));
#376 = VECTOR('',#377,1.);
#377 = DIRECTION('',(-1.,0.,0.));
#378 = PLANE('',#379);
#379 = AXIS2_PLACEMENT_3D('',#380,#381,#382);
#380 = CARTESIAN_POINT('',(41.7,20.3,0.5));
#381 = DIRECTION('',(0.,0.707106781187,-0.707106781187));
#382 = DIRECTION('',(1.,0.,0.));
#383 = ADVANCED_FACE('',(#384),#406,.T.);
#384 = FACE_BOUND('',#385,.T.);
#385 = EDGE_LOOP('',(#386,#387,#399,#405));
#386 = ORIENTED_EDGE('',*,*,#113,.T.);
#387 = ORIENTED_EDGE('',*,*,#388,.T.);
#388 = EDGE_CURVE('',#106,#389,#391,.T.);
#389 = VERTEX_POINT('',#390);
#390 = CARTESIAN_POINT('',(0.585786437627,18.8,0.414213562373));
#391 = ( BOUNDED_CURVE() B_SPLINE_CURVE(6,(#392,#393,#394,#395,#396,#397
,#398),.UNSPECIFIED.,.F.,.F.) B_SPLINE_CURVE_WITH_KNOTS((7,7),(
102.48318530718,105.62477796076),.PIECEWISE_BEZIER_KNOTS.) CURVE() 
GEOMETRIC_REPRESENTATION_ITEM() RATIONAL_B_SPLINE_CURVE((1.,1.,1.,1.,1.,
1.,1.)) REPRESENTATION_ITEM('') );
#392 = CARTESIAN_POINT('',(2.,20.214213562373,0.414213562373));
#393 = CARTESIAN_POINT('',(1.629761450064,20.214213562373,0.414213562373
    ));
#394 = CARTESIAN_POINT('',(1.259548219413,20.097926955011,0.414213562373
    ));
#395 = CARTESIAN_POINT('',(0.934830594822,19.865169405178,0.414213562373
    ));
#396 = CARTESIAN_POINT('',(0.702073044989,19.540451780587,0.414213562373
    ));
#397 = CARTESIAN_POINT('',(0.585786437627,19.170238549936,0.414213562373
    ));
#398 = CARTESIAN_POINT('',(0.585786437627,18.8,0.414213562373));
#399 = ORIENTED_EDGE('',*,*,#400,.F.);
#400 = EDGE_CURVE('',#260,#389,#401,.T.);
#401 = ( BOUNDED_CURVE() B_SPLINE_CURVE(2,(#402,#403,#404),
.UNSPECIFIED.,.F.,.F.) B_SPLINE_CURVE_WITH_KNOTS((3,3),(0.,3.14159265359
),.PIECEWISE_BEZIER_KNOTS.) CURVE() GEOMETRIC_REPRESENTATION_ITEM() 
RATIONAL_B_SPLINE_CURVE((1.,0.923879532511,1.)) REPRESENTATION_ITEM('') 
  );
#402 = CARTESIAN_POINT('',(-4.4E-16,18.8,1.828427124746));
#403 = CARTESIAN_POINT('',(-4.4E-16,18.8,1.));
#404 = CARTESIAN_POINT('',(0.585786437627,18.8,0.414213562373));
#405 = ORIENTED_EDGE('',*,*,#259,.F.);
#406 = ( BOUNDED_SURFACE() B_SPLINE_SURFACE(2,6,(
    (#407,#408,#409,#410,#411,#412,#413)
    ,(#414,#415,#416,#417,#418,#419,#420)
    ,(#421,#422,#423,#424,#425,#426,#427
)),.UNSPECIFIED.,.F.,.F.,.F.) B_SPLINE_SURFACE_WITH_KNOTS((3,3),(7,7),(
    0.,3.14159265359),(102.48318530718,105.62477796076),
.PIECEWISE_BEZIER_KNOTS.) GEOMETRIC_REPRESENTATION_ITEM() 
RATIONAL_B_SPLINE_SURFACE((
    (1.,1.,1.,1.,1.,1.,1.)
    ,(0.923879532511,0.923879532511,0.923879532511,0.923879532511
      ,0.923879532511,0.923879532511,0.923879532511)
,(1.,1.,1.,1.,1.,1.,1.))) REPRESENTATION_ITEM('') SURFACE() );
#407 = CARTESIAN_POINT('',(2.,20.8,1.828427124746));
#408 = CARTESIAN_POINT('',(1.476403621367,20.8,1.828427124746));
#409 = CARTESIAN_POINT('',(0.95284304961,20.635545902747,1.828427124746)
  );
#410 = CARTESIAN_POINT('',(0.493622980972,20.306377019028,1.828427124746
    ));
#411 = CARTESIAN_POINT('',(0.164454097253,19.84715695039,1.828427124746)
  );
#412 = CARTESIAN_POINT('',(-2.2E-16,19.323596378633,1.828427124746));
#413 = CARTESIAN_POINT('',(-4.4E-16,18.8,1.828427124746));
#414 = CARTESIAN_POINT('',(2.,20.8,1.));
#415 = CARTESIAN_POINT('',(1.476403621367,20.8,1.));
#416 = CARTESIAN_POINT('',(0.95284304961,20.635545902747,1.));
#417 = CARTESIAN_POINT('',(0.493622980972,20.306377019028,1.));
#418 = CARTESIAN_POINT('',(0.164454097253,19.84715695039,1.));
#419 = CARTESIAN_POINT('',(-1.78E-15,19.323596378633,1.));
#420 = CARTESIAN_POINT('',(-4.4E-16,18.8,1.));
#421 = CARTESIAN_POINT('',(2.,20.214213562373,0.414213562373));
#422 = CARTESIAN_POINT('',(1.629761450064,20.214213562373,0.414213562373
    ));
#423 = CARTESIAN_POINT('',(1.259548219413,20.097926955011,0.414213562373
    ));
#424 = CARTESIAN_POINT('',(0.934830594822,19.865169405178,0.414213562373
    ));
#425 = CARTESIAN_POINT('',(0.702073044989,19.540451780587,0.414213562373
    ));
#426 = CARTESIAN_POINT('',(0.585786437627,19.170238549936,0.414213562373
    ));
#427 = CARTESIAN_POINT('',(0.585786437627,18.8,0.414213562373));
#428 = ADVANCED_FACE('',(#429),#447,.F.);
#429 = FACE_BOUND('',#430,.F.);
#430 = EDGE_LOOP('',(#431,#432,#433,#441));
#431 = ORIENTED_EDGE('',*,*,#271,.T.);
#432 = ORIENTED_EDGE('',*,*,#139,.F.);
#433 = ORIENTED_EDGE('',*,*,#434,.F.);
#434 = EDGE_CURVE('',#435,#140,#437,.T.);
#435 = VERTEX_POINT('',#436);
#436 = CARTESIAN_POINT('',(0.,2.,1.828427124746));
#437 = LINE('',#438,#439);
#438 = CARTESIAN_POINT('',(-4.4E-16,2.,0.));
#439 = VECTOR('',#440,1.);
#440 = DIRECTION('',(0.,0.,1.));
#441 = ORIENTED_EDGE('',*,*,#442,.F.);
#442 = EDGE_CURVE('',#260,#435,#443,.T.);
#443 = LINE('',#444,#445);
#444 = CARTESIAN_POINT('',(0.,18.8,1.828427124746));
#445 = VECTOR('',#446,1.);
#446 = DIRECTION('',(0.,-1.,0.));
#447 = PLANE('',#448);
#448 = AXIS2_PLACEMENT_3D('',#449,#450,#451);
#449 = CARTESIAN_POINT('',(0.,20.8,0.));
#450 = DIRECTION('',(1.,0.,0.));
#451 = DIRECTION('',(0.,-1.,0.));
#452 = ADVANCED_FACE('',(#453),#475,.T.);
#453 = FACE_BOUND('',#454,.F.);
#454 = EDGE_LOOP('',(#455,#463,#473,#474));
#455 = ORIENTED_EDGE('',*,*,#456,.F.);
#456 = EDGE_CURVE('',#457,#148,#459,.T.);
#457 = VERTEX_POINT('',#458);
#458 = CARTESIAN_POINT('',(2.,0.,1.828427124746));
#459 = LINE('',#460,#461);
#460 = CARTESIAN_POINT('',(2.,-4.4E-16,0.));
#461 = VECTOR('',#462,1.);
#462 = DIRECTION('',(0.,0.,1.));
#463 = ORIENTED_EDGE('',*,*,#464,.F.);
#464 = EDGE_CURVE('',#435,#457,#465,.T.);
#465 = ( BOUNDED_CURVE() B_SPLINE_CURVE(6,(#466,#467,#468,#469,#470,#471
,#472),.UNSPECIFIED.,.F.,.F.) B_SPLINE_CURVE_WITH_KNOTS((7,7),(
122.42477796076,125.56637061435),.PIECEWISE_BEZIER_KNOTS.) CURVE() 
GEOMETRIC_REPRESENTATION_ITEM() RATIONAL_B_SPLINE_CURVE((1.,1.,1.,1.,1.,
1.,1.)) REPRESENTATION_ITEM('') );
#466 = CARTESIAN_POINT('',(-4.4E-16,2.,1.828427124746));
#467 = CARTESIAN_POINT('',(-2.2E-16,1.476403621367,1.828427124746));
#468 = CARTESIAN_POINT('',(0.164454097253,0.95284304961,1.828427124746)
  );
#469 = CARTESIAN_POINT('',(0.493622980972,0.493622980972,1.828427124746)
  );
#470 = CARTESIAN_POINT('',(0.95284304961,0.164454097253,1.828427124746)
  );
#471 = CARTESIAN_POINT('',(1.476403621367,-1.55E-15,1.828427124746));
#472 = CARTESIAN_POINT('',(2.,-4.4E-16,1.828427124746));
#473 = ORIENTED_EDGE('',*,*,#434,.T.);
#474 = ORIENTED_EDGE('',*,*,#147,.F.);
#475 = CYLINDRICAL_SURFACE('',#476,2.);
#476 = AXIS2_PLACEMENT_3D('',#477,#478,#479);
#477 = CARTESIAN_POINT('',(2.,2.,0.));
#478 = DIRECTION('',(0.,0.,1.));
#479 = DIRECTION('',(0.,-1.,0.));
#480 = ADVANCED_FACE('',(#481),#503,.T.);
#481 = FACE_BOUND('',#482,.F.);
#482 = EDGE_LOOP('',(#483,#484,#496,#502));
#483 = ORIENTED_EDGE('',*,*,#332,.F.);
#484 = ORIENTED_EDGE('',*,*,#485,.F.);
#485 = EDGE_CURVE('',#486,#333,#488,.T.);
#486 = VERTEX_POINT('',#487);
#487 = CARTESIAN_POINT('',(41.7,0.,1.828427124746));
#488 = ( BOUNDED_CURVE() B_SPLINE_CURVE(6,(#489,#490,#491,#492,#493,#494
,#495),.UNSPECIFIED.,.F.,.F.) B_SPLINE_CURVE_WITH_KNOTS((7,7),(39.7,
42.84159265359),.PIECEWISE_BEZIER_KNOTS.) CURVE() 
GEOMETRIC_REPRESENTATION_ITEM() RATIONAL_B_SPLINE_CURVE((1.,1.,1.,1.,1.,
1.,1.)) REPRESENTATION_ITEM('') );
#489 = CARTESIAN_POINT('',(41.7,-4.4E-16,1.828427124746));
#490 = CARTESIAN_POINT('',(42.223596378633,4.4E-16,1.828427124746));
#491 = CARTESIAN_POINT('',(42.74715695039,0.164454097253,1.828427124746)
  );
#492 = CARTESIAN_POINT('',(43.206377019028,0.493622980972,1.828427124746
    ));
#493 = CARTESIAN_POINT('',(43.535545902747,0.95284304961,1.828427124746)
  );
#494 = CARTESIAN_POINT('',(43.7,1.476403621367,1.828427124746));
#495 = CARTESIAN_POINT('',(43.7,2.,1.828427124746));
#496 = ORIENTED_EDGE('',*,*,#497,.T.);
#497 = EDGE_CURVE('',#486,#157,#498,.T.);
#498 = LINE('',#499,#500);
#499 = CARTESIAN_POINT('',(41.7,-4.4E-16,0.));
#500 = VECTOR('',#501,1.);
#501 = DIRECTION('',(0.,0.,1.));
#502 = ORIENTED_EDGE('',*,*,#164,.F.);
#503 = CYLINDRICAL_SURFACE('',#504,2.);
#504 = AXIS2_PLACEMENT_3D('',#505,#506,#507);
#505 = CARTESIAN_POINT('',(41.7,2.,0.));
#506 = DIRECTION('',(0.,0.,1.));
#507 = DIRECTION('',(1.,0.,0.));
#508 = ADVANCED_FACE('',(#509),#520,.F.);
#509 = FACE_BOUND('',#510,.F.);
#510 = EDGE_LOOP('',(#511,#512,#513,#514));
#511 = ORIENTED_EDGE('',*,*,#456,.T.);
#512 = ORIENTED_EDGE('',*,*,#156,.F.);
#513 = ORIENTED_EDGE('',*,*,#497,.F.);
#514 = ORIENTED_EDGE('',*,*,#515,.F.);
#515 = EDGE_CURVE('',#457,#486,#516,.T.);
#516 = LINE('',#517,#518);
#517 = CARTESIAN_POINT('',(2.,0.,1.828427124746));
#518 = VECTOR('',#519,1.);
#519 = DIRECTION('',(1.,0.,0.));
#520 = PLANE('',#521);
#521 = AXIS2_PLACEMENT_3D('',#522,#523,#524);
#522 = CARTESIAN_POINT('',(0.,0.,0.));
#523 = DIRECTION('',(0.,1.,0.));
#524 = DIRECTION('',(1.,0.,0.));
#525 = ADVANCED_FACE('',(#526),#551,.T.);
#526 = FACE_BOUND('',#527,.T.);
#527 = EDGE_LOOP('',(#528,#538,#544,#545));
#528 = ORIENTED_EDGE('',*,*,#529,.F.);
#529 = EDGE_CURVE('',#530,#532,#534,.T.);
#530 = VERTEX_POINT('',#531);
#531 = CARTESIAN_POINT('',(1.4,18.400000000027,12.));
#532 = VERTEX_POINT('',#533);
#533 = CARTESIAN_POINT('',(1.4,2.399999999988,12.));
#534 = LINE('',#535,#536);
#535 = CARTESIAN_POINT('',(1.4,19.400000000027,12.));
#536 = VECTOR('',#537,1.);
#537 = DIRECTION('',(0.,-1.,0.));
#538 = ORIENTED_EDGE('',*,*,#539,.T.);
#539 = EDGE_CURVE('',#530,#183,#540,.T.);
#540 = LINE('',#541,#542);
#541 = CARTESIAN_POINT('',(1.4,18.400000000027,12.));
#542 = VECTOR('',#543,1.);
#543 = DIRECTION('',(-0.,-0.,-1.));
#544 = ORIENTED_EDGE('',*,*,#182,.T.);
#545 = ORIENTED_EDGE('',*,*,#546,.F.);
#546 = EDGE_CURVE('',#532,#185,#547,.T.);
#547 = LINE('',#548,#549);
#548 = CARTESIAN_POINT('',(1.4,2.399999999988,12.));
#549 = VECTOR('',#550,1.);
#550 = DIRECTION('',(-0.,-0.,-1.));
#551 = PLANE('',#552);
#552 = AXIS2_PLACEMENT_3D('',#553,#554,#555);
#553 = CARTESIAN_POINT('',(1.4,19.400000000027,12.));
#554 = DIRECTION('',(-1.,0.,0.));
#555 = DIRECTION('',(0.,-1.,0.));
#556 = ADVANCED_FACE('',(#557),#576,.T.);
#557 = FACE_BOUND('',#558,.T.);
#558 = EDGE_LOOP('',(#559,#568,#574,#575));
#559 = ORIENTED_EDGE('',*,*,#560,.T.);
#560 = EDGE_CURVE('',#530,#561,#563,.T.);
#561 = VERTEX_POINT('',#562);
#562 = CARTESIAN_POINT('',(2.4,19.400000000027,12.));
#563 = CIRCLE('',#564,1.);
#564 = AXIS2_PLACEMENT_3D('',#565,#566,#567);
#565 = CARTESIAN_POINT('',(2.4,18.400000000027,12.));
#566 = DIRECTION('',(0.,0.,-1.));
#567 = DIRECTION('',(0.,1.,0.));
#568 = ORIENTED_EDGE('',*,*,#569,.T.);
#569 = EDGE_CURVE('',#561,#193,#570,.T.);
#570 = LINE('',#571,#572);
#571 = CARTESIAN_POINT('',(2.4,19.400000000027,12.));
#572 = VECTOR('',#573,1.);
#573 = DIRECTION('',(-0.,-0.,-1.));
#574 = ORIENTED_EDGE('',*,*,#192,.F.);
#575 = ORIENTED_EDGE('',*,*,#539,.F.);
#576 = CYLINDRICAL_SURFACE('',#577,1.);
#577 = AXIS2_PLACEMENT_3D('',#578,#579,#580);
#578 = CARTESIAN_POINT('',(2.4,18.400000000027,12.));
#579 = DIRECTION('',(-0.,-0.,-1.));
#580 = DIRECTION('',(-1.,0.,0.));
#581 = ADVANCED_FACE('',(#582),#601,.T.);
#582 = FACE_BOUND('',#583,.F.);
#583 = EDGE_LOOP('',(#584,#593,#599,#600));
#584 = ORIENTED_EDGE('',*,*,#585,.T.);
#585 = EDGE_CURVE('',#532,#586,#588,.T.);
#586 = VERTEX_POINT('',#587);
#587 = CARTESIAN_POINT('',(2.4,1.399999999988,12.));
#588 = CIRCLE('',#589,1.);
#589 = AXIS2_PLACEMENT_3D('',#590,#591,#592);
#590 = CARTESIAN_POINT('',(2.4,2.399999999988,12.));
#591 = DIRECTION('',(0.,-0.,1.));
#592 = DIRECTION('',(0.,1.,0.));
#593 = ORIENTED_EDGE('',*,*,#594,.T.);
#594 = EDGE_CURVE('',#586,#236,#595,.T.);
#595 = LINE('',#596,#597);
#596 = CARTESIAN_POINT('',(2.4,1.399999999988,12.));
#597 = VECTOR('',#598,1.);
#598 = DIRECTION('',(-0.,-0.,-1.));
#599 = ORIENTED_EDGE('',*,*,#243,.F.);
#600 = ORIENTED_EDGE('',*,*,#546,.F.);
#601 = CYLINDRICAL_SURFACE('',#602,1.);
#602 = AXIS2_PLACEMENT_3D('',#603,#604,#605);
#603 = CARTESIAN_POINT('',(2.4,2.399999999988,12.));
#604 = DIRECTION('',(-0.,-0.,-1.));
#605 = DIRECTION('',(-1.,0.,0.));
#606 = ADVANCED_FACE('',(#607),#625,.T.);
#607 = FACE_BOUND('',#608,.T.);
#608 = EDGE_LOOP('',(#609,#617,#623,#624));
#609 = ORIENTED_EDGE('',*,*,#610,.F.);
#610 = EDGE_CURVE('',#611,#561,#613,.T.);
#611 = VERTEX_POINT('',#612);
#612 = CARTESIAN_POINT('',(41.3,19.400000000027,12.));
#613 = LINE('',#614,#615);
#614 = CARTESIAN_POINT('',(42.3,19.400000000027,12.));
#615 = VECTOR('',#616,1.);
#616 = DIRECTION('',(-1.,0.,0.));
#617 = ORIENTED_EDGE('',*,*,#618,.T.);
#618 = EDGE_CURVE('',#611,#202,#619,.T.);
#619 = LINE('',#620,#621);
#620 = CARTESIAN_POINT('',(41.3,19.400000000027,12.));
#621 = VECTOR('',#622,1.);
#622 = DIRECTION('',(-0.,-0.,-1.));
#623 = ORIENTED_EDGE('',*,*,#201,.T.);
#624 = ORIENTED_EDGE('',*,*,#569,.F.);
#625 = PLANE('',#626);
#626 = AXIS2_PLACEMENT_3D('',#627,#628,#629);
#627 = CARTESIAN_POINT('',(42.3,19.400000000027,12.));
#628 = DIRECTION('',(0.,1.,0.));
#629 = DIRECTION('',(-1.,0.,0.));
#630 = ADVANCED_FACE('',(#631),#649,.T.);
#631 = FACE_BOUND('',#632,.T.);
#632 = EDGE_LOOP('',(#633,#641,#642,#643));
#633 = ORIENTED_EDGE('',*,*,#634,.F.);
#634 = EDGE_CURVE('',#586,#635,#637,.T.);
#635 = VERTEX_POINT('',#636);
#636 = CARTESIAN_POINT('',(41.3,1.399999999988,12.));
#637 = LINE('',#638,#639);
#638 = CARTESIAN_POINT('',(1.4,1.399999999988,12.));
#639 = VECTOR('',#640,1.);
#640 = DIRECTION('',(1.,0.,0.));
#641 = ORIENTED_EDGE('',*,*,#594,.T.);
#642 = ORIENTED_EDGE('',*,*,#235,.T.);
#643 = ORIENTED_EDGE('',*,*,#644,.F.);
#644 = EDGE_CURVE('',#635,#227,#645,.T.);
#645 = LINE('',#646,#647);
#646 = CARTESIAN_POINT('',(41.3,1.399999999988,12.));
#647 = VECTOR('',#648,1.);
#648 = DIRECTION('',(-0.,-0.,-1.));
#649 = PLANE('',#650);
#650 = AXIS2_PLACEMENT_3D('',#651,#652,#653);
#651 = CARTESIAN_POINT('',(1.4,1.399999999988,12.));
#652 = DIRECTION('',(0.,-1.,0.));
#653 = DIRECTION('',(1.,0.,0.));
#654 = ADVANCED_FACE('',(#655),#674,.T.);
#655 = FACE_BOUND('',#656,.F.);
#656 = EDGE_LOOP('',(#657,#666,#667,#668));
#657 = ORIENTED_EDGE('',*,*,#658,.T.);
#658 = EDGE_CURVE('',#659,#611,#661,.T.);
#659 = VERTEX_POINT('',#660);
#660 = CARTESIAN_POINT('',(42.3,18.400000000027,12.));
#661 = CIRCLE('',#662,1.);
#662 = AXIS2_PLACEMENT_3D('',#663,#664,#665);
#663 = CARTESIAN_POINT('',(41.3,18.400000000027,12.));
#664 = DIRECTION('',(0.,-0.,1.));
#665 = DIRECTION('',(0.,1.,0.));
#666 = ORIENTED_EDGE('',*,*,#618,.T.);
#667 = ORIENTED_EDGE('',*,*,#209,.F.);
#668 = ORIENTED_EDGE('',*,*,#669,.F.);
#669 = EDGE_CURVE('',#659,#210,#670,.T.);
#670 = LINE('',#671,#672);
#671 = CARTESIAN_POINT('',(42.3,18.400000000027,12.));
#672 = VECTOR('',#673,1.);
#673 = DIRECTION('',(-0.,-0.,-1.));
#674 = CYLINDRICAL_SURFACE('',#675,1.);
#675 = AXIS2_PLACEMENT_3D('',#676,#677,#678);
#676 = CARTESIAN_POINT('',(41.3,18.400000000027,12.));
#677 = DIRECTION('',(-0.,-0.,-1.));
#678 = DIRECTION('',(1.,0.,0.));
#679 = ADVANCED_FACE('',(#680),#699,.T.);
#680 = FACE_BOUND('',#681,.F.);
#681 = EDGE_LOOP('',(#682,#691,#697,#698));
#682 = ORIENTED_EDGE('',*,*,#683,.T.);
#683 = EDGE_CURVE('',#635,#684,#686,.T.);
#684 = VERTEX_POINT('',#685);
#685 = CARTESIAN_POINT('',(42.3,2.399999999988,12.));
#686 = CIRCLE('',#687,1.);
#687 = AXIS2_PLACEMENT_3D('',#688,#689,#690);
#688 = CARTESIAN_POINT('',(41.3,2.399999999988,12.));
#689 = DIRECTION('',(0.,-0.,1.));
#690 = DIRECTION('',(0.,1.,0.));
#691 = ORIENTED_EDGE('',*,*,#692,.T.);
#692 = EDGE_CURVE('',#684,#219,#693,.T.);
#693 = LINE('',#694,#695);
#694 = CARTESIAN_POINT('',(42.3,2.399999999988,12.));
#695 = VECTOR('',#696,1.);
#696 = DIRECTION('',(-0.,-0.,-1.));
#697 = ORIENTED_EDGE('',*,*,#226,.F.);
#698 = ORIENTED_EDGE('',*,*,#644,.F.);
#699 = CYLINDRICAL_SURFACE('',#700,1.);
#700 = AXIS2_PLACEMENT_3D('',#701,#702,#703);
#701 = CARTESIAN_POINT('',(41.3,2.399999999988,12.));
#702 = DIRECTION('',(-0.,-0.,-1.));
#703 = DIRECTION('',(0.,-1.,0.));
#704 = ADVANCED_FACE('',(#705),#716,.T.);
#705 = FACE_BOUND('',#706,.T.);
#706 = EDGE_LOOP('',(#707,#713,#714,#715));
#707 = ORIENTED_EDGE('',*,*,#708,.F.);
#708 = EDGE_CURVE('',#684,#659,#709,.T.);
#709 = LINE('',#710,#711);
#710 = CARTESIAN_POINT('',(42.3,1.399999999988,12.));
#711 = VECTOR('',#712,1.);
#712 = DIRECTION('',(0.,1.,0.));
#713 = ORIENTED_EDGE('',*,*,#692,.T.);
#714 = ORIENTED_EDGE('',*,*,#218,.T.);
#715 = ORIENTED_EDGE('',*,*,#669,.F.);
#716 = PLANE('',#717);
#717 = AXIS2_PLACEMENT_3D('',#718,#719,#720);
#718 = CARTESIAN_POINT('',(42.3,1.399999999988,12.));
#719 = DIRECTION('',(1.,0.,0.));
#720 = DIRECTION('',(0.,1.,0.));
#721 = ADVANCED_FACE('',(#722),#740,.T.);
#722 = FACE_BOUND('',#723,.T.);
#723 = EDGE_LOOP('',(#724,#732,#738,#739));
#724 = ORIENTED_EDGE('',*,*,#725,.T.);
#725 = EDGE_CURVE('',#333,#726,#728,.T.);
#726 = VERTEX_POINT('',#727);
#727 = CARTESIAN_POINT('',(43.114213562373,2.,0.414213562373));
#728 = ( BOUNDED_CURVE() B_SPLINE_CURVE(2,(#729,#730,#731),
.UNSPECIFIED.,.F.,.F.) B_SPLINE_CURVE_WITH_KNOTS((3,3),(0.,3.14159265359
),.PIECEWISE_BEZIER_KNOTS.) CURVE() GEOMETRIC_REPRESENTATION_ITEM() 
RATIONAL_B_SPLINE_CURVE((1.,0.923879532511,1.)) REPRESENTATION_ITEM('') 
  );
#729 = CARTESIAN_POINT('',(43.7,2.,1.828427124746));
#730 = CARTESIAN_POINT('',(43.7,2.,1.));
#731 = CARTESIAN_POINT('',(43.114213562373,2.,0.414213562373));
#732 = ORIENTED_EDGE('',*,*,#733,.T.);
#733 = EDGE_CURVE('',#726,#287,#734,.T.);
#734 = LINE('',#735,#736);
#735 = CARTESIAN_POINT('',(43.114213562373,2.,0.414213562373));
#736 = VECTOR('',#737,1.);
#737 = DIRECTION('',(0.,1.,0.));
#738 = ORIENTED_EDGE('',*,*,#286,.F.);
#739 = ORIENTED_EDGE('',*,*,#342,.F.);
#740 = CYLINDRICAL_SURFACE('',#741,2.);
#741 = AXIS2_PLACEMENT_3D('',#742,#743,#744);
#742 = CARTESIAN_POINT('',(41.7,2.,1.828427124746));
#743 = DIRECTION('',(0.,1.,0.));
#744 = DIRECTION('',(1.,0.,0.));
#745 = ADVANCED_FACE('',(#746),#765,.T.);
#746 = FACE_BOUND('',#747,.F.);
#747 = EDGE_LOOP('',(#748,#756,#757,#758));
#748 = ORIENTED_EDGE('',*,*,#749,.F.);
#749 = EDGE_CURVE('',#287,#750,#752,.T.);
#750 = VERTEX_POINT('',#751);
#751 = CARTESIAN_POINT('',(42.7,18.8,1.E-15));
#752 = LINE('',#753,#754);
#753 = CARTESIAN_POINT('',(43.2,18.8,0.5));
#754 = VECTOR('',#755,1.);
#755 = DIRECTION('',(-0.707106781187,0.,-0.707106781187));
#756 = ORIENTED_EDGE('',*,*,#295,.T.);
#757 = ORIENTED_EDGE('',*,*,#356,.T.);
#758 = ORIENTED_EDGE('',*,*,#759,.F.);
#759 = EDGE_CURVE('',#750,#357,#760,.T.);
#760 = CIRCLE('',#761,1.);
#761 = AXIS2_PLACEMENT_3D('',#762,#763,#764);
#762 = CARTESIAN_POINT('',(41.7,18.8,0.));
#763 = DIRECTION('',(0.,0.,1.));
#764 = DIRECTION('',(1.,0.,0.));
#765 = CONICAL_SURFACE('',#766,2.,0.785398163397);
#766 = AXIS2_PLACEMENT_3D('',#767,#768,#769);
#767 = CARTESIAN_POINT('',(41.7,18.8,1.));
#768 = DIRECTION('',(0.,0.,1.));
#769 = DIRECTION('',(1.,0.,0.));
#770 = ADVANCED_FACE('',(#771),#824,.F.);
#771 = FACE_BOUND('',#772,.F.);
#772 = EDGE_LOOP('',(#773,#783,#792,#798,#799,#800,#809,#817));
#773 = ORIENTED_EDGE('',*,*,#774,.T.);
#774 = EDGE_CURVE('',#775,#777,#779,.T.);
#775 = VERTEX_POINT('',#776);
#776 = CARTESIAN_POINT('',(2.,1.,0.));
#777 = VERTEX_POINT('',#778);
#778 = CARTESIAN_POINT('',(41.7,1.,0.));
#779 = LINE('',#780,#781);
#780 = CARTESIAN_POINT('',(2.,1.,0.));
#781 = VECTOR('',#782,1.);
#782 = DIRECTION('',(1.,0.,0.));
#783 = ORIENTED_EDGE('',*,*,#784,.T.);
#784 = EDGE_CURVE('',#777,#785,#787,.T.);
#785 = VERTEX_POINT('',#786);
#786 = CARTESIAN_POINT('',(42.7,2.,0.));
#787 = CIRCLE('',#788,1.);
#788 = AXIS2_PLACEMENT_3D('',#789,#790,#791);
#789 = CARTESIAN_POINT('',(41.7,2.,0.));
#790 = DIRECTION('',(-0.,0.,1.));
#791 = DIRECTION('',(0.,-1.,0.));
#792 = ORIENTED_EDGE('',*,*,#793,.T.);
#793 = EDGE_CURVE('',#785,#750,#794,.T.);
#794 = LINE('',#795,#796);
#795 = CARTESIAN_POINT('',(42.7,2.,0.));
#796 = VECTOR('',#797,1.);
#797 = DIRECTION('',(0.,1.,0.));
#798 = ORIENTED_EDGE('',*,*,#759,.T.);
#799 = ORIENTED_EDGE('',*,*,#373,.T.);
#800 = ORIENTED_EDGE('',*,*,#801,.T.);
#801 = EDGE_CURVE('',#366,#802,#804,.T.);
#802 = VERTEX_POINT('',#803);
#803 = CARTESIAN_POINT('',(1.,18.8,0.));
#804 = CIRCLE('',#805,1.);
#805 = AXIS2_PLACEMENT_3D('',#806,#807,#808);
#806 = CARTESIAN_POINT('',(2.,18.8,0.));
#807 = DIRECTION('',(0.,0.,1.));
#808 = DIRECTION('',(-1.1E-16,1.,0.));
#809 = ORIENTED_EDGE('',*,*,#810,.T.);
#810 = EDGE_CURVE('',#802,#811,#813,.T.);
#811 = VERTEX_POINT('',#812);
#812 = CARTESIAN_POINT('',(1.,2.,0.));
#813 = LINE('',#814,#815);
#814 = CARTESIAN_POINT('',(1.,18.8,0.));
#815 = VECTOR('',#816,1.);
#816 = DIRECTION('',(0.,-1.,0.));
#817 = ORIENTED_EDGE('',*,*,#818,.T.);
#818 = EDGE_CURVE('',#811,#775,#819,.T.);
#819 = CIRCLE('',#820,1.);
#820 = AXIS2_PLACEMENT_3D('',#821,#822,#823);
#821 = CARTESIAN_POINT('',(2.,2.,0.));
#822 = DIRECTION('',(0.,0.,1.));
#823 = DIRECTION('',(-1.,-3.3E-16,0.));
#824 = PLANE('',#825);
#825 = AXIS2_PLACEMENT_3D('',#826,#827,#828);
#826 = CARTESIAN_POINT('',(21.85,10.4,0.));
#827 = DIRECTION('',(0.,0.,1.));
#828 = DIRECTION('',(1.,0.,0.));
#829 = ADVANCED_FACE('',(#830),#841,.T.);
#830 = FACE_BOUND('',#831,.F.);
#831 = EDGE_LOOP('',(#832,#833,#834,#840));
#832 = ORIENTED_EDGE('',*,*,#365,.F.);
#833 = ORIENTED_EDGE('',*,*,#388,.T.);
#834 = ORIENTED_EDGE('',*,*,#835,.T.);
#835 = EDGE_CURVE('',#389,#802,#836,.T.);
#836 = LINE('',#837,#838);
#837 = CARTESIAN_POINT('',(0.,18.8,1.));
#838 = VECTOR('',#839,1.);
#839 = DIRECTION('',(0.707106781187,4.E-17,-0.707106781187));
#840 = ORIENTED_EDGE('',*,*,#801,.F.);
#841 = CONICAL_SURFACE('',#842,2.,0.785398163397);
#842 = AXIS2_PLACEMENT_3D('',#843,#844,#845);
#843 = CARTESIAN_POINT('',(2.,18.8,1.));
#844 = DIRECTION('',(0.,0.,1.));
#845 = DIRECTION('',(-1.1E-16,1.,0.));
#846 = ADVANCED_FACE('',(#847),#866,.T.);
#847 = FACE_BOUND('',#848,.T.);
#848 = EDGE_LOOP('',(#849,#850,#858,#865));
#849 = ORIENTED_EDGE('',*,*,#400,.T.);
#850 = ORIENTED_EDGE('',*,*,#851,.T.);
#851 = EDGE_CURVE('',#389,#852,#854,.T.);
#852 = VERTEX_POINT('',#853);
#853 = CARTESIAN_POINT('',(0.585786437627,2.,0.414213562373));
#854 = LINE('',#855,#856);
#855 = CARTESIAN_POINT('',(0.585786437627,18.8,0.414213562373));
#856 = VECTOR('',#857,1.);
#857 = DIRECTION('',(0.,-1.,0.));
#858 = ORIENTED_EDGE('',*,*,#859,.F.);
#859 = EDGE_CURVE('',#435,#852,#860,.T.);
#860 = CIRCLE('',#861,2.);
#861 = AXIS2_PLACEMENT_3D('',#862,#863,#864);
#862 = CARTESIAN_POINT('',(2.,2.,1.828427124746));
#863 = DIRECTION('',(0.,-1.,0.));
#864 = DIRECTION('',(-1.,0.,0.));
#865 = ORIENTED_EDGE('',*,*,#442,.F.);
#866 = CYLINDRICAL_SURFACE('',#867,2.);
#867 = AXIS2_PLACEMENT_3D('',#868,#869,#870);
#868 = CARTESIAN_POINT('',(2.,18.8,1.828427124746));
#869 = DIRECTION('',(0.,-1.,0.));
#870 = DIRECTION('',(-1.,0.,0.));
#871 = ADVANCED_FACE('',(#872),#895,.T.);
#872 = FACE_BOUND('',#873,.T.);
#873 = EDGE_LOOP('',(#874,#875,#887,#894));
#874 = ORIENTED_EDGE('',*,*,#859,.T.);
#875 = ORIENTED_EDGE('',*,*,#876,.T.);
#876 = EDGE_CURVE('',#852,#877,#879,.T.);
#877 = VERTEX_POINT('',#878);
#878 = CARTESIAN_POINT('',(2.,0.585786437627,0.414213562373));
#879 = ( BOUNDED_CURVE() B_SPLINE_CURVE(6,(#880,#881,#882,#883,#884,#885
,#886),.UNSPECIFIED.,.F.,.F.) B_SPLINE_CURVE_WITH_KNOTS((7,7),(
122.42477796076,125.56637061435),.PIECEWISE_BEZIER_KNOTS.) CURVE() 
GEOMETRIC_REPRESENTATION_ITEM() RATIONAL_B_SPLINE_CURVE((1.,1.,1.,1.,1.,
1.,1.)) REPRESENTATION_ITEM('') );
#880 = CARTESIAN_POINT('',(0.585786437627,2.,0.414213562373));
#881 = CARTESIAN_POINT('',(0.585786437627,1.629761450064,0.414213562373)
  );
#882 = CARTESIAN_POINT('',(0.702073044989,1.259548219413,0.414213562373)
  );
#883 = CARTESIAN_POINT('',(0.934830594822,0.934830594822,0.414213562373)
  );
#884 = CARTESIAN_POINT('',(1.259548219413,0.702073044989,0.414213562373)
  );
#885 = CARTESIAN_POINT('',(1.629761450064,0.585786437627,0.414213562373)
  );
#886 = CARTESIAN_POINT('',(2.,0.585786437627,0.414213562373));
#887 = ORIENTED_EDGE('',*,*,#888,.F.);
#888 = EDGE_CURVE('',#457,#877,#889,.T.);
#889 = CIRCLE('',#890,2.);
#890 = AXIS2_PLACEMENT_3D('',#891,#892,#893);
#891 = CARTESIAN_POINT('',(2.,2.,1.828427124746));
#892 = DIRECTION('',(1.,0.,0.));
#893 = DIRECTION('',(0.,-1.,0.));
#894 = ORIENTED_EDGE('',*,*,#464,.F.);
#895 = ( BOUNDED_SURFACE() B_SPLINE_SURFACE(2,6,(
    (#896,#897,#898,#899,#900,#901,#902)
    ,(#903,#904,#905,#906,#907,#908,#909)
    ,(#910,#911,#912,#913,#914,#915,#916
)),.UNSPECIFIED.,.F.,.F.,.F.) B_SPLINE_SURFACE_WITH_KNOTS((3,3),(7,7),(
    0.,3.14159265359),(122.42477796076,125.56637061435),
.PIECEWISE_BEZIER_KNOTS.) GEOMETRIC_REPRESENTATION_ITEM() 
RATIONAL_B_SPLINE_SURFACE((
    (1.,1.,1.,1.,1.,1.,1.)
    ,(0.923879532511,0.923879532511,0.923879532511,0.923879532511
      ,0.923879532511,0.923879532511,0.923879532511)
,(1.,1.,1.,1.,1.,1.,1.))) REPRESENTATION_ITEM('') SURFACE() );
#896 = CARTESIAN_POINT('',(-4.4E-16,2.,1.828427124746));
#897 = CARTESIAN_POINT('',(-2.2E-16,1.476403621367,1.828427124746));
#898 = CARTESIAN_POINT('',(0.164454097253,0.95284304961,1.828427124746)
  );
#899 = CARTESIAN_POINT('',(0.493622980972,0.493622980972,1.828427124746)
  );
#900 = CARTESIAN_POINT('',(0.95284304961,0.164454097253,1.828427124746)
  );
#901 = CARTESIAN_POINT('',(1.476403621367,-1.55E-15,1.828427124746));
#902 = CARTESIAN_POINT('',(2.,-4.4E-16,1.828427124746));
#903 = CARTESIAN_POINT('',(-2.2E-16,2.,1.));
#904 = CARTESIAN_POINT('',(-1.55E-15,1.476403621367,1.));
#905 = CARTESIAN_POINT('',(0.164454097253,0.95284304961,1.));
#906 = CARTESIAN_POINT('',(0.493622980972,0.493622980972,1.));
#907 = CARTESIAN_POINT('',(0.95284304961,0.164454097253,1.));
#908 = CARTESIAN_POINT('',(1.476403621367,-2.2E-16,1.));
#909 = CARTESIAN_POINT('',(2.,-4.4E-16,1.));
#910 = CARTESIAN_POINT('',(0.585786437627,2.,0.414213562373));
#911 = CARTESIAN_POINT('',(0.585786437627,1.629761450064,0.414213562373)
  );
#912 = CARTESIAN_POINT('',(0.702073044989,1.259548219413,0.414213562373)
  );
#913 = CARTESIAN_POINT('',(0.934830594822,0.934830594822,0.414213562373)
  );
#914 = CARTESIAN_POINT('',(1.259548219413,0.702073044989,0.414213562373)
  );
#915 = CARTESIAN_POINT('',(1.629761450064,0.585786437627,0.414213562373)
  );
#916 = CARTESIAN_POINT('',(2.,0.585786437627,0.414213562373));
#917 = ADVANCED_FACE('',(#918),#941,.T.);
#918 = FACE_BOUND('',#919,.T.);
#919 = EDGE_LOOP('',(#920,#929,#939,#940));
#920 = ORIENTED_EDGE('',*,*,#921,.T.);
#921 = EDGE_CURVE('',#486,#922,#924,.T.);
#922 = VERTEX_POINT('',#923);
#923 = CARTESIAN_POINT('',(41.7,0.585786437627,0.414213562373));
#924 = CIRCLE('',#925,2.);
#925 = AXIS2_PLACEMENT_3D('',#926,#927,#928);
#926 = CARTESIAN_POINT('',(41.7,2.,1.828427124746));
#927 = DIRECTION('',(1.,0.,0.));
#928 = DIRECTION('',(0.,-1.,0.));
#929 = ORIENTED_EDGE('',*,*,#930,.T.);
#930 = EDGE_CURVE('',#922,#726,#931,.T.);
#931 = ( BOUNDED_CURVE() B_SPLINE_CURVE(6,(#932,#933,#934,#935,#936,#937
,#938),.UNSPECIFIED.,.F.,.F.) B_SPLINE_CURVE_WITH_KNOTS((7,7),(39.7,
42.84159265359),.PIECEWISE_BEZIER_KNOTS.) CURVE() 
GEOMETRIC_REPRESENTATION_ITEM() RATIONAL_B_SPLINE_CURVE((1.,1.,1.,1.,1.,
1.,1.)) REPRESENTATION_ITEM('') );
#932 = CARTESIAN_POINT('',(41.7,0.585786437627,0.414213562373));
#933 = CARTESIAN_POINT('',(42.070238549936,0.585786437627,0.414213562373
    ));
#934 = CARTESIAN_POINT('',(42.440451780587,0.702073044989,0.414213562373
    ));
#935 = CARTESIAN_POINT('',(42.765169405178,0.934830594822,0.414213562373
    ));
#936 = CARTESIAN_POINT('',(42.997926955011,1.259548219413,0.414213562373
    ));
#937 = CARTESIAN_POINT('',(43.114213562373,1.629761450064,0.414213562373
    ));
#938 = CARTESIAN_POINT('',(43.114213562373,2.,0.414213562373));
#939 = ORIENTED_EDGE('',*,*,#725,.F.);
#940 = ORIENTED_EDGE('',*,*,#485,.F.);
#941 = ( BOUNDED_SURFACE() B_SPLINE_SURFACE(2,6,(
    (#942,#943,#944,#945,#946,#947,#948)
    ,(#949,#950,#951,#952,#953,#954,#955)
    ,(#956,#957,#958,#959,#960,#961,#962
)),.UNSPECIFIED.,.F.,.F.,.F.) B_SPLINE_SURFACE_WITH_KNOTS((3,3),(7,7),(
    0.,3.14159265359),(39.7,42.84159265359),.PIECEWISE_BEZIER_KNOTS.) 
GEOMETRIC_REPRESENTATION_ITEM() RATIONAL_B_SPLINE_SURFACE((
    (1.,1.,1.,1.,1.,1.,1.)
    ,(0.923879532511,0.923879532511,0.923879532511,0.923879532511
      ,0.923879532511,0.923879532511,0.923879532511)
,(1.,1.,1.,1.,1.,1.,1.))) REPRESENTATION_ITEM('') SURFACE() );
#942 = CARTESIAN_POINT('',(41.7,-4.4E-16,1.828427124746));
#943 = CARTESIAN_POINT('',(42.223596378633,4.4E-16,1.828427124746));
#944 = CARTESIAN_POINT('',(42.74715695039,0.164454097253,1.828427124746)
  );
#945 = CARTESIAN_POINT('',(43.206377019028,0.493622980972,1.828427124746
    ));
#946 = CARTESIAN_POINT('',(43.535545902747,0.95284304961,1.828427124746)
  );
#947 = CARTESIAN_POINT('',(43.7,1.476403621367,1.828427124746));
#948 = CARTESIAN_POINT('',(43.7,2.,1.828427124746));
#949 = CARTESIAN_POINT('',(41.7,-6.7E-16,1.));
#950 = CARTESIAN_POINT('',(42.223596378633,4.4E-16,1.));
#951 = CARTESIAN_POINT('',(42.74715695039,0.164454097253,1.));
#952 = CARTESIAN_POINT('',(43.206377019028,0.493622980972,1.));
#953 = CARTESIAN_POINT('',(43.535545902747,0.95284304961,1.));
#954 = CARTESIAN_POINT('',(43.7,1.476403621367,1.));
#955 = CARTESIAN_POINT('',(43.7,2.,1.));
#956 = CARTESIAN_POINT('',(41.7,0.585786437627,0.414213562373));
#957 = CARTESIAN_POINT('',(42.070238549936,0.585786437627,0.414213562373
    ));
#958 = CARTESIAN_POINT('',(42.440451780587,0.702073044989,0.414213562373
    ));
#959 = CARTESIAN_POINT('',(42.765169405178,0.934830594822,0.414213562373
    ));
#960 = CARTESIAN_POINT('',(42.997926955011,1.259548219413,0.414213562373
    ));
#961 = CARTESIAN_POINT('',(43.114213562373,1.629761450064,0.414213562373
    ));
#962 = CARTESIAN_POINT('',(43.114213562373,2.,0.414213562373));
#963 = ADVANCED_FACE('',(#964),#975,.T.);
#964 = FACE_BOUND('',#965,.T.);
#965 = EDGE_LOOP('',(#966,#967,#973,#974));
#966 = ORIENTED_EDGE('',*,*,#888,.T.);
#967 = ORIENTED_EDGE('',*,*,#968,.T.);
#968 = EDGE_CURVE('',#877,#922,#969,.T.);
#969 = LINE('',#970,#971);
#970 = CARTESIAN_POINT('',(2.,0.585786437627,0.414213562373));
#971 = VECTOR('',#972,1.);
#972 = DIRECTION('',(1.,0.,0.));
#973 = ORIENTED_EDGE('',*,*,#921,.F.);
#974 = ORIENTED_EDGE('',*,*,#515,.F.);
#975 = CYLINDRICAL_SURFACE('',#976,2.);
#976 = AXIS2_PLACEMENT_3D('',#977,#978,#979);
#977 = CARTESIAN_POINT('',(2.,2.,1.828427124746));
#978 = DIRECTION('',(1.,0.,0.));
#979 = DIRECTION('',(0.,-1.,0.));
#980 = ADVANCED_FACE('',(#981,#1015,#1025,#1095),#1129,.T.);
#981 = FACE_BOUND('',#982,.T.);
#982 = EDGE_LOOP('',(#983,#993,#1001,#1009));
#983 = ORIENTED_EDGE('',*,*,#984,.F.);
#984 = EDGE_CURVE('',#985,#987,#989,.T.);
#985 = VERTEX_POINT('',#986);
#986 = CARTESIAN_POINT('',(41.75,1.950000000017,12.));
#987 = VERTEX_POINT('',#988);
#988 = CARTESIAN_POINT('',(41.75,8.950000000017,12.));
#989 = LINE('',#990,#991);
#990 = CARTESIAN_POINT('',(41.75,2.200000000017,12.));
#991 = VECTOR('',#992,1.);
#992 = DIRECTION('',(0.,1.,0.));
#993 = ORIENTED_EDGE('',*,*,#994,.F.);
#994 = EDGE_CURVE('',#995,#985,#997,.T.);
#995 = VERTEX_POINT('',#996);
#996 = CARTESIAN_POINT('',(38.749999999975,1.950000000017,12.));
#997 = LINE('',#998,#999);
#998 = CARTESIAN_POINT('',(38.999999999978,1.950000000017,12.));
#999 = VECTOR('',#1000,1.);
#1000 = DIRECTION('',(1.,0.,0.));
#1001 = ORIENTED_EDGE('',*,*,#1002,.T.);
#1002 = EDGE_CURVE('',#995,#1003,#1005,.T.);
#1003 = VERTEX_POINT('',#1004);
#1004 = CARTESIAN_POINT('',(38.749999999978,8.950000000017,
    12.000000000003));
#1005 = LINE('',#1006,#1007);
#1006 = CARTESIAN_POINT('',(38.749999999975,2.2,12.));
#1007 = VECTOR('',#1008,1.);
#1008 = DIRECTION('',(0.,1.,0.));
#1009 = ORIENTED_EDGE('',*,*,#1010,.F.);
#1010 = EDGE_CURVE('',#987,#1003,#1011,.T.);
#1011 = LINE('',#1012,#1013);
#1012 = CARTESIAN_POINT('',(41.5,8.950000000017,12.));
#1013 = VECTOR('',#1014,1.);
#1014 = DIRECTION('',(-1.,0.,0.));
#1015 = FACE_BOUND('',#1016,.T.);
#1016 = EDGE_LOOP('',(#1017,#1018,#1019,#1020,#1021,#1022,#1023,#1024));
#1017 = ORIENTED_EDGE('',*,*,#610,.T.);
#1018 = ORIENTED_EDGE('',*,*,#560,.F.);
#1019 = ORIENTED_EDGE('',*,*,#529,.T.);
#1020 = ORIENTED_EDGE('',*,*,#585,.T.);
#1021 = ORIENTED_EDGE('',*,*,#634,.T.);
#1022 = ORIENTED_EDGE('',*,*,#683,.T.);
#1023 = ORIENTED_EDGE('',*,*,#708,.T.);
#1024 = ORIENTED_EDGE('',*,*,#658,.T.);
#1025 = FACE_BOUND('',#1026,.T.);
#1026 = EDGE_LOOP('',(#1027,#1037,#1046,#1054,#1063,#1071,#1080,#1088));
#1027 = ORIENTED_EDGE('',*,*,#1028,.F.);
#1028 = EDGE_CURVE('',#1029,#1031,#1033,.T.);
#1029 = VERTEX_POINT('',#1030);
#1030 = CARTESIAN_POINT('',(2.2,17.599999999983,12.));
#1031 = VERTEX_POINT('',#1032);
#1032 = CARTESIAN_POINT('',(2.2,3.200000000017,12.));
#1033 = LINE('',#1034,#1035);
#1034 = CARTESIAN_POINT('',(2.2,18.599999999983,12.));
#1035 = VECTOR('',#1036,1.);
#1036 = DIRECTION('',(0.,-1.,0.));
#1037 = ORIENTED_EDGE('',*,*,#1038,.T.);
#1038 = EDGE_CURVE('',#1029,#1039,#1041,.T.);
#1039 = VERTEX_POINT('',#1040);
#1040 = CARTESIAN_POINT('',(3.2,18.599999999983,12.));
#1041 = CIRCLE('',#1042,1.);
#1042 = AXIS2_PLACEMENT_3D('',#1043,#1044,#1045);
#1043 = CARTESIAN_POINT('',(3.2,17.599999999983,12.));
#1044 = DIRECTION('',(0.,0.,-1.));
#1045 = DIRECTION('',(0.,1.,0.));
#1046 = ORIENTED_EDGE('',*,*,#1047,.F.);
#1047 = EDGE_CURVE('',#1048,#1039,#1050,.T.);
#1048 = VERTEX_POINT('',#1049);
#1049 = CARTESIAN_POINT('',(37.199999999978,18.599999999983,12.));
#1050 = LINE('',#1051,#1052);
#1051 = CARTESIAN_POINT('',(41.5,18.599999999983,12.));
#1052 = VECTOR('',#1053,1.);
#1053 = DIRECTION('',(-1.,0.,0.));
#1054 = ORIENTED_EDGE('',*,*,#1055,.T.);
#1055 = EDGE_CURVE('',#1048,#1056,#1058,.T.);
#1056 = VERTEX_POINT('',#1057);
#1057 = CARTESIAN_POINT('',(38.199999999978,17.599999999983,12.));
#1058 = CIRCLE('',#1059,1.);
#1059 = AXIS2_PLACEMENT_3D('',#1060,#1061,#1062);
#1060 = CARTESIAN_POINT('',(37.199999999978,17.599999999983,12.));
#1061 = DIRECTION('',(-0.,-0.,-1.));
#1062 = DIRECTION('',(0.,-1.,0.));
#1063 = ORIENTED_EDGE('',*,*,#1064,.T.);
#1064 = EDGE_CURVE('',#1056,#1065,#1067,.T.);
#1065 = VERTEX_POINT('',#1066);
#1066 = CARTESIAN_POINT('',(38.199999999978,3.200000000017,12.));
#1067 = LINE('',#1068,#1069);
#1068 = CARTESIAN_POINT('',(38.199999999978,14.499999999991,12.));
#1069 = VECTOR('',#1070,1.);
#1070 = DIRECTION('',(0.,-1.,0.));
#1071 = ORIENTED_EDGE('',*,*,#1072,.F.);
#1072 = EDGE_CURVE('',#1073,#1065,#1075,.T.);
#1073 = VERTEX_POINT('',#1074);
#1074 = CARTESIAN_POINT('',(37.199999999978,2.200000000017,12.));
#1075 = CIRCLE('',#1076,1.);
#1076 = AXIS2_PLACEMENT_3D('',#1077,#1078,#1079);
#1077 = CARTESIAN_POINT('',(37.199999999978,3.200000000017,12.));
#1078 = DIRECTION('',(-0.,0.,1.));
#1079 = DIRECTION('',(0.,-1.,0.));
#1080 = ORIENTED_EDGE('',*,*,#1081,.F.);
#1081 = EDGE_CURVE('',#1082,#1073,#1084,.T.);
#1082 = VERTEX_POINT('',#1083);
#1083 = CARTESIAN_POINT('',(3.2,2.200000000017,12.));
#1084 = LINE('',#1085,#1086);
#1085 = CARTESIAN_POINT('',(2.2,2.200000000017,12.));
#1086 = VECTOR('',#1087,1.);
#1087 = DIRECTION('',(1.,0.,0.));
#1088 = ORIENTED_EDGE('',*,*,#1089,.F.);
#1089 = EDGE_CURVE('',#1031,#1082,#1090,.T.);
#1090 = CIRCLE('',#1091,1.);
#1091 = AXIS2_PLACEMENT_3D('',#1092,#1093,#1094);
#1092 = CARTESIAN_POINT('',(3.2,3.200000000017,12.));
#1093 = DIRECTION('',(0.,-0.,1.));
#1094 = DIRECTION('',(0.,1.,0.));
#1095 = FACE_BOUND('',#1096,.T.);
#1096 = EDGE_LOOP('',(#1097,#1107,#1115,#1123));
#1097 = ORIENTED_EDGE('',*,*,#1098,.F.);
#1098 = EDGE_CURVE('',#1099,#1101,#1103,.T.);
#1099 = VERTEX_POINT('',#1100);
#1100 = CARTESIAN_POINT('',(38.749999999984,11.849999999983,12.));
#1101 = VERTEX_POINT('',#1102);
#1102 = CARTESIAN_POINT('',(41.75,11.849999999983,12.));
#1103 = LINE('',#1104,#1105);
#1104 = CARTESIAN_POINT('',(39.,11.849999999983,12.));
#1105 = VECTOR('',#1106,1.);
#1106 = DIRECTION('',(1.,0.,0.));
#1107 = ORIENTED_EDGE('',*,*,#1108,.T.);
#1108 = EDGE_CURVE('',#1099,#1109,#1111,.T.);
#1109 = VERTEX_POINT('',#1110);
#1110 = CARTESIAN_POINT('',(38.749999999987,18.849999999983,
    12.000000000003));
#1111 = LINE('',#1112,#1113);
#1112 = CARTESIAN_POINT('',(38.749999999984,12.099999999983,12.));
#1113 = VECTOR('',#1114,1.);
#1114 = DIRECTION('',(0.,1.,0.));
#1115 = ORIENTED_EDGE('',*,*,#1116,.F.);
#1116 = EDGE_CURVE('',#1117,#1109,#1119,.T.);
#1117 = VERTEX_POINT('',#1118);
#1118 = CARTESIAN_POINT('',(41.75,18.849999999983,12.));
#1119 = LINE('',#1120,#1121);
#1120 = CARTESIAN_POINT('',(41.5,18.849999999983,12.));
#1121 = VECTOR('',#1122,1.);
#1122 = DIRECTION('',(-1.,0.,0.));
#1123 = ORIENTED_EDGE('',*,*,#1124,.F.);
#1124 = EDGE_CURVE('',#1101,#1117,#1125,.T.);
#1125 = LINE('',#1126,#1127);
#1126 = CARTESIAN_POINT('',(41.75,12.099999999983,12.));
#1127 = VECTOR('',#1128,1.);
#1128 = DIRECTION('',(0.,1.,0.));
#1129 = PLANE('',#1130);
#1130 = AXIS2_PLACEMENT_3D('',#1131,#1132,#1133);
#1131 = CARTESIAN_POINT('',(21.85,10.400000000008,12.));
#1132 = DIRECTION('',(0.,0.,1.));
#1133 = DIRECTION('',(1.,0.,0.));
#1134 = ADVANCED_FACE('',(#1135),#1146,.T.);
#1135 = FACE_BOUND('',#1136,.F.);
#1136 = EDGE_LOOP('',(#1137,#1143,#1144,#1145));
#1137 = ORIENTED_EDGE('',*,*,#1138,.F.);
#1138 = EDGE_CURVE('',#726,#785,#1139,.T.);
#1139 = LINE('',#1140,#1141);
#1140 = CARTESIAN_POINT('',(43.7,2.,1.));
#1141 = VECTOR('',#1142,1.);
#1142 = DIRECTION('',(-0.707106781187,4.E-17,-0.707106781187));
#1143 = ORIENTED_EDGE('',*,*,#733,.T.);
#1144 = ORIENTED_EDGE('',*,*,#749,.T.);
#1145 = ORIENTED_EDGE('',*,*,#793,.F.);
#1146 = PLANE('',#1147);
#1147 = AXIS2_PLACEMENT_3D('',#1148,#1149,#1150);
#1148 = CARTESIAN_POINT('',(43.2,2.,0.5));
#1149 = DIRECTION('',(0.707106781187,0.,-0.707106781187));
#1150 = DIRECTION('',(-0.,-1.,-0.));
#1151 = ADVANCED_FACE('',(#1152),#1168,.T.);
#1152 = FACE_BOUND('',#1153,.F.);
#1153 = EDGE_LOOP('',(#1154,#1160,#1161,#1167));
#1154 = ORIENTED_EDGE('',*,*,#1155,.F.);
#1155 = EDGE_CURVE('',#877,#775,#1156,.T.);
#1156 = LINE('',#1157,#1158);
#1157 = CARTESIAN_POINT('',(2.,0.5,0.5));
#1158 = VECTOR('',#1159,1.);
#1159 = DIRECTION('',(0.,0.707106781187,-0.707106781187));
#1160 = ORIENTED_EDGE('',*,*,#968,.T.);
#1161 = ORIENTED_EDGE('',*,*,#1162,.T.);
#1162 = EDGE_CURVE('',#922,#777,#1163,.T.);
#1163 = LINE('',#1164,#1165);
#1164 = CARTESIAN_POINT('',(41.7,0.5,0.5));
#1165 = VECTOR('',#1166,1.);
#1166 = DIRECTION('',(0.,0.707106781187,-0.707106781187));
#1167 = ORIENTED_EDGE('',*,*,#774,.F.);
#1168 = PLANE('',#1169);
#1169 = AXIS2_PLACEMENT_3D('',#1170,#1171,#1172);
#1170 = CARTESIAN_POINT('',(2.,0.5,0.5));
#1171 = DIRECTION('',(0.,-0.707106781187,-0.707106781187));
#1172 = DIRECTION('',(-1.,-0.,-0.));
#1173 = ADVANCED_FACE('',(#1174),#1185,.T.);
#1174 = FACE_BOUND('',#1175,.F.);
#1175 = EDGE_LOOP('',(#1176,#1182,#1183,#1184));
#1176 = ORIENTED_EDGE('',*,*,#1177,.F.);
#1177 = EDGE_CURVE('',#852,#811,#1178,.T.);
#1178 = LINE('',#1179,#1180);
#1179 = CARTESIAN_POINT('',(0.5,2.,0.5));
#1180 = VECTOR('',#1181,1.);
#1181 = DIRECTION('',(0.707106781187,0.,-0.707106781187));
#1182 = ORIENTED_EDGE('',*,*,#876,.T.);
#1183 = ORIENTED_EDGE('',*,*,#1155,.T.);
#1184 = ORIENTED_EDGE('',*,*,#818,.F.);
#1185 = CONICAL_SURFACE('',#1186,2.,0.785398163397);
#1186 = AXIS2_PLACEMENT_3D('',#1187,#1188,#1189);
#1187 = CARTESIAN_POINT('',(2.,2.,1.));
#1188 = DIRECTION('',(0.,0.,1.));
#1189 = DIRECTION('',(-1.,-3.3E-16,0.));
#1190 = ADVANCED_FACE('',(#1191),#1197,.T.);
#1191 = FACE_BOUND('',#1192,.F.);
#1192 = EDGE_LOOP('',(#1193,#1194,#1195,#1196));
#1193 = ORIENTED_EDGE('',*,*,#1162,.F.);
#1194 = ORIENTED_EDGE('',*,*,#930,.T.);
#1195 = ORIENTED_EDGE('',*,*,#1138,.T.);
#1196 = ORIENTED_EDGE('',*,*,#784,.F.);
#1197 = CONICAL_SURFACE('',#1198,2.,0.785398163397);
#1198 = AXIS2_PLACEMENT_3D('',#1199,#1200,#1201);
#1199 = CARTESIAN_POINT('',(41.7,2.,1.));
#1200 = DIRECTION('',(0.,0.,1.));
#1201 = DIRECTION('',(0.,-1.,0.));
#1202 = ADVANCED_FACE('',(#1203),#1209,.T.);
#1203 = FACE_BOUND('',#1204,.F.);
#1204 = EDGE_LOOP('',(#1205,#1206,#1207,#1208));
#1205 = ORIENTED_EDGE('',*,*,#835,.F.);
#1206 = ORIENTED_EDGE('',*,*,#851,.T.);
#1207 = ORIENTED_EDGE('',*,*,#1177,.T.);
#1208 = ORIENTED_EDGE('',*,*,#810,.F.);
#1209 = PLANE('',#1210);
#1210 = AXIS2_PLACEMENT_3D('',#1211,#1212,#1213);
#1211 = CARTESIAN_POINT('',(0.5,18.8,0.5));
#1212 = DIRECTION('',(-0.707106781187,0.,-0.707106781187));
#1213 = DIRECTION('',(0.,1.,0.));
#1214 = ADVANCED_FACE('',(#1215),#1240,.T.);
#1215 = FACE_BOUND('',#1216,.T.);
#1216 = EDGE_LOOP('',(#1217,#1225,#1226,#1234));
#1217 = ORIENTED_EDGE('',*,*,#1218,.F.);
#1218 = EDGE_CURVE('',#985,#1219,#1221,.T.);
#1219 = VERTEX_POINT('',#1220);
#1220 = CARTESIAN_POINT('',(41.5,2.200000000017,11.75));
#1221 = LINE('',#1222,#1223);
#1222 = CARTESIAN_POINT('',(41.166666666663,2.533333333354,
    11.416666666663));
#1223 = VECTOR('',#1224,1.);
#1224 = DIRECTION('',(-0.57735026919,0.57735026919,-0.57735026919));
#1225 = ORIENTED_EDGE('',*,*,#984,.T.);
#1226 = ORIENTED_EDGE('',*,*,#1227,.T.);
#1227 = EDGE_CURVE('',#987,#1228,#1230,.T.);
#1228 = VERTEX_POINT('',#1229);
#1229 = CARTESIAN_POINT('',(41.5,8.700000000017,11.75));
#1230 = LINE('',#1231,#1232);
#1231 = CARTESIAN_POINT('',(40.5,7.700000000017,10.75));
#1232 = VECTOR('',#1233,1.);
#1233 = DIRECTION('',(-0.57735026919,-0.57735026919,-0.57735026919));
#1234 = ORIENTED_EDGE('',*,*,#1235,.F.);
#1235 = EDGE_CURVE('',#1219,#1228,#1236,.T.);
#1236 = LINE('',#1237,#1238);
#1237 = CARTESIAN_POINT('',(41.5,2.200000000017,11.75));
#1238 = VECTOR('',#1239,1.);
#1239 = DIRECTION('',(0.,1.,0.));
#1240 = PLANE('',#1241);
#1241 = AXIS2_PLACEMENT_3D('',#1242,#1243,#1244);
#1242 = CARTESIAN_POINT('',(41.625,2.200000000017,11.875));
#1243 = DIRECTION('',(-0.707106781187,0.,0.707106781187));
#1244 = DIRECTION('',(0.,1.,0.));
#1245 = ADVANCED_FACE('',(#1246),#1264,.T.);
#1246 = FACE_BOUND('',#1247,.T.);
#1247 = EDGE_LOOP('',(#1248,#1256,#1257,#1258));
#1248 = ORIENTED_EDGE('',*,*,#1249,.F.);
#1249 = EDGE_CURVE('',#995,#1250,#1252,.T.);
#1250 = VERTEX_POINT('',#1251);
#1251 = CARTESIAN_POINT('',(38.999999999978,2.200000000017,11.75));
#1252 = LINE('',#1253,#1254);
#1253 = CARTESIAN_POINT('',(38.91666666664,2.116666666682,
    11.833333333336));
#1254 = VECTOR('',#1255,1.);
#1255 = DIRECTION('',(0.57735026919,0.577350269189,-0.577350269189));
#1256 = ORIENTED_EDGE('',*,*,#994,.T.);
#1257 = ORIENTED_EDGE('',*,*,#1218,.T.);
#1258 = ORIENTED_EDGE('',*,*,#1259,.F.);
#1259 = EDGE_CURVE('',#1250,#1219,#1260,.T.);
#1260 = LINE('',#1261,#1262);
#1261 = CARTESIAN_POINT('',(38.999999999978,2.200000000017,11.75));
#1262 = VECTOR('',#1263,1.);
#1263 = DIRECTION('',(1.,0.,0.));
#1264 = PLANE('',#1265);
#1265 = AXIS2_PLACEMENT_3D('',#1266,#1267,#1268);
#1266 = CARTESIAN_POINT('',(38.999999999978,2.075000000017,11.875));
#1267 = DIRECTION('',(0.,0.707106781187,0.707106781187));
#1268 = DIRECTION('',(1.,0.,0.));
#1269 = ADVANCED_FACE('',(#1270),#1288,.T.);
#1270 = FACE_BOUND('',#1271,.T.);
#1271 = EDGE_LOOP('',(#1272,#1273,#1274,#1282));
#1272 = ORIENTED_EDGE('',*,*,#1227,.F.);
#1273 = ORIENTED_EDGE('',*,*,#1010,.T.);
#1274 = ORIENTED_EDGE('',*,*,#1275,.T.);
#1275 = EDGE_CURVE('',#1003,#1276,#1278,.T.);
#1276 = VERTEX_POINT('',#1277);
#1277 = CARTESIAN_POINT('',(38.999999999978,8.700000000017,
    11.750000000003));
#1278 = LINE('',#1279,#1280);
#1279 = CARTESIAN_POINT('',(40.416666666653,7.283333333345,
    10.333333333328));
#1280 = VECTOR('',#1281,1.);
#1281 = DIRECTION('',(0.57735026919,-0.57735026919,-0.57735026919));
#1282 = ORIENTED_EDGE('',*,*,#1283,.F.);
#1283 = EDGE_CURVE('',#1228,#1276,#1284,.T.);
#1284 = LINE('',#1285,#1286);
#1285 = CARTESIAN_POINT('',(41.5,8.700000000017,11.75));
#1286 = VECTOR('',#1287,1.);
#1287 = DIRECTION('',(-1.,0.,0.));
#1288 = PLANE('',#1289);
#1289 = AXIS2_PLACEMENT_3D('',#1290,#1291,#1292);
#1290 = CARTESIAN_POINT('',(41.5,8.825000000017,11.875));
#1291 = DIRECTION('',(0.,-0.707106781187,0.707106781187));
#1292 = DIRECTION('',(-1.,0.,0.));
#1293 = ADVANCED_FACE('',(#1294),#1305,.T.);
#1294 = FACE_BOUND('',#1295,.F.);
#1295 = EDGE_LOOP('',(#1296,#1297,#1298,#1299));
#1296 = ORIENTED_EDGE('',*,*,#1249,.F.);
#1297 = ORIENTED_EDGE('',*,*,#1002,.T.);
#1298 = ORIENTED_EDGE('',*,*,#1275,.T.);
#1299 = ORIENTED_EDGE('',*,*,#1300,.F.);
#1300 = EDGE_CURVE('',#1250,#1276,#1301,.T.);
#1301 = LINE('',#1302,#1303);
#1302 = CARTESIAN_POINT('',(38.999999999975,2.2,11.75));
#1303 = VECTOR('',#1304,1.);
#1304 = DIRECTION('',(0.,1.,0.));
#1305 = PLANE('',#1306);
#1306 = AXIS2_PLACEMENT_3D('',#1307,#1308,#1309);
#1307 = CARTESIAN_POINT('',(38.874999999975,2.2,11.875));
#1308 = DIRECTION('',(0.707106781186,-6.1447E-13,0.707106781187));
#1309 = DIRECTION('',(-4.344959038357E-13,-1.,-4.344959038357E-13));
#1310 = ADVANCED_FACE('',(#1311),#1336,.F.);
#1311 = FACE_BOUND('',#1312,.F.);
#1312 = EDGE_LOOP('',(#1313,#1314,#1322,#1330));
#1313 = ORIENTED_EDGE('',*,*,#1028,.F.);
#1314 = ORIENTED_EDGE('',*,*,#1315,.T.);
#1315 = EDGE_CURVE('',#1029,#1316,#1318,.T.);
#1316 = VERTEX_POINT('',#1317);
#1317 = CARTESIAN_POINT('',(2.2,17.599999999983,10.4));
#1318 = LINE('',#1319,#1320);
#1319 = CARTESIAN_POINT('',(2.2,17.599999999983,12.));
#1320 = VECTOR('',#1321,1.);
#1321 = DIRECTION('',(-0.,-0.,-1.));
#1322 = ORIENTED_EDGE('',*,*,#1323,.T.);
#1323 = EDGE_CURVE('',#1316,#1324,#1326,.T.);
#1324 = VERTEX_POINT('',#1325);
#1325 = CARTESIAN_POINT('',(2.2,3.200000000017,10.4));
#1326 = LINE('',#1327,#1328);
#1327 = CARTESIAN_POINT('',(2.2,18.599999999983,10.4));
#1328 = VECTOR('',#1329,1.);
#1329 = DIRECTION('',(0.,-1.,0.));
#1330 = ORIENTED_EDGE('',*,*,#1331,.F.);
#1331 = EDGE_CURVE('',#1031,#1324,#1332,.T.);
#1332 = LINE('',#1333,#1334);
#1333 = CARTESIAN_POINT('',(2.2,3.200000000017,12.));
#1334 = VECTOR('',#1335,1.);
#1335 = DIRECTION('',(-0.,-0.,-1.));
#1336 = PLANE('',#1337);
#1337 = AXIS2_PLACEMENT_3D('',#1338,#1339,#1340);
#1338 = CARTESIAN_POINT('',(2.2,18.599999999983,12.));
#1339 = DIRECTION('',(-1.,0.,0.));
#1340 = DIRECTION('',(0.,-1.,0.));
#1341 = ADVANCED_FACE('',(#1342),#1361,.F.);
#1342 = FACE_BOUND('',#1343,.F.);
#1343 = EDGE_LOOP('',(#1344,#1345,#1353,#1360));
#1344 = ORIENTED_EDGE('',*,*,#1038,.T.);
#1345 = ORIENTED_EDGE('',*,*,#1346,.T.);
#1346 = EDGE_CURVE('',#1039,#1347,#1349,.T.);
#1347 = VERTEX_POINT('',#1348);
#1348 = CARTESIAN_POINT('',(3.2,18.599999999983,10.4));
#1349 = LINE('',#1350,#1351);
#1350 = CARTESIAN_POINT('',(3.2,18.599999999983,12.));
#1351 = VECTOR('',#1352,1.);
#1352 = DIRECTION('',(-0.,-0.,-1.));
#1353 = ORIENTED_EDGE('',*,*,#1354,.F.);
#1354 = EDGE_CURVE('',#1316,#1347,#1355,.T.);
#1355 = CIRCLE('',#1356,1.);
#1356 = AXIS2_PLACEMENT_3D('',#1357,#1358,#1359);
#1357 = CARTESIAN_POINT('',(3.2,17.599999999983,10.4));
#1358 = DIRECTION('',(0.,0.,-1.));
#1359 = DIRECTION('',(0.,1.,0.));
#1360 = ORIENTED_EDGE('',*,*,#1315,.F.);
#1361 = CYLINDRICAL_SURFACE('',#1362,1.);
#1362 = AXIS2_PLACEMENT_3D('',#1363,#1364,#1365);
#1363 = CARTESIAN_POINT('',(3.2,17.599999999983,12.));
#1364 = DIRECTION('',(-0.,-0.,-1.));
#1365 = DIRECTION('',(-1.,0.,0.));
#1366 = ADVANCED_FACE('',(#1367),#1433,.T.);
#1367 = FACE_BOUND('',#1368,.T.);
#1368 = EDGE_LOOP('',(#1369,#1379,#1385,#1386,#1387,#1395,#1403,#1411,
    #1419,#1427));
#1369 = ORIENTED_EDGE('',*,*,#1370,.F.);
#1370 = EDGE_CURVE('',#1371,#1373,#1375,.T.);
#1371 = VERTEX_POINT('',#1372);
#1372 = CARTESIAN_POINT('',(37.199999999978,18.599999999983,10.4));
#1373 = VERTEX_POINT('',#1374);
#1374 = CARTESIAN_POINT('',(27.899,18.599999999983,10.4));
#1375 = LINE('',#1376,#1377);
#1376 = CARTESIAN_POINT('',(41.5,18.599999999983,10.4));
#1377 = VECTOR('',#1378,1.);
#1378 = DIRECTION('',(-1.,0.,0.));
#1379 = ORIENTED_EDGE('',*,*,#1380,.T.);
#1380 = EDGE_CURVE('',#1371,#1048,#1381,.T.);
#1381 = LINE('',#1382,#1383);
#1382 = CARTESIAN_POINT('',(37.199999999978,18.599999999983,10.4));
#1383 = VECTOR('',#1384,1.);
#1384 = DIRECTION('',(0.,0.,1.));
#1385 = ORIENTED_EDGE('',*,*,#1047,.T.);
#1386 = ORIENTED_EDGE('',*,*,#1346,.T.);
#1387 = ORIENTED_EDGE('',*,*,#1388,.F.);
#1388 = EDGE_CURVE('',#1389,#1347,#1391,.T.);
#1389 = VERTEX_POINT('',#1390);
#1390 = CARTESIAN_POINT('',(9.901,18.599999999983,10.4));
#1391 = LINE('',#1392,#1393);
#1392 = CARTESIAN_POINT('',(41.5,18.599999999983,10.4));
#1393 = VECTOR('',#1394,1.);
#1394 = DIRECTION('',(-1.,0.,0.));
#1395 = ORIENTED_EDGE('',*,*,#1396,.T.);
#1396 = EDGE_CURVE('',#1389,#1397,#1399,.T.);
#1397 = VERTEX_POINT('',#1398);
#1398 = CARTESIAN_POINT('',(10.9,18.599999999983,9.401));
#1399 = LINE('',#1400,#1401);
#1400 = CARTESIAN_POINT('',(14.121040935673,18.599999999983,
    6.179959064327));
#1401 = VECTOR('',#1402,1.);
#1402 = DIRECTION('',(0.707106781187,0.,-0.707106781187));
#1403 = ORIENTED_EDGE('',*,*,#1404,.T.);
#1404 = EDGE_CURVE('',#1397,#1405,#1407,.T.);
#1405 = VERTEX_POINT('',#1406);
#1406 = CARTESIAN_POINT('',(10.9,18.599999999983,9.4));
#1407 = LINE('',#1408,#1409);
#1408 = CARTESIAN_POINT('',(10.9,18.599999999983,10.4));
#1409 = VECTOR('',#1410,1.);
#1410 = DIRECTION('',(-0.,-0.,-1.));
#1411 = ORIENTED_EDGE('',*,*,#1412,.T.);
#1412 = EDGE_CURVE('',#1405,#1413,#1415,.T.);
#1413 = VERTEX_POINT('',#1414);
#1414 = CARTESIAN_POINT('',(26.9,18.599999999983,9.4));
#1415 = LINE('',#1416,#1417);
#1416 = CARTESIAN_POINT('',(10.9,18.599999999983,9.4));
#1417 = VECTOR('',#1418,1.);
#1418 = DIRECTION('',(1.,0.,0.));
#1419 = ORIENTED_EDGE('',*,*,#1420,.F.);
#1420 = EDGE_CURVE('',#1421,#1413,#1423,.T.);
#1421 = VERTEX_POINT('',#1422);
#1422 = CARTESIAN_POINT('',(26.9,18.599999999983,9.401));
#1423 = LINE('',#1424,#1425);
#1424 = CARTESIAN_POINT('',(26.9,18.599999999983,10.4));
#1425 = VECTOR('',#1426,1.);
#1426 = DIRECTION('',(-0.,-0.,-1.));
#1427 = ORIENTED_EDGE('',*,*,#1428,.F.);
#1428 = EDGE_CURVE('',#1373,#1421,#1429,.T.);
#1429 = LINE('',#1430,#1431);
#1430 = CARTESIAN_POINT('',(26.810976608187,18.599999999983,
    9.311976608187));
#1431 = VECTOR('',#1432,1.);
#1432 = DIRECTION('',(-0.707106781187,0.,-0.707106781187));
#1433 = PLANE('',#1434);
#1434 = AXIS2_PLACEMENT_3D('',#1435,#1436,#1437);
#1435 = CARTESIAN_POINT('',(25.164035087719,18.599999999983,
    9.781871345029));
#1436 = DIRECTION('',(-0.,-1.,-0.));
#1437 = DIRECTION('',(0.,0.,-1.));
#1438 = ADVANCED_FACE('',(#1439),#1458,.F.);
#1439 = FACE_BOUND('',#1440,.T.);
#1440 = EDGE_LOOP('',(#1441,#1450,#1456,#1457));
#1441 = ORIENTED_EDGE('',*,*,#1442,.T.);
#1442 = EDGE_CURVE('',#1371,#1443,#1445,.T.);
#1443 = VERTEX_POINT('',#1444);
#1444 = CARTESIAN_POINT('',(38.199999999978,17.599999999983,10.4));
#1445 = CIRCLE('',#1446,1.);
#1446 = AXIS2_PLACEMENT_3D('',#1447,#1448,#1449);
#1447 = CARTESIAN_POINT('',(37.199999999978,17.599999999983,10.4));
#1448 = DIRECTION('',(-0.,-0.,-1.));
#1449 = DIRECTION('',(0.,-1.,0.));
#1450 = ORIENTED_EDGE('',*,*,#1451,.T.);
#1451 = EDGE_CURVE('',#1443,#1056,#1452,.T.);
#1452 = LINE('',#1453,#1454);
#1453 = CARTESIAN_POINT('',(38.199999999978,17.599999999983,10.4));
#1454 = VECTOR('',#1455,1.);
#1455 = DIRECTION('',(0.,0.,1.));
#1456 = ORIENTED_EDGE('',*,*,#1055,.F.);
#1457 = ORIENTED_EDGE('',*,*,#1380,.F.);
#1458 = CYLINDRICAL_SURFACE('',#1459,1.);
#1459 = AXIS2_PLACEMENT_3D('',#1460,#1461,#1462);
#1460 = CARTESIAN_POINT('',(37.199999999978,17.599999999983,10.4));
#1461 = DIRECTION('',(0.,0.,1.));
#1462 = DIRECTION('',(0.,1.,0.));
#1463 = ADVANCED_FACE('',(#1464),#1482,.F.);
#1464 = FACE_BOUND('',#1465,.F.);
#1465 = EDGE_LOOP('',(#1466,#1474,#1475,#1476));
#1466 = ORIENTED_EDGE('',*,*,#1467,.F.);
#1467 = EDGE_CURVE('',#1443,#1468,#1470,.T.);
#1468 = VERTEX_POINT('',#1469);
#1469 = CARTESIAN_POINT('',(38.199999999978,3.200000000017,10.4));
#1470 = LINE('',#1471,#1472);
#1471 = CARTESIAN_POINT('',(38.199999999978,18.599999999983,10.4));
#1472 = VECTOR('',#1473,1.);
#1473 = DIRECTION('',(0.,-1.,0.));
#1474 = ORIENTED_EDGE('',*,*,#1451,.T.);
#1475 = ORIENTED_EDGE('',*,*,#1064,.T.);
#1476 = ORIENTED_EDGE('',*,*,#1477,.F.);
#1477 = EDGE_CURVE('',#1468,#1065,#1478,.T.);
#1478 = LINE('',#1479,#1480);
#1479 = CARTESIAN_POINT('',(38.199999999978,3.200000000017,10.4));
#1480 = VECTOR('',#1481,1.);
#1481 = DIRECTION('',(0.,0.,1.));
#1482 = PLANE('',#1483);
#1483 = AXIS2_PLACEMENT_3D('',#1484,#1485,#1486);
#1484 = CARTESIAN_POINT('',(38.199999999978,18.599999999983,10.4));
#1485 = DIRECTION('',(1.,0.,0.));
#1486 = DIRECTION('',(0.,-1.,0.));
#1487 = ADVANCED_FACE('',(#1488),#1507,.F.);
#1488 = FACE_BOUND('',#1489,.F.);
#1489 = EDGE_LOOP('',(#1490,#1499,#1500,#1501));
#1490 = ORIENTED_EDGE('',*,*,#1491,.T.);
#1491 = EDGE_CURVE('',#1492,#1468,#1494,.T.);
#1492 = VERTEX_POINT('',#1493);
#1493 = CARTESIAN_POINT('',(37.199999999978,2.200000000017,10.4));
#1494 = CIRCLE('',#1495,1.);
#1495 = AXIS2_PLACEMENT_3D('',#1496,#1497,#1498);
#1496 = CARTESIAN_POINT('',(37.199999999978,3.200000000017,10.4));
#1497 = DIRECTION('',(-0.,0.,1.));
#1498 = DIRECTION('',(0.,-1.,0.));
#1499 = ORIENTED_EDGE('',*,*,#1477,.T.);
#1500 = ORIENTED_EDGE('',*,*,#1072,.F.);
#1501 = ORIENTED_EDGE('',*,*,#1502,.F.);
#1502 = EDGE_CURVE('',#1492,#1073,#1503,.T.);
#1503 = LINE('',#1504,#1505);
#1504 = CARTESIAN_POINT('',(37.199999999978,2.200000000017,10.4));
#1505 = VECTOR('',#1506,1.);
#1506 = DIRECTION('',(0.,0.,1.));
#1507 = CYLINDRICAL_SURFACE('',#1508,1.);
#1508 = AXIS2_PLACEMENT_3D('',#1509,#1510,#1511);
#1509 = CARTESIAN_POINT('',(37.199999999978,3.200000000017,10.4));
#1510 = DIRECTION('',(0.,0.,1.));
#1511 = DIRECTION('',(0.,-1.,0.));
#1512 = ADVANCED_FACE('',(#1513),#1579,.T.);
#1513 = FACE_BOUND('',#1514,.T.);
#1514 = EDGE_LOOP('',(#1515,#1525,#1531,#1532,#1533,#1541,#1549,#1557,
    #1565,#1573));
#1515 = ORIENTED_EDGE('',*,*,#1516,.F.);
#1516 = EDGE_CURVE('',#1517,#1519,#1521,.T.);
#1517 = VERTEX_POINT('',#1518);
#1518 = CARTESIAN_POINT('',(3.2,2.200000000017,10.4));
#1519 = VERTEX_POINT('',#1520);
#1520 = CARTESIAN_POINT('',(9.901,2.200000000017,10.4));
#1521 = LINE('',#1522,#1523);
#1522 = CARTESIAN_POINT('',(2.2,2.200000000017,10.4));
#1523 = VECTOR('',#1524,1.);
#1524 = DIRECTION('',(1.,0.,0.));
#1525 = ORIENTED_EDGE('',*,*,#1526,.F.);
#1526 = EDGE_CURVE('',#1082,#1517,#1527,.T.);
#1527 = LINE('',#1528,#1529);
#1528 = CARTESIAN_POINT('',(3.2,2.200000000017,12.));
#1529 = VECTOR('',#1530,1.);
#1530 = DIRECTION('',(-0.,-0.,-1.));
#1531 = ORIENTED_EDGE('',*,*,#1081,.T.);
#1532 = ORIENTED_EDGE('',*,*,#1502,.F.);
#1533 = ORIENTED_EDGE('',*,*,#1534,.F.);
#1534 = EDGE_CURVE('',#1535,#1492,#1537,.T.);
#1535 = VERTEX_POINT('',#1536);
#1536 = CARTESIAN_POINT('',(27.899,2.200000000017,10.4));
#1537 = LINE('',#1538,#1539);
#1538 = CARTESIAN_POINT('',(2.2,2.200000000017,10.4));
#1539 = VECTOR('',#1540,1.);
#1540 = DIRECTION('',(1.,0.,0.));
#1541 = ORIENTED_EDGE('',*,*,#1542,.T.);
#1542 = EDGE_CURVE('',#1535,#1543,#1545,.T.);
#1543 = VERTEX_POINT('',#1544);
#1544 = CARTESIAN_POINT('',(26.9,2.200000000017,9.401));
#1545 = LINE('',#1546,#1547);
#1546 = CARTESIAN_POINT('',(26.810976608186,2.200000000017,
    9.311976608186));
#1547 = VECTOR('',#1548,1.);
#1548 = DIRECTION('',(-0.707106781187,0.,-0.707106781187));
#1549 = ORIENTED_EDGE('',*,*,#1550,.T.);
#1550 = EDGE_CURVE('',#1543,#1551,#1553,.T.);
#1551 = VERTEX_POINT('',#1552);
#1552 = CARTESIAN_POINT('',(26.9,2.200000000017,9.4));
#1553 = LINE('',#1554,#1555);
#1554 = CARTESIAN_POINT('',(26.9,2.200000000017,10.4));
#1555 = VECTOR('',#1556,1.);
#1556 = DIRECTION('',(-0.,-0.,-1.));
#1557 = ORIENTED_EDGE('',*,*,#1558,.F.);
#1558 = EDGE_CURVE('',#1559,#1551,#1561,.T.);
#1559 = VERTEX_POINT('',#1560);
#1560 = CARTESIAN_POINT('',(10.9,2.200000000017,9.4));
#1561 = LINE('',#1562,#1563);
#1562 = CARTESIAN_POINT('',(10.9,2.200000000017,9.4));
#1563 = VECTOR('',#1564,1.);
#1564 = DIRECTION('',(1.,0.,0.));
#1565 = ORIENTED_EDGE('',*,*,#1566,.F.);
#1566 = EDGE_CURVE('',#1567,#1559,#1569,.T.);
#1567 = VERTEX_POINT('',#1568);
#1568 = CARTESIAN_POINT('',(10.9,2.200000000017,9.401));
#1569 = LINE('',#1570,#1571);
#1570 = CARTESIAN_POINT('',(10.9,2.200000000017,10.4));
#1571 = VECTOR('',#1572,1.);
#1572 = DIRECTION('',(-0.,-0.,-1.));
#1573 = ORIENTED_EDGE('',*,*,#1574,.F.);
#1574 = EDGE_CURVE('',#1519,#1567,#1575,.T.);
#1575 = LINE('',#1576,#1577);
#1576 = CARTESIAN_POINT('',(14.121040935673,2.200000000017,
    6.179959064327));
#1577 = VECTOR('',#1578,1.);
#1578 = DIRECTION('',(0.707106781187,0.,-0.707106781187));
#1579 = PLANE('',#1580);
#1580 = AXIS2_PLACEMENT_3D('',#1581,#1582,#1583);
#1581 = CARTESIAN_POINT('',(25.164035087717,2.200000000017,
    9.781871345027));
#1582 = DIRECTION('',(0.,1.,0.));
#1583 = DIRECTION('',(0.,0.,1.));
#1584 = ADVANCED_FACE('',(#1585),#1597,.F.);
#1585 = FACE_BOUND('',#1586,.T.);
#1586 = EDGE_LOOP('',(#1587,#1588,#1589,#1596));
#1587 = ORIENTED_EDGE('',*,*,#1089,.T.);
#1588 = ORIENTED_EDGE('',*,*,#1526,.T.);
#1589 = ORIENTED_EDGE('',*,*,#1590,.F.);
#1590 = EDGE_CURVE('',#1324,#1517,#1591,.T.);
#1591 = CIRCLE('',#1592,1.);
#1592 = AXIS2_PLACEMENT_3D('',#1593,#1594,#1595);
#1593 = CARTESIAN_POINT('',(3.2,3.200000000017,10.4));
#1594 = DIRECTION('',(0.,-0.,1.));
#1595 = DIRECTION('',(0.,1.,0.));
#1596 = ORIENTED_EDGE('',*,*,#1331,.F.);
#1597 = CYLINDRICAL_SURFACE('',#1598,1.);
#1598 = AXIS2_PLACEMENT_3D('',#1599,#1600,#1601);
#1599 = CARTESIAN_POINT('',(3.2,3.200000000017,12.));
#1600 = DIRECTION('',(-0.,-0.,-1.));
#1601 = DIRECTION('',(-1.,0.,0.));
#1602 = ADVANCED_FACE('',(#1603),#1628,.T.);
#1603 = FACE_BOUND('',#1604,.T.);
#1604 = EDGE_LOOP('',(#1605,#1613,#1614,#1622));
#1605 = ORIENTED_EDGE('',*,*,#1606,.F.);
#1606 = EDGE_CURVE('',#1099,#1607,#1609,.T.);
#1607 = VERTEX_POINT('',#1608);
#1608 = CARTESIAN_POINT('',(39.,12.099999999983,11.75));
#1609 = LINE('',#1610,#1611);
#1610 = CARTESIAN_POINT('',(38.916666666653,12.016666666652,
    11.833333333331));
#1611 = VECTOR('',#1612,1.);
#1612 = DIRECTION('',(0.57735026919,0.577350269189,-0.577350269189));
#1613 = ORIENTED_EDGE('',*,*,#1098,.T.);
#1614 = ORIENTED_EDGE('',*,*,#1615,.T.);
#1615 = EDGE_CURVE('',#1101,#1616,#1618,.T.);
#1616 = VERTEX_POINT('',#1617);
#1617 = CARTESIAN_POINT('',(41.5,12.099999999983,11.75));
#1618 = LINE('',#1619,#1620);
#1619 = CARTESIAN_POINT('',(41.166666666667,12.433333333316,
    11.416666666667));
#1620 = VECTOR('',#1621,1.);
#1621 = DIRECTION('',(-0.57735026919,0.57735026919,-0.57735026919));
#1622 = ORIENTED_EDGE('',*,*,#1623,.F.);
#1623 = EDGE_CURVE('',#1607,#1616,#1624,.T.);
#1624 = LINE('',#1625,#1626);
#1625 = CARTESIAN_POINT('',(39.,12.099999999983,11.75));
#1626 = VECTOR('',#1627,1.);
#1627 = DIRECTION('',(1.,0.,0.));
#1628 = PLANE('',#1629);
#1629 = AXIS2_PLACEMENT_3D('',#1630,#1631,#1632);
#1630 = CARTESIAN_POINT('',(39.,11.974999999983,11.875));
#1631 = DIRECTION('',(0.,0.707106781187,0.707106781187));
#1632 = DIRECTION('',(1.,0.,0.));
#1633 = ADVANCED_FACE('',(#1634),#1652,.T.);
#1634 = FACE_BOUND('',#1635,.F.);
#1635 = EDGE_LOOP('',(#1636,#1637,#1638,#1646));
#1636 = ORIENTED_EDGE('',*,*,#1606,.F.);
#1637 = ORIENTED_EDGE('',*,*,#1108,.T.);
#1638 = ORIENTED_EDGE('',*,*,#1639,.T.);
#1639 = EDGE_CURVE('',#1109,#1640,#1642,.T.);
#1640 = VERTEX_POINT('',#1641);
#1641 = CARTESIAN_POINT('',(38.999999999987,18.599999999983,
    11.750000000003));
#1642 = LINE('',#1643,#1644);
#1643 = CARTESIAN_POINT('',(40.416666666657,17.183333333315,
    10.333333333332));
#1644 = VECTOR('',#1645,1.);
#1645 = DIRECTION('',(0.57735026919,-0.57735026919,-0.57735026919));
#1646 = ORIENTED_EDGE('',*,*,#1647,.F.);
#1647 = EDGE_CURVE('',#1607,#1640,#1648,.T.);
#1648 = LINE('',#1649,#1650);
#1649 = CARTESIAN_POINT('',(38.999999999984,12.099999999983,11.75));
#1650 = VECTOR('',#1651,1.);
#1651 = DIRECTION('',(0.,1.,0.));
#1652 = PLANE('',#1653);
#1653 = AXIS2_PLACEMENT_3D('',#1654,#1655,#1656);
#1654 = CARTESIAN_POINT('',(38.874999999984,12.099999999983,11.875));
#1655 = DIRECTION('',(0.707106781186,-6.1497E-13,0.707106781187));
#1656 = DIRECTION('',(-4.348494572263E-13,-1.,-4.348494572263E-13));
#1657 = ADVANCED_FACE('',(#1658),#1676,.T.);
#1658 = FACE_BOUND('',#1659,.T.);
#1659 = EDGE_LOOP('',(#1660,#1661,#1662,#1670));
#1660 = ORIENTED_EDGE('',*,*,#1615,.F.);
#1661 = ORIENTED_EDGE('',*,*,#1124,.T.);
#1662 = ORIENTED_EDGE('',*,*,#1663,.T.);
#1663 = EDGE_CURVE('',#1117,#1664,#1666,.T.);
#1664 = VERTEX_POINT('',#1665);
#1665 = CARTESIAN_POINT('',(41.5,18.599999999983,11.75));
#1666 = LINE('',#1667,#1668);
#1667 = CARTESIAN_POINT('',(40.5,17.599999999983,10.75));
#1668 = VECTOR('',#1669,1.);
#1669 = DIRECTION('',(-0.57735026919,-0.57735026919,-0.57735026919));
#1670 = ORIENTED_EDGE('',*,*,#1671,.F.);
#1671 = EDGE_CURVE('',#1616,#1664,#1672,.T.);
#1672 = LINE('',#1673,#1674);
#1673 = CARTESIAN_POINT('',(41.5,12.099999999983,11.75));
#1674 = VECTOR('',#1675,1.);
#1675 = DIRECTION('',(0.,1.,0.));
#1676 = PLANE('',#1677);
#1677 = AXIS2_PLACEMENT_3D('',#1678,#1679,#1680);
#1678 = CARTESIAN_POINT('',(41.625,12.099999999983,11.875));
#1679 = DIRECTION('',(-0.707106781187,0.,0.707106781187));
#1680 = DIRECTION('',(0.,1.,0.));
#1681 = ADVANCED_FACE('',(#1682),#1693,.T.);
#1682 = FACE_BOUND('',#1683,.T.);
#1683 = EDGE_LOOP('',(#1684,#1685,#1686,#1687));
#1684 = ORIENTED_EDGE('',*,*,#1663,.F.);
#1685 = ORIENTED_EDGE('',*,*,#1116,.T.);
#1686 = ORIENTED_EDGE('',*,*,#1639,.T.);
#1687 = ORIENTED_EDGE('',*,*,#1688,.F.);
#1688 = EDGE_CURVE('',#1664,#1640,#1689,.T.);
#1689 = LINE('',#1690,#1691);
#1690 = CARTESIAN_POINT('',(41.5,18.599999999983,11.75));
#1691 = VECTOR('',#1692,1.);
#1692 = DIRECTION('',(-1.,0.,0.));
#1693 = PLANE('',#1694);
#1694 = AXIS2_PLACEMENT_3D('',#1695,#1696,#1697);
#1695 = CARTESIAN_POINT('',(41.5,18.724999999983,11.875));
#1696 = DIRECTION('',(0.,-0.707106781187,0.707106781187));
#1697 = DIRECTION('',(-1.,0.,0.));
#1698 = ADVANCED_FACE('',(#1699),#1724,.T.);
#1699 = FACE_BOUND('',#1700,.T.);
#1700 = EDGE_LOOP('',(#1701,#1709,#1710,#1718));
#1701 = ORIENTED_EDGE('',*,*,#1702,.F.);
#1702 = EDGE_CURVE('',#1219,#1703,#1705,.T.);
#1703 = VERTEX_POINT('',#1704);
#1704 = CARTESIAN_POINT('',(41.5,2.200000000017,1.));
#1705 = LINE('',#1706,#1707);
#1706 = CARTESIAN_POINT('',(41.5,2.200000000017,12.));
#1707 = VECTOR('',#1708,1.);
#1708 = DIRECTION('',(-0.,-0.,-1.));
#1709 = ORIENTED_EDGE('',*,*,#1235,.T.);
#1710 = ORIENTED_EDGE('',*,*,#1711,.F.);
#1711 = EDGE_CURVE('',#1712,#1228,#1714,.T.);
#1712 = VERTEX_POINT('',#1713);
#1713 = CARTESIAN_POINT('',(41.5,8.700000000017,1.));
#1714 = LINE('',#1715,#1716);
#1715 = CARTESIAN_POINT('',(41.5,8.700000000017,10.4));
#1716 = VECTOR('',#1717,1.);
#1717 = DIRECTION('',(0.,0.,1.));
#1718 = ORIENTED_EDGE('',*,*,#1719,.T.);
#1719 = EDGE_CURVE('',#1712,#1703,#1720,.T.);
#1720 = LINE('',#1721,#1722);
#1721 = CARTESIAN_POINT('',(41.5,6.300000000009,1.));
#1722 = VECTOR('',#1723,1.);
#1723 = DIRECTION('',(0.,-1.,0.));
#1724 = PLANE('',#1725);
#1725 = AXIS2_PLACEMENT_3D('',#1726,#1727,#1728);
#1726 = CARTESIAN_POINT('',(41.5,10.4,6.729891304344));
#1727 = DIRECTION('',(-1.,-0.,-0.));
#1728 = DIRECTION('',(0.,0.,-1.));
#1729 = ADVANCED_FACE('',(#1730),#1748,.T.);
#1730 = FACE_BOUND('',#1731,.T.);
#1731 = EDGE_LOOP('',(#1732,#1740,#1741,#1742));
#1732 = ORIENTED_EDGE('',*,*,#1733,.F.);
#1733 = EDGE_CURVE('',#1250,#1734,#1736,.T.);
#1734 = VERTEX_POINT('',#1735);
#1735 = CARTESIAN_POINT('',(38.999999999978,2.200000000017,1.));
#1736 = LINE('',#1737,#1738);
#1737 = CARTESIAN_POINT('',(38.999999999978,2.200000000017,10.4));
#1738 = VECTOR('',#1739,1.);
#1739 = DIRECTION('',(-0.,-0.,-1.));
#1740 = ORIENTED_EDGE('',*,*,#1259,.T.);
#1741 = ORIENTED_EDGE('',*,*,#1702,.T.);
#1742 = ORIENTED_EDGE('',*,*,#1743,.T.);
#1743 = EDGE_CURVE('',#1703,#1734,#1744,.T.);
#1744 = LINE('',#1745,#1746);
#1745 = CARTESIAN_POINT('',(30.424999999989,2.200000000017,1.));
#1746 = VECTOR('',#1747,1.);
#1747 = DIRECTION('',(-1.,0.,0.));
#1748 = PLANE('',#1749);
#1749 = AXIS2_PLACEMENT_3D('',#1750,#1751,#1752);
#1750 = CARTESIAN_POINT('',(25.164035087717,2.200000000017,
    9.781871345027));
#1751 = DIRECTION('',(0.,1.,0.));
#1752 = DIRECTION('',(0.,0.,1.));
#1753 = ADVANCED_FACE('',(#1754),#1772,.T.);
#1754 = FACE_BOUND('',#1755,.T.);
#1755 = EDGE_LOOP('',(#1756,#1764,#1770,#1771));
#1756 = ORIENTED_EDGE('',*,*,#1757,.T.);
#1757 = EDGE_CURVE('',#1276,#1758,#1760,.T.);
#1758 = VERTEX_POINT('',#1759);
#1759 = CARTESIAN_POINT('',(38.999999999978,8.700000000017,1.));
#1760 = LINE('',#1761,#1762);
#1761 = CARTESIAN_POINT('',(38.999999999978,8.700000000017,10.4));
#1762 = VECTOR('',#1763,1.);
#1763 = DIRECTION('',(-0.,-0.,-1.));
#1764 = ORIENTED_EDGE('',*,*,#1765,.T.);
#1765 = EDGE_CURVE('',#1758,#1712,#1766,.T.);
#1766 = LINE('',#1767,#1768);
#1767 = CARTESIAN_POINT('',(31.675,8.700000000017,1.));
#1768 = VECTOR('',#1769,1.);
#1769 = DIRECTION('',(1.,0.,0.));
#1770 = ORIENTED_EDGE('',*,*,#1711,.T.);
#1771 = ORIENTED_EDGE('',*,*,#1283,.T.);
#1772 = PLANE('',#1773);
#1773 = AXIS2_PLACEMENT_3D('',#1774,#1775,#1776);
#1774 = CARTESIAN_POINT('',(40.249999999989,8.700000000017,6.5));
#1775 = DIRECTION('',(-0.,-1.,-0.));
#1776 = DIRECTION('',(0.,0.,-1.));
#1777 = ADVANCED_FACE('',(#1778),#1789,.T.);
#1778 = FACE_BOUND('',#1779,.T.);
#1779 = EDGE_LOOP('',(#1780,#1781,#1782,#1783));
#1780 = ORIENTED_EDGE('',*,*,#1757,.F.);
#1781 = ORIENTED_EDGE('',*,*,#1300,.F.);
#1782 = ORIENTED_EDGE('',*,*,#1733,.T.);
#1783 = ORIENTED_EDGE('',*,*,#1784,.T.);
#1784 = EDGE_CURVE('',#1734,#1758,#1785,.T.);
#1785 = LINE('',#1786,#1787);
#1786 = CARTESIAN_POINT('',(38.999999999978,9.550000000009,1.));
#1787 = VECTOR('',#1788,1.);
#1788 = DIRECTION('',(0.,1.,0.));
#1789 = PLANE('',#1790);
#1790 = AXIS2_PLACEMENT_3D('',#1791,#1792,#1793);
#1791 = CARTESIAN_POINT('',(38.999999999986,10.399999999998,
    6.729891304345));
#1792 = DIRECTION('',(1.,-8.6948E-13,6.5383E-13));
#1793 = DIRECTION('',(8.6948E-13,1.,0.));
#1794 = ADVANCED_FACE('',(#1795),#1808,.T.);
#1795 = FACE_BOUND('',#1796,.T.);
#1796 = EDGE_LOOP('',(#1797,#1798,#1799,#1800,#1801,#1802));
#1797 = ORIENTED_EDGE('',*,*,#1388,.T.);
#1798 = ORIENTED_EDGE('',*,*,#1354,.F.);
#1799 = ORIENTED_EDGE('',*,*,#1323,.T.);
#1800 = ORIENTED_EDGE('',*,*,#1590,.T.);
#1801 = ORIENTED_EDGE('',*,*,#1516,.T.);
#1802 = ORIENTED_EDGE('',*,*,#1803,.F.);
#1803 = EDGE_CURVE('',#1389,#1519,#1804,.T.);
#1804 = LINE('',#1805,#1806);
#1805 = CARTESIAN_POINT('',(9.901,18.599999999983,10.4));
#1806 = VECTOR('',#1807,1.);
#1807 = DIRECTION('',(0.,-1.,0.));
#1808 = PLANE('',#1809);
#1809 = AXIS2_PLACEMENT_3D('',#1810,#1811,#1812);
#1810 = CARTESIAN_POINT('',(21.85,10.4,10.4));
#1811 = DIRECTION('',(0.,0.,1.));
#1812 = DIRECTION('',(1.,0.,0.));
#1813 = ADVANCED_FACE('',(#1814),#1827,.T.);
#1814 = FACE_BOUND('',#1815,.T.);
#1815 = EDGE_LOOP('',(#1816,#1817,#1823,#1824,#1825,#1826));
#1816 = ORIENTED_EDGE('',*,*,#1370,.T.);
#1817 = ORIENTED_EDGE('',*,*,#1818,.T.);
#1818 = EDGE_CURVE('',#1373,#1535,#1819,.T.);
#1819 = LINE('',#1820,#1821);
#1820 = CARTESIAN_POINT('',(27.899,18.599999999983,10.4));
#1821 = VECTOR('',#1822,1.);
#1822 = DIRECTION('',(0.,-1.,0.));
#1823 = ORIENTED_EDGE('',*,*,#1534,.T.);
#1824 = ORIENTED_EDGE('',*,*,#1491,.T.);
#1825 = ORIENTED_EDGE('',*,*,#1467,.F.);
#1826 = ORIENTED_EDGE('',*,*,#1442,.F.);
#1827 = PLANE('',#1828);
#1828 = AXIS2_PLACEMENT_3D('',#1829,#1830,#1831);
#1829 = CARTESIAN_POINT('',(21.85,10.4,10.4));
#1830 = DIRECTION('',(0.,0.,1.));
#1831 = DIRECTION('',(1.,0.,0.));
#1832 = ADVANCED_FACE('',(#1833),#1844,.T.);
#1833 = FACE_BOUND('',#1834,.F.);
#1834 = EDGE_LOOP('',(#1835,#1836,#1837,#1838));
#1835 = ORIENTED_EDGE('',*,*,#1428,.F.);
#1836 = ORIENTED_EDGE('',*,*,#1818,.T.);
#1837 = ORIENTED_EDGE('',*,*,#1542,.T.);
#1838 = ORIENTED_EDGE('',*,*,#1839,.F.);
#1839 = EDGE_CURVE('',#1421,#1543,#1840,.T.);
#1840 = LINE('',#1841,#1842);
#1841 = CARTESIAN_POINT('',(26.9,18.599999999983,9.401));
#1842 = VECTOR('',#1843,1.);
#1843 = DIRECTION('',(0.,-1.,0.));
#1844 = PLANE('',#1845);
#1845 = AXIS2_PLACEMENT_3D('',#1846,#1847,#1848);
#1846 = CARTESIAN_POINT('',(27.3995,18.599999999983,9.9005));
#1847 = DIRECTION('',(-0.707106781187,-1.E-17,0.707106781187));
#1848 = DIRECTION('',(-7.071067811865E-18,1.,7.071067811865E-18));
#1849 = ADVANCED_FACE('',(#1850),#1861,.T.);
#1850 = FACE_BOUND('',#1851,.T.);
#1851 = EDGE_LOOP('',(#1852,#1853,#1859,#1860));
#1852 = ORIENTED_EDGE('',*,*,#1420,.T.);
#1853 = ORIENTED_EDGE('',*,*,#1854,.T.);
#1854 = EDGE_CURVE('',#1413,#1551,#1855,.T.);
#1855 = LINE('',#1856,#1857);
#1856 = CARTESIAN_POINT('',(26.9,18.599999999983,9.4));
#1857 = VECTOR('',#1858,1.);
#1858 = DIRECTION('',(0.,-1.,0.));
#1859 = ORIENTED_EDGE('',*,*,#1550,.F.);
#1860 = ORIENTED_EDGE('',*,*,#1839,.F.);
#1861 = PLANE('',#1862);
#1862 = AXIS2_PLACEMENT_3D('',#1863,#1864,#1865);
#1863 = CARTESIAN_POINT('',(26.9,18.599999999983,10.4));
#1864 = DIRECTION('',(-1.,0.,0.));
#1865 = DIRECTION('',(0.,-1.,0.));
#1866 = ADVANCED_FACE('',(#1867,#1878),#1889,.T.);
#1867 = FACE_BOUND('',#1868,.T.);
#1868 = EDGE_LOOP('',(#1869));
#1869 = ORIENTED_EDGE('',*,*,#1870,.F.);
#1870 = EDGE_CURVE('',#1871,#1871,#1873,.T.);
#1871 = VERTEX_POINT('',#1872);
#1872 = CARTESIAN_POINT('',(22.,15.199999999983,9.4));
#1873 = CIRCLE('',#1874,2.6);
#1874 = AXIS2_PLACEMENT_3D('',#1875,#1876,#1877);
#1875 = CARTESIAN_POINT('',(19.4,15.199999999983,9.4));
#1876 = DIRECTION('',(0.,0.,1.));
#1877 = DIRECTION('',(1.,0.,0.));
#1878 = FACE_BOUND('',#1879,.T.);
#1879 = EDGE_LOOP('',(#1880,#1881,#1887,#1888));
#1880 = ORIENTED_EDGE('',*,*,#1412,.F.);
#1881 = ORIENTED_EDGE('',*,*,#1882,.T.);
#1882 = EDGE_CURVE('',#1405,#1559,#1883,.T.);
#1883 = LINE('',#1884,#1885);
#1884 = CARTESIAN_POINT('',(10.9,18.599999999983,9.4));
#1885 = VECTOR('',#1886,1.);
#1886 = DIRECTION('',(0.,-1.,0.));
#1887 = ORIENTED_EDGE('',*,*,#1558,.T.);
#1888 = ORIENTED_EDGE('',*,*,#1854,.F.);
#1889 = PLANE('',#1890);
#1890 = AXIS2_PLACEMENT_3D('',#1891,#1892,#1893);
#1891 = CARTESIAN_POINT('',(18.9,10.4,9.4));
#1892 = DIRECTION('',(0.,0.,1.));
#1893 = DIRECTION('',(1.,0.,0.));
#1894 = ADVANCED_FACE('',(#1895),#1906,.F.);
#1895 = FACE_BOUND('',#1896,.F.);
#1896 = EDGE_LOOP('',(#1897,#1898,#1899,#1900));
#1897 = ORIENTED_EDGE('',*,*,#1404,.T.);
#1898 = ORIENTED_EDGE('',*,*,#1882,.T.);
#1899 = ORIENTED_EDGE('',*,*,#1566,.F.);
#1900 = ORIENTED_EDGE('',*,*,#1901,.F.);
#1901 = EDGE_CURVE('',#1397,#1567,#1902,.T.);
#1902 = LINE('',#1903,#1904);
#1903 = CARTESIAN_POINT('',(10.9,18.599999999983,9.401));
#1904 = VECTOR('',#1905,1.);
#1905 = DIRECTION('',(0.,-1.,0.));
#1906 = PLANE('',#1907);
#1907 = AXIS2_PLACEMENT_3D('',#1908,#1909,#1910);
#1908 = CARTESIAN_POINT('',(10.9,18.599999999983,10.4));
#1909 = DIRECTION('',(-1.,0.,0.));
#1910 = DIRECTION('',(0.,-1.,0.));
#1911 = ADVANCED_FACE('',(#1912),#1918,.F.);
#1912 = FACE_BOUND('',#1913,.T.);
#1913 = EDGE_LOOP('',(#1914,#1915,#1916,#1917));
#1914 = ORIENTED_EDGE('',*,*,#1396,.F.);
#1915 = ORIENTED_EDGE('',*,*,#1803,.T.);
#1916 = ORIENTED_EDGE('',*,*,#1574,.T.);
#1917 = ORIENTED_EDGE('',*,*,#1901,.F.);
#1918 = PLANE('',#1919);
#1919 = AXIS2_PLACEMENT_3D('',#1920,#1921,#1922);
#1920 = CARTESIAN_POINT('',(10.4005,18.599999999983,9.9005));
#1921 = DIRECTION('',(-0.707106781187,0.,-0.707106781187));
#1922 = DIRECTION('',(0.,1.,0.));
#1923 = ADVANCED_FACE('',(#1924),#1949,.T.);
#1924 = FACE_BOUND('',#1925,.T.);
#1925 = EDGE_LOOP('',(#1926,#1934,#1942,#1948));
#1926 = ORIENTED_EDGE('',*,*,#1927,.T.);
#1927 = EDGE_CURVE('',#1616,#1928,#1930,.T.);
#1928 = VERTEX_POINT('',#1929);
#1929 = CARTESIAN_POINT('',(41.5,12.099999999983,1.));
#1930 = LINE('',#1931,#1932);
#1931 = CARTESIAN_POINT('',(41.5,12.099999999983,10.4));
#1932 = VECTOR('',#1933,1.);
#1933 = DIRECTION('',(-0.,-0.,-1.));
#1934 = ORIENTED_EDGE('',*,*,#1935,.T.);
#1935 = EDGE_CURVE('',#1928,#1936,#1938,.T.);
#1936 = VERTEX_POINT('',#1937);
#1937 = CARTESIAN_POINT('',(39.,12.099999999983,1.));
#1938 = LINE('',#1939,#1940);
#1939 = CARTESIAN_POINT('',(30.425,12.099999999983,1.));
#1940 = VECTOR('',#1941,1.);
#1941 = DIRECTION('',(-1.,0.,0.));
#1942 = ORIENTED_EDGE('',*,*,#1943,.T.);
#1943 = EDGE_CURVE('',#1936,#1607,#1944,.T.);
#1944 = LINE('',#1945,#1946);
#1945 = CARTESIAN_POINT('',(39.,12.099999999983,10.4));
#1946 = VECTOR('',#1947,1.);
#1947 = DIRECTION('',(0.,0.,1.));
#1948 = ORIENTED_EDGE('',*,*,#1623,.T.);
#1949 = PLANE('',#1950);
#1950 = AXIS2_PLACEMENT_3D('',#1951,#1952,#1953);
#1951 = CARTESIAN_POINT('',(40.25,12.099999999983,6.5));
#1952 = DIRECTION('',(0.,1.,0.));
#1953 = DIRECTION('',(0.,0.,1.));
#1954 = ADVANCED_FACE('',(#1955),#1973,.T.);
#1955 = FACE_BOUND('',#1956,.T.);
#1956 = EDGE_LOOP('',(#1957,#1958,#1966,#1972));
#1957 = ORIENTED_EDGE('',*,*,#1943,.F.);
#1958 = ORIENTED_EDGE('',*,*,#1959,.T.);
#1959 = EDGE_CURVE('',#1936,#1960,#1962,.T.);
#1960 = VERTEX_POINT('',#1961);
#1961 = CARTESIAN_POINT('',(39.,18.599999999983,1.));
#1962 = LINE('',#1963,#1964);
#1963 = CARTESIAN_POINT('',(39.,14.499999999991,1.));
#1964 = VECTOR('',#1965,1.);
#1965 = DIRECTION('',(0.,1.,0.));
#1966 = ORIENTED_EDGE('',*,*,#1967,.T.);
#1967 = EDGE_CURVE('',#1960,#1640,#1968,.T.);
#1968 = LINE('',#1969,#1970);
#1969 = CARTESIAN_POINT('',(38.999999999978,18.599999999983,10.4));
#1970 = VECTOR('',#1971,1.);
#1971 = DIRECTION('',(0.,0.,1.));
#1972 = ORIENTED_EDGE('',*,*,#1647,.F.);
#1973 = PLANE('',#1974);
#1974 = AXIS2_PLACEMENT_3D('',#1975,#1976,#1977);
#1975 = CARTESIAN_POINT('',(38.999999999986,10.399999999998,
    6.729891304345));
#1976 = DIRECTION('',(1.,-8.6948E-13,6.5383E-13));
#1977 = DIRECTION('',(8.6948E-13,1.,0.));
#1978 = ADVANCED_FACE('',(#1979),#1997,.T.);
#1979 = FACE_BOUND('',#1980,.T.);
#1980 = EDGE_LOOP('',(#1981,#1982,#1983,#1991));
#1981 = ORIENTED_EDGE('',*,*,#1927,.F.);
#1982 = ORIENTED_EDGE('',*,*,#1671,.T.);
#1983 = ORIENTED_EDGE('',*,*,#1984,.T.);
#1984 = EDGE_CURVE('',#1664,#1985,#1987,.T.);
#1985 = VERTEX_POINT('',#1986);
#1986 = CARTESIAN_POINT('',(41.5,18.599999999983,1.));
#1987 = LINE('',#1988,#1989);
#1988 = CARTESIAN_POINT('',(41.5,18.599999999983,10.4));
#1989 = VECTOR('',#1990,1.);
#1990 = DIRECTION('',(-0.,-0.,-1.));
#1991 = ORIENTED_EDGE('',*,*,#1992,.T.);
#1992 = EDGE_CURVE('',#1985,#1928,#1993,.T.);
#1993 = LINE('',#1994,#1995);
#1994 = CARTESIAN_POINT('',(41.5,11.249999999991,1.));
#1995 = VECTOR('',#1996,1.);
#1996 = DIRECTION('',(0.,-1.,0.));
#1997 = PLANE('',#1998);
#1998 = AXIS2_PLACEMENT_3D('',#1999,#2000,#2001);
#1999 = CARTESIAN_POINT('',(41.5,10.4,6.729891304344));
#2000 = DIRECTION('',(-1.,-0.,-0.));
#2001 = DIRECTION('',(0.,0.,-1.));
#2002 = ADVANCED_FACE('',(#2003),#2014,.T.);
#2003 = FACE_BOUND('',#2004,.T.);
#2004 = EDGE_LOOP('',(#2005,#2006,#2007,#2008));
#2005 = ORIENTED_EDGE('',*,*,#1984,.F.);
#2006 = ORIENTED_EDGE('',*,*,#1688,.T.);
#2007 = ORIENTED_EDGE('',*,*,#1967,.F.);
#2008 = ORIENTED_EDGE('',*,*,#2009,.T.);
#2009 = EDGE_CURVE('',#1960,#1985,#2010,.T.);
#2010 = LINE('',#2011,#2012);
#2011 = CARTESIAN_POINT('',(31.675,18.599999999983,1.));
#2012 = VECTOR('',#2013,1.);
#2013 = DIRECTION('',(1.,0.,0.));
#2014 = PLANE('',#2015);
#2015 = AXIS2_PLACEMENT_3D('',#2016,#2017,#2018);
#2016 = CARTESIAN_POINT('',(25.164035087719,18.599999999983,
    9.781871345029));
#2017 = DIRECTION('',(-0.,-1.,-0.));
#2018 = DIRECTION('',(0.,0.,-1.));
#2019 = ADVANCED_FACE('',(#2020),#2026,.T.);
#2020 = FACE_BOUND('',#2021,.T.);
#2021 = EDGE_LOOP('',(#2022,#2023,#2024,#2025));
#2022 = ORIENTED_EDGE('',*,*,#1719,.F.);
#2023 = ORIENTED_EDGE('',*,*,#1765,.F.);
#2024 = ORIENTED_EDGE('',*,*,#1784,.F.);
#2025 = ORIENTED_EDGE('',*,*,#1743,.F.);
#2026 = PLANE('',#2027);
#2027 = AXIS2_PLACEMENT_3D('',#2028,#2029,#2030);
#2028 = CARTESIAN_POINT('',(21.85,10.4,1.));
#2029 = DIRECTION('',(0.,0.,1.));
#2030 = DIRECTION('',(1.,0.,0.));
#2031 = ADVANCED_FACE('',(#2032),#2051,.F.);
#2032 = FACE_BOUND('',#2033,.T.);
#2033 = EDGE_LOOP('',(#2034,#2042,#2043,#2044));
#2034 = ORIENTED_EDGE('',*,*,#2035,.F.);
#2035 = EDGE_CURVE('',#1871,#2036,#2038,.T.);
#2036 = VERTEX_POINT('',#2037);
#2037 = CARTESIAN_POINT('',(21.75,15.199999999983,9.15));
#2038 = LINE('',#2039,#2040);
#2039 = CARTESIAN_POINT('',(21.75,15.199999999983,9.15));
#2040 = VECTOR('',#2041,1.);
#2041 = DIRECTION('',(-0.707106781187,-0.,-0.707106781187));
#2042 = ORIENTED_EDGE('',*,*,#1870,.T.);
#2043 = ORIENTED_EDGE('',*,*,#2035,.T.);
#2044 = ORIENTED_EDGE('',*,*,#2045,.F.);
#2045 = EDGE_CURVE('',#2036,#2036,#2046,.T.);
#2046 = CIRCLE('',#2047,2.35);
#2047 = AXIS2_PLACEMENT_3D('',#2048,#2049,#2050);
#2048 = CARTESIAN_POINT('',(19.4,15.199999999983,9.15));
#2049 = DIRECTION('',(0.,0.,1.));
#2050 = DIRECTION('',(1.,0.,0.));
#2051 = CONICAL_SURFACE('',#2052,2.35,0.785398163397);
#2052 = AXIS2_PLACEMENT_3D('',#2053,#2054,#2055);
#2053 = CARTESIAN_POINT('',(19.4,15.199999999983,9.15));
#2054 = DIRECTION('',(0.,0.,1.));
#2055 = DIRECTION('',(1.,0.,0.));
#2056 = ADVANCED_FACE('',(#2057),#2063,.T.);
#2057 = FACE_BOUND('',#2058,.T.);
#2058 = EDGE_LOOP('',(#2059,#2060,#2061,#2062));
#2059 = ORIENTED_EDGE('',*,*,#2009,.F.);
#2060 = ORIENTED_EDGE('',*,*,#1959,.F.);
#2061 = ORIENTED_EDGE('',*,*,#1935,.F.);
#2062 = ORIENTED_EDGE('',*,*,#1992,.F.);
#2063 = PLANE('',#2064);
#2064 = AXIS2_PLACEMENT_3D('',#2065,#2066,#2067);
#2065 = CARTESIAN_POINT('',(21.85,10.4,1.));
#2066 = DIRECTION('',(0.,0.,1.));
#2067 = DIRECTION('',(1.,0.,0.));
#2068 = ADVANCED_FACE('',(#2069),#2088,.F.);
#2069 = FACE_BOUND('',#2070,.F.);
#2070 = EDGE_LOOP('',(#2071,#2079,#2080,#2081));
#2071 = ORIENTED_EDGE('',*,*,#2072,.F.);
#2072 = EDGE_CURVE('',#2036,#2073,#2075,.T.);
#2073 = VERTEX_POINT('',#2074);
#2074 = CARTESIAN_POINT('',(21.75,15.199999999983,3.9));
#2075 = LINE('',#2076,#2077);
#2076 = CARTESIAN_POINT('',(21.75,15.199999999983,10.4));
#2077 = VECTOR('',#2078,1.);
#2078 = DIRECTION('',(-0.,-0.,-1.));
#2079 = ORIENTED_EDGE('',*,*,#2045,.F.);
#2080 = ORIENTED_EDGE('',*,*,#2072,.T.);
#2081 = ORIENTED_EDGE('',*,*,#2082,.T.);
#2082 = EDGE_CURVE('',#2073,#2073,#2083,.T.);
#2083 = CIRCLE('',#2084,2.35);
#2084 = AXIS2_PLACEMENT_3D('',#2085,#2086,#2087);
#2085 = CARTESIAN_POINT('',(19.4,15.199999999983,3.9));
#2086 = DIRECTION('',(0.,0.,1.));
#2087 = DIRECTION('',(1.,0.,0.));
#2088 = CYLINDRICAL_SURFACE('',#2089,2.35);
#2089 = AXIS2_PLACEMENT_3D('',#2090,#2091,#2092);
#2090 = CARTESIAN_POINT('',(19.4,15.199999999983,10.4));
#2091 = DIRECTION('',(0.,0.,1.));
#2092 = DIRECTION('',(1.,0.,0.));
#2093 = ADVANCED_FACE('',(#2094,#2097),#2108,.T.);
#2094 = FACE_BOUND('',#2095,.T.);
#2095 = EDGE_LOOP('',(#2096));
#2096 = ORIENTED_EDGE('',*,*,#2082,.T.);
#2097 = FACE_BOUND('',#2098,.T.);
#2098 = EDGE_LOOP('',(#2099));
#2099 = ORIENTED_EDGE('',*,*,#2100,.F.);
#2100 = EDGE_CURVE('',#2101,#2101,#2103,.T.);
#2101 = VERTEX_POINT('',#2102);
#2102 = CARTESIAN_POINT('',(21.15,15.199999999983,3.9));
#2103 = CIRCLE('',#2104,1.75);
#2104 = AXIS2_PLACEMENT_3D('',#2105,#2106,#2107);
#2105 = CARTESIAN_POINT('',(19.4,15.199999999983,3.9));
#2106 = DIRECTION('',(0.,0.,1.));
#2107 = DIRECTION('',(1.,0.,0.));
#2108 = PLANE('',#2109);
#2109 = AXIS2_PLACEMENT_3D('',#2110,#2111,#2112);
#2110 = CARTESIAN_POINT('',(19.4,15.199999999983,3.9));
#2111 = DIRECTION('',(0.,0.,1.));
#2112 = DIRECTION('',(1.,0.,0.));
#2113 = ADVANCED_FACE('',(#2114),#2133,.F.);
#2114 = FACE_BOUND('',#2115,.F.);
#2115 = EDGE_LOOP('',(#2116,#2124,#2125,#2126));
#2116 = ORIENTED_EDGE('',*,*,#2117,.F.);
#2117 = EDGE_CURVE('',#2101,#2118,#2120,.T.);
#2118 = VERTEX_POINT('',#2119);
#2119 = CARTESIAN_POINT('',(21.15,15.199999999983,0.8));
#2120 = LINE('',#2121,#2122);
#2121 = CARTESIAN_POINT('',(21.15,15.199999999983,3.9));
#2122 = VECTOR('',#2123,1.);
#2123 = DIRECTION('',(-0.,-0.,-1.));
#2124 = ORIENTED_EDGE('',*,*,#2100,.F.);
#2125 = ORIENTED_EDGE('',*,*,#2117,.T.);
#2126 = ORIENTED_EDGE('',*,*,#2127,.T.);
#2127 = EDGE_CURVE('',#2118,#2118,#2128,.T.);
#2128 = CIRCLE('',#2129,1.75);
#2129 = AXIS2_PLACEMENT_3D('',#2130,#2131,#2132);
#2130 = CARTESIAN_POINT('',(19.4,15.199999999983,0.8));
#2131 = DIRECTION('',(0.,0.,1.));
#2132 = DIRECTION('',(1.,0.,-0.));
#2133 = CYLINDRICAL_SURFACE('',#2134,1.75);
#2134 = AXIS2_PLACEMENT_3D('',#2135,#2136,#2137);
#2135 = CARTESIAN_POINT('',(19.4,15.199999999983,3.9));
#2136 = DIRECTION('',(0.,0.,1.));
#2137 = DIRECTION('',(1.,0.,-0.));
#2138 = ADVANCED_FACE('',(#2139),#2142,.T.);
#2139 = FACE_BOUND('',#2140,.T.);
#2140 = EDGE_LOOP('',(#2141));
#2141 = ORIENTED_EDGE('',*,*,#2127,.T.);
#2142 = PLANE('',#2143);
#2143 = AXIS2_PLACEMENT_3D('',#2144,#2145,#2146);
#2144 = CARTESIAN_POINT('',(21.85,10.4,0.8));
#2145 = DIRECTION('',(0.,0.,1.));
#2146 = DIRECTION('',(1.,0.,-0.));
#2147 = ( GEOMETRIC_REPRESENTATION_CONTEXT(3) 
GLOBAL_UNCERTAINTY_ASSIGNED_CONTEXT((#2151)) 
GLOBAL_UNIT_ASSIGNED_CONTEXT((#2148,#2149,#2150)) REPRESENTATION_CONTEXT
('Context #1','3D Context with UNIT and UNCERTAINTY') );
#2148 = ( LENGTH_UNIT() NAMED_UNIT(*) SI_UNIT(.MILLI.,.METRE.) );
#2149 = ( NAMED_UNIT(*) PLANE_ANGLE_UNIT() SI_UNIT($,.RADIAN.) );
#2150 = ( NAMED_UNIT(*) SI_UNIT($,.STERADIAN.) SOLID_ANGLE_UNIT() );
#2151 = UNCERTAINTY_MEASURE_WITH_UNIT(LENGTH_MEASURE(2.E-05),#2148,
  'distance_accuracy_value','confusion accuracy');
#2152 = PRODUCT_RELATED_PRODUCT_CATEGORY('part',$,(#7));
#2153 = MECHANICAL_DESIGN_GEOMETRIC_PRESENTATION_REPRESENTATION('',(
    #2154),#2147);
#2154 = STYLED_ITEM('color',(#2155),#15);
#2155 = PRESENTATION_STYLE_ASSIGNMENT((#2156,#2162));
#2156 = SURFACE_STYLE_USAGE(.BOTH.,#2157);
#2157 = SURFACE_SIDE_STYLE('',(#2158));
#2158 = SURFACE_STYLE_FILL_AREA(#2159);
#2159 = FILL_AREA_STYLE('',(#2160));
#2160 = FILL_AREA_STYLE_COLOUR('',#2161);
#2161 = COLOUR_RGB('',0.447058818107,0.474509808674,0.501960817233);
#2162 = CURVE_STYLE('',#2163,POSITIVE_LENGTH_MEASURE(0.1),#2164);
#2163 = DRAUGHTING_PRE_DEFINED_CURVE_FONT('continuous');
#2164 = COLOUR_RGB('',9.803921802644E-02,9.803921802644E-02,
  9.803921802644E-02);
ENDSEC;
END-ISO-10303-21;
