ISO-10303-21;
HEADER;
FILE_DESCRIPTION(('FreeCAD Model'),'2;1');
FILE_NAME('Open CASCADE Shape Model','2025-05-13T23:40:09',(''),(''),
  'Open CASCADE STEP processor 7.8','FreeCAD','Unknown');
FILE_SCHEMA(('AUTOMOTIVE_DESIGN { 1 0 10303 214 1 1 1 1 }'));
ENDSEC;
DATA;
#1 = APPLICATION_PROTOCOL_DEFINITION('international standard',
  'automotive_design',2000,#2);
#2 = APPLICATION_CONTEXT(
  'core data for automotive mechanical design processes');
#3 = SHAPE_DEFINITION_REPRESENTATION(#4,#10);
#4 = PRODUCT_DEFINITION_SHAPE('','',#5);
#5 = PRODUCT_DEFINITION('design','',#6,#9);
#6 = PRODUCT_DEFINITION_FORMATION('','',#7);
#7 = PRODUCT('body','body','',(#8));
#8 = PRODUCT_CONTEXT('',#2,'mechanical');
#9 = PRODUCT_DEFINITION_CONTEXT('part definition',#2,'design');
#10 = ADVANCED_BREP_SHAPE_REPRESENTATION('',(#11,#15),#1569);
#11 = AXIS2_PLACEMENT_3D('',#12,#13,#14);
#12 = CARTESIAN_POINT('',(0.,0.,0.));
#13 = DIRECTION('',(0.,0.,1.));
#14 = DIRECTION('',(1.,0.,-0.));
#15 = MANIFOLD_SOLID_BREP('',#16);
#16 = CLOSED_SHELL('',(#17,#90,#115,#157,#203,#261,#344,#369,#394,#419,
    #444,#500,#525,#550,#581,#605,#629,#646,#671,#696,#721,#746,#771,
    #796,#821,#846,#855,#880,#905,#930,#955,#980,#1005,#1030,#1076,#1101
    ,#1126,#1151,#1176,#1201,#1226,#1235,#1244,#1253,#1278,#1303,#1328,
    #1353,#1362,#1371,#1402,#1426,#1450,#1467,#1476,#1485,#1494,#1503,
    #1512,#1521,#1530,#1539,#1548,#1557));
#17 = ADVANCED_FACE('',(#18,#29,#63,#74),#85,.F.);
#18 = FACE_BOUND('',#19,.F.);
#19 = EDGE_LOOP('',(#20));
#20 = ORIENTED_EDGE('',*,*,#21,.T.);
#21 = EDGE_CURVE('',#22,#22,#24,.T.);
#22 = VERTEX_POINT('',#23);
#23 = CARTESIAN_POINT('',(15.55,0.,3.2));
#24 = CIRCLE('',#25,1.75);
#25 = AXIS2_PLACEMENT_3D('',#26,#27,#28);
#26 = CARTESIAN_POINT('',(13.8,0.,3.2));
#27 = DIRECTION('',(0.,-1.,0.));
#28 = DIRECTION('',(1.,0.,0.));
#29 = FACE_BOUND('',#30,.F.);
#30 = EDGE_LOOP('',(#31,#41,#49,#57));
#31 = ORIENTED_EDGE('',*,*,#32,.T.);
#32 = EDGE_CURVE('',#33,#35,#37,.T.);
#33 = VERTEX_POINT('',#34);
#34 = CARTESIAN_POINT('',(0.,0.,0.));
#35 = VERTEX_POINT('',#36);
#36 = CARTESIAN_POINT('',(0.,0.,17.));
#37 = LINE('',#38,#39);
#38 = CARTESIAN_POINT('',(0.,0.,0.));
#39 = VECTOR('',#40,1.);
#40 = DIRECTION('',(0.,0.,1.));
#41 = ORIENTED_EDGE('',*,*,#42,.T.);
#42 = EDGE_CURVE('',#35,#43,#45,.T.);
#43 = VERTEX_POINT('',#44);
#44 = CARTESIAN_POINT('',(17.,0.,17.));
#45 = LINE('',#46,#47);
#46 = CARTESIAN_POINT('',(0.,0.,17.));
#47 = VECTOR('',#48,1.);
#48 = DIRECTION('',(1.,0.,0.));
#49 = ORIENTED_EDGE('',*,*,#50,.F.);
#50 = EDGE_CURVE('',#51,#43,#53,.T.);
#51 = VERTEX_POINT('',#52);
#52 = CARTESIAN_POINT('',(17.,0.,0.));
#53 = LINE('',#54,#55);
#54 = CARTESIAN_POINT('',(17.,0.,0.));
#55 = VECTOR('',#56,1.);
#56 = DIRECTION('',(0.,0.,1.));
#57 = ORIENTED_EDGE('',*,*,#58,.F.);
#58 = EDGE_CURVE('',#33,#51,#59,.T.);
#59 = LINE('',#60,#61);
#60 = CARTESIAN_POINT('',(0.,0.,0.));
#61 = VECTOR('',#62,1.);
#62 = DIRECTION('',(1.,0.,0.));
#63 = FACE_BOUND('',#64,.F.);
#64 = EDGE_LOOP('',(#65));
#65 = ORIENTED_EDGE('',*,*,#66,.T.);
#66 = EDGE_CURVE('',#67,#67,#69,.T.);
#67 = VERTEX_POINT('',#68);
#68 = CARTESIAN_POINT('',(10.25,0.,8.5));
#69 = CIRCLE('',#70,1.75);
#70 = AXIS2_PLACEMENT_3D('',#71,#72,#73);
#71 = CARTESIAN_POINT('',(8.5,0.,8.5));
#72 = DIRECTION('',(0.,-1.,0.));
#73 = DIRECTION('',(1.,0.,0.));
#74 = FACE_BOUND('',#75,.F.);
#75 = EDGE_LOOP('',(#76));
#76 = ORIENTED_EDGE('',*,*,#77,.T.);
#77 = EDGE_CURVE('',#78,#78,#80,.T.);
#78 = VERTEX_POINT('',#79);
#79 = CARTESIAN_POINT('',(4.95,0.,13.8));
#80 = CIRCLE('',#81,1.75);
#81 = AXIS2_PLACEMENT_3D('',#82,#83,#84);
#82 = CARTESIAN_POINT('',(3.2,0.,13.8));
#83 = DIRECTION('',(0.,-1.,0.));
#84 = DIRECTION('',(1.,0.,0.));
#85 = PLANE('',#86);
#86 = AXIS2_PLACEMENT_3D('',#87,#88,#89);
#87 = CARTESIAN_POINT('',(0.,0.,0.));
#88 = DIRECTION('',(0.,1.,0.));
#89 = DIRECTION('',(1.,0.,0.));
#90 = ADVANCED_FACE('',(#91),#110,.F.);
#91 = FACE_BOUND('',#92,.T.);
#92 = EDGE_LOOP('',(#93,#101,#102,#103));
#93 = ORIENTED_EDGE('',*,*,#94,.F.);
#94 = EDGE_CURVE('',#22,#95,#97,.T.);
#95 = VERTEX_POINT('',#96);
#96 = CARTESIAN_POINT('',(15.35,0.2,3.2));
#97 = LINE('',#98,#99);
#98 = CARTESIAN_POINT('',(15.35,0.2,3.2));
#99 = VECTOR('',#100,1.);
#100 = DIRECTION('',(-0.707106781187,0.707106781187,0.));
#101 = ORIENTED_EDGE('',*,*,#21,.T.);
#102 = ORIENTED_EDGE('',*,*,#94,.T.);
#103 = ORIENTED_EDGE('',*,*,#104,.F.);
#104 = EDGE_CURVE('',#95,#95,#105,.T.);
#105 = CIRCLE('',#106,1.55);
#106 = AXIS2_PLACEMENT_3D('',#107,#108,#109);
#107 = CARTESIAN_POINT('',(13.8,0.2,3.2));
#108 = DIRECTION('',(0.,-1.,0.));
#109 = DIRECTION('',(1.,0.,0.));
#110 = CONICAL_SURFACE('',#111,1.55,0.785398163397);
#111 = AXIS2_PLACEMENT_3D('',#112,#113,#114);
#112 = CARTESIAN_POINT('',(13.8,0.2,3.2));
#113 = DIRECTION('',(-0.,-1.,-0.));
#114 = DIRECTION('',(1.,0.,0.));
#115 = ADVANCED_FACE('',(#116,#127),#152,.F.);
#116 = FACE_BOUND('',#117,.F.);
#117 = EDGE_LOOP('',(#118));
#118 = ORIENTED_EDGE('',*,*,#119,.T.);
#119 = EDGE_CURVE('',#120,#120,#122,.T.);
#120 = VERTEX_POINT('',#121);
#121 = CARTESIAN_POINT('',(0.,6.75,8.5));
#122 = CIRCLE('',#123,1.75);
#123 = AXIS2_PLACEMENT_3D('',#124,#125,#126);
#124 = CARTESIAN_POINT('',(0.,8.5,8.5));
#125 = DIRECTION('',(-1.,0.,0.));
#126 = DIRECTION('',(0.,-1.,0.));
#127 = FACE_BOUND('',#128,.F.);
#128 = EDGE_LOOP('',(#129,#139,#145,#146));
#129 = ORIENTED_EDGE('',*,*,#130,.T.);
#130 = EDGE_CURVE('',#131,#133,#135,.T.);
#131 = VERTEX_POINT('',#132);
#132 = CARTESIAN_POINT('',(0.,17.,0.));
#133 = VERTEX_POINT('',#134);
#134 = CARTESIAN_POINT('',(0.,17.,17.));
#135 = LINE('',#136,#137);
#136 = CARTESIAN_POINT('',(0.,17.,0.));
#137 = VECTOR('',#138,1.);
#138 = DIRECTION('',(0.,0.,1.));
#139 = ORIENTED_EDGE('',*,*,#140,.T.);
#140 = EDGE_CURVE('',#133,#35,#141,.T.);
#141 = LINE('',#142,#143);
#142 = CARTESIAN_POINT('',(0.,17.,17.));
#143 = VECTOR('',#144,1.);
#144 = DIRECTION('',(0.,-1.,0.));
#145 = ORIENTED_EDGE('',*,*,#32,.F.);
#146 = ORIENTED_EDGE('',*,*,#147,.F.);
#147 = EDGE_CURVE('',#131,#33,#148,.T.);
#148 = LINE('',#149,#150);
#149 = CARTESIAN_POINT('',(0.,17.,0.));
#150 = VECTOR('',#151,1.);
#151 = DIRECTION('',(0.,-1.,0.));
#152 = PLANE('',#153);
#153 = AXIS2_PLACEMENT_3D('',#154,#155,#156);
#154 = CARTESIAN_POINT('',(0.,17.,0.));
#155 = DIRECTION('',(1.,0.,0.));
#156 = DIRECTION('',(0.,-1.,0.));
#157 = ADVANCED_FACE('',(#158,#169,#187),#198,.F.);
#158 = FACE_BOUND('',#159,.F.);
#159 = EDGE_LOOP('',(#160));
#160 = ORIENTED_EDGE('',*,*,#161,.T.);
#161 = EDGE_CURVE('',#162,#162,#164,.T.);
#162 = VERTEX_POINT('',#163);
#163 = CARTESIAN_POINT('',(4.95,3.2,0.));
#164 = CIRCLE('',#165,1.75);
#165 = AXIS2_PLACEMENT_3D('',#166,#167,#168);
#166 = CARTESIAN_POINT('',(3.2,3.2,0.));
#167 = DIRECTION('',(0.,0.,-1.));
#168 = DIRECTION('',(1.,0.,0.));
#169 = FACE_BOUND('',#170,.F.);
#170 = EDGE_LOOP('',(#171,#172,#180,#186));
#171 = ORIENTED_EDGE('',*,*,#58,.T.);
#172 = ORIENTED_EDGE('',*,*,#173,.T.);
#173 = EDGE_CURVE('',#51,#174,#176,.T.);
#174 = VERTEX_POINT('',#175);
#175 = CARTESIAN_POINT('',(17.,17.,0.));
#176 = LINE('',#177,#178);
#177 = CARTESIAN_POINT('',(17.,0.,0.));
#178 = VECTOR('',#179,1.);
#179 = DIRECTION('',(0.,1.,0.));
#180 = ORIENTED_EDGE('',*,*,#181,.T.);
#181 = EDGE_CURVE('',#174,#131,#182,.T.);
#182 = LINE('',#183,#184);
#183 = CARTESIAN_POINT('',(17.,17.,0.));
#184 = VECTOR('',#185,1.);
#185 = DIRECTION('',(-1.,0.,0.));
#186 = ORIENTED_EDGE('',*,*,#147,.T.);
#187 = FACE_BOUND('',#188,.F.);
#188 = EDGE_LOOP('',(#189));
#189 = ORIENTED_EDGE('',*,*,#190,.T.);
#190 = EDGE_CURVE('',#191,#191,#193,.T.);
#191 = VERTEX_POINT('',#192);
#192 = CARTESIAN_POINT('',(15.55,13.8,0.));
#193 = CIRCLE('',#194,1.75);
#194 = AXIS2_PLACEMENT_3D('',#195,#196,#197);
#195 = CARTESIAN_POINT('',(13.8,13.8,0.));
#196 = DIRECTION('',(0.,0.,-1.));
#197 = DIRECTION('',(1.,0.,0.));
#198 = PLANE('',#199);
#199 = AXIS2_PLACEMENT_3D('',#200,#201,#202);
#200 = CARTESIAN_POINT('',(8.5,8.5,0.));
#201 = DIRECTION('',(0.,0.,1.));
#202 = DIRECTION('',(1.,0.,0.));
#203 = ADVANCED_FACE('',(#204,#222),#256,.T.);
#204 = FACE_BOUND('',#205,.T.);
#205 = EDGE_LOOP('',(#206,#207,#215,#221));
#206 = ORIENTED_EDGE('',*,*,#42,.T.);
#207 = ORIENTED_EDGE('',*,*,#208,.T.);
#208 = EDGE_CURVE('',#43,#209,#211,.T.);
#209 = VERTEX_POINT('',#210);
#210 = CARTESIAN_POINT('',(17.,17.,17.));
#211 = LINE('',#212,#213);
#212 = CARTESIAN_POINT('',(17.,0.,17.));
#213 = VECTOR('',#214,1.);
#214 = DIRECTION('',(0.,1.,0.));
#215 = ORIENTED_EDGE('',*,*,#216,.T.);
#216 = EDGE_CURVE('',#209,#133,#217,.T.);
#217 = LINE('',#218,#219);
#218 = CARTESIAN_POINT('',(17.,17.,17.));
#219 = VECTOR('',#220,1.);
#220 = DIRECTION('',(-1.,0.,0.));
#221 = ORIENTED_EDGE('',*,*,#140,.T.);
#222 = FACE_BOUND('',#223,.T.);
#223 = EDGE_LOOP('',(#224,#234,#242,#250));
#224 = ORIENTED_EDGE('',*,*,#225,.F.);
#225 = EDGE_CURVE('',#226,#228,#230,.T.);
#226 = VERTEX_POINT('',#227);
#227 = CARTESIAN_POINT('',(0.5,16.5,17.));
#228 = VERTEX_POINT('',#229);
#229 = CARTESIAN_POINT('',(0.5,0.5,17.));
#230 = LINE('',#231,#232);
#231 = CARTESIAN_POINT('',(0.5,16.5,17.));
#232 = VECTOR('',#233,1.);
#233 = DIRECTION('',(0.,-1.,0.));
#234 = ORIENTED_EDGE('',*,*,#235,.F.);
#235 = EDGE_CURVE('',#236,#226,#238,.T.);
#236 = VERTEX_POINT('',#237);
#237 = CARTESIAN_POINT('',(16.5,16.5,17.));
#238 = LINE('',#239,#240);
#239 = CARTESIAN_POINT('',(16.5,16.5,17.));
#240 = VECTOR('',#241,1.);
#241 = DIRECTION('',(-1.,0.,0.));
#242 = ORIENTED_EDGE('',*,*,#243,.F.);
#243 = EDGE_CURVE('',#244,#236,#246,.T.);
#244 = VERTEX_POINT('',#245);
#245 = CARTESIAN_POINT('',(16.5,0.5,17.));
#246 = LINE('',#247,#248);
#247 = CARTESIAN_POINT('',(16.5,0.5,17.));
#248 = VECTOR('',#249,1.);
#249 = DIRECTION('',(0.,1.,0.));
#250 = ORIENTED_EDGE('',*,*,#251,.F.);
#251 = EDGE_CURVE('',#228,#244,#252,.T.);
#252 = LINE('',#253,#254);
#253 = CARTESIAN_POINT('',(0.5,0.5,17.));
#254 = VECTOR('',#255,1.);
#255 = DIRECTION('',(1.,0.,0.));
#256 = PLANE('',#257);
#257 = AXIS2_PLACEMENT_3D('',#258,#259,#260);
#258 = CARTESIAN_POINT('',(8.5,8.5,17.));
#259 = DIRECTION('',(0.,0.,1.));
#260 = DIRECTION('',(1.,0.,0.));
#261 = ADVANCED_FACE('',(#262,#273,#284,#295,#306,#317,#328),#339,.F.);
#262 = FACE_BOUND('',#263,.F.);
#263 = EDGE_LOOP('',(#264));
#264 = ORIENTED_EDGE('',*,*,#265,.T.);
#265 = EDGE_CURVE('',#266,#266,#268,.T.);
#266 = VERTEX_POINT('',#267);
#267 = CARTESIAN_POINT('',(17.,15.55,3.2));
#268 = CIRCLE('',#269,1.75);
#269 = AXIS2_PLACEMENT_3D('',#270,#271,#272);
#270 = CARTESIAN_POINT('',(17.,13.8,3.2));
#271 = DIRECTION('',(1.,0.,0.));
#272 = DIRECTION('',(-0.,1.,0.));
#273 = FACE_BOUND('',#274,.F.);
#274 = EDGE_LOOP('',(#275,#276,#277,#283));
#275 = ORIENTED_EDGE('',*,*,#50,.T.);
#276 = ORIENTED_EDGE('',*,*,#208,.T.);
#277 = ORIENTED_EDGE('',*,*,#278,.F.);
#278 = EDGE_CURVE('',#174,#209,#279,.T.);
#279 = LINE('',#280,#281);
#280 = CARTESIAN_POINT('',(17.,17.,0.));
#281 = VECTOR('',#282,1.);
#282 = DIRECTION('',(0.,0.,1.));
#283 = ORIENTED_EDGE('',*,*,#173,.F.);
#284 = FACE_BOUND('',#285,.F.);
#285 = EDGE_LOOP('',(#286));
#286 = ORIENTED_EDGE('',*,*,#287,.T.);
#287 = EDGE_CURVE('',#288,#288,#290,.T.);
#288 = VERTEX_POINT('',#289);
#289 = CARTESIAN_POINT('',(17.,15.55,8.5));
#290 = CIRCLE('',#291,1.75);
#291 = AXIS2_PLACEMENT_3D('',#292,#293,#294);
#292 = CARTESIAN_POINT('',(17.,13.8,8.5));
#293 = DIRECTION('',(1.,0.,0.));
#294 = DIRECTION('',(-0.,1.,0.));
#295 = FACE_BOUND('',#296,.F.);
#296 = EDGE_LOOP('',(#297));
#297 = ORIENTED_EDGE('',*,*,#298,.T.);
#298 = EDGE_CURVE('',#299,#299,#301,.T.);
#299 = VERTEX_POINT('',#300);
#300 = CARTESIAN_POINT('',(17.,15.55,13.8));
#301 = CIRCLE('',#302,1.75);
#302 = AXIS2_PLACEMENT_3D('',#303,#304,#305);
#303 = CARTESIAN_POINT('',(17.,13.8,13.8));
#304 = DIRECTION('',(1.,0.,0.));
#305 = DIRECTION('',(-0.,1.,0.));
#306 = FACE_BOUND('',#307,.F.);
#307 = EDGE_LOOP('',(#308));
#308 = ORIENTED_EDGE('',*,*,#309,.T.);
#309 = EDGE_CURVE('',#310,#310,#312,.T.);
#310 = VERTEX_POINT('',#311);
#311 = CARTESIAN_POINT('',(17.,4.95,13.8));
#312 = CIRCLE('',#313,1.75);
#313 = AXIS2_PLACEMENT_3D('',#314,#315,#316);
#314 = CARTESIAN_POINT('',(17.,3.2,13.8));
#315 = DIRECTION('',(1.,0.,0.));
#316 = DIRECTION('',(-0.,1.,0.));
#317 = FACE_BOUND('',#318,.F.);
#318 = EDGE_LOOP('',(#319));
#319 = ORIENTED_EDGE('',*,*,#320,.T.);
#320 = EDGE_CURVE('',#321,#321,#323,.T.);
#321 = VERTEX_POINT('',#322);
#322 = CARTESIAN_POINT('',(17.,4.95,8.5));
#323 = CIRCLE('',#324,1.75);
#324 = AXIS2_PLACEMENT_3D('',#325,#326,#327);
#325 = CARTESIAN_POINT('',(17.,3.2,8.5));
#326 = DIRECTION('',(1.,0.,0.));
#327 = DIRECTION('',(-0.,1.,0.));
#328 = FACE_BOUND('',#329,.F.);
#329 = EDGE_LOOP('',(#330));
#330 = ORIENTED_EDGE('',*,*,#331,.T.);
#331 = EDGE_CURVE('',#332,#332,#334,.T.);
#332 = VERTEX_POINT('',#333);
#333 = CARTESIAN_POINT('',(17.,4.95,3.2));
#334 = CIRCLE('',#335,1.75);
#335 = AXIS2_PLACEMENT_3D('',#336,#337,#338);
#336 = CARTESIAN_POINT('',(17.,3.2,3.2));
#337 = DIRECTION('',(1.,0.,0.));
#338 = DIRECTION('',(-0.,1.,0.));
#339 = PLANE('',#340);
#340 = AXIS2_PLACEMENT_3D('',#341,#342,#343);
#341 = CARTESIAN_POINT('',(17.,0.,0.));
#342 = DIRECTION('',(-1.,0.,0.));
#343 = DIRECTION('',(0.,1.,0.));
#344 = ADVANCED_FACE('',(#345),#364,.F.);
#345 = FACE_BOUND('',#346,.T.);
#346 = EDGE_LOOP('',(#347,#355,#356,#357));
#347 = ORIENTED_EDGE('',*,*,#348,.F.);
#348 = EDGE_CURVE('',#67,#349,#351,.T.);
#349 = VERTEX_POINT('',#350);
#350 = CARTESIAN_POINT('',(10.05,0.2,8.5));
#351 = LINE('',#352,#353);
#352 = CARTESIAN_POINT('',(10.05,0.2,8.5));
#353 = VECTOR('',#354,1.);
#354 = DIRECTION('',(-0.707106781187,0.707106781187,0.));
#355 = ORIENTED_EDGE('',*,*,#66,.T.);
#356 = ORIENTED_EDGE('',*,*,#348,.T.);
#357 = ORIENTED_EDGE('',*,*,#358,.F.);
#358 = EDGE_CURVE('',#349,#349,#359,.T.);
#359 = CIRCLE('',#360,1.55);
#360 = AXIS2_PLACEMENT_3D('',#361,#362,#363);
#361 = CARTESIAN_POINT('',(8.5,0.2,8.5));
#362 = DIRECTION('',(0.,-1.,0.));
#363 = DIRECTION('',(1.,0.,0.));
#364 = CONICAL_SURFACE('',#365,1.55,0.785398163397);
#365 = AXIS2_PLACEMENT_3D('',#366,#367,#368);
#366 = CARTESIAN_POINT('',(8.5,0.2,8.5));
#367 = DIRECTION('',(-0.,-1.,-0.));
#368 = DIRECTION('',(1.,0.,0.));
#369 = ADVANCED_FACE('',(#370),#389,.F.);
#370 = FACE_BOUND('',#371,.T.);
#371 = EDGE_LOOP('',(#372,#380,#381,#382));
#372 = ORIENTED_EDGE('',*,*,#373,.F.);
#373 = EDGE_CURVE('',#78,#374,#376,.T.);
#374 = VERTEX_POINT('',#375);
#375 = CARTESIAN_POINT('',(4.75,0.2,13.8));
#376 = LINE('',#377,#378);
#377 = CARTESIAN_POINT('',(4.75,0.2,13.8));
#378 = VECTOR('',#379,1.);
#379 = DIRECTION('',(-0.707106781187,0.707106781187,0.));
#380 = ORIENTED_EDGE('',*,*,#77,.T.);
#381 = ORIENTED_EDGE('',*,*,#373,.T.);
#382 = ORIENTED_EDGE('',*,*,#383,.F.);
#383 = EDGE_CURVE('',#374,#374,#384,.T.);
#384 = CIRCLE('',#385,1.55);
#385 = AXIS2_PLACEMENT_3D('',#386,#387,#388);
#386 = CARTESIAN_POINT('',(3.2,0.2,13.8));
#387 = DIRECTION('',(0.,-1.,0.));
#388 = DIRECTION('',(1.,0.,0.));
#389 = CONICAL_SURFACE('',#390,1.55,0.785398163397);
#390 = AXIS2_PLACEMENT_3D('',#391,#392,#393);
#391 = CARTESIAN_POINT('',(3.2,0.2,13.8));
#392 = DIRECTION('',(-0.,-1.,-0.));
#393 = DIRECTION('',(1.,0.,0.));
#394 = ADVANCED_FACE('',(#395),#414,.F.);
#395 = FACE_BOUND('',#396,.F.);
#396 = EDGE_LOOP('',(#397,#405,#412,#413));
#397 = ORIENTED_EDGE('',*,*,#398,.T.);
#398 = EDGE_CURVE('',#95,#399,#401,.T.);
#399 = VERTEX_POINT('',#400);
#400 = CARTESIAN_POINT('',(15.35,0.4,3.2));
#401 = LINE('',#402,#403);
#402 = CARTESIAN_POINT('',(15.35,7.1E-16,3.2));
#403 = VECTOR('',#404,1.);
#404 = DIRECTION('',(0.,1.,-2.2E-16));
#405 = ORIENTED_EDGE('',*,*,#406,.T.);
#406 = EDGE_CURVE('',#399,#399,#407,.T.);
#407 = CIRCLE('',#408,1.55);
#408 = AXIS2_PLACEMENT_3D('',#409,#410,#411);
#409 = CARTESIAN_POINT('',(13.8,0.4,3.2));
#410 = DIRECTION('',(0.,-1.,0.));
#411 = DIRECTION('',(1.,0.,0.));
#412 = ORIENTED_EDGE('',*,*,#398,.F.);
#413 = ORIENTED_EDGE('',*,*,#104,.F.);
#414 = CYLINDRICAL_SURFACE('',#415,1.55);
#415 = AXIS2_PLACEMENT_3D('',#416,#417,#418);
#416 = CARTESIAN_POINT('',(13.8,7.1E-16,3.2));
#417 = DIRECTION('',(0.,-1.,2.2E-16));
#418 = DIRECTION('',(1.,0.,0.));
#419 = ADVANCED_FACE('',(#420),#439,.F.);
#420 = FACE_BOUND('',#421,.T.);
#421 = EDGE_LOOP('',(#422,#430,#431,#432));
#422 = ORIENTED_EDGE('',*,*,#423,.F.);
#423 = EDGE_CURVE('',#120,#424,#426,.T.);
#424 = VERTEX_POINT('',#425);
#425 = CARTESIAN_POINT('',(0.2,6.95,8.5));
#426 = LINE('',#427,#428);
#427 = CARTESIAN_POINT('',(0.2,6.95,8.5));
#428 = VECTOR('',#429,1.);
#429 = DIRECTION('',(0.707106781187,0.707106781187,0.));
#430 = ORIENTED_EDGE('',*,*,#119,.T.);
#431 = ORIENTED_EDGE('',*,*,#423,.T.);
#432 = ORIENTED_EDGE('',*,*,#433,.F.);
#433 = EDGE_CURVE('',#424,#424,#434,.T.);
#434 = CIRCLE('',#435,1.55);
#435 = AXIS2_PLACEMENT_3D('',#436,#437,#438);
#436 = CARTESIAN_POINT('',(0.2,8.5,8.5));
#437 = DIRECTION('',(-1.,0.,0.));
#438 = DIRECTION('',(0.,-1.,0.));
#439 = CONICAL_SURFACE('',#440,1.55,0.785398163397);
#440 = AXIS2_PLACEMENT_3D('',#441,#442,#443);
#441 = CARTESIAN_POINT('',(0.2,8.5,8.5));
#442 = DIRECTION('',(-1.,-0.,-0.));
#443 = DIRECTION('',(0.,-1.,0.));
#444 = ADVANCED_FACE('',(#445,#456,#462,#473,#484),#495,.F.);
#445 = FACE_BOUND('',#446,.F.);
#446 = EDGE_LOOP('',(#447));
#447 = ORIENTED_EDGE('',*,*,#448,.T.);
#448 = EDGE_CURVE('',#449,#449,#451,.T.);
#449 = VERTEX_POINT('',#450);
#450 = CARTESIAN_POINT('',(1.45,17.,3.2));
#451 = CIRCLE('',#452,1.75);
#452 = AXIS2_PLACEMENT_3D('',#453,#454,#455);
#453 = CARTESIAN_POINT('',(3.2,17.,3.2));
#454 = DIRECTION('',(0.,1.,-0.));
#455 = DIRECTION('',(-1.,0.,0.));
#456 = FACE_BOUND('',#457,.F.);
#457 = EDGE_LOOP('',(#458,#459,#460,#461));
#458 = ORIENTED_EDGE('',*,*,#278,.T.);
#459 = ORIENTED_EDGE('',*,*,#216,.T.);
#460 = ORIENTED_EDGE('',*,*,#130,.F.);
#461 = ORIENTED_EDGE('',*,*,#181,.F.);
#462 = FACE_BOUND('',#463,.F.);
#463 = EDGE_LOOP('',(#464));
#464 = ORIENTED_EDGE('',*,*,#465,.T.);
#465 = EDGE_CURVE('',#466,#466,#468,.T.);
#466 = VERTEX_POINT('',#467);
#467 = CARTESIAN_POINT('',(1.45,17.,13.8));
#468 = CIRCLE('',#469,1.75);
#469 = AXIS2_PLACEMENT_3D('',#470,#471,#472);
#470 = CARTESIAN_POINT('',(3.2,17.,13.8));
#471 = DIRECTION('',(0.,1.,-0.));
#472 = DIRECTION('',(-1.,0.,0.));
#473 = FACE_BOUND('',#474,.F.);
#474 = EDGE_LOOP('',(#475));
#475 = ORIENTED_EDGE('',*,*,#476,.T.);
#476 = EDGE_CURVE('',#477,#477,#479,.T.);
#477 = VERTEX_POINT('',#478);
#478 = CARTESIAN_POINT('',(12.05,17.,3.2));
#479 = CIRCLE('',#480,1.75);
#480 = AXIS2_PLACEMENT_3D('',#481,#482,#483);
#481 = CARTESIAN_POINT('',(13.8,17.,3.2));
#482 = DIRECTION('',(0.,1.,-0.));
#483 = DIRECTION('',(-1.,0.,0.));
#484 = FACE_BOUND('',#485,.F.);
#485 = EDGE_LOOP('',(#486));
#486 = ORIENTED_EDGE('',*,*,#487,.T.);
#487 = EDGE_CURVE('',#488,#488,#490,.T.);
#488 = VERTEX_POINT('',#489);
#489 = CARTESIAN_POINT('',(12.05,17.,13.8));
#490 = CIRCLE('',#491,1.75);
#491 = AXIS2_PLACEMENT_3D('',#492,#493,#494);
#492 = CARTESIAN_POINT('',(13.8,17.,13.8));
#493 = DIRECTION('',(0.,1.,-0.));
#494 = DIRECTION('',(-1.,0.,0.));
#495 = PLANE('',#496);
#496 = AXIS2_PLACEMENT_3D('',#497,#498,#499);
#497 = CARTESIAN_POINT('',(17.,17.,0.));
#498 = DIRECTION('',(0.,-1.,0.));
#499 = DIRECTION('',(-1.,0.,0.));
#500 = ADVANCED_FACE('',(#501),#520,.F.);
#501 = FACE_BOUND('',#502,.T.);
#502 = EDGE_LOOP('',(#503,#511,#512,#513));
#503 = ORIENTED_EDGE('',*,*,#504,.F.);
#504 = EDGE_CURVE('',#162,#505,#507,.T.);
#505 = VERTEX_POINT('',#506);
#506 = CARTESIAN_POINT('',(4.75,3.2,0.2));
#507 = LINE('',#508,#509);
#508 = CARTESIAN_POINT('',(4.75,3.2,0.2));
#509 = VECTOR('',#510,1.);
#510 = DIRECTION('',(-0.707106781187,0.,0.707106781187));
#511 = ORIENTED_EDGE('',*,*,#161,.T.);
#512 = ORIENTED_EDGE('',*,*,#504,.T.);
#513 = ORIENTED_EDGE('',*,*,#514,.F.);
#514 = EDGE_CURVE('',#505,#505,#515,.T.);
#515 = CIRCLE('',#516,1.55);
#516 = AXIS2_PLACEMENT_3D('',#517,#518,#519);
#517 = CARTESIAN_POINT('',(3.2,3.2,0.2));
#518 = DIRECTION('',(0.,0.,-1.));
#519 = DIRECTION('',(1.,0.,0.));
#520 = CONICAL_SURFACE('',#521,1.55,0.785398163397);
#521 = AXIS2_PLACEMENT_3D('',#522,#523,#524);
#522 = CARTESIAN_POINT('',(3.2,3.2,0.2));
#523 = DIRECTION('',(-0.,-0.,-1.));
#524 = DIRECTION('',(1.,0.,-0.));
#525 = ADVANCED_FACE('',(#526),#545,.F.);
#526 = FACE_BOUND('',#527,.T.);
#527 = EDGE_LOOP('',(#528,#536,#537,#538));
#528 = ORIENTED_EDGE('',*,*,#529,.F.);
#529 = EDGE_CURVE('',#191,#530,#532,.T.);
#530 = VERTEX_POINT('',#531);
#531 = CARTESIAN_POINT('',(15.35,13.8,0.2));
#532 = LINE('',#533,#534);
#533 = CARTESIAN_POINT('',(15.35,13.8,0.2));
#534 = VECTOR('',#535,1.);
#535 = DIRECTION('',(-0.707106781187,0.,0.707106781187));
#536 = ORIENTED_EDGE('',*,*,#190,.T.);
#537 = ORIENTED_EDGE('',*,*,#529,.T.);
#538 = ORIENTED_EDGE('',*,*,#539,.F.);
#539 = EDGE_CURVE('',#530,#530,#540,.T.);
#540 = CIRCLE('',#541,1.55);
#541 = AXIS2_PLACEMENT_3D('',#542,#543,#544);
#542 = CARTESIAN_POINT('',(13.8,13.8,0.2));
#543 = DIRECTION('',(0.,0.,-1.));
#544 = DIRECTION('',(1.,0.,0.));
#545 = CONICAL_SURFACE('',#546,1.55,0.785398163397);
#546 = AXIS2_PLACEMENT_3D('',#547,#548,#549);
#547 = CARTESIAN_POINT('',(13.8,13.8,0.2));
#548 = DIRECTION('',(-0.,-0.,-1.));
#549 = DIRECTION('',(1.,0.,-0.));
#550 = ADVANCED_FACE('',(#551),#576,.F.);
#551 = FACE_BOUND('',#552,.F.);
#552 = EDGE_LOOP('',(#553,#561,#569,#575));
#553 = ORIENTED_EDGE('',*,*,#554,.T.);
#554 = EDGE_CURVE('',#226,#555,#557,.T.);
#555 = VERTEX_POINT('',#556);
#556 = CARTESIAN_POINT('',(0.5,16.5,16.));
#557 = LINE('',#558,#559);
#558 = CARTESIAN_POINT('',(0.5,16.5,17.));
#559 = VECTOR('',#560,1.);
#560 = DIRECTION('',(-0.,-0.,-1.));
#561 = ORIENTED_EDGE('',*,*,#562,.T.);
#562 = EDGE_CURVE('',#555,#563,#565,.T.);
#563 = VERTEX_POINT('',#564);
#564 = CARTESIAN_POINT('',(0.5,0.5,16.));
#565 = LINE('',#566,#567);
#566 = CARTESIAN_POINT('',(0.5,16.5,16.));
#567 = VECTOR('',#568,1.);
#568 = DIRECTION('',(0.,-1.,0.));
#569 = ORIENTED_EDGE('',*,*,#570,.F.);
#570 = EDGE_CURVE('',#228,#563,#571,.T.);
#571 = LINE('',#572,#573);
#572 = CARTESIAN_POINT('',(0.5,0.5,17.));
#573 = VECTOR('',#574,1.);
#574 = DIRECTION('',(-0.,-0.,-1.));
#575 = ORIENTED_EDGE('',*,*,#225,.F.);
#576 = PLANE('',#577);
#577 = AXIS2_PLACEMENT_3D('',#578,#579,#580);
#578 = CARTESIAN_POINT('',(0.5,16.5,17.));
#579 = DIRECTION('',(-1.,0.,0.));
#580 = DIRECTION('',(0.,-1.,0.));
#581 = ADVANCED_FACE('',(#582),#600,.F.);
#582 = FACE_BOUND('',#583,.F.);
#583 = EDGE_LOOP('',(#584,#585,#593,#599));
#584 = ORIENTED_EDGE('',*,*,#570,.T.);
#585 = ORIENTED_EDGE('',*,*,#586,.T.);
#586 = EDGE_CURVE('',#563,#587,#589,.T.);
#587 = VERTEX_POINT('',#588);
#588 = CARTESIAN_POINT('',(16.5,0.5,16.));
#589 = LINE('',#590,#591);
#590 = CARTESIAN_POINT('',(0.5,0.5,16.));
#591 = VECTOR('',#592,1.);
#592 = DIRECTION('',(1.,0.,0.));
#593 = ORIENTED_EDGE('',*,*,#594,.F.);
#594 = EDGE_CURVE('',#244,#587,#595,.T.);
#595 = LINE('',#596,#597);
#596 = CARTESIAN_POINT('',(16.5,0.5,17.));
#597 = VECTOR('',#598,1.);
#598 = DIRECTION('',(-0.,-0.,-1.));
#599 = ORIENTED_EDGE('',*,*,#251,.F.);
#600 = PLANE('',#601);
#601 = AXIS2_PLACEMENT_3D('',#602,#603,#604);
#602 = CARTESIAN_POINT('',(0.5,0.5,17.));
#603 = DIRECTION('',(0.,-1.,0.));
#604 = DIRECTION('',(1.,0.,0.));
#605 = ADVANCED_FACE('',(#606),#624,.F.);
#606 = FACE_BOUND('',#607,.F.);
#607 = EDGE_LOOP('',(#608,#609,#617,#623));
#608 = ORIENTED_EDGE('',*,*,#594,.T.);
#609 = ORIENTED_EDGE('',*,*,#610,.T.);
#610 = EDGE_CURVE('',#587,#611,#613,.T.);
#611 = VERTEX_POINT('',#612);
#612 = CARTESIAN_POINT('',(16.5,16.5,16.));
#613 = LINE('',#614,#615);
#614 = CARTESIAN_POINT('',(16.5,0.5,16.));
#615 = VECTOR('',#616,1.);
#616 = DIRECTION('',(0.,1.,0.));
#617 = ORIENTED_EDGE('',*,*,#618,.F.);
#618 = EDGE_CURVE('',#236,#611,#619,.T.);
#619 = LINE('',#620,#621);
#620 = CARTESIAN_POINT('',(16.5,16.5,17.));
#621 = VECTOR('',#622,1.);
#622 = DIRECTION('',(-0.,-0.,-1.));
#623 = ORIENTED_EDGE('',*,*,#243,.F.);
#624 = PLANE('',#625);
#625 = AXIS2_PLACEMENT_3D('',#626,#627,#628);
#626 = CARTESIAN_POINT('',(16.5,0.5,17.));
#627 = DIRECTION('',(1.,0.,0.));
#628 = DIRECTION('',(0.,1.,0.));
#629 = ADVANCED_FACE('',(#630),#641,.F.);
#630 = FACE_BOUND('',#631,.F.);
#631 = EDGE_LOOP('',(#632,#633,#639,#640));
#632 = ORIENTED_EDGE('',*,*,#618,.T.);
#633 = ORIENTED_EDGE('',*,*,#634,.T.);
#634 = EDGE_CURVE('',#611,#555,#635,.T.);
#635 = LINE('',#636,#637);
#636 = CARTESIAN_POINT('',(16.5,16.5,16.));
#637 = VECTOR('',#638,1.);
#638 = DIRECTION('',(-1.,0.,0.));
#639 = ORIENTED_EDGE('',*,*,#554,.F.);
#640 = ORIENTED_EDGE('',*,*,#235,.F.);
#641 = PLANE('',#642);
#642 = AXIS2_PLACEMENT_3D('',#643,#644,#645);
#643 = CARTESIAN_POINT('',(16.5,16.5,17.));
#644 = DIRECTION('',(0.,1.,0.));
#645 = DIRECTION('',(-1.,0.,0.));
#646 = ADVANCED_FACE('',(#647),#666,.F.);
#647 = FACE_BOUND('',#648,.T.);
#648 = EDGE_LOOP('',(#649,#657,#658,#659));
#649 = ORIENTED_EDGE('',*,*,#650,.F.);
#650 = EDGE_CURVE('',#266,#651,#653,.T.);
#651 = VERTEX_POINT('',#652);
#652 = CARTESIAN_POINT('',(16.8,15.35,3.2));
#653 = LINE('',#654,#655);
#654 = CARTESIAN_POINT('',(16.8,15.35,3.2));
#655 = VECTOR('',#656,1.);
#656 = DIRECTION('',(-0.707106781187,-0.707106781187,0.));
#657 = ORIENTED_EDGE('',*,*,#265,.T.);
#658 = ORIENTED_EDGE('',*,*,#650,.T.);
#659 = ORIENTED_EDGE('',*,*,#660,.F.);
#660 = EDGE_CURVE('',#651,#651,#661,.T.);
#661 = CIRCLE('',#662,1.55);
#662 = AXIS2_PLACEMENT_3D('',#663,#664,#665);
#663 = CARTESIAN_POINT('',(16.8,13.8,3.2));
#664 = DIRECTION('',(1.,0.,0.));
#665 = DIRECTION('',(-0.,1.,0.));
#666 = CONICAL_SURFACE('',#667,1.55,0.785398163397);
#667 = AXIS2_PLACEMENT_3D('',#668,#669,#670);
#668 = CARTESIAN_POINT('',(16.8,13.8,3.2));
#669 = DIRECTION('',(1.,-0.,-0.));
#670 = DIRECTION('',(0.,1.,0.));
#671 = ADVANCED_FACE('',(#672),#691,.F.);
#672 = FACE_BOUND('',#673,.T.);
#673 = EDGE_LOOP('',(#674,#682,#683,#684));
#674 = ORIENTED_EDGE('',*,*,#675,.F.);
#675 = EDGE_CURVE('',#288,#676,#678,.T.);
#676 = VERTEX_POINT('',#677);
#677 = CARTESIAN_POINT('',(16.8,15.35,8.5));
#678 = LINE('',#679,#680);
#679 = CARTESIAN_POINT('',(16.8,15.35,8.5));
#680 = VECTOR('',#681,1.);
#681 = DIRECTION('',(-0.707106781187,-0.707106781187,0.));
#682 = ORIENTED_EDGE('',*,*,#287,.T.);
#683 = ORIENTED_EDGE('',*,*,#675,.T.);
#684 = ORIENTED_EDGE('',*,*,#685,.F.);
#685 = EDGE_CURVE('',#676,#676,#686,.T.);
#686 = CIRCLE('',#687,1.55);
#687 = AXIS2_PLACEMENT_3D('',#688,#689,#690);
#688 = CARTESIAN_POINT('',(16.8,13.8,8.5));
#689 = DIRECTION('',(1.,0.,0.));
#690 = DIRECTION('',(-0.,1.,0.));
#691 = CONICAL_SURFACE('',#692,1.55,0.785398163397);
#692 = AXIS2_PLACEMENT_3D('',#693,#694,#695);
#693 = CARTESIAN_POINT('',(16.8,13.8,8.5));
#694 = DIRECTION('',(1.,-0.,-0.));
#695 = DIRECTION('',(0.,1.,0.));
#696 = ADVANCED_FACE('',(#697),#716,.F.);
#697 = FACE_BOUND('',#698,.T.);
#698 = EDGE_LOOP('',(#699,#707,#708,#709));
#699 = ORIENTED_EDGE('',*,*,#700,.F.);
#700 = EDGE_CURVE('',#299,#701,#703,.T.);
#701 = VERTEX_POINT('',#702);
#702 = CARTESIAN_POINT('',(16.8,15.35,13.8));
#703 = LINE('',#704,#705);
#704 = CARTESIAN_POINT('',(16.8,15.35,13.8));
#705 = VECTOR('',#706,1.);
#706 = DIRECTION('',(-0.707106781187,-0.707106781187,0.));
#707 = ORIENTED_EDGE('',*,*,#298,.T.);
#708 = ORIENTED_EDGE('',*,*,#700,.T.);
#709 = ORIENTED_EDGE('',*,*,#710,.F.);
#710 = EDGE_CURVE('',#701,#701,#711,.T.);
#711 = CIRCLE('',#712,1.55);
#712 = AXIS2_PLACEMENT_3D('',#713,#714,#715);
#713 = CARTESIAN_POINT('',(16.8,13.8,13.8));
#714 = DIRECTION('',(1.,0.,0.));
#715 = DIRECTION('',(-0.,1.,0.));
#716 = CONICAL_SURFACE('',#717,1.55,0.785398163397);
#717 = AXIS2_PLACEMENT_3D('',#718,#719,#720);
#718 = CARTESIAN_POINT('',(16.8,13.8,13.8));
#719 = DIRECTION('',(1.,-0.,-0.));
#720 = DIRECTION('',(0.,1.,0.));
#721 = ADVANCED_FACE('',(#722),#741,.F.);
#722 = FACE_BOUND('',#723,.T.);
#723 = EDGE_LOOP('',(#724,#732,#733,#734));
#724 = ORIENTED_EDGE('',*,*,#725,.F.);
#725 = EDGE_CURVE('',#310,#726,#728,.T.);
#726 = VERTEX_POINT('',#727);
#727 = CARTESIAN_POINT('',(16.8,4.75,13.8));
#728 = LINE('',#729,#730);
#729 = CARTESIAN_POINT('',(16.8,4.75,13.8));
#730 = VECTOR('',#731,1.);
#731 = DIRECTION('',(-0.707106781187,-0.707106781187,0.));
#732 = ORIENTED_EDGE('',*,*,#309,.T.);
#733 = ORIENTED_EDGE('',*,*,#725,.T.);
#734 = ORIENTED_EDGE('',*,*,#735,.F.);
#735 = EDGE_CURVE('',#726,#726,#736,.T.);
#736 = CIRCLE('',#737,1.55);
#737 = AXIS2_PLACEMENT_3D('',#738,#739,#740);
#738 = CARTESIAN_POINT('',(16.8,3.2,13.8));
#739 = DIRECTION('',(1.,0.,0.));
#740 = DIRECTION('',(-0.,1.,0.));
#741 = CONICAL_SURFACE('',#742,1.55,0.785398163397);
#742 = AXIS2_PLACEMENT_3D('',#743,#744,#745);
#743 = CARTESIAN_POINT('',(16.8,3.2,13.8));
#744 = DIRECTION('',(1.,-0.,-0.));
#745 = DIRECTION('',(0.,1.,0.));
#746 = ADVANCED_FACE('',(#747),#766,.F.);
#747 = FACE_BOUND('',#748,.T.);
#748 = EDGE_LOOP('',(#749,#757,#758,#759));
#749 = ORIENTED_EDGE('',*,*,#750,.F.);
#750 = EDGE_CURVE('',#321,#751,#753,.T.);
#751 = VERTEX_POINT('',#752);
#752 = CARTESIAN_POINT('',(16.8,4.75,8.5));
#753 = LINE('',#754,#755);
#754 = CARTESIAN_POINT('',(16.8,4.75,8.5));
#755 = VECTOR('',#756,1.);
#756 = DIRECTION('',(-0.707106781187,-0.707106781187,0.));
#757 = ORIENTED_EDGE('',*,*,#320,.T.);
#758 = ORIENTED_EDGE('',*,*,#750,.T.);
#759 = ORIENTED_EDGE('',*,*,#760,.F.);
#760 = EDGE_CURVE('',#751,#751,#761,.T.);
#761 = CIRCLE('',#762,1.55);
#762 = AXIS2_PLACEMENT_3D('',#763,#764,#765);
#763 = CARTESIAN_POINT('',(16.8,3.2,8.5));
#764 = DIRECTION('',(1.,0.,0.));
#765 = DIRECTION('',(-0.,1.,0.));
#766 = CONICAL_SURFACE('',#767,1.55,0.785398163397);
#767 = AXIS2_PLACEMENT_3D('',#768,#769,#770);
#768 = CARTESIAN_POINT('',(16.8,3.2,8.5));
#769 = DIRECTION('',(1.,-0.,-0.));
#770 = DIRECTION('',(0.,1.,0.));
#771 = ADVANCED_FACE('',(#772),#791,.F.);
#772 = FACE_BOUND('',#773,.T.);
#773 = EDGE_LOOP('',(#774,#782,#783,#784));
#774 = ORIENTED_EDGE('',*,*,#775,.F.);
#775 = EDGE_CURVE('',#332,#776,#778,.T.);
#776 = VERTEX_POINT('',#777);
#777 = CARTESIAN_POINT('',(16.8,4.75,3.2));
#778 = LINE('',#779,#780);
#779 = CARTESIAN_POINT('',(16.8,4.75,3.2));
#780 = VECTOR('',#781,1.);
#781 = DIRECTION('',(-0.707106781187,-0.707106781187,0.));
#782 = ORIENTED_EDGE('',*,*,#331,.T.);
#783 = ORIENTED_EDGE('',*,*,#775,.T.);
#784 = ORIENTED_EDGE('',*,*,#785,.F.);
#785 = EDGE_CURVE('',#776,#776,#786,.T.);
#786 = CIRCLE('',#787,1.55);
#787 = AXIS2_PLACEMENT_3D('',#788,#789,#790);
#788 = CARTESIAN_POINT('',(16.8,3.2,3.2));
#789 = DIRECTION('',(1.,0.,0.));
#790 = DIRECTION('',(-0.,1.,0.));
#791 = CONICAL_SURFACE('',#792,1.55,0.785398163397);
#792 = AXIS2_PLACEMENT_3D('',#793,#794,#795);
#793 = CARTESIAN_POINT('',(16.8,3.2,3.2));
#794 = DIRECTION('',(1.,-0.,-0.));
#795 = DIRECTION('',(0.,1.,0.));
#796 = ADVANCED_FACE('',(#797),#816,.F.);
#797 = FACE_BOUND('',#798,.F.);
#798 = EDGE_LOOP('',(#799,#807,#814,#815));
#799 = ORIENTED_EDGE('',*,*,#800,.T.);
#800 = EDGE_CURVE('',#349,#801,#803,.T.);
#801 = VERTEX_POINT('',#802);
#802 = CARTESIAN_POINT('',(10.05,0.4,8.5));
#803 = LINE('',#804,#805);
#804 = CARTESIAN_POINT('',(10.05,1.89E-15,8.5));
#805 = VECTOR('',#806,1.);
#806 = DIRECTION('',(0.,1.,-2.2E-16));
#807 = ORIENTED_EDGE('',*,*,#808,.T.);
#808 = EDGE_CURVE('',#801,#801,#809,.T.);
#809 = CIRCLE('',#810,1.55);
#810 = AXIS2_PLACEMENT_3D('',#811,#812,#813);
#811 = CARTESIAN_POINT('',(8.5,0.4,8.5));
#812 = DIRECTION('',(0.,-1.,0.));
#813 = DIRECTION('',(1.,0.,0.));
#814 = ORIENTED_EDGE('',*,*,#800,.F.);
#815 = ORIENTED_EDGE('',*,*,#358,.F.);
#816 = CYLINDRICAL_SURFACE('',#817,1.55);
#817 = AXIS2_PLACEMENT_3D('',#818,#819,#820);
#818 = CARTESIAN_POINT('',(8.5,1.89E-15,8.5));
#819 = DIRECTION('',(0.,-1.,2.2E-16));
#820 = DIRECTION('',(1.,0.,0.));
#821 = ADVANCED_FACE('',(#822),#841,.F.);
#822 = FACE_BOUND('',#823,.F.);
#823 = EDGE_LOOP('',(#824,#832,#839,#840));
#824 = ORIENTED_EDGE('',*,*,#825,.T.);
#825 = EDGE_CURVE('',#374,#826,#828,.T.);
#826 = VERTEX_POINT('',#827);
#827 = CARTESIAN_POINT('',(4.75,0.4,13.8));
#828 = LINE('',#829,#830);
#829 = CARTESIAN_POINT('',(4.75,3.06E-15,13.8));
#830 = VECTOR('',#831,1.);
#831 = DIRECTION('',(0.,1.,-2.2E-16));
#832 = ORIENTED_EDGE('',*,*,#833,.T.);
#833 = EDGE_CURVE('',#826,#826,#834,.T.);
#834 = CIRCLE('',#835,1.55);
#835 = AXIS2_PLACEMENT_3D('',#836,#837,#838);
#836 = CARTESIAN_POINT('',(3.2,0.4,13.8));
#837 = DIRECTION('',(0.,-1.,0.));
#838 = DIRECTION('',(1.,0.,0.));
#839 = ORIENTED_EDGE('',*,*,#825,.F.);
#840 = ORIENTED_EDGE('',*,*,#383,.F.);
#841 = CYLINDRICAL_SURFACE('',#842,1.55);
#842 = AXIS2_PLACEMENT_3D('',#843,#844,#845);
#843 = CARTESIAN_POINT('',(3.2,3.06E-15,13.8));
#844 = DIRECTION('',(0.,-1.,2.2E-16));
#845 = DIRECTION('',(1.,0.,0.));
#846 = ADVANCED_FACE('',(#847),#850,.F.);
#847 = FACE_BOUND('',#848,.T.);
#848 = EDGE_LOOP('',(#849));
#849 = ORIENTED_EDGE('',*,*,#406,.T.);
#850 = PLANE('',#851);
#851 = AXIS2_PLACEMENT_3D('',#852,#853,#854);
#852 = CARTESIAN_POINT('',(8.5,0.4,8.5));
#853 = DIRECTION('',(0.,1.,-2.2E-16));
#854 = DIRECTION('',(0.,2.2E-16,1.));
#855 = ADVANCED_FACE('',(#856),#875,.F.);
#856 = FACE_BOUND('',#857,.F.);
#857 = EDGE_LOOP('',(#858,#866,#873,#874));
#858 = ORIENTED_EDGE('',*,*,#859,.T.);
#859 = EDGE_CURVE('',#424,#860,#862,.T.);
#860 = VERTEX_POINT('',#861);
#861 = CARTESIAN_POINT('',(0.4,6.95,8.5));
#862 = LINE('',#863,#864);
#863 = CARTESIAN_POINT('',(0.,6.95,8.5));
#864 = VECTOR('',#865,1.);
#865 = DIRECTION('',(1.,0.,0.));
#866 = ORIENTED_EDGE('',*,*,#867,.T.);
#867 = EDGE_CURVE('',#860,#860,#868,.T.);
#868 = CIRCLE('',#869,1.55);
#869 = AXIS2_PLACEMENT_3D('',#870,#871,#872);
#870 = CARTESIAN_POINT('',(0.4,8.5,8.5));
#871 = DIRECTION('',(-1.,0.,0.));
#872 = DIRECTION('',(0.,-1.,0.));
#873 = ORIENTED_EDGE('',*,*,#859,.F.);
#874 = ORIENTED_EDGE('',*,*,#433,.F.);
#875 = CYLINDRICAL_SURFACE('',#876,1.55);
#876 = AXIS2_PLACEMENT_3D('',#877,#878,#879);
#877 = CARTESIAN_POINT('',(0.,8.5,8.5));
#878 = DIRECTION('',(-1.,0.,0.));
#879 = DIRECTION('',(0.,-1.,0.));
#880 = ADVANCED_FACE('',(#881),#900,.F.);
#881 = FACE_BOUND('',#882,.T.);
#882 = EDGE_LOOP('',(#883,#891,#892,#893));
#883 = ORIENTED_EDGE('',*,*,#884,.F.);
#884 = EDGE_CURVE('',#449,#885,#887,.T.);
#885 = VERTEX_POINT('',#886);
#886 = CARTESIAN_POINT('',(1.65,16.8,3.2));
#887 = LINE('',#888,#889);
#888 = CARTESIAN_POINT('',(1.65,16.8,3.2));
#889 = VECTOR('',#890,1.);
#890 = DIRECTION('',(0.707106781187,-0.707106781187,0.));
#891 = ORIENTED_EDGE('',*,*,#448,.T.);
#892 = ORIENTED_EDGE('',*,*,#884,.T.);
#893 = ORIENTED_EDGE('',*,*,#894,.F.);
#894 = EDGE_CURVE('',#885,#885,#895,.T.);
#895 = CIRCLE('',#896,1.55);
#896 = AXIS2_PLACEMENT_3D('',#897,#898,#899);
#897 = CARTESIAN_POINT('',(3.2,16.8,3.2));
#898 = DIRECTION('',(0.,1.,-0.));
#899 = DIRECTION('',(-1.,0.,0.));
#900 = CONICAL_SURFACE('',#901,1.55,0.785398163397);
#901 = AXIS2_PLACEMENT_3D('',#902,#903,#904);
#902 = CARTESIAN_POINT('',(3.2,16.8,3.2));
#903 = DIRECTION('',(-0.,1.,-0.));
#904 = DIRECTION('',(-1.,0.,0.));
#905 = ADVANCED_FACE('',(#906),#925,.F.);
#906 = FACE_BOUND('',#907,.T.);
#907 = EDGE_LOOP('',(#908,#916,#917,#918));
#908 = ORIENTED_EDGE('',*,*,#909,.F.);
#909 = EDGE_CURVE('',#466,#910,#912,.T.);
#910 = VERTEX_POINT('',#911);
#911 = CARTESIAN_POINT('',(1.65,16.8,13.8));
#912 = LINE('',#913,#914);
#913 = CARTESIAN_POINT('',(1.65,16.8,13.8));
#914 = VECTOR('',#915,1.);
#915 = DIRECTION('',(0.707106781187,-0.707106781187,0.));
#916 = ORIENTED_EDGE('',*,*,#465,.T.);
#917 = ORIENTED_EDGE('',*,*,#909,.T.);
#918 = ORIENTED_EDGE('',*,*,#919,.F.);
#919 = EDGE_CURVE('',#910,#910,#920,.T.);
#920 = CIRCLE('',#921,1.55);
#921 = AXIS2_PLACEMENT_3D('',#922,#923,#924);
#922 = CARTESIAN_POINT('',(3.2,16.8,13.8));
#923 = DIRECTION('',(0.,1.,-0.));
#924 = DIRECTION('',(-1.,0.,0.));
#925 = CONICAL_SURFACE('',#926,1.55,0.785398163397);
#926 = AXIS2_PLACEMENT_3D('',#927,#928,#929);
#927 = CARTESIAN_POINT('',(3.2,16.8,13.8));
#928 = DIRECTION('',(-0.,1.,-0.));
#929 = DIRECTION('',(-1.,0.,0.));
#930 = ADVANCED_FACE('',(#931),#950,.F.);
#931 = FACE_BOUND('',#932,.T.);
#932 = EDGE_LOOP('',(#933,#941,#942,#943));
#933 = ORIENTED_EDGE('',*,*,#934,.F.);
#934 = EDGE_CURVE('',#477,#935,#937,.T.);
#935 = VERTEX_POINT('',#936);
#936 = CARTESIAN_POINT('',(12.25,16.8,3.2));
#937 = LINE('',#938,#939);
#938 = CARTESIAN_POINT('',(12.25,16.8,3.2));
#939 = VECTOR('',#940,1.);
#940 = DIRECTION('',(0.707106781187,-0.707106781187,0.));
#941 = ORIENTED_EDGE('',*,*,#476,.T.);
#942 = ORIENTED_EDGE('',*,*,#934,.T.);
#943 = ORIENTED_EDGE('',*,*,#944,.F.);
#944 = EDGE_CURVE('',#935,#935,#945,.T.);
#945 = CIRCLE('',#946,1.55);
#946 = AXIS2_PLACEMENT_3D('',#947,#948,#949);
#947 = CARTESIAN_POINT('',(13.8,16.8,3.2));
#948 = DIRECTION('',(0.,1.,-0.));
#949 = DIRECTION('',(-1.,0.,0.));
#950 = CONICAL_SURFACE('',#951,1.55,0.785398163397);
#951 = AXIS2_PLACEMENT_3D('',#952,#953,#954);
#952 = CARTESIAN_POINT('',(13.8,16.8,3.2));
#953 = DIRECTION('',(-0.,1.,-0.));
#954 = DIRECTION('',(-1.,0.,0.));
#955 = ADVANCED_FACE('',(#956),#975,.F.);
#956 = FACE_BOUND('',#957,.T.);
#957 = EDGE_LOOP('',(#958,#966,#967,#968));
#958 = ORIENTED_EDGE('',*,*,#959,.F.);
#959 = EDGE_CURVE('',#488,#960,#962,.T.);
#960 = VERTEX_POINT('',#961);
#961 = CARTESIAN_POINT('',(12.25,16.8,13.8));
#962 = LINE('',#963,#964);
#963 = CARTESIAN_POINT('',(12.25,16.8,13.8));
#964 = VECTOR('',#965,1.);
#965 = DIRECTION('',(0.707106781187,-0.707106781187,0.));
#966 = ORIENTED_EDGE('',*,*,#487,.T.);
#967 = ORIENTED_EDGE('',*,*,#959,.T.);
#968 = ORIENTED_EDGE('',*,*,#969,.F.);
#969 = EDGE_CURVE('',#960,#960,#970,.T.);
#970 = CIRCLE('',#971,1.55);
#971 = AXIS2_PLACEMENT_3D('',#972,#973,#974);
#972 = CARTESIAN_POINT('',(13.8,16.8,13.8));
#973 = DIRECTION('',(0.,1.,-0.));
#974 = DIRECTION('',(-1.,0.,0.));
#975 = CONICAL_SURFACE('',#976,1.55,0.785398163397);
#976 = AXIS2_PLACEMENT_3D('',#977,#978,#979);
#977 = CARTESIAN_POINT('',(13.8,16.8,13.8));
#978 = DIRECTION('',(-0.,1.,-0.));
#979 = DIRECTION('',(-1.,0.,0.));
#980 = ADVANCED_FACE('',(#981),#1000,.F.);
#981 = FACE_BOUND('',#982,.F.);
#982 = EDGE_LOOP('',(#983,#991,#998,#999));
#983 = ORIENTED_EDGE('',*,*,#984,.T.);
#984 = EDGE_CURVE('',#505,#985,#987,.T.);
#985 = VERTEX_POINT('',#986);
#986 = CARTESIAN_POINT('',(4.75,3.2,0.4));
#987 = LINE('',#988,#989);
#988 = CARTESIAN_POINT('',(4.75,3.2,0.));
#989 = VECTOR('',#990,1.);
#990 = DIRECTION('',(0.,0.,1.));
#991 = ORIENTED_EDGE('',*,*,#992,.T.);
#992 = EDGE_CURVE('',#985,#985,#993,.T.);
#993 = CIRCLE('',#994,1.55);
#994 = AXIS2_PLACEMENT_3D('',#995,#996,#997);
#995 = CARTESIAN_POINT('',(3.2,3.2,0.4));
#996 = DIRECTION('',(0.,0.,-1.));
#997 = DIRECTION('',(1.,0.,0.));
#998 = ORIENTED_EDGE('',*,*,#984,.F.);
#999 = ORIENTED_EDGE('',*,*,#514,.F.);
#1000 = CYLINDRICAL_SURFACE('',#1001,1.55);
#1001 = AXIS2_PLACEMENT_3D('',#1002,#1003,#1004);
#1002 = CARTESIAN_POINT('',(3.2,3.2,0.));
#1003 = DIRECTION('',(0.,0.,-1.));
#1004 = DIRECTION('',(1.,0.,0.));
#1005 = ADVANCED_FACE('',(#1006),#1025,.F.);
#1006 = FACE_BOUND('',#1007,.F.);
#1007 = EDGE_LOOP('',(#1008,#1016,#1023,#1024));
#1008 = ORIENTED_EDGE('',*,*,#1009,.T.);
#1009 = EDGE_CURVE('',#530,#1010,#1012,.T.);
#1010 = VERTEX_POINT('',#1011);
#1011 = CARTESIAN_POINT('',(15.35,13.8,0.4));
#1012 = LINE('',#1013,#1014);
#1013 = CARTESIAN_POINT('',(15.35,13.8,0.));
#1014 = VECTOR('',#1015,1.);
#1015 = DIRECTION('',(0.,0.,1.));
#1016 = ORIENTED_EDGE('',*,*,#1017,.T.);
#1017 = EDGE_CURVE('',#1010,#1010,#1018,.T.);
#1018 = CIRCLE('',#1019,1.55);
#1019 = AXIS2_PLACEMENT_3D('',#1020,#1021,#1022);
#1020 = CARTESIAN_POINT('',(13.8,13.8,0.4));
#1021 = DIRECTION('',(0.,0.,-1.));
#1022 = DIRECTION('',(1.,0.,0.));
#1023 = ORIENTED_EDGE('',*,*,#1009,.F.);
#1024 = ORIENTED_EDGE('',*,*,#539,.F.);
#1025 = CYLINDRICAL_SURFACE('',#1026,1.55);
#1026 = AXIS2_PLACEMENT_3D('',#1027,#1028,#1029);
#1027 = CARTESIAN_POINT('',(13.8,13.8,0.));
#1028 = DIRECTION('',(0.,0.,-1.));
#1029 = DIRECTION('',(1.,0.,0.));
#1030 = ADVANCED_FACE('',(#1031,#1037),#1071,.T.);
#1031 = FACE_BOUND('',#1032,.T.);
#1032 = EDGE_LOOP('',(#1033,#1034,#1035,#1036));
#1033 = ORIENTED_EDGE('',*,*,#562,.T.);
#1034 = ORIENTED_EDGE('',*,*,#586,.T.);
#1035 = ORIENTED_EDGE('',*,*,#610,.T.);
#1036 = ORIENTED_EDGE('',*,*,#634,.T.);
#1037 = FACE_BOUND('',#1038,.F.);
#1038 = EDGE_LOOP('',(#1039,#1049,#1057,#1065));
#1039 = ORIENTED_EDGE('',*,*,#1040,.T.);
#1040 = EDGE_CURVE('',#1041,#1043,#1045,.T.);
#1041 = VERTEX_POINT('',#1042);
#1042 = CARTESIAN_POINT('',(1.,16.,16.));
#1043 = VERTEX_POINT('',#1044);
#1044 = CARTESIAN_POINT('',(1.,1.,16.));
#1045 = LINE('',#1046,#1047);
#1046 = CARTESIAN_POINT('',(1.,16.,16.));
#1047 = VECTOR('',#1048,1.);
#1048 = DIRECTION('',(0.,-1.,0.));
#1049 = ORIENTED_EDGE('',*,*,#1050,.T.);
#1050 = EDGE_CURVE('',#1043,#1051,#1053,.T.);
#1051 = VERTEX_POINT('',#1052);
#1052 = CARTESIAN_POINT('',(16.,1.,16.));
#1053 = LINE('',#1054,#1055);
#1054 = CARTESIAN_POINT('',(1.,1.,16.));
#1055 = VECTOR('',#1056,1.);
#1056 = DIRECTION('',(1.,0.,0.));
#1057 = ORIENTED_EDGE('',*,*,#1058,.T.);
#1058 = EDGE_CURVE('',#1051,#1059,#1061,.T.);
#1059 = VERTEX_POINT('',#1060);
#1060 = CARTESIAN_POINT('',(16.,16.,16.));
#1061 = LINE('',#1062,#1063);
#1062 = CARTESIAN_POINT('',(16.,1.,16.));
#1063 = VECTOR('',#1064,1.);
#1064 = DIRECTION('',(0.,1.,0.));
#1065 = ORIENTED_EDGE('',*,*,#1066,.T.);
#1066 = EDGE_CURVE('',#1059,#1041,#1067,.T.);
#1067 = LINE('',#1068,#1069);
#1068 = CARTESIAN_POINT('',(16.,16.,16.));
#1069 = VECTOR('',#1070,1.);
#1070 = DIRECTION('',(-1.,0.,0.));
#1071 = PLANE('',#1072);
#1072 = AXIS2_PLACEMENT_3D('',#1073,#1074,#1075);
#1073 = CARTESIAN_POINT('',(8.5,8.5,16.));
#1074 = DIRECTION('',(0.,0.,1.));
#1075 = DIRECTION('',(1.,0.,0.));
#1076 = ADVANCED_FACE('',(#1077),#1096,.F.);
#1077 = FACE_BOUND('',#1078,.F.);
#1078 = EDGE_LOOP('',(#1079,#1087,#1094,#1095));
#1079 = ORIENTED_EDGE('',*,*,#1080,.T.);
#1080 = EDGE_CURVE('',#651,#1081,#1083,.T.);
#1081 = VERTEX_POINT('',#1082);
#1082 = CARTESIAN_POINT('',(16.6,15.35,3.2));
#1083 = LINE('',#1084,#1085);
#1084 = CARTESIAN_POINT('',(17.,15.35,3.2));
#1085 = VECTOR('',#1086,1.);
#1086 = DIRECTION('',(-1.,-0.,-0.));
#1087 = ORIENTED_EDGE('',*,*,#1088,.T.);
#1088 = EDGE_CURVE('',#1081,#1081,#1089,.T.);
#1089 = CIRCLE('',#1090,1.55);
#1090 = AXIS2_PLACEMENT_3D('',#1091,#1092,#1093);
#1091 = CARTESIAN_POINT('',(16.6,13.8,3.2));
#1092 = DIRECTION('',(1.,0.,0.));
#1093 = DIRECTION('',(0.,1.,0.));
#1094 = ORIENTED_EDGE('',*,*,#1080,.F.);
#1095 = ORIENTED_EDGE('',*,*,#660,.F.);
#1096 = CYLINDRICAL_SURFACE('',#1097,1.55);
#1097 = AXIS2_PLACEMENT_3D('',#1098,#1099,#1100);
#1098 = CARTESIAN_POINT('',(17.,13.8,3.2));
#1099 = DIRECTION('',(1.,0.,0.));
#1100 = DIRECTION('',(0.,1.,0.));
#1101 = ADVANCED_FACE('',(#1102),#1121,.F.);
#1102 = FACE_BOUND('',#1103,.F.);
#1103 = EDGE_LOOP('',(#1104,#1112,#1119,#1120));
#1104 = ORIENTED_EDGE('',*,*,#1105,.T.);
#1105 = EDGE_CURVE('',#676,#1106,#1108,.T.);
#1106 = VERTEX_POINT('',#1107);
#1107 = CARTESIAN_POINT('',(16.6,15.35,8.5));
#1108 = LINE('',#1109,#1110);
#1109 = CARTESIAN_POINT('',(17.,15.35,8.5));
#1110 = VECTOR('',#1111,1.);
#1111 = DIRECTION('',(-1.,-0.,-0.));
#1112 = ORIENTED_EDGE('',*,*,#1113,.T.);
#1113 = EDGE_CURVE('',#1106,#1106,#1114,.T.);
#1114 = CIRCLE('',#1115,1.55);
#1115 = AXIS2_PLACEMENT_3D('',#1116,#1117,#1118);
#1116 = CARTESIAN_POINT('',(16.6,13.8,8.5));
#1117 = DIRECTION('',(1.,0.,0.));
#1118 = DIRECTION('',(0.,1.,0.));
#1119 = ORIENTED_EDGE('',*,*,#1105,.F.);
#1120 = ORIENTED_EDGE('',*,*,#685,.F.);
#1121 = CYLINDRICAL_SURFACE('',#1122,1.55);
#1122 = AXIS2_PLACEMENT_3D('',#1123,#1124,#1125);
#1123 = CARTESIAN_POINT('',(17.,13.8,8.5));
#1124 = DIRECTION('',(1.,0.,0.));
#1125 = DIRECTION('',(0.,1.,0.));
#1126 = ADVANCED_FACE('',(#1127),#1146,.F.);
#1127 = FACE_BOUND('',#1128,.F.);
#1128 = EDGE_LOOP('',(#1129,#1137,#1144,#1145));
#1129 = ORIENTED_EDGE('',*,*,#1130,.T.);
#1130 = EDGE_CURVE('',#701,#1131,#1133,.T.);
#1131 = VERTEX_POINT('',#1132);
#1132 = CARTESIAN_POINT('',(16.6,15.35,13.8));
#1133 = LINE('',#1134,#1135);
#1134 = CARTESIAN_POINT('',(17.,15.35,13.8));
#1135 = VECTOR('',#1136,1.);
#1136 = DIRECTION('',(-1.,-0.,-0.));
#1137 = ORIENTED_EDGE('',*,*,#1138,.T.);
#1138 = EDGE_CURVE('',#1131,#1131,#1139,.T.);
#1139 = CIRCLE('',#1140,1.55);
#1140 = AXIS2_PLACEMENT_3D('',#1141,#1142,#1143);
#1141 = CARTESIAN_POINT('',(16.6,13.8,13.8));
#1142 = DIRECTION('',(1.,0.,0.));
#1143 = DIRECTION('',(0.,1.,0.));
#1144 = ORIENTED_EDGE('',*,*,#1130,.F.);
#1145 = ORIENTED_EDGE('',*,*,#710,.F.);
#1146 = CYLINDRICAL_SURFACE('',#1147,1.55);
#1147 = AXIS2_PLACEMENT_3D('',#1148,#1149,#1150);
#1148 = CARTESIAN_POINT('',(17.,13.8,13.8));
#1149 = DIRECTION('',(1.,0.,0.));
#1150 = DIRECTION('',(0.,1.,0.));
#1151 = ADVANCED_FACE('',(#1152),#1171,.F.);
#1152 = FACE_BOUND('',#1153,.F.);
#1153 = EDGE_LOOP('',(#1154,#1162,#1169,#1170));
#1154 = ORIENTED_EDGE('',*,*,#1155,.T.);
#1155 = EDGE_CURVE('',#726,#1156,#1158,.T.);
#1156 = VERTEX_POINT('',#1157);
#1157 = CARTESIAN_POINT('',(16.6,4.75,13.8));
#1158 = LINE('',#1159,#1160);
#1159 = CARTESIAN_POINT('',(17.,4.75,13.8));
#1160 = VECTOR('',#1161,1.);
#1161 = DIRECTION('',(-1.,-0.,-0.));
#1162 = ORIENTED_EDGE('',*,*,#1163,.T.);
#1163 = EDGE_CURVE('',#1156,#1156,#1164,.T.);
#1164 = CIRCLE('',#1165,1.55);
#1165 = AXIS2_PLACEMENT_3D('',#1166,#1167,#1168);
#1166 = CARTESIAN_POINT('',(16.6,3.2,13.8));
#1167 = DIRECTION('',(1.,0.,0.));
#1168 = DIRECTION('',(0.,1.,0.));
#1169 = ORIENTED_EDGE('',*,*,#1155,.F.);
#1170 = ORIENTED_EDGE('',*,*,#735,.F.);
#1171 = CYLINDRICAL_SURFACE('',#1172,1.55);
#1172 = AXIS2_PLACEMENT_3D('',#1173,#1174,#1175);
#1173 = CARTESIAN_POINT('',(17.,3.2,13.8));
#1174 = DIRECTION('',(1.,0.,0.));
#1175 = DIRECTION('',(0.,1.,0.));
#1176 = ADVANCED_FACE('',(#1177),#1196,.F.);
#1177 = FACE_BOUND('',#1178,.F.);
#1178 = EDGE_LOOP('',(#1179,#1187,#1194,#1195));
#1179 = ORIENTED_EDGE('',*,*,#1180,.T.);
#1180 = EDGE_CURVE('',#751,#1181,#1183,.T.);
#1181 = VERTEX_POINT('',#1182);
#1182 = CARTESIAN_POINT('',(16.6,4.75,8.5));
#1183 = LINE('',#1184,#1185);
#1184 = CARTESIAN_POINT('',(17.,4.75,8.5));
#1185 = VECTOR('',#1186,1.);
#1186 = DIRECTION('',(-1.,-0.,-0.));
#1187 = ORIENTED_EDGE('',*,*,#1188,.T.);
#1188 = EDGE_CURVE('',#1181,#1181,#1189,.T.);
#1189 = CIRCLE('',#1190,1.55);
#1190 = AXIS2_PLACEMENT_3D('',#1191,#1192,#1193);
#1191 = CARTESIAN_POINT('',(16.6,3.2,8.5));
#1192 = DIRECTION('',(1.,0.,0.));
#1193 = DIRECTION('',(0.,1.,0.));
#1194 = ORIENTED_EDGE('',*,*,#1180,.F.);
#1195 = ORIENTED_EDGE('',*,*,#760,.F.);
#1196 = CYLINDRICAL_SURFACE('',#1197,1.55);
#1197 = AXIS2_PLACEMENT_3D('',#1198,#1199,#1200);
#1198 = CARTESIAN_POINT('',(17.,3.2,8.5));
#1199 = DIRECTION('',(1.,0.,0.));
#1200 = DIRECTION('',(0.,1.,0.));
#1201 = ADVANCED_FACE('',(#1202),#1221,.F.);
#1202 = FACE_BOUND('',#1203,.F.);
#1203 = EDGE_LOOP('',(#1204,#1212,#1219,#1220));
#1204 = ORIENTED_EDGE('',*,*,#1205,.T.);
#1205 = EDGE_CURVE('',#776,#1206,#1208,.T.);
#1206 = VERTEX_POINT('',#1207);
#1207 = CARTESIAN_POINT('',(16.6,4.75,3.2));
#1208 = LINE('',#1209,#1210);
#1209 = CARTESIAN_POINT('',(17.,4.75,3.2));
#1210 = VECTOR('',#1211,1.);
#1211 = DIRECTION('',(-1.,-0.,-0.));
#1212 = ORIENTED_EDGE('',*,*,#1213,.T.);
#1213 = EDGE_CURVE('',#1206,#1206,#1214,.T.);
#1214 = CIRCLE('',#1215,1.55);
#1215 = AXIS2_PLACEMENT_3D('',#1216,#1217,#1218);
#1216 = CARTESIAN_POINT('',(16.6,3.2,3.2));
#1217 = DIRECTION('',(1.,0.,0.));
#1218 = DIRECTION('',(0.,1.,0.));
#1219 = ORIENTED_EDGE('',*,*,#1205,.F.);
#1220 = ORIENTED_EDGE('',*,*,#785,.F.);
#1221 = CYLINDRICAL_SURFACE('',#1222,1.55);
#1222 = AXIS2_PLACEMENT_3D('',#1223,#1224,#1225);
#1223 = CARTESIAN_POINT('',(17.,3.2,3.2));
#1224 = DIRECTION('',(1.,0.,0.));
#1225 = DIRECTION('',(0.,1.,0.));
#1226 = ADVANCED_FACE('',(#1227),#1230,.F.);
#1227 = FACE_BOUND('',#1228,.T.);
#1228 = EDGE_LOOP('',(#1229));
#1229 = ORIENTED_EDGE('',*,*,#808,.T.);
#1230 = PLANE('',#1231);
#1231 = AXIS2_PLACEMENT_3D('',#1232,#1233,#1234);
#1232 = CARTESIAN_POINT('',(8.5,0.4,8.5));
#1233 = DIRECTION('',(0.,1.,-2.2E-16));
#1234 = DIRECTION('',(0.,2.2E-16,1.));
#1235 = ADVANCED_FACE('',(#1236),#1239,.F.);
#1236 = FACE_BOUND('',#1237,.T.);
#1237 = EDGE_LOOP('',(#1238));
#1238 = ORIENTED_EDGE('',*,*,#833,.T.);
#1239 = PLANE('',#1240);
#1240 = AXIS2_PLACEMENT_3D('',#1241,#1242,#1243);
#1241 = CARTESIAN_POINT('',(8.5,0.4,8.5));
#1242 = DIRECTION('',(0.,1.,-2.2E-16));
#1243 = DIRECTION('',(0.,2.2E-16,1.));
#1244 = ADVANCED_FACE('',(#1245),#1248,.F.);
#1245 = FACE_BOUND('',#1246,.T.);
#1246 = EDGE_LOOP('',(#1247));
#1247 = ORIENTED_EDGE('',*,*,#867,.T.);
#1248 = PLANE('',#1249);
#1249 = AXIS2_PLACEMENT_3D('',#1250,#1251,#1252);
#1250 = CARTESIAN_POINT('',(0.4,8.5,8.5));
#1251 = DIRECTION('',(1.,0.,0.));
#1252 = DIRECTION('',(0.,0.,1.));
#1253 = ADVANCED_FACE('',(#1254),#1273,.F.);
#1254 = FACE_BOUND('',#1255,.F.);
#1255 = EDGE_LOOP('',(#1256,#1264,#1271,#1272));
#1256 = ORIENTED_EDGE('',*,*,#1257,.T.);
#1257 = EDGE_CURVE('',#885,#1258,#1260,.T.);
#1258 = VERTEX_POINT('',#1259);
#1259 = CARTESIAN_POINT('',(1.65,16.6,3.2));
#1260 = LINE('',#1261,#1262);
#1261 = CARTESIAN_POINT('',(1.65,17.,3.2));
#1262 = VECTOR('',#1263,1.);
#1263 = DIRECTION('',(0.,-1.,2.2E-16));
#1264 = ORIENTED_EDGE('',*,*,#1265,.T.);
#1265 = EDGE_CURVE('',#1258,#1258,#1266,.T.);
#1266 = CIRCLE('',#1267,1.55);
#1267 = AXIS2_PLACEMENT_3D('',#1268,#1269,#1270);
#1268 = CARTESIAN_POINT('',(3.2,16.6,3.2));
#1269 = DIRECTION('',(0.,1.,-0.));
#1270 = DIRECTION('',(-1.,0.,0.));
#1271 = ORIENTED_EDGE('',*,*,#1257,.F.);
#1272 = ORIENTED_EDGE('',*,*,#894,.F.);
#1273 = CYLINDRICAL_SURFACE('',#1274,1.55);
#1274 = AXIS2_PLACEMENT_3D('',#1275,#1276,#1277);
#1275 = CARTESIAN_POINT('',(3.2,17.,3.2));
#1276 = DIRECTION('',(0.,1.,-2.2E-16));
#1277 = DIRECTION('',(-1.,0.,0.));
#1278 = ADVANCED_FACE('',(#1279),#1298,.F.);
#1279 = FACE_BOUND('',#1280,.F.);
#1280 = EDGE_LOOP('',(#1281,#1289,#1296,#1297));
#1281 = ORIENTED_EDGE('',*,*,#1282,.T.);
#1282 = EDGE_CURVE('',#910,#1283,#1285,.T.);
#1283 = VERTEX_POINT('',#1284);
#1284 = CARTESIAN_POINT('',(1.65,16.6,13.8));
#1285 = LINE('',#1286,#1287);
#1286 = CARTESIAN_POINT('',(1.65,17.,13.8));
#1287 = VECTOR('',#1288,1.);
#1288 = DIRECTION('',(0.,-1.,2.2E-16));
#1289 = ORIENTED_EDGE('',*,*,#1290,.T.);
#1290 = EDGE_CURVE('',#1283,#1283,#1291,.T.);
#1291 = CIRCLE('',#1292,1.55);
#1292 = AXIS2_PLACEMENT_3D('',#1293,#1294,#1295);
#1293 = CARTESIAN_POINT('',(3.2,16.6,13.8));
#1294 = DIRECTION('',(0.,1.,-0.));
#1295 = DIRECTION('',(-1.,0.,0.));
#1296 = ORIENTED_EDGE('',*,*,#1282,.F.);
#1297 = ORIENTED_EDGE('',*,*,#919,.F.);
#1298 = CYLINDRICAL_SURFACE('',#1299,1.55);
#1299 = AXIS2_PLACEMENT_3D('',#1300,#1301,#1302);
#1300 = CARTESIAN_POINT('',(3.2,17.,13.8));
#1301 = DIRECTION('',(0.,1.,-2.2E-16));
#1302 = DIRECTION('',(-1.,0.,0.));
#1303 = ADVANCED_FACE('',(#1304),#1323,.F.);
#1304 = FACE_BOUND('',#1305,.F.);
#1305 = EDGE_LOOP('',(#1306,#1314,#1321,#1322));
#1306 = ORIENTED_EDGE('',*,*,#1307,.T.);
#1307 = EDGE_CURVE('',#935,#1308,#1310,.T.);
#1308 = VERTEX_POINT('',#1309);
#1309 = CARTESIAN_POINT('',(12.25,16.6,3.2));
#1310 = LINE('',#1311,#1312);
#1311 = CARTESIAN_POINT('',(12.25,17.,3.2));
#1312 = VECTOR('',#1313,1.);
#1313 = DIRECTION('',(0.,-1.,2.2E-16));
#1314 = ORIENTED_EDGE('',*,*,#1315,.T.);
#1315 = EDGE_CURVE('',#1308,#1308,#1316,.T.);
#1316 = CIRCLE('',#1317,1.55);
#1317 = AXIS2_PLACEMENT_3D('',#1318,#1319,#1320);
#1318 = CARTESIAN_POINT('',(13.8,16.6,3.2));
#1319 = DIRECTION('',(0.,1.,-0.));
#1320 = DIRECTION('',(-1.,0.,0.));
#1321 = ORIENTED_EDGE('',*,*,#1307,.F.);
#1322 = ORIENTED_EDGE('',*,*,#944,.F.);
#1323 = CYLINDRICAL_SURFACE('',#1324,1.55);
#1324 = AXIS2_PLACEMENT_3D('',#1325,#1326,#1327);
#1325 = CARTESIAN_POINT('',(13.8,17.,3.2));
#1326 = DIRECTION('',(0.,1.,-2.2E-16));
#1327 = DIRECTION('',(-1.,0.,0.));
#1328 = ADVANCED_FACE('',(#1329),#1348,.F.);
#1329 = FACE_BOUND('',#1330,.F.);
#1330 = EDGE_LOOP('',(#1331,#1339,#1346,#1347));
#1331 = ORIENTED_EDGE('',*,*,#1332,.T.);
#1332 = EDGE_CURVE('',#960,#1333,#1335,.T.);
#1333 = VERTEX_POINT('',#1334);
#1334 = CARTESIAN_POINT('',(12.25,16.6,13.8));
#1335 = LINE('',#1336,#1337);
#1336 = CARTESIAN_POINT('',(12.25,17.,13.8));
#1337 = VECTOR('',#1338,1.);
#1338 = DIRECTION('',(0.,-1.,2.2E-16));
#1339 = ORIENTED_EDGE('',*,*,#1340,.T.);
#1340 = EDGE_CURVE('',#1333,#1333,#1341,.T.);
#1341 = CIRCLE('',#1342,1.55);
#1342 = AXIS2_PLACEMENT_3D('',#1343,#1344,#1345);
#1343 = CARTESIAN_POINT('',(13.8,16.6,13.8));
#1344 = DIRECTION('',(0.,1.,-0.));
#1345 = DIRECTION('',(-1.,0.,0.));
#1346 = ORIENTED_EDGE('',*,*,#1332,.F.);
#1347 = ORIENTED_EDGE('',*,*,#969,.F.);
#1348 = CYLINDRICAL_SURFACE('',#1349,1.55);
#1349 = AXIS2_PLACEMENT_3D('',#1350,#1351,#1352);
#1350 = CARTESIAN_POINT('',(13.8,17.,13.8));
#1351 = DIRECTION('',(0.,1.,-2.2E-16));
#1352 = DIRECTION('',(-1.,0.,0.));
#1353 = ADVANCED_FACE('',(#1354),#1357,.F.);
#1354 = FACE_BOUND('',#1355,.T.);
#1355 = EDGE_LOOP('',(#1356));
#1356 = ORIENTED_EDGE('',*,*,#992,.T.);
#1357 = PLANE('',#1358);
#1358 = AXIS2_PLACEMENT_3D('',#1359,#1360,#1361);
#1359 = CARTESIAN_POINT('',(8.5,8.5,0.4));
#1360 = DIRECTION('',(0.,0.,1.));
#1361 = DIRECTION('',(1.,0.,0.));
#1362 = ADVANCED_FACE('',(#1363),#1366,.F.);
#1363 = FACE_BOUND('',#1364,.T.);
#1364 = EDGE_LOOP('',(#1365));
#1365 = ORIENTED_EDGE('',*,*,#1017,.T.);
#1366 = PLANE('',#1367);
#1367 = AXIS2_PLACEMENT_3D('',#1368,#1369,#1370);
#1368 = CARTESIAN_POINT('',(8.5,8.5,0.4));
#1369 = DIRECTION('',(0.,0.,1.));
#1370 = DIRECTION('',(1.,0.,0.));
#1371 = ADVANCED_FACE('',(#1372),#1397,.T.);
#1372 = FACE_BOUND('',#1373,.T.);
#1373 = EDGE_LOOP('',(#1374,#1382,#1383,#1391));
#1374 = ORIENTED_EDGE('',*,*,#1375,.T.);
#1375 = EDGE_CURVE('',#1376,#1041,#1378,.T.);
#1376 = VERTEX_POINT('',#1377);
#1377 = CARTESIAN_POINT('',(1.,16.,1.));
#1378 = LINE('',#1379,#1380);
#1379 = CARTESIAN_POINT('',(1.,16.,0.));
#1380 = VECTOR('',#1381,1.);
#1381 = DIRECTION('',(0.,0.,1.));
#1382 = ORIENTED_EDGE('',*,*,#1040,.T.);
#1383 = ORIENTED_EDGE('',*,*,#1384,.T.);
#1384 = EDGE_CURVE('',#1043,#1385,#1387,.T.);
#1385 = VERTEX_POINT('',#1386);
#1386 = CARTESIAN_POINT('',(1.,1.,1.));
#1387 = LINE('',#1388,#1389);
#1388 = CARTESIAN_POINT('',(1.,1.,0.));
#1389 = VECTOR('',#1390,1.);
#1390 = DIRECTION('',(0.,0.,-1.));
#1391 = ORIENTED_EDGE('',*,*,#1392,.F.);
#1392 = EDGE_CURVE('',#1376,#1385,#1393,.T.);
#1393 = LINE('',#1394,#1395);
#1394 = CARTESIAN_POINT('',(1.,12.75,1.));
#1395 = VECTOR('',#1396,1.);
#1396 = DIRECTION('',(0.,-1.,0.));
#1397 = PLANE('',#1398);
#1398 = AXIS2_PLACEMENT_3D('',#1399,#1400,#1401);
#1399 = CARTESIAN_POINT('',(1.,17.,0.));
#1400 = DIRECTION('',(1.,0.,0.));
#1401 = DIRECTION('',(0.,-1.,0.));
#1402 = ADVANCED_FACE('',(#1403),#1421,.T.);
#1403 = FACE_BOUND('',#1404,.T.);
#1404 = EDGE_LOOP('',(#1405,#1406,#1407,#1415));
#1405 = ORIENTED_EDGE('',*,*,#1384,.F.);
#1406 = ORIENTED_EDGE('',*,*,#1050,.T.);
#1407 = ORIENTED_EDGE('',*,*,#1408,.F.);
#1408 = EDGE_CURVE('',#1409,#1051,#1411,.T.);
#1409 = VERTEX_POINT('',#1410);
#1410 = CARTESIAN_POINT('',(16.,1.,1.));
#1411 = LINE('',#1412,#1413);
#1412 = CARTESIAN_POINT('',(16.,1.,0.));
#1413 = VECTOR('',#1414,1.);
#1414 = DIRECTION('',(0.,0.,1.));
#1415 = ORIENTED_EDGE('',*,*,#1416,.F.);
#1416 = EDGE_CURVE('',#1385,#1409,#1417,.T.);
#1417 = LINE('',#1418,#1419);
#1418 = CARTESIAN_POINT('',(4.25,1.,1.));
#1419 = VECTOR('',#1420,1.);
#1420 = DIRECTION('',(1.,0.,0.));
#1421 = PLANE('',#1422);
#1422 = AXIS2_PLACEMENT_3D('',#1423,#1424,#1425);
#1423 = CARTESIAN_POINT('',(0.,1.,0.));
#1424 = DIRECTION('',(0.,1.,0.));
#1425 = DIRECTION('',(1.,0.,0.));
#1426 = ADVANCED_FACE('',(#1427),#1445,.T.);
#1427 = FACE_BOUND('',#1428,.T.);
#1428 = EDGE_LOOP('',(#1429,#1430,#1431,#1439));
#1429 = ORIENTED_EDGE('',*,*,#1408,.T.);
#1430 = ORIENTED_EDGE('',*,*,#1058,.T.);
#1431 = ORIENTED_EDGE('',*,*,#1432,.F.);
#1432 = EDGE_CURVE('',#1433,#1059,#1435,.T.);
#1433 = VERTEX_POINT('',#1434);
#1434 = CARTESIAN_POINT('',(16.,16.,1.));
#1435 = LINE('',#1436,#1437);
#1436 = CARTESIAN_POINT('',(16.,16.,0.));
#1437 = VECTOR('',#1438,1.);
#1438 = DIRECTION('',(0.,0.,1.));
#1439 = ORIENTED_EDGE('',*,*,#1440,.F.);
#1440 = EDGE_CURVE('',#1409,#1433,#1441,.T.);
#1441 = LINE('',#1442,#1443);
#1442 = CARTESIAN_POINT('',(16.,4.25,1.));
#1443 = VECTOR('',#1444,1.);
#1444 = DIRECTION('',(0.,1.,0.));
#1445 = PLANE('',#1446);
#1446 = AXIS2_PLACEMENT_3D('',#1447,#1448,#1449);
#1447 = CARTESIAN_POINT('',(16.,0.,0.));
#1448 = DIRECTION('',(-1.,0.,0.));
#1449 = DIRECTION('',(0.,1.,0.));
#1450 = ADVANCED_FACE('',(#1451),#1462,.T.);
#1451 = FACE_BOUND('',#1452,.T.);
#1452 = EDGE_LOOP('',(#1453,#1454,#1455,#1456));
#1453 = ORIENTED_EDGE('',*,*,#1432,.T.);
#1454 = ORIENTED_EDGE('',*,*,#1066,.T.);
#1455 = ORIENTED_EDGE('',*,*,#1375,.F.);
#1456 = ORIENTED_EDGE('',*,*,#1457,.F.);
#1457 = EDGE_CURVE('',#1433,#1376,#1458,.T.);
#1458 = LINE('',#1459,#1460);
#1459 = CARTESIAN_POINT('',(12.75,16.,1.));
#1460 = VECTOR('',#1461,1.);
#1461 = DIRECTION('',(-1.,0.,0.));
#1462 = PLANE('',#1463);
#1463 = AXIS2_PLACEMENT_3D('',#1464,#1465,#1466);
#1464 = CARTESIAN_POINT('',(17.,16.,0.));
#1465 = DIRECTION('',(0.,-1.,0.));
#1466 = DIRECTION('',(-1.,0.,0.));
#1467 = ADVANCED_FACE('',(#1468),#1471,.T.);
#1468 = FACE_BOUND('',#1469,.T.);
#1469 = EDGE_LOOP('',(#1470));
#1470 = ORIENTED_EDGE('',*,*,#1088,.T.);
#1471 = PLANE('',#1472);
#1472 = AXIS2_PLACEMENT_3D('',#1473,#1474,#1475);
#1473 = CARTESIAN_POINT('',(16.6,8.5,8.5));
#1474 = DIRECTION('',(1.,0.,0.));
#1475 = DIRECTION('',(0.,0.,1.));
#1476 = ADVANCED_FACE('',(#1477),#1480,.T.);
#1477 = FACE_BOUND('',#1478,.T.);
#1478 = EDGE_LOOP('',(#1479));
#1479 = ORIENTED_EDGE('',*,*,#1113,.T.);
#1480 = PLANE('',#1481);
#1481 = AXIS2_PLACEMENT_3D('',#1482,#1483,#1484);
#1482 = CARTESIAN_POINT('',(16.6,8.5,8.5));
#1483 = DIRECTION('',(1.,0.,0.));
#1484 = DIRECTION('',(0.,0.,1.));
#1485 = ADVANCED_FACE('',(#1486),#1489,.T.);
#1486 = FACE_BOUND('',#1487,.T.);
#1487 = EDGE_LOOP('',(#1488));
#1488 = ORIENTED_EDGE('',*,*,#1138,.T.);
#1489 = PLANE('',#1490);
#1490 = AXIS2_PLACEMENT_3D('',#1491,#1492,#1493);
#1491 = CARTESIAN_POINT('',(16.6,8.5,8.5));
#1492 = DIRECTION('',(1.,0.,0.));
#1493 = DIRECTION('',(0.,0.,1.));
#1494 = ADVANCED_FACE('',(#1495),#1498,.T.);
#1495 = FACE_BOUND('',#1496,.T.);
#1496 = EDGE_LOOP('',(#1497));
#1497 = ORIENTED_EDGE('',*,*,#1163,.T.);
#1498 = PLANE('',#1499);
#1499 = AXIS2_PLACEMENT_3D('',#1500,#1501,#1502);
#1500 = CARTESIAN_POINT('',(16.6,8.5,8.5));
#1501 = DIRECTION('',(1.,0.,0.));
#1502 = DIRECTION('',(0.,0.,1.));
#1503 = ADVANCED_FACE('',(#1504),#1507,.T.);
#1504 = FACE_BOUND('',#1505,.T.);
#1505 = EDGE_LOOP('',(#1506));
#1506 = ORIENTED_EDGE('',*,*,#1188,.T.);
#1507 = PLANE('',#1508);
#1508 = AXIS2_PLACEMENT_3D('',#1509,#1510,#1511);
#1509 = CARTESIAN_POINT('',(16.6,8.5,8.5));
#1510 = DIRECTION('',(1.,0.,0.));
#1511 = DIRECTION('',(0.,0.,1.));
#1512 = ADVANCED_FACE('',(#1513),#1516,.T.);
#1513 = FACE_BOUND('',#1514,.T.);
#1514 = EDGE_LOOP('',(#1515));
#1515 = ORIENTED_EDGE('',*,*,#1213,.T.);
#1516 = PLANE('',#1517);
#1517 = AXIS2_PLACEMENT_3D('',#1518,#1519,#1520);
#1518 = CARTESIAN_POINT('',(16.6,8.5,8.5));
#1519 = DIRECTION('',(1.,0.,0.));
#1520 = DIRECTION('',(0.,0.,1.));
#1521 = ADVANCED_FACE('',(#1522),#1525,.T.);
#1522 = FACE_BOUND('',#1523,.T.);
#1523 = EDGE_LOOP('',(#1524));
#1524 = ORIENTED_EDGE('',*,*,#1265,.T.);
#1525 = PLANE('',#1526);
#1526 = AXIS2_PLACEMENT_3D('',#1527,#1528,#1529);
#1527 = CARTESIAN_POINT('',(8.5,16.6,8.5));
#1528 = DIRECTION('',(0.,1.,-3.2E-16));
#1529 = DIRECTION('',(0.,3.2E-16,1.));
#1530 = ADVANCED_FACE('',(#1531),#1534,.T.);
#1531 = FACE_BOUND('',#1532,.T.);
#1532 = EDGE_LOOP('',(#1533));
#1533 = ORIENTED_EDGE('',*,*,#1290,.T.);
#1534 = PLANE('',#1535);
#1535 = AXIS2_PLACEMENT_3D('',#1536,#1537,#1538);
#1536 = CARTESIAN_POINT('',(8.5,16.6,8.5));
#1537 = DIRECTION('',(0.,1.,-3.2E-16));
#1538 = DIRECTION('',(0.,3.2E-16,1.));
#1539 = ADVANCED_FACE('',(#1540),#1543,.T.);
#1540 = FACE_BOUND('',#1541,.T.);
#1541 = EDGE_LOOP('',(#1542));
#1542 = ORIENTED_EDGE('',*,*,#1315,.T.);
#1543 = PLANE('',#1544);
#1544 = AXIS2_PLACEMENT_3D('',#1545,#1546,#1547);
#1545 = CARTESIAN_POINT('',(8.5,16.6,8.5));
#1546 = DIRECTION('',(0.,1.,-3.2E-16));
#1547 = DIRECTION('',(0.,3.2E-16,1.));
#1548 = ADVANCED_FACE('',(#1549),#1552,.T.);
#1549 = FACE_BOUND('',#1550,.T.);
#1550 = EDGE_LOOP('',(#1551));
#1551 = ORIENTED_EDGE('',*,*,#1340,.T.);
#1552 = PLANE('',#1553);
#1553 = AXIS2_PLACEMENT_3D('',#1554,#1555,#1556);
#1554 = CARTESIAN_POINT('',(8.5,16.6,8.5));
#1555 = DIRECTION('',(0.,1.,-3.2E-16));
#1556 = DIRECTION('',(0.,3.2E-16,1.));
#1557 = ADVANCED_FACE('',(#1558),#1564,.T.);
#1558 = FACE_BOUND('',#1559,.T.);
#1559 = EDGE_LOOP('',(#1560,#1561,#1562,#1563));
#1560 = ORIENTED_EDGE('',*,*,#1416,.T.);
#1561 = ORIENTED_EDGE('',*,*,#1440,.T.);
#1562 = ORIENTED_EDGE('',*,*,#1457,.T.);
#1563 = ORIENTED_EDGE('',*,*,#1392,.T.);
#1564 = PLANE('',#1565);
#1565 = AXIS2_PLACEMENT_3D('',#1566,#1567,#1568);
#1566 = CARTESIAN_POINT('',(8.5,8.5,1.));
#1567 = DIRECTION('',(0.,0.,1.));
#1568 = DIRECTION('',(1.,0.,0.));
#1569 = ( GEOMETRIC_REPRESENTATION_CONTEXT(3) 
GLOBAL_UNCERTAINTY_ASSIGNED_CONTEXT((#1573)) 
GLOBAL_UNIT_ASSIGNED_CONTEXT((#1570,#1571,#1572)) REPRESENTATION_CONTEXT
('Context #1','3D Context with UNIT and UNCERTAINTY') );
#1570 = ( LENGTH_UNIT() NAMED_UNIT(*) SI_UNIT(.MILLI.,.METRE.) );
#1571 = ( NAMED_UNIT(*) PLANE_ANGLE_UNIT() SI_UNIT($,.RADIAN.) );
#1572 = ( NAMED_UNIT(*) SI_UNIT($,.STERADIAN.) SOLID_ANGLE_UNIT() );
#1573 = UNCERTAINTY_MEASURE_WITH_UNIT(LENGTH_MEASURE(1.E-07),#1570,
  'distance_accuracy_value','confusion accuracy');
#1574 = PRODUCT_RELATED_PRODUCT_CATEGORY('part',$,(#7));
#1575 = MECHANICAL_DESIGN_GEOMETRIC_PRESENTATION_REPRESENTATION('',(
    #1576),#1569);
#1576 = STYLED_ITEM('color',(#1577),#15);
#1577 = PRESENTATION_STYLE_ASSIGNMENT((#1578,#1584));
#1578 = SURFACE_STYLE_USAGE(.BOTH.,#1579);
#1579 = SURFACE_SIDE_STYLE('',(#1580));
#1580 = SURFACE_STYLE_FILL_AREA(#1581);
#1581 = FILL_AREA_STYLE('',(#1582));
#1582 = FILL_AREA_STYLE_COLOUR('',#1583);
#1583 = COLOUR_RGB('',0.447058818107,0.474509808674,0.501960817233);
#1584 = CURVE_STYLE('',#1585,POSITIVE_LENGTH_MEASURE(0.1),#1586);
#1585 = DRAUGHTING_PRE_DEFINED_CURVE_FONT('continuous');
#1586 = COLOUR_RGB('',9.803921802644E-02,9.803921802644E-02,
  9.803921802644E-02);
ENDSEC;
END-ISO-10303-21;
