ISO-10303-21;
HEADER;
FILE_DESCRIPTION(('FreeCAD Model'),'2;1');
FILE_NAME('Open CASCADE Shape Model','2025-05-13T23:43:15',(''),(''),
  'Open CASCADE STEP processor 7.8','FreeCAD','Unknown');
FILE_SCHEMA(('AUTOMOTIVE_DESIGN { 1 0 10303 214 1 1 1 1 }'));
ENDSEC;
DATA;
#1 = APPLICATION_PROTOCOL_DEFINITION('international standard',
  'automotive_design',2000,#2);
#2 = APPLICATION_CONTEXT(
  'core data for automotive mechanical design processes');
#3 = SHAPE_DEFINITION_REPRESENTATION(#4,#10);
#4 = PRODUCT_DEFINITION_SHAPE('','',#5);
#5 = PRODUCT_DEFINITION('design','',#6,#9);
#6 = PRODUCT_DEFINITION_FORMATION('','',#7);
#7 = PRODUCT('top','top','',(#8));
#8 = PRODUCT_CONTEXT('',#2,'mechanical');
#9 = PRODUCT_DEFINITION_CONTEXT('part definition',#2,'design');
#10 = ADVANCED_BREP_SHAPE_REPRESENTATION('',(#11,#15),#1817);
#11 = AXIS2_PLACEMENT_3D('',#12,#13,#14);
#12 = CARTESIAN_POINT('',(0.,0.,0.));
#13 = DIRECTION('',(0.,0.,1.));
#14 = DIRECTION('',(1.,0.,-0.));
#15 = MANIFOLD_SOLID_BREP('',#16);
#16 = CLOSED_SHELL('',(#17,#275,#306,#330,#354,#371,#402,#426,#450,#467,
    #498,#522,#546,#563,#594,#618,#642,#659,#690,#714,#738,#755,#786,
    #810,#834,#858,#882,#906,#930,#954,#978,#995,#1026,#1050,#1074,#1091
    ,#1122,#1146,#1170,#1187,#1218,#1242,#1266,#1283,#1314,#1338,#1362,
    #1379,#1410,#1434,#1458,#1475,#1506,#1522,#1538,#1562,#1586,#1602,
    #1618,#1642,#1664,#1675,#1687,#1699,#1711,#1723,#1735,#1758,#1774,
    #1790,#1806));
#17 = ADVANCED_FACE('',(#18,#52,#86,#120,#154,#188),#270,.F.);
#18 = FACE_BOUND('',#19,.F.);
#19 = EDGE_LOOP('',(#20,#30,#38,#46));
#20 = ORIENTED_EDGE('',*,*,#21,.T.);
#21 = EDGE_CURVE('',#22,#24,#26,.T.);
#22 = VERTEX_POINT('',#23);
#23 = CARTESIAN_POINT('',(-10.25,3.5,0.));
#24 = VERTEX_POINT('',#25);
#25 = CARTESIAN_POINT('',(-10.25,-3.5,0.));
#26 = LINE('',#27,#28);
#27 = CARTESIAN_POINT('',(-10.25,3.25,0.));
#28 = VECTOR('',#29,1.);
#29 = DIRECTION('',(0.,-1.,0.));
#30 = ORIENTED_EDGE('',*,*,#31,.T.);
#31 = EDGE_CURVE('',#24,#32,#34,.T.);
#32 = VERTEX_POINT('',#33);
#33 = CARTESIAN_POINT('',(-13.25,-3.5,-1.E-15));
#34 = LINE('',#35,#36);
#35 = CARTESIAN_POINT('',(-10.5,-3.5,0.));
#36 = VECTOR('',#37,1.);
#37 = DIRECTION('',(-1.,0.,0.));
#38 = ORIENTED_EDGE('',*,*,#39,.T.);
#39 = EDGE_CURVE('',#32,#40,#42,.T.);
#40 = VERTEX_POINT('',#41);
#41 = CARTESIAN_POINT('',(-13.25,3.5,0.));
#42 = LINE('',#43,#44);
#43 = CARTESIAN_POINT('',(-13.25,-3.25,0.));
#44 = VECTOR('',#45,1.);
#45 = DIRECTION('',(0.,1.,0.));
#46 = ORIENTED_EDGE('',*,*,#47,.T.);
#47 = EDGE_CURVE('',#40,#22,#48,.T.);
#48 = LINE('',#49,#50);
#49 = CARTESIAN_POINT('',(-13.,3.5,0.));
#50 = VECTOR('',#51,1.);
#51 = DIRECTION('',(1.,0.,0.));
#52 = FACE_BOUND('',#53,.F.);
#53 = EDGE_LOOP('',(#54,#64,#72,#80));
#54 = ORIENTED_EDGE('',*,*,#55,.T.);
#55 = EDGE_CURVE('',#56,#58,#60,.T.);
#56 = VERTEX_POINT('',#57);
#57 = CARTESIAN_POINT('',(-3.5,-13.25,0.));
#58 = VERTEX_POINT('',#59);
#59 = CARTESIAN_POINT('',(-3.5,-10.25,0.));
#60 = LINE('',#61,#62);
#61 = CARTESIAN_POINT('',(-3.5,-13.,0.));
#62 = VECTOR('',#63,1.);
#63 = DIRECTION('',(0.,1.,0.));
#64 = ORIENTED_EDGE('',*,*,#65,.T.);
#65 = EDGE_CURVE('',#58,#66,#68,.T.);
#66 = VERTEX_POINT('',#67);
#67 = CARTESIAN_POINT('',(3.5,-10.25,0.));
#68 = LINE('',#69,#70);
#69 = CARTESIAN_POINT('',(-3.25,-10.25,0.));
#70 = VECTOR('',#71,1.);
#71 = DIRECTION('',(1.,0.,0.));
#72 = ORIENTED_EDGE('',*,*,#73,.T.);
#73 = EDGE_CURVE('',#66,#74,#76,.T.);
#74 = VERTEX_POINT('',#75);
#75 = CARTESIAN_POINT('',(3.5,-13.25,0.));
#76 = LINE('',#77,#78);
#77 = CARTESIAN_POINT('',(3.5,-10.5,0.));
#78 = VECTOR('',#79,1.);
#79 = DIRECTION('',(0.,-1.,0.));
#80 = ORIENTED_EDGE('',*,*,#81,.T.);
#81 = EDGE_CURVE('',#74,#56,#82,.T.);
#82 = LINE('',#83,#84);
#83 = CARTESIAN_POINT('',(3.25,-13.25,0.));
#84 = VECTOR('',#85,1.);
#85 = DIRECTION('',(-1.,0.,0.));
#86 = FACE_BOUND('',#87,.F.);
#87 = EDGE_LOOP('',(#88,#98,#106,#114));
#88 = ORIENTED_EDGE('',*,*,#89,.T.);
#89 = EDGE_CURVE('',#90,#92,#94,.T.);
#90 = VERTEX_POINT('',#91);
#91 = CARTESIAN_POINT('',(-3.5,10.25,0.));
#92 = VERTEX_POINT('',#93);
#93 = CARTESIAN_POINT('',(-3.5,13.25,0.));
#94 = LINE('',#95,#96);
#95 = CARTESIAN_POINT('',(-3.5,10.5,0.));
#96 = VECTOR('',#97,1.);
#97 = DIRECTION('',(0.,1.,0.));
#98 = ORIENTED_EDGE('',*,*,#99,.T.);
#99 = EDGE_CURVE('',#92,#100,#102,.T.);
#100 = VERTEX_POINT('',#101);
#101 = CARTESIAN_POINT('',(3.5,13.25,0.));
#102 = LINE('',#103,#104);
#103 = CARTESIAN_POINT('',(-3.25,13.25,0.));
#104 = VECTOR('',#105,1.);
#105 = DIRECTION('',(1.,0.,0.));
#106 = ORIENTED_EDGE('',*,*,#107,.T.);
#107 = EDGE_CURVE('',#100,#108,#110,.T.);
#108 = VERTEX_POINT('',#109);
#109 = CARTESIAN_POINT('',(3.5,10.25,0.));
#110 = LINE('',#111,#112);
#111 = CARTESIAN_POINT('',(3.5,13.,0.));
#112 = VECTOR('',#113,1.);
#113 = DIRECTION('',(0.,-1.,0.));
#114 = ORIENTED_EDGE('',*,*,#115,.T.);
#115 = EDGE_CURVE('',#108,#90,#116,.T.);
#116 = LINE('',#117,#118);
#117 = CARTESIAN_POINT('',(3.25,10.25,0.));
#118 = VECTOR('',#119,1.);
#119 = DIRECTION('',(-1.,0.,0.));
#120 = FACE_BOUND('',#121,.F.);
#121 = EDGE_LOOP('',(#122,#132,#140,#148));
#122 = ORIENTED_EDGE('',*,*,#123,.T.);
#123 = EDGE_CURVE('',#124,#126,#128,.T.);
#124 = VERTEX_POINT('',#125);
#125 = CARTESIAN_POINT('',(10.25,-3.5,0.));
#126 = VERTEX_POINT('',#127);
#127 = CARTESIAN_POINT('',(10.25,3.5,0.));
#128 = LINE('',#129,#130);
#129 = CARTESIAN_POINT('',(10.25,-3.25,0.));
#130 = VECTOR('',#131,1.);
#131 = DIRECTION('',(0.,1.,0.));
#132 = ORIENTED_EDGE('',*,*,#133,.T.);
#133 = EDGE_CURVE('',#126,#134,#136,.T.);
#134 = VERTEX_POINT('',#135);
#135 = CARTESIAN_POINT('',(13.25,3.5,0.));
#136 = LINE('',#137,#138);
#137 = CARTESIAN_POINT('',(10.5,3.5,0.));
#138 = VECTOR('',#139,1.);
#139 = DIRECTION('',(1.,0.,0.));
#140 = ORIENTED_EDGE('',*,*,#141,.T.);
#141 = EDGE_CURVE('',#134,#142,#144,.T.);
#142 = VERTEX_POINT('',#143);
#143 = CARTESIAN_POINT('',(13.25,-3.5,-1.E-15));
#144 = LINE('',#145,#146);
#145 = CARTESIAN_POINT('',(13.25,3.25,0.));
#146 = VECTOR('',#147,1.);
#147 = DIRECTION('',(0.,-1.,0.));
#148 = ORIENTED_EDGE('',*,*,#149,.T.);
#149 = EDGE_CURVE('',#142,#124,#150,.T.);
#150 = LINE('',#151,#152);
#151 = CARTESIAN_POINT('',(13.,-3.5,0.));
#152 = VECTOR('',#153,1.);
#153 = DIRECTION('',(-1.,0.,0.));
#154 = FACE_BOUND('',#155,.F.);
#155 = EDGE_LOOP('',(#156,#166,#174,#182));
#156 = ORIENTED_EDGE('',*,*,#157,.T.);
#157 = EDGE_CURVE('',#158,#160,#162,.T.);
#158 = VERTEX_POINT('',#159);
#159 = CARTESIAN_POINT('',(-8.95,-8.95,0.));
#160 = VERTEX_POINT('',#161);
#161 = CARTESIAN_POINT('',(-8.95,8.95,0.));
#162 = LINE('',#163,#164);
#163 = CARTESIAN_POINT('',(-8.95,-8.7,0.));
#164 = VECTOR('',#165,1.);
#165 = DIRECTION('',(0.,1.,0.));
#166 = ORIENTED_EDGE('',*,*,#167,.T.);
#167 = EDGE_CURVE('',#160,#168,#170,.T.);
#168 = VERTEX_POINT('',#169);
#169 = CARTESIAN_POINT('',(8.95,8.95,0.));
#170 = LINE('',#171,#172);
#171 = CARTESIAN_POINT('',(-8.7,8.95,0.));
#172 = VECTOR('',#173,1.);
#173 = DIRECTION('',(1.,0.,0.));
#174 = ORIENTED_EDGE('',*,*,#175,.T.);
#175 = EDGE_CURVE('',#168,#176,#178,.T.);
#176 = VERTEX_POINT('',#177);
#177 = CARTESIAN_POINT('',(8.95,-8.95,0.));
#178 = LINE('',#179,#180);
#179 = CARTESIAN_POINT('',(8.95,8.7,0.));
#180 = VECTOR('',#181,1.);
#181 = DIRECTION('',(0.,-1.,0.));
#182 = ORIENTED_EDGE('',*,*,#183,.T.);
#183 = EDGE_CURVE('',#176,#158,#184,.T.);
#184 = LINE('',#185,#186);
#185 = CARTESIAN_POINT('',(8.7,-8.95,0.));
#186 = VECTOR('',#187,1.);
#187 = DIRECTION('',(-1.,0.,0.));
#188 = FACE_BOUND('',#189,.F.);
#189 = EDGE_LOOP('',(#190,#200,#208,#216,#224,#232,#240,#248,#256,#264)
  );
#190 = ORIENTED_EDGE('',*,*,#191,.F.);
#191 = EDGE_CURVE('',#192,#194,#196,.T.);
#192 = VERTEX_POINT('',#193);
#193 = CARTESIAN_POINT('',(9.345491502813,12.862965542388,0.));
#194 = VERTEX_POINT('',#195);
#195 = CARTESIAN_POINT('',(15.121322893124,4.913215641074,0.));
#196 = LINE('',#197,#198);
#197 = CARTESIAN_POINT('',(9.297745751406,12.928681931403,0.));
#198 = VECTOR('',#199,1.);
#199 = DIRECTION('',(0.587785252292,-0.809016994375,0.));
#200 = ORIENTED_EDGE('',*,*,#201,.T.);
#201 = EDGE_CURVE('',#192,#202,#204,.T.);
#202 = VERTEX_POINT('',#203);
#203 = CARTESIAN_POINT('',(-4.E-15,15.899499802629,0.));
#204 = LINE('',#205,#206);
#205 = CARTESIAN_POINT('',(9.422745751406,12.837864115402,2.2E-16));
#206 = VECTOR('',#207,1.);
#207 = DIRECTION('',(-0.951056516295,0.309016994375,0.));
#208 = ORIENTED_EDGE('',*,*,#209,.F.);
#209 = EDGE_CURVE('',#210,#202,#212,.T.);
#210 = VERTEX_POINT('',#211);
#211 = CARTESIAN_POINT('',(-9.345491502813,12.862965542388,2.E-15));
#212 = LINE('',#213,#214);
#213 = CARTESIAN_POINT('',(-9.422745751406,12.837864115402,0.));
#214 = VECTOR('',#215,1.);
#215 = DIRECTION('',(0.951056516295,0.309016994375,0.));
#216 = ORIENTED_EDGE('',*,*,#217,.T.);
#217 = EDGE_CURVE('',#210,#218,#220,.T.);
#218 = VERTEX_POINT('',#219);
#219 = CARTESIAN_POINT('',(-15.12132289312,4.913215641074,0.));
#220 = LINE('',#221,#222);
#221 = CARTESIAN_POINT('',(-9.297745751406,12.928681931403,2.2E-16));
#222 = VECTOR('',#223,1.);
#223 = DIRECTION('',(-0.587785252292,-0.809016994375,0.));
#224 = ORIENTED_EDGE('',*,*,#225,.F.);
#225 = EDGE_CURVE('',#226,#218,#228,.T.);
#226 = VERTEX_POINT('',#227);
#227 = CARTESIAN_POINT('',(-15.12132289312,-4.913215641074,0.));
#228 = LINE('',#229,#230);
#229 = CARTESIAN_POINT('',(-15.12132289312,-4.994445565132,0.));
#230 = VECTOR('',#231,1.);
#231 = DIRECTION('',(3.6E-16,1.,0.));
#232 = ORIENTED_EDGE('',*,*,#233,.T.);
#233 = EDGE_CURVE('',#226,#234,#236,.T.);
#234 = VERTEX_POINT('',#235);
#235 = CARTESIAN_POINT('',(-9.345491502813,-12.86296554238,1.E-15));
#236 = LINE('',#237,#238);
#237 = CARTESIAN_POINT('',(-15.16906864453,-4.847499252059,2.2E-16));
#238 = VECTOR('',#239,1.);
#239 = DIRECTION('',(0.587785252292,-0.809016994375,0.));
#240 = ORIENTED_EDGE('',*,*,#241,.F.);
#241 = EDGE_CURVE('',#242,#234,#244,.T.);
#242 = VERTEX_POINT('',#243);
#243 = CARTESIAN_POINT('',(2.E-15,-15.89949980262,1.E-15));
#244 = LINE('',#245,#246);
#245 = CARTESIAN_POINT('',(7.725424859373E-02,-15.92460122961,0.));
#246 = VECTOR('',#247,1.);
#247 = DIRECTION('',(-0.951056516295,0.309016994375,0.));
#248 = ORIENTED_EDGE('',*,*,#249,.T.);
#249 = EDGE_CURVE('',#242,#250,#252,.T.);
#250 = VERTEX_POINT('',#251);
#251 = CARTESIAN_POINT('',(9.345491502813,-12.86296554238,0.));
#252 = LINE('',#253,#254);
#253 = CARTESIAN_POINT('',(-7.725424859374E-02,-15.92460122961,0.));
#254 = VECTOR('',#255,1.);
#255 = DIRECTION('',(0.951056516295,0.309016994375,0.));
#256 = ORIENTED_EDGE('',*,*,#257,.F.);
#257 = EDGE_CURVE('',#258,#250,#260,.T.);
#258 = VERTEX_POINT('',#259);
#259 = CARTESIAN_POINT('',(15.121322893124,-4.913215641074,0.));
#260 = LINE('',#261,#262);
#261 = CARTESIAN_POINT('',(15.16906864453,-4.847499252059,-2.2E-16));
#262 = VECTOR('',#263,1.);
#263 = DIRECTION('',(-0.587785252292,-0.809016994375,0.));
#264 = ORIENTED_EDGE('',*,*,#265,.T.);
#265 = EDGE_CURVE('',#258,#194,#266,.T.);
#266 = LINE('',#267,#268);
#267 = CARTESIAN_POINT('',(15.121322893124,-4.994445565132,0.));
#268 = VECTOR('',#269,1.);
#269 = DIRECTION('',(1.8E-16,1.,0.));
#270 = PLANE('',#271);
#271 = AXIS2_PLACEMENT_3D('',#272,#273,#274);
#272 = CARTESIAN_POINT('',(0.,7.5E-16,0.));
#273 = DIRECTION('',(0.,0.,1.));
#274 = DIRECTION('',(1.,0.,0.));
#275 = ADVANCED_FACE('',(#276),#301,.T.);
#276 = FACE_BOUND('',#277,.T.);
#277 = EDGE_LOOP('',(#278,#286,#287,#295));
#278 = ORIENTED_EDGE('',*,*,#279,.F.);
#279 = EDGE_CURVE('',#22,#280,#282,.T.);
#280 = VERTEX_POINT('',#281);
#281 = CARTESIAN_POINT('',(-10.5,3.25,0.25));
#282 = LINE('',#283,#284);
#283 = CARTESIAN_POINT('',(-10.83333333333,2.916666666667,0.583333333333
    ));
#284 = VECTOR('',#285,1.);
#285 = DIRECTION('',(-0.57735026919,-0.57735026919,0.57735026919));
#286 = ORIENTED_EDGE('',*,*,#21,.T.);
#287 = ORIENTED_EDGE('',*,*,#288,.T.);
#288 = EDGE_CURVE('',#24,#289,#291,.T.);
#289 = VERTEX_POINT('',#290);
#290 = CARTESIAN_POINT('',(-10.5,-3.25,0.25));
#291 = LINE('',#292,#293);
#292 = CARTESIAN_POINT('',(-11.5,-2.25,1.25));
#293 = VECTOR('',#294,1.);
#294 = DIRECTION('',(-0.57735026919,0.57735026919,0.57735026919));
#295 = ORIENTED_EDGE('',*,*,#296,.F.);
#296 = EDGE_CURVE('',#280,#289,#297,.T.);
#297 = LINE('',#298,#299);
#298 = CARTESIAN_POINT('',(-10.5,3.25,0.25));
#299 = VECTOR('',#300,1.);
#300 = DIRECTION('',(0.,-1.,0.));
#301 = PLANE('',#302);
#302 = AXIS2_PLACEMENT_3D('',#303,#304,#305);
#303 = CARTESIAN_POINT('',(-10.375,3.25,0.125));
#304 = DIRECTION('',(-0.707106781187,0.,-0.707106781187));
#305 = DIRECTION('',(0.,-1.,0.));
#306 = ADVANCED_FACE('',(#307),#325,.T.);
#307 = FACE_BOUND('',#308,.T.);
#308 = EDGE_LOOP('',(#309,#317,#318,#319));
#309 = ORIENTED_EDGE('',*,*,#310,.F.);
#310 = EDGE_CURVE('',#40,#311,#313,.T.);
#311 = VERTEX_POINT('',#312);
#312 = CARTESIAN_POINT('',(-13.,3.25,0.25));
#313 = LINE('',#314,#315);
#314 = CARTESIAN_POINT('',(-12.,2.25,1.25));
#315 = VECTOR('',#316,1.);
#316 = DIRECTION('',(0.57735026919,-0.57735026919,0.57735026919));
#317 = ORIENTED_EDGE('',*,*,#47,.T.);
#318 = ORIENTED_EDGE('',*,*,#279,.T.);
#319 = ORIENTED_EDGE('',*,*,#320,.F.);
#320 = EDGE_CURVE('',#311,#280,#321,.T.);
#321 = LINE('',#322,#323);
#322 = CARTESIAN_POINT('',(-13.,3.25,0.25));
#323 = VECTOR('',#324,1.);
#324 = DIRECTION('',(1.,0.,0.));
#325 = PLANE('',#326);
#326 = AXIS2_PLACEMENT_3D('',#327,#328,#329);
#327 = CARTESIAN_POINT('',(-13.,3.375,0.125));
#328 = DIRECTION('',(0.,-0.707106781187,-0.707106781187));
#329 = DIRECTION('',(1.,0.,0.));
#330 = ADVANCED_FACE('',(#331),#349,.T.);
#331 = FACE_BOUND('',#332,.T.);
#332 = EDGE_LOOP('',(#333,#334,#335,#343));
#333 = ORIENTED_EDGE('',*,*,#288,.F.);
#334 = ORIENTED_EDGE('',*,*,#31,.T.);
#335 = ORIENTED_EDGE('',*,*,#336,.T.);
#336 = EDGE_CURVE('',#32,#337,#339,.T.);
#337 = VERTEX_POINT('',#338);
#338 = CARTESIAN_POINT('',(-13.,-3.25,0.25));
#339 = LINE('',#340,#341);
#340 = CARTESIAN_POINT('',(-12.66666666666,-2.916666666667,
    0.583333333333));
#341 = VECTOR('',#342,1.);
#342 = DIRECTION('',(0.57735026919,0.57735026919,0.57735026919));
#343 = ORIENTED_EDGE('',*,*,#344,.F.);
#344 = EDGE_CURVE('',#289,#337,#345,.T.);
#345 = LINE('',#346,#347);
#346 = CARTESIAN_POINT('',(-10.5,-3.25,0.25));
#347 = VECTOR('',#348,1.);
#348 = DIRECTION('',(-1.,0.,0.));
#349 = PLANE('',#350);
#350 = AXIS2_PLACEMENT_3D('',#351,#352,#353);
#351 = CARTESIAN_POINT('',(-10.5,-3.375,0.125));
#352 = DIRECTION('',(0.,0.707106781187,-0.707106781187));
#353 = DIRECTION('',(-1.,0.,0.));
#354 = ADVANCED_FACE('',(#355),#366,.T.);
#355 = FACE_BOUND('',#356,.T.);
#356 = EDGE_LOOP('',(#357,#358,#359,#360));
#357 = ORIENTED_EDGE('',*,*,#336,.F.);
#358 = ORIENTED_EDGE('',*,*,#39,.T.);
#359 = ORIENTED_EDGE('',*,*,#310,.T.);
#360 = ORIENTED_EDGE('',*,*,#361,.F.);
#361 = EDGE_CURVE('',#337,#311,#362,.T.);
#362 = LINE('',#363,#364);
#363 = CARTESIAN_POINT('',(-13.,-3.25,0.25));
#364 = VECTOR('',#365,1.);
#365 = DIRECTION('',(0.,1.,0.));
#366 = PLANE('',#367);
#367 = AXIS2_PLACEMENT_3D('',#368,#369,#370);
#368 = CARTESIAN_POINT('',(-13.125,-3.25,0.125));
#369 = DIRECTION('',(0.707106781187,0.,-0.707106781187));
#370 = DIRECTION('',(0.,1.,0.));
#371 = ADVANCED_FACE('',(#372),#397,.T.);
#372 = FACE_BOUND('',#373,.T.);
#373 = EDGE_LOOP('',(#374,#382,#383,#391));
#374 = ORIENTED_EDGE('',*,*,#375,.F.);
#375 = EDGE_CURVE('',#56,#376,#378,.T.);
#376 = VERTEX_POINT('',#377);
#377 = CARTESIAN_POINT('',(-3.25,-13.,0.25));
#378 = LINE('',#379,#380);
#379 = CARTESIAN_POINT('',(-2.25,-12.,1.25));
#380 = VECTOR('',#381,1.);
#381 = DIRECTION('',(0.57735026919,0.57735026919,0.57735026919));
#382 = ORIENTED_EDGE('',*,*,#55,.T.);
#383 = ORIENTED_EDGE('',*,*,#384,.T.);
#384 = EDGE_CURVE('',#58,#385,#387,.T.);
#385 = VERTEX_POINT('',#386);
#386 = CARTESIAN_POINT('',(-3.25,-10.5,0.25));
#387 = LINE('',#388,#389);
#388 = CARTESIAN_POINT('',(-2.916666666667,-10.83333333333,
    0.583333333333));
#389 = VECTOR('',#390,1.);
#390 = DIRECTION('',(0.57735026919,-0.57735026919,0.57735026919));
#391 = ORIENTED_EDGE('',*,*,#392,.F.);
#392 = EDGE_CURVE('',#376,#385,#393,.T.);
#393 = LINE('',#394,#395);
#394 = CARTESIAN_POINT('',(-3.25,-13.,0.25));
#395 = VECTOR('',#396,1.);
#396 = DIRECTION('',(0.,1.,0.));
#397 = PLANE('',#398);
#398 = AXIS2_PLACEMENT_3D('',#399,#400,#401);
#399 = CARTESIAN_POINT('',(-3.375,-13.,0.125));
#400 = DIRECTION('',(0.707106781187,0.,-0.707106781187));
#401 = DIRECTION('',(0.,1.,0.));
#402 = ADVANCED_FACE('',(#403),#421,.T.);
#403 = FACE_BOUND('',#404,.T.);
#404 = EDGE_LOOP('',(#405,#413,#414,#415));
#405 = ORIENTED_EDGE('',*,*,#406,.F.);
#406 = EDGE_CURVE('',#74,#407,#409,.T.);
#407 = VERTEX_POINT('',#408);
#408 = CARTESIAN_POINT('',(3.25,-13.,0.25));
#409 = LINE('',#410,#411);
#410 = CARTESIAN_POINT('',(2.916666666667,-12.66666666666,0.583333333333
    ));
#411 = VECTOR('',#412,1.);
#412 = DIRECTION('',(-0.57735026919,0.57735026919,0.57735026919));
#413 = ORIENTED_EDGE('',*,*,#81,.T.);
#414 = ORIENTED_EDGE('',*,*,#375,.T.);
#415 = ORIENTED_EDGE('',*,*,#416,.F.);
#416 = EDGE_CURVE('',#407,#376,#417,.T.);
#417 = LINE('',#418,#419);
#418 = CARTESIAN_POINT('',(3.25,-13.,0.25));
#419 = VECTOR('',#420,1.);
#420 = DIRECTION('',(-1.,0.,0.));
#421 = PLANE('',#422);
#422 = AXIS2_PLACEMENT_3D('',#423,#424,#425);
#423 = CARTESIAN_POINT('',(3.25,-13.125,0.125));
#424 = DIRECTION('',(0.,0.707106781187,-0.707106781187));
#425 = DIRECTION('',(-1.,0.,0.));
#426 = ADVANCED_FACE('',(#427),#445,.T.);
#427 = FACE_BOUND('',#428,.T.);
#428 = EDGE_LOOP('',(#429,#430,#431,#439));
#429 = ORIENTED_EDGE('',*,*,#384,.F.);
#430 = ORIENTED_EDGE('',*,*,#65,.T.);
#431 = ORIENTED_EDGE('',*,*,#432,.T.);
#432 = EDGE_CURVE('',#66,#433,#435,.T.);
#433 = VERTEX_POINT('',#434);
#434 = CARTESIAN_POINT('',(3.25,-10.5,0.25));
#435 = LINE('',#436,#437);
#436 = CARTESIAN_POINT('',(2.25,-11.5,1.25));
#437 = VECTOR('',#438,1.);
#438 = DIRECTION('',(-0.57735026919,-0.57735026919,0.57735026919));
#439 = ORIENTED_EDGE('',*,*,#440,.F.);
#440 = EDGE_CURVE('',#385,#433,#441,.T.);
#441 = LINE('',#442,#443);
#442 = CARTESIAN_POINT('',(-3.25,-10.5,0.25));
#443 = VECTOR('',#444,1.);
#444 = DIRECTION('',(1.,0.,0.));
#445 = PLANE('',#446);
#446 = AXIS2_PLACEMENT_3D('',#447,#448,#449);
#447 = CARTESIAN_POINT('',(-3.25,-10.375,0.125));
#448 = DIRECTION('',(0.,-0.707106781187,-0.707106781187));
#449 = DIRECTION('',(1.,0.,0.));
#450 = ADVANCED_FACE('',(#451),#462,.T.);
#451 = FACE_BOUND('',#452,.T.);
#452 = EDGE_LOOP('',(#453,#454,#455,#456));
#453 = ORIENTED_EDGE('',*,*,#432,.F.);
#454 = ORIENTED_EDGE('',*,*,#73,.T.);
#455 = ORIENTED_EDGE('',*,*,#406,.T.);
#456 = ORIENTED_EDGE('',*,*,#457,.F.);
#457 = EDGE_CURVE('',#433,#407,#458,.T.);
#458 = LINE('',#459,#460);
#459 = CARTESIAN_POINT('',(3.25,-10.5,0.25));
#460 = VECTOR('',#461,1.);
#461 = DIRECTION('',(0.,-1.,0.));
#462 = PLANE('',#463);
#463 = AXIS2_PLACEMENT_3D('',#464,#465,#466);
#464 = CARTESIAN_POINT('',(3.375,-10.5,0.125));
#465 = DIRECTION('',(-0.707106781187,0.,-0.707106781187));
#466 = DIRECTION('',(0.,-1.,0.));
#467 = ADVANCED_FACE('',(#468),#493,.T.);
#468 = FACE_BOUND('',#469,.T.);
#469 = EDGE_LOOP('',(#470,#478,#479,#487));
#470 = ORIENTED_EDGE('',*,*,#471,.F.);
#471 = EDGE_CURVE('',#90,#472,#474,.T.);
#472 = VERTEX_POINT('',#473);
#473 = CARTESIAN_POINT('',(-3.25,10.5,0.25));
#474 = LINE('',#475,#476);
#475 = CARTESIAN_POINT('',(-2.25,11.5,1.25));
#476 = VECTOR('',#477,1.);
#477 = DIRECTION('',(0.57735026919,0.57735026919,0.57735026919));
#478 = ORIENTED_EDGE('',*,*,#89,.T.);
#479 = ORIENTED_EDGE('',*,*,#480,.T.);
#480 = EDGE_CURVE('',#92,#481,#483,.T.);
#481 = VERTEX_POINT('',#482);
#482 = CARTESIAN_POINT('',(-3.25,13.,0.25));
#483 = LINE('',#484,#485);
#484 = CARTESIAN_POINT('',(-2.916666666667,12.666666666667,
    0.583333333333));
#485 = VECTOR('',#486,1.);
#486 = DIRECTION('',(0.57735026919,-0.57735026919,0.57735026919));
#487 = ORIENTED_EDGE('',*,*,#488,.F.);
#488 = EDGE_CURVE('',#472,#481,#489,.T.);
#489 = LINE('',#490,#491);
#490 = CARTESIAN_POINT('',(-3.25,10.5,0.25));
#491 = VECTOR('',#492,1.);
#492 = DIRECTION('',(0.,1.,0.));
#493 = PLANE('',#494);
#494 = AXIS2_PLACEMENT_3D('',#495,#496,#497);
#495 = CARTESIAN_POINT('',(-3.375,10.5,0.125));
#496 = DIRECTION('',(0.707106781187,0.,-0.707106781187));
#497 = DIRECTION('',(0.,1.,0.));
#498 = ADVANCED_FACE('',(#499),#517,.T.);
#499 = FACE_BOUND('',#500,.T.);
#500 = EDGE_LOOP('',(#501,#509,#510,#511));
#501 = ORIENTED_EDGE('',*,*,#502,.F.);
#502 = EDGE_CURVE('',#108,#503,#505,.T.);
#503 = VERTEX_POINT('',#504);
#504 = CARTESIAN_POINT('',(3.25,10.5,0.25));
#505 = LINE('',#506,#507);
#506 = CARTESIAN_POINT('',(2.916666666667,10.833333333333,0.583333333333
    ));
#507 = VECTOR('',#508,1.);
#508 = DIRECTION('',(-0.57735026919,0.57735026919,0.57735026919));
#509 = ORIENTED_EDGE('',*,*,#115,.T.);
#510 = ORIENTED_EDGE('',*,*,#471,.T.);
#511 = ORIENTED_EDGE('',*,*,#512,.F.);
#512 = EDGE_CURVE('',#503,#472,#513,.T.);
#513 = LINE('',#514,#515);
#514 = CARTESIAN_POINT('',(3.25,10.5,0.25));
#515 = VECTOR('',#516,1.);
#516 = DIRECTION('',(-1.,0.,0.));
#517 = PLANE('',#518);
#518 = AXIS2_PLACEMENT_3D('',#519,#520,#521);
#519 = CARTESIAN_POINT('',(3.25,10.375,0.125));
#520 = DIRECTION('',(0.,0.707106781187,-0.707106781187));
#521 = DIRECTION('',(-1.,0.,0.));
#522 = ADVANCED_FACE('',(#523),#541,.T.);
#523 = FACE_BOUND('',#524,.T.);
#524 = EDGE_LOOP('',(#525,#526,#527,#535));
#525 = ORIENTED_EDGE('',*,*,#480,.F.);
#526 = ORIENTED_EDGE('',*,*,#99,.T.);
#527 = ORIENTED_EDGE('',*,*,#528,.T.);
#528 = EDGE_CURVE('',#100,#529,#531,.T.);
#529 = VERTEX_POINT('',#530);
#530 = CARTESIAN_POINT('',(3.25,13.,0.25));
#531 = LINE('',#532,#533);
#532 = CARTESIAN_POINT('',(2.25,12.,1.25));
#533 = VECTOR('',#534,1.);
#534 = DIRECTION('',(-0.57735026919,-0.57735026919,0.57735026919));
#535 = ORIENTED_EDGE('',*,*,#536,.F.);
#536 = EDGE_CURVE('',#481,#529,#537,.T.);
#537 = LINE('',#538,#539);
#538 = CARTESIAN_POINT('',(-3.25,13.,0.25));
#539 = VECTOR('',#540,1.);
#540 = DIRECTION('',(1.,0.,0.));
#541 = PLANE('',#542);
#542 = AXIS2_PLACEMENT_3D('',#543,#544,#545);
#543 = CARTESIAN_POINT('',(-3.25,13.125,0.125));
#544 = DIRECTION('',(0.,-0.707106781187,-0.707106781187));
#545 = DIRECTION('',(1.,0.,0.));
#546 = ADVANCED_FACE('',(#547),#558,.T.);
#547 = FACE_BOUND('',#548,.T.);
#548 = EDGE_LOOP('',(#549,#550,#551,#552));
#549 = ORIENTED_EDGE('',*,*,#528,.F.);
#550 = ORIENTED_EDGE('',*,*,#107,.T.);
#551 = ORIENTED_EDGE('',*,*,#502,.T.);
#552 = ORIENTED_EDGE('',*,*,#553,.F.);
#553 = EDGE_CURVE('',#529,#503,#554,.T.);
#554 = LINE('',#555,#556);
#555 = CARTESIAN_POINT('',(3.25,13.,0.25));
#556 = VECTOR('',#557,1.);
#557 = DIRECTION('',(0.,-1.,0.));
#558 = PLANE('',#559);
#559 = AXIS2_PLACEMENT_3D('',#560,#561,#562);
#560 = CARTESIAN_POINT('',(3.375,13.,0.125));
#561 = DIRECTION('',(-0.707106781187,0.,-0.707106781187));
#562 = DIRECTION('',(0.,-1.,0.));
#563 = ADVANCED_FACE('',(#564),#589,.T.);
#564 = FACE_BOUND('',#565,.T.);
#565 = EDGE_LOOP('',(#566,#574,#575,#583));
#566 = ORIENTED_EDGE('',*,*,#567,.F.);
#567 = EDGE_CURVE('',#124,#568,#570,.T.);
#568 = VERTEX_POINT('',#569);
#569 = CARTESIAN_POINT('',(10.5,-3.25,0.25));
#570 = LINE('',#571,#572);
#571 = CARTESIAN_POINT('',(10.833333333333,-2.916666666667,
    0.583333333333));
#572 = VECTOR('',#573,1.);
#573 = DIRECTION('',(0.57735026919,0.57735026919,0.57735026919));
#574 = ORIENTED_EDGE('',*,*,#123,.T.);
#575 = ORIENTED_EDGE('',*,*,#576,.T.);
#576 = EDGE_CURVE('',#126,#577,#579,.T.);
#577 = VERTEX_POINT('',#578);
#578 = CARTESIAN_POINT('',(10.5,3.25,0.25));
#579 = LINE('',#580,#581);
#580 = CARTESIAN_POINT('',(11.5,2.25,1.25));
#581 = VECTOR('',#582,1.);
#582 = DIRECTION('',(0.57735026919,-0.57735026919,0.57735026919));
#583 = ORIENTED_EDGE('',*,*,#584,.F.);
#584 = EDGE_CURVE('',#568,#577,#585,.T.);
#585 = LINE('',#586,#587);
#586 = CARTESIAN_POINT('',(10.5,-3.25,0.25));
#587 = VECTOR('',#588,1.);
#588 = DIRECTION('',(0.,1.,0.));
#589 = PLANE('',#590);
#590 = AXIS2_PLACEMENT_3D('',#591,#592,#593);
#591 = CARTESIAN_POINT('',(10.375,-3.25,0.125));
#592 = DIRECTION('',(0.707106781187,0.,-0.707106781187));
#593 = DIRECTION('',(0.,1.,0.));
#594 = ADVANCED_FACE('',(#595),#613,.T.);
#595 = FACE_BOUND('',#596,.T.);
#596 = EDGE_LOOP('',(#597,#605,#606,#607));
#597 = ORIENTED_EDGE('',*,*,#598,.F.);
#598 = EDGE_CURVE('',#142,#599,#601,.T.);
#599 = VERTEX_POINT('',#600);
#600 = CARTESIAN_POINT('',(13.,-3.25,0.25));
#601 = LINE('',#602,#603);
#602 = CARTESIAN_POINT('',(12.,-2.25,1.25));
#603 = VECTOR('',#604,1.);
#604 = DIRECTION('',(-0.57735026919,0.57735026919,0.57735026919));
#605 = ORIENTED_EDGE('',*,*,#149,.T.);
#606 = ORIENTED_EDGE('',*,*,#567,.T.);
#607 = ORIENTED_EDGE('',*,*,#608,.F.);
#608 = EDGE_CURVE('',#599,#568,#609,.T.);
#609 = LINE('',#610,#611);
#610 = CARTESIAN_POINT('',(13.,-3.25,0.25));
#611 = VECTOR('',#612,1.);
#612 = DIRECTION('',(-1.,0.,0.));
#613 = PLANE('',#614);
#614 = AXIS2_PLACEMENT_3D('',#615,#616,#617);
#615 = CARTESIAN_POINT('',(13.,-3.375,0.125));
#616 = DIRECTION('',(0.,0.707106781187,-0.707106781187));
#617 = DIRECTION('',(-1.,0.,0.));
#618 = ADVANCED_FACE('',(#619),#637,.T.);
#619 = FACE_BOUND('',#620,.T.);
#620 = EDGE_LOOP('',(#621,#622,#623,#631));
#621 = ORIENTED_EDGE('',*,*,#576,.F.);
#622 = ORIENTED_EDGE('',*,*,#133,.T.);
#623 = ORIENTED_EDGE('',*,*,#624,.T.);
#624 = EDGE_CURVE('',#134,#625,#627,.T.);
#625 = VERTEX_POINT('',#626);
#626 = CARTESIAN_POINT('',(13.,3.25,0.25));
#627 = LINE('',#628,#629);
#628 = CARTESIAN_POINT('',(12.666666666667,2.916666666667,0.583333333333
    ));
#629 = VECTOR('',#630,1.);
#630 = DIRECTION('',(-0.57735026919,-0.57735026919,0.57735026919));
#631 = ORIENTED_EDGE('',*,*,#632,.F.);
#632 = EDGE_CURVE('',#577,#625,#633,.T.);
#633 = LINE('',#634,#635);
#634 = CARTESIAN_POINT('',(10.5,3.25,0.25));
#635 = VECTOR('',#636,1.);
#636 = DIRECTION('',(1.,0.,0.));
#637 = PLANE('',#638);
#638 = AXIS2_PLACEMENT_3D('',#639,#640,#641);
#639 = CARTESIAN_POINT('',(10.5,3.375,0.125));
#640 = DIRECTION('',(0.,-0.707106781187,-0.707106781187));
#641 = DIRECTION('',(1.,0.,0.));
#642 = ADVANCED_FACE('',(#643),#654,.T.);
#643 = FACE_BOUND('',#644,.T.);
#644 = EDGE_LOOP('',(#645,#646,#647,#648));
#645 = ORIENTED_EDGE('',*,*,#624,.F.);
#646 = ORIENTED_EDGE('',*,*,#141,.T.);
#647 = ORIENTED_EDGE('',*,*,#598,.T.);
#648 = ORIENTED_EDGE('',*,*,#649,.F.);
#649 = EDGE_CURVE('',#625,#599,#650,.T.);
#650 = LINE('',#651,#652);
#651 = CARTESIAN_POINT('',(13.,3.25,0.25));
#652 = VECTOR('',#653,1.);
#653 = DIRECTION('',(0.,-1.,0.));
#654 = PLANE('',#655);
#655 = AXIS2_PLACEMENT_3D('',#656,#657,#658);
#656 = CARTESIAN_POINT('',(13.125,3.25,0.125));
#657 = DIRECTION('',(-0.707106781187,0.,-0.707106781187));
#658 = DIRECTION('',(0.,-1.,0.));
#659 = ADVANCED_FACE('',(#660),#685,.T.);
#660 = FACE_BOUND('',#661,.T.);
#661 = EDGE_LOOP('',(#662,#670,#671,#679));
#662 = ORIENTED_EDGE('',*,*,#663,.F.);
#663 = EDGE_CURVE('',#158,#664,#666,.T.);
#664 = VERTEX_POINT('',#665);
#665 = CARTESIAN_POINT('',(-8.7,-8.7,0.25));
#666 = LINE('',#667,#668);
#667 = CARTESIAN_POINT('',(-5.883333333333,-5.883333333333,
    3.066666666667));
#668 = VECTOR('',#669,1.);
#669 = DIRECTION('',(0.57735026919,0.57735026919,0.57735026919));
#670 = ORIENTED_EDGE('',*,*,#157,.T.);
#671 = ORIENTED_EDGE('',*,*,#672,.T.);
#672 = EDGE_CURVE('',#160,#673,#675,.T.);
#673 = VERTEX_POINT('',#674);
#674 = CARTESIAN_POINT('',(-8.7,8.7,0.25));
#675 = LINE('',#676,#677);
#676 = CARTESIAN_POINT('',(-5.883333333333,5.883333333333,3.066666666667
    ));
#677 = VECTOR('',#678,1.);
#678 = DIRECTION('',(0.57735026919,-0.57735026919,0.57735026919));
#679 = ORIENTED_EDGE('',*,*,#680,.F.);
#680 = EDGE_CURVE('',#664,#673,#681,.T.);
#681 = LINE('',#682,#683);
#682 = CARTESIAN_POINT('',(-8.7,-8.7,0.25));
#683 = VECTOR('',#684,1.);
#684 = DIRECTION('',(0.,1.,0.));
#685 = PLANE('',#686);
#686 = AXIS2_PLACEMENT_3D('',#687,#688,#689);
#687 = CARTESIAN_POINT('',(-8.825,-8.7,0.125));
#688 = DIRECTION('',(0.707106781187,0.,-0.707106781187));
#689 = DIRECTION('',(0.,1.,0.));
#690 = ADVANCED_FACE('',(#691),#709,.T.);
#691 = FACE_BOUND('',#692,.T.);
#692 = EDGE_LOOP('',(#693,#701,#702,#703));
#693 = ORIENTED_EDGE('',*,*,#694,.F.);
#694 = EDGE_CURVE('',#176,#695,#697,.T.);
#695 = VERTEX_POINT('',#696);
#696 = CARTESIAN_POINT('',(8.7,-8.7,0.25));
#697 = LINE('',#698,#699);
#698 = CARTESIAN_POINT('',(5.883333333333,-5.883333333333,3.066666666667
    ));
#699 = VECTOR('',#700,1.);
#700 = DIRECTION('',(-0.57735026919,0.57735026919,0.57735026919));
#701 = ORIENTED_EDGE('',*,*,#183,.T.);
#702 = ORIENTED_EDGE('',*,*,#663,.T.);
#703 = ORIENTED_EDGE('',*,*,#704,.F.);
#704 = EDGE_CURVE('',#695,#664,#705,.T.);
#705 = LINE('',#706,#707);
#706 = CARTESIAN_POINT('',(8.7,-8.7,0.25));
#707 = VECTOR('',#708,1.);
#708 = DIRECTION('',(-1.,0.,0.));
#709 = PLANE('',#710);
#710 = AXIS2_PLACEMENT_3D('',#711,#712,#713);
#711 = CARTESIAN_POINT('',(8.7,-8.825,0.125));
#712 = DIRECTION('',(0.,0.707106781187,-0.707106781187));
#713 = DIRECTION('',(-1.,0.,0.));
#714 = ADVANCED_FACE('',(#715),#733,.T.);
#715 = FACE_BOUND('',#716,.T.);
#716 = EDGE_LOOP('',(#717,#718,#719,#727));
#717 = ORIENTED_EDGE('',*,*,#672,.F.);
#718 = ORIENTED_EDGE('',*,*,#167,.T.);
#719 = ORIENTED_EDGE('',*,*,#720,.T.);
#720 = EDGE_CURVE('',#168,#721,#723,.T.);
#721 = VERTEX_POINT('',#722);
#722 = CARTESIAN_POINT('',(8.7,8.7,0.25));
#723 = LINE('',#724,#725);
#724 = CARTESIAN_POINT('',(5.883333333333,5.883333333333,3.066666666667)
  );
#725 = VECTOR('',#726,1.);
#726 = DIRECTION('',(-0.57735026919,-0.57735026919,0.57735026919));
#727 = ORIENTED_EDGE('',*,*,#728,.F.);
#728 = EDGE_CURVE('',#673,#721,#729,.T.);
#729 = LINE('',#730,#731);
#730 = CARTESIAN_POINT('',(-8.7,8.7,0.25));
#731 = VECTOR('',#732,1.);
#732 = DIRECTION('',(1.,0.,0.));
#733 = PLANE('',#734);
#734 = AXIS2_PLACEMENT_3D('',#735,#736,#737);
#735 = CARTESIAN_POINT('',(-8.7,8.825,0.125));
#736 = DIRECTION('',(0.,-0.707106781187,-0.707106781187));
#737 = DIRECTION('',(1.,0.,0.));
#738 = ADVANCED_FACE('',(#739),#750,.T.);
#739 = FACE_BOUND('',#740,.T.);
#740 = EDGE_LOOP('',(#741,#742,#743,#744));
#741 = ORIENTED_EDGE('',*,*,#720,.F.);
#742 = ORIENTED_EDGE('',*,*,#175,.T.);
#743 = ORIENTED_EDGE('',*,*,#694,.T.);
#744 = ORIENTED_EDGE('',*,*,#745,.F.);
#745 = EDGE_CURVE('',#721,#695,#746,.T.);
#746 = LINE('',#747,#748);
#747 = CARTESIAN_POINT('',(8.7,8.7,0.25));
#748 = VECTOR('',#749,1.);
#749 = DIRECTION('',(0.,-1.,0.));
#750 = PLANE('',#751);
#751 = AXIS2_PLACEMENT_3D('',#752,#753,#754);
#752 = CARTESIAN_POINT('',(8.825,8.7,0.125));
#753 = DIRECTION('',(-0.707106781187,0.,-0.707106781187));
#754 = DIRECTION('',(0.,-1.,0.));
#755 = ADVANCED_FACE('',(#756),#781,.T.);
#756 = FACE_BOUND('',#757,.F.);
#757 = EDGE_LOOP('',(#758,#766,#767,#775));
#758 = ORIENTED_EDGE('',*,*,#759,.F.);
#759 = EDGE_CURVE('',#192,#760,#762,.T.);
#760 = VERTEX_POINT('',#761);
#761 = CARTESIAN_POINT('',(9.377219131703,13.164833766919,0.245561736594
    ));
#762 = LINE('',#763,#764);
#763 = CARTESIAN_POINT('',(9.359873853649,12.999804469951,0.111314812078
    ));
#764 = VECTOR('',#765,1.);
#765 = DIRECTION('',(8.126434975616E-02,0.773178640716,0.628960169645));
#766 = ORIENTED_EDGE('',*,*,#191,.T.);
#767 = ORIENTED_EDGE('',*,*,#768,.T.);
#768 = EDGE_CURVE('',#194,#769,#771,.T.);
#769 = VERTEX_POINT('',#770);
#770 = CARTESIAN_POINT('',(15.418221011645,4.850107997834,0.245561736594
    ));
#771 = LINE('',#772,#773);
#772 = CARTESIAN_POINT('',(13.675513762815,5.220531858643,
    -1.195815596915));
#773 = VECTOR('',#774,1.);
#774 = DIRECTION('',(0.760448649624,-0.161638350291,0.628960169645));
#775 = ORIENTED_EDGE('',*,*,#776,.F.);
#776 = EDGE_CURVE('',#760,#769,#777,.T.);
#777 = LINE('',#778,#779);
#778 = CARTESIAN_POINT('',(9.462058625112,13.048062222049,0.245561736594
    ));
#779 = VECTOR('',#780,1.);
#780 = DIRECTION('',(0.587785252292,-0.809016994375,0.));
#781 = PLANE('',#782);
#782 = AXIS2_PLACEMENT_3D('',#783,#784,#785);
#783 = CARTESIAN_POINT('',(9.379902188259,12.988372076726,0.122780868297
    ));
#784 = DIRECTION('',(0.6234137332,0.452936589712,-0.637341166847));
#785 = DIRECTION('',(-0.587785252292,0.809016994375,-0.));
#786 = ADVANCED_FACE('',(#787),#805,.F.);
#787 = FACE_BOUND('',#788,.T.);
#788 = EDGE_LOOP('',(#789,#790,#791,#799));
#789 = ORIENTED_EDGE('',*,*,#759,.F.);
#790 = ORIENTED_EDGE('',*,*,#201,.T.);
#791 = ORIENTED_EDGE('',*,*,#792,.T.);
#792 = EDGE_CURVE('',#202,#793,#795,.T.);
#793 = VERTEX_POINT('',#794);
#794 = CARTESIAN_POINT('',(0.151765499552,16.162365358689,0.245561736594
    ));
#795 = LINE('',#796,#797);
#796 = CARTESIAN_POINT('',(-0.739054683171,14.619419541805,
    -1.195815596915));
#797 = VECTOR('',#798,1.);
#798 = DIRECTION('',(0.388718762411,0.67328064635,0.628960169645));
#799 = ORIENTED_EDGE('',*,*,#800,.F.);
#800 = EDGE_CURVE('',#760,#793,#801,.T.);
#801 = LINE('',#802,#803);
#802 = CARTESIAN_POINT('',(9.514492315627,13.120231005698,0.245561736594
    ));
#803 = VECTOR('',#804,1.);
#804 = DIRECTION('',(-0.951056516295,0.309016994375,0.));
#805 = PLANE('',#806);
#806 = AXIS2_PLACEMENT_3D('',#807,#808,#809);
#807 = CARTESIAN_POINT('',(9.468619033517,12.97904756055,0.122780868297)
  );
#808 = DIRECTION('',(-0.19694925177,-0.606147469833,0.770581752342));
#809 = DIRECTION('',(0.951056516295,-0.309016994375,-2.775557561563E-17)
  );
#810 = ADVANCED_FACE('',(#811),#829,.F.);
#811 = FACE_BOUND('',#812,.T.);
#812 = EDGE_LOOP('',(#813,#821,#822,#823));
#813 = ORIENTED_EDGE('',*,*,#814,.F.);
#814 = EDGE_CURVE('',#258,#815,#817,.T.);
#815 = VERTEX_POINT('',#816);
#816 = CARTESIAN_POINT('',(15.418221011645,-4.850107997834,
    0.245561736594));
#817 = LINE('',#818,#819);
#818 = CARTESIAN_POINT('',(15.255908837693,-4.884608515447,
    0.111314812078));
#819 = VECTOR('',#820,1.);
#820 = DIRECTION('',(0.760448649624,0.161638350291,0.628960169645));
#821 = ORIENTED_EDGE('',*,*,#265,.T.);
#822 = ORIENTED_EDGE('',*,*,#768,.T.);
#823 = ORIENTED_EDGE('',*,*,#824,.F.);
#824 = EDGE_CURVE('',#815,#769,#825,.T.);
#825 = LINE('',#826,#827);
#826 = CARTESIAN_POINT('',(15.418221011645,-4.994445565132,
    0.245561736594));
#827 = VECTOR('',#828,1.);
#828 = DIRECTION('',(1.8E-16,1.,0.));
#829 = PLANE('',#830);
#830 = AXIS2_PLACEMENT_3D('',#831,#832,#833);
#831 = CARTESIAN_POINT('',(15.269771952385,-4.994445565132,
    0.122780868297));
#832 = DIRECTION('',(-0.637341166847,2.3E-16,0.770581752342));
#833 = DIRECTION('',(-2.567743774188E-16,-1.,8.610003867585E-17));
#834 = ADVANCED_FACE('',(#835),#853,.T.);
#835 = FACE_BOUND('',#836,.F.);
#836 = EDGE_LOOP('',(#837,#845,#846,#847));
#837 = ORIENTED_EDGE('',*,*,#838,.F.);
#838 = EDGE_CURVE('',#210,#839,#841,.T.);
#839 = VERTEX_POINT('',#840);
#840 = CARTESIAN_POINT('',(-9.622780868297,12.986422722033,
    0.245561736594));
#841 = LINE('',#842,#843);
#842 = CARTESIAN_POINT('',(-9.471188665726,12.918929524979,
    0.111314812078));
#843 = VECTOR('',#844,1.);
#844 = DIRECTION('',(-0.710224519401,0.316212329047,0.628960169645));
#845 = ORIENTED_EDGE('',*,*,#209,.T.);
#846 = ORIENTED_EDGE('',*,*,#792,.T.);
#847 = ORIENTED_EDGE('',*,*,#848,.F.);
#848 = EDGE_CURVE('',#839,#793,#849,.T.);
#849 = LINE('',#850,#851);
#850 = CARTESIAN_POINT('',(-9.485507684373,13.031025483255,
    0.245561736594));
#851 = VECTOR('',#852,1.);
#852 = DIRECTION('',(0.951056516295,0.309016994375,0.));
#853 = PLANE('',#854);
#854 = AXIS2_PLACEMENT_3D('',#855,#856,#857);
#855 = CARTESIAN_POINT('',(-9.454126717889,12.934444799328,
    0.122780868297));
#856 = DIRECTION('',(-0.238122857029,0.732866796903,-0.637341166847));
#857 = DIRECTION('',(-0.951056516295,-0.309016994375,5.551115123126E-17)
  );
#858 = ADVANCED_FACE('',(#859),#877,.T.);
#859 = FACE_BOUND('',#860,.F.);
#860 = EDGE_LOOP('',(#861,#862,#863,#871));
#861 = ORIENTED_EDGE('',*,*,#814,.F.);
#862 = ORIENTED_EDGE('',*,*,#257,.T.);
#863 = ORIENTED_EDGE('',*,*,#864,.T.);
#864 = EDGE_CURVE('',#250,#865,#867,.T.);
#865 = VERTEX_POINT('',#866);
#866 = CARTESIAN_POINT('',(9.377219131703,-13.16483376691,0.245561736594
    ));
#867 = LINE('',#868,#869);
#868 = CARTESIAN_POINT('',(9.190987002207,-11.39295341381,
    -1.195815596915));
#869 = VECTOR('',#870,1.);
#870 = DIRECTION('',(8.126434975616E-02,-0.773178640716,0.628960169645)
  );
#871 = ORIENTED_EDGE('',*,*,#872,.F.);
#872 = EDGE_CURVE('',#815,#865,#873,.T.);
#873 = LINE('',#874,#875);
#874 = CARTESIAN_POINT('',(15.333381518236,-4.966879542705,
    0.245561736594));
#875 = VECTOR('',#876,1.);
#876 = DIRECTION('',(-0.587785252292,-0.809016994375,0.));
#877 = PLANE('',#878);
#878 = AXIS2_PLACEMENT_3D('',#879,#880,#881);
#879 = CARTESIAN_POINT('',(15.251225081383,-4.907189397382,
    0.122780868297));
#880 = DIRECTION('',(0.6234137332,-0.452936589712,-0.637341166847));
#881 = DIRECTION('',(0.587785252292,0.809016994375,-0.));
#882 = ADVANCED_FACE('',(#883),#901,.F.);
#883 = FACE_BOUND('',#884,.T.);
#884 = EDGE_LOOP('',(#885,#886,#887,#895));
#885 = ORIENTED_EDGE('',*,*,#838,.F.);
#886 = ORIENTED_EDGE('',*,*,#217,.T.);
#887 = ORIENTED_EDGE('',*,*,#888,.T.);
#888 = EDGE_CURVE('',#218,#889,#891,.T.);
#889 = VERTEX_POINT('',#890);
#890 = CARTESIAN_POINT('',(-15.3244247746,5.138783132429,0.245561736594)
  );
#891 = LINE('',#892,#893);
#892 = CARTESIAN_POINT('',(-14.13227467655,3.814766313987,
    -1.195815596915));
#893 = VECTOR('',#894,1.);
#894 = DIRECTION('',(-0.52020724239,0.577748673703,0.628960169645));
#895 = ORIENTED_EDGE('',*,*,#896,.F.);
#896 = EDGE_CURVE('',#839,#889,#897,.T.);
#897 = LINE('',#898,#899);
#898 = CARTESIAN_POINT('',(-9.537941374888,13.103194266903,
    0.245561736594));
#899 = VECTOR('',#900,1.);
#900 = DIRECTION('',(-0.587785252292,-0.809016994375,0.));
#901 = PLANE('',#902);
#902 = AXIS2_PLACEMENT_3D('',#903,#904,#905);
#903 = CARTESIAN_POINT('',(-9.417843563147,13.015938099153,
    0.122780868297));
#904 = DIRECTION('',(0.515619835194,-0.374619738551,0.770581752342));
#905 = DIRECTION('',(0.587785252292,0.809016994375,-2.775557561563E-17)
  );
#906 = ADVANCED_FACE('',(#907),#925,.F.);
#907 = FACE_BOUND('',#908,.T.);
#908 = EDGE_LOOP('',(#909,#917,#918,#919));
#909 = ORIENTED_EDGE('',*,*,#910,.F.);
#910 = EDGE_CURVE('',#242,#911,#913,.T.);
#911 = VERTEX_POINT('',#912);
#912 = CARTESIAN_POINT('',(0.151765499552,-16.16236535868,0.245561736594
    ));
#913 = LINE('',#914,#915);
#914 = CARTESIAN_POINT('',(6.879633731543E-02,-16.01865855423,
    0.111314812078));
#915 = VECTOR('',#916,1.);
#916 = DIRECTION('',(0.388718762411,-0.67328064635,0.628960169645));
#917 = ORIENTED_EDGE('',*,*,#249,.T.);
#918 = ORIENTED_EDGE('',*,*,#864,.T.);
#919 = ORIENTED_EDGE('',*,*,#920,.F.);
#920 = EDGE_CURVE('',#911,#865,#921,.T.);
#921 = LINE('',#922,#923);
#922 = CARTESIAN_POINT('',(1.449231562728E-02,-16.20696811991,
    0.245561736594));
#923 = VECTOR('',#924,1.);
#924 = DIRECTION('',(0.951056516295,0.309016994375,0.));
#925 = PLANE('',#926);
#926 = AXIS2_PLACEMENT_3D('',#927,#928,#929);
#927 = CARTESIAN_POINT('',(-3.138096648323E-02,-16.06578467476,
    0.122780868297));
#928 = DIRECTION('',(-0.19694925177,0.606147469833,0.770581752342));
#929 = DIRECTION('',(-0.951056516295,-0.309016994375,-0.));
#930 = ADVANCED_FACE('',(#931),#949,.T.);
#931 = FACE_BOUND('',#932,.F.);
#932 = EDGE_LOOP('',(#933,#941,#942,#943));
#933 = ORIENTED_EDGE('',*,*,#934,.F.);
#934 = EDGE_CURVE('',#226,#935,#937,.T.);
#935 = VERTEX_POINT('',#936);
#936 = CARTESIAN_POINT('',(-15.3244247746,-5.138783132429,0.245561736594
    ));
#937 = LINE('',#938,#939);
#938 = CARTESIAN_POINT('',(-15.21339036293,-5.015466925249,
    0.111314812078));
#939 = VECTOR('',#940,1.);
#940 = DIRECTION('',(-0.52020724239,-0.577748673703,0.628960169645));
#941 = ORIENTED_EDGE('',*,*,#225,.T.);
#942 = ORIENTED_EDGE('',*,*,#888,.T.);
#943 = ORIENTED_EDGE('',*,*,#944,.F.);
#944 = EDGE_CURVE('',#935,#889,#945,.T.);
#945 = LINE('',#946,#947);
#946 = CARTESIAN_POINT('',(-15.3244247746,-4.994445565132,0.245561736594
    ));
#947 = VECTOR('',#948,1.);
#948 = DIRECTION('',(3.6E-16,1.,0.));
#949 = PLANE('',#950);
#950 = AXIS2_PLACEMENT_3D('',#951,#952,#953);
#951 = CARTESIAN_POINT('',(-15.22287383386,-4.994445565132,
    0.122780868297));
#952 = DIRECTION('',(-0.770581752342,2.7E-16,-0.637341166847));
#953 = DIRECTION('',(-3.502283901675E-16,-1.,-1.888994326498E-19));
#954 = ADVANCED_FACE('',(#955),#973,.T.);
#955 = FACE_BOUND('',#956,.F.);
#956 = EDGE_LOOP('',(#957,#958,#959,#967));
#957 = ORIENTED_EDGE('',*,*,#910,.F.);
#958 = ORIENTED_EDGE('',*,*,#241,.T.);
#959 = ORIENTED_EDGE('',*,*,#960,.T.);
#960 = EDGE_CURVE('',#234,#961,#963,.T.);
#961 = VERTEX_POINT('',#962);
#962 = CARTESIAN_POINT('',(-9.622780868297,-12.98642272203,
    0.245561736594));
#963 = LINE('',#964,#965);
#964 = CARTESIAN_POINT('',(-7.995171405292,-12.26176430062,
    -1.195815596915));
#965 = VECTOR('',#966,1.);
#966 = DIRECTION('',(-0.710224519401,-0.316212329047,0.628960169645));
#967 = ORIENTED_EDGE('',*,*,#968,.F.);
#968 = EDGE_CURVE('',#911,#961,#969,.T.);
#969 = LINE('',#970,#971);
#970 = CARTESIAN_POINT('',(1.449231562728E-02,-16.11776259746,
    0.245561736594));
#971 = VECTOR('',#972,1.);
#972 = DIRECTION('',(-0.951056516295,0.309016994375,0.));
#973 = PLANE('',#974);
#974 = AXIS2_PLACEMENT_3D('',#975,#976,#977);
#975 = CARTESIAN_POINT('',(4.587328211051E-02,-16.02118191354,
    0.122780868297));
#976 = DIRECTION('',(-0.238122857029,-0.732866796903,-0.637341166847));
#977 = DIRECTION('',(0.951056516295,-0.309016994375,-0.));
#978 = ADVANCED_FACE('',(#979),#990,.F.);
#979 = FACE_BOUND('',#980,.T.);
#980 = EDGE_LOOP('',(#981,#982,#983,#984));
#981 = ORIENTED_EDGE('',*,*,#934,.F.);
#982 = ORIENTED_EDGE('',*,*,#233,.T.);
#983 = ORIENTED_EDGE('',*,*,#960,.T.);
#984 = ORIENTED_EDGE('',*,*,#985,.F.);
#985 = EDGE_CURVE('',#935,#961,#986,.T.);
#986 = LINE('',#987,#988);
#987 = CARTESIAN_POINT('',(-15.40926426801,-5.022011587559,
    0.245561736594));
#988 = VECTOR('',#989,1.);
#989 = DIRECTION('',(0.587785252292,-0.809016994375,0.));
#990 = PLANE('',#991);
#991 = AXIS2_PLACEMENT_3D('',#992,#993,#994);
#992 = CARTESIAN_POINT('',(-15.28916645627,-4.934755419809,
    0.122780868297));
#993 = DIRECTION('',(0.515619835194,0.374619738551,0.770581752342));
#994 = DIRECTION('',(-0.587785252292,0.809016994375,8.326672684689E-17)
  );
#995 = ADVANCED_FACE('',(#996),#1021,.F.);
#996 = FACE_BOUND('',#997,.F.);
#997 = EDGE_LOOP('',(#998,#1006,#1014,#1020));
#998 = ORIENTED_EDGE('',*,*,#999,.T.);
#999 = EDGE_CURVE('',#280,#1000,#1002,.T.);
#1000 = VERTEX_POINT('',#1001);
#1001 = CARTESIAN_POINT('',(-10.5,3.25,6.5));
#1002 = LINE('',#1003,#1004);
#1003 = CARTESIAN_POINT('',(-10.5,3.25,0.));
#1004 = VECTOR('',#1005,1.);
#1005 = DIRECTION('',(0.,0.,1.));
#1006 = ORIENTED_EDGE('',*,*,#1007,.T.);
#1007 = EDGE_CURVE('',#1000,#1008,#1010,.T.);
#1008 = VERTEX_POINT('',#1009);
#1009 = CARTESIAN_POINT('',(-10.5,-3.25,6.5));
#1010 = LINE('',#1011,#1012);
#1011 = CARTESIAN_POINT('',(-10.5,3.25,6.5));
#1012 = VECTOR('',#1013,1.);
#1013 = DIRECTION('',(0.,-1.,0.));
#1014 = ORIENTED_EDGE('',*,*,#1015,.F.);
#1015 = EDGE_CURVE('',#289,#1008,#1016,.T.);
#1016 = LINE('',#1017,#1018);
#1017 = CARTESIAN_POINT('',(-10.5,-3.25,0.));
#1018 = VECTOR('',#1019,1.);
#1019 = DIRECTION('',(0.,0.,1.));
#1020 = ORIENTED_EDGE('',*,*,#296,.F.);
#1021 = PLANE('',#1022);
#1022 = AXIS2_PLACEMENT_3D('',#1023,#1024,#1025);
#1023 = CARTESIAN_POINT('',(-10.5,3.25,0.));
#1024 = DIRECTION('',(1.,0.,0.));
#1025 = DIRECTION('',(0.,-1.,0.));
#1026 = ADVANCED_FACE('',(#1027),#1045,.F.);
#1027 = FACE_BOUND('',#1028,.F.);
#1028 = EDGE_LOOP('',(#1029,#1037,#1043,#1044));
#1029 = ORIENTED_EDGE('',*,*,#1030,.T.);
#1030 = EDGE_CURVE('',#311,#1031,#1033,.T.);
#1031 = VERTEX_POINT('',#1032);
#1032 = CARTESIAN_POINT('',(-13.,3.25,6.5));
#1033 = LINE('',#1034,#1035);
#1034 = CARTESIAN_POINT('',(-13.,3.25,0.));
#1035 = VECTOR('',#1036,1.);
#1036 = DIRECTION('',(0.,0.,1.));
#1037 = ORIENTED_EDGE('',*,*,#1038,.T.);
#1038 = EDGE_CURVE('',#1031,#1000,#1039,.T.);
#1039 = LINE('',#1040,#1041);
#1040 = CARTESIAN_POINT('',(-13.,3.25,6.5));
#1041 = VECTOR('',#1042,1.);
#1042 = DIRECTION('',(1.,0.,0.));
#1043 = ORIENTED_EDGE('',*,*,#999,.F.);
#1044 = ORIENTED_EDGE('',*,*,#320,.F.);
#1045 = PLANE('',#1046);
#1046 = AXIS2_PLACEMENT_3D('',#1047,#1048,#1049);
#1047 = CARTESIAN_POINT('',(-13.,3.25,0.));
#1048 = DIRECTION('',(0.,1.,0.));
#1049 = DIRECTION('',(1.,0.,0.));
#1050 = ADVANCED_FACE('',(#1051),#1069,.F.);
#1051 = FACE_BOUND('',#1052,.F.);
#1052 = EDGE_LOOP('',(#1053,#1054,#1062,#1068));
#1053 = ORIENTED_EDGE('',*,*,#1015,.T.);
#1054 = ORIENTED_EDGE('',*,*,#1055,.T.);
#1055 = EDGE_CURVE('',#1008,#1056,#1058,.T.);
#1056 = VERTEX_POINT('',#1057);
#1057 = CARTESIAN_POINT('',(-13.,-3.25,6.5));
#1058 = LINE('',#1059,#1060);
#1059 = CARTESIAN_POINT('',(-10.5,-3.25,6.5));
#1060 = VECTOR('',#1061,1.);
#1061 = DIRECTION('',(-1.,0.,0.));
#1062 = ORIENTED_EDGE('',*,*,#1063,.F.);
#1063 = EDGE_CURVE('',#337,#1056,#1064,.T.);
#1064 = LINE('',#1065,#1066);
#1065 = CARTESIAN_POINT('',(-13.,-3.25,0.));
#1066 = VECTOR('',#1067,1.);
#1067 = DIRECTION('',(0.,0.,1.));
#1068 = ORIENTED_EDGE('',*,*,#344,.F.);
#1069 = PLANE('',#1070);
#1070 = AXIS2_PLACEMENT_3D('',#1071,#1072,#1073);
#1071 = CARTESIAN_POINT('',(-10.5,-3.25,0.));
#1072 = DIRECTION('',(0.,-1.,0.));
#1073 = DIRECTION('',(-1.,0.,0.));
#1074 = ADVANCED_FACE('',(#1075),#1086,.F.);
#1075 = FACE_BOUND('',#1076,.F.);
#1076 = EDGE_LOOP('',(#1077,#1078,#1084,#1085));
#1077 = ORIENTED_EDGE('',*,*,#1063,.T.);
#1078 = ORIENTED_EDGE('',*,*,#1079,.T.);
#1079 = EDGE_CURVE('',#1056,#1031,#1080,.T.);
#1080 = LINE('',#1081,#1082);
#1081 = CARTESIAN_POINT('',(-13.,-3.25,6.5));
#1082 = VECTOR('',#1083,1.);
#1083 = DIRECTION('',(0.,1.,0.));
#1084 = ORIENTED_EDGE('',*,*,#1030,.F.);
#1085 = ORIENTED_EDGE('',*,*,#361,.F.);
#1086 = PLANE('',#1087);
#1087 = AXIS2_PLACEMENT_3D('',#1088,#1089,#1090);
#1088 = CARTESIAN_POINT('',(-13.,-3.25,0.));
#1089 = DIRECTION('',(-1.,0.,0.));
#1090 = DIRECTION('',(0.,1.,0.));
#1091 = ADVANCED_FACE('',(#1092),#1117,.F.);
#1092 = FACE_BOUND('',#1093,.F.);
#1093 = EDGE_LOOP('',(#1094,#1102,#1110,#1116));
#1094 = ORIENTED_EDGE('',*,*,#1095,.T.);
#1095 = EDGE_CURVE('',#376,#1096,#1098,.T.);
#1096 = VERTEX_POINT('',#1097);
#1097 = CARTESIAN_POINT('',(-3.25,-13.,6.5));
#1098 = LINE('',#1099,#1100);
#1099 = CARTESIAN_POINT('',(-3.25,-13.,0.));
#1100 = VECTOR('',#1101,1.);
#1101 = DIRECTION('',(0.,0.,1.));
#1102 = ORIENTED_EDGE('',*,*,#1103,.T.);
#1103 = EDGE_CURVE('',#1096,#1104,#1106,.T.);
#1104 = VERTEX_POINT('',#1105);
#1105 = CARTESIAN_POINT('',(-3.25,-10.5,6.5));
#1106 = LINE('',#1107,#1108);
#1107 = CARTESIAN_POINT('',(-3.25,-13.,6.5));
#1108 = VECTOR('',#1109,1.);
#1109 = DIRECTION('',(0.,1.,0.));
#1110 = ORIENTED_EDGE('',*,*,#1111,.F.);
#1111 = EDGE_CURVE('',#385,#1104,#1112,.T.);
#1112 = LINE('',#1113,#1114);
#1113 = CARTESIAN_POINT('',(-3.25,-10.5,0.));
#1114 = VECTOR('',#1115,1.);
#1115 = DIRECTION('',(0.,0.,1.));
#1116 = ORIENTED_EDGE('',*,*,#392,.F.);
#1117 = PLANE('',#1118);
#1118 = AXIS2_PLACEMENT_3D('',#1119,#1120,#1121);
#1119 = CARTESIAN_POINT('',(-3.25,-13.,0.));
#1120 = DIRECTION('',(-1.,0.,0.));
#1121 = DIRECTION('',(0.,1.,0.));
#1122 = ADVANCED_FACE('',(#1123),#1141,.F.);
#1123 = FACE_BOUND('',#1124,.F.);
#1124 = EDGE_LOOP('',(#1125,#1133,#1139,#1140));
#1125 = ORIENTED_EDGE('',*,*,#1126,.T.);
#1126 = EDGE_CURVE('',#407,#1127,#1129,.T.);
#1127 = VERTEX_POINT('',#1128);
#1128 = CARTESIAN_POINT('',(3.25,-13.,6.5));
#1129 = LINE('',#1130,#1131);
#1130 = CARTESIAN_POINT('',(3.25,-13.,0.));
#1131 = VECTOR('',#1132,1.);
#1132 = DIRECTION('',(0.,0.,1.));
#1133 = ORIENTED_EDGE('',*,*,#1134,.T.);
#1134 = EDGE_CURVE('',#1127,#1096,#1135,.T.);
#1135 = LINE('',#1136,#1137);
#1136 = CARTESIAN_POINT('',(3.25,-13.,6.5));
#1137 = VECTOR('',#1138,1.);
#1138 = DIRECTION('',(-1.,0.,0.));
#1139 = ORIENTED_EDGE('',*,*,#1095,.F.);
#1140 = ORIENTED_EDGE('',*,*,#416,.F.);
#1141 = PLANE('',#1142);
#1142 = AXIS2_PLACEMENT_3D('',#1143,#1144,#1145);
#1143 = CARTESIAN_POINT('',(3.25,-13.,0.));
#1144 = DIRECTION('',(0.,-1.,0.));
#1145 = DIRECTION('',(-1.,0.,0.));
#1146 = ADVANCED_FACE('',(#1147),#1165,.F.);
#1147 = FACE_BOUND('',#1148,.F.);
#1148 = EDGE_LOOP('',(#1149,#1150,#1158,#1164));
#1149 = ORIENTED_EDGE('',*,*,#1111,.T.);
#1150 = ORIENTED_EDGE('',*,*,#1151,.T.);
#1151 = EDGE_CURVE('',#1104,#1152,#1154,.T.);
#1152 = VERTEX_POINT('',#1153);
#1153 = CARTESIAN_POINT('',(3.25,-10.5,6.5));
#1154 = LINE('',#1155,#1156);
#1155 = CARTESIAN_POINT('',(-3.25,-10.5,6.5));
#1156 = VECTOR('',#1157,1.);
#1157 = DIRECTION('',(1.,0.,0.));
#1158 = ORIENTED_EDGE('',*,*,#1159,.F.);
#1159 = EDGE_CURVE('',#433,#1152,#1160,.T.);
#1160 = LINE('',#1161,#1162);
#1161 = CARTESIAN_POINT('',(3.25,-10.5,0.));
#1162 = VECTOR('',#1163,1.);
#1163 = DIRECTION('',(0.,0.,1.));
#1164 = ORIENTED_EDGE('',*,*,#440,.F.);
#1165 = PLANE('',#1166);
#1166 = AXIS2_PLACEMENT_3D('',#1167,#1168,#1169);
#1167 = CARTESIAN_POINT('',(-3.25,-10.5,0.));
#1168 = DIRECTION('',(0.,1.,0.));
#1169 = DIRECTION('',(1.,0.,0.));
#1170 = ADVANCED_FACE('',(#1171),#1182,.F.);
#1171 = FACE_BOUND('',#1172,.F.);
#1172 = EDGE_LOOP('',(#1173,#1174,#1180,#1181));
#1173 = ORIENTED_EDGE('',*,*,#1159,.T.);
#1174 = ORIENTED_EDGE('',*,*,#1175,.T.);
#1175 = EDGE_CURVE('',#1152,#1127,#1176,.T.);
#1176 = LINE('',#1177,#1178);
#1177 = CARTESIAN_POINT('',(3.25,-10.5,6.5));
#1178 = VECTOR('',#1179,1.);
#1179 = DIRECTION('',(0.,-1.,0.));
#1180 = ORIENTED_EDGE('',*,*,#1126,.F.);
#1181 = ORIENTED_EDGE('',*,*,#457,.F.);
#1182 = PLANE('',#1183);
#1183 = AXIS2_PLACEMENT_3D('',#1184,#1185,#1186);
#1184 = CARTESIAN_POINT('',(3.25,-10.5,0.));
#1185 = DIRECTION('',(1.,0.,0.));
#1186 = DIRECTION('',(0.,-1.,0.));
#1187 = ADVANCED_FACE('',(#1188),#1213,.F.);
#1188 = FACE_BOUND('',#1189,.F.);
#1189 = EDGE_LOOP('',(#1190,#1198,#1206,#1212));
#1190 = ORIENTED_EDGE('',*,*,#1191,.T.);
#1191 = EDGE_CURVE('',#472,#1192,#1194,.T.);
#1192 = VERTEX_POINT('',#1193);
#1193 = CARTESIAN_POINT('',(-3.25,10.5,6.5));
#1194 = LINE('',#1195,#1196);
#1195 = CARTESIAN_POINT('',(-3.25,10.5,0.));
#1196 = VECTOR('',#1197,1.);
#1197 = DIRECTION('',(0.,0.,1.));
#1198 = ORIENTED_EDGE('',*,*,#1199,.T.);
#1199 = EDGE_CURVE('',#1192,#1200,#1202,.T.);
#1200 = VERTEX_POINT('',#1201);
#1201 = CARTESIAN_POINT('',(-3.25,13.,6.5));
#1202 = LINE('',#1203,#1204);
#1203 = CARTESIAN_POINT('',(-3.25,10.5,6.5));
#1204 = VECTOR('',#1205,1.);
#1205 = DIRECTION('',(0.,1.,0.));
#1206 = ORIENTED_EDGE('',*,*,#1207,.F.);
#1207 = EDGE_CURVE('',#481,#1200,#1208,.T.);
#1208 = LINE('',#1209,#1210);
#1209 = CARTESIAN_POINT('',(-3.25,13.,0.));
#1210 = VECTOR('',#1211,1.);
#1211 = DIRECTION('',(0.,0.,1.));
#1212 = ORIENTED_EDGE('',*,*,#488,.F.);
#1213 = PLANE('',#1214);
#1214 = AXIS2_PLACEMENT_3D('',#1215,#1216,#1217);
#1215 = CARTESIAN_POINT('',(-3.25,10.5,0.));
#1216 = DIRECTION('',(-1.,0.,0.));
#1217 = DIRECTION('',(0.,1.,0.));
#1218 = ADVANCED_FACE('',(#1219),#1237,.F.);
#1219 = FACE_BOUND('',#1220,.F.);
#1220 = EDGE_LOOP('',(#1221,#1229,#1235,#1236));
#1221 = ORIENTED_EDGE('',*,*,#1222,.T.);
#1222 = EDGE_CURVE('',#503,#1223,#1225,.T.);
#1223 = VERTEX_POINT('',#1224);
#1224 = CARTESIAN_POINT('',(3.25,10.5,6.5));
#1225 = LINE('',#1226,#1227);
#1226 = CARTESIAN_POINT('',(3.25,10.5,0.));
#1227 = VECTOR('',#1228,1.);
#1228 = DIRECTION('',(0.,0.,1.));
#1229 = ORIENTED_EDGE('',*,*,#1230,.T.);
#1230 = EDGE_CURVE('',#1223,#1192,#1231,.T.);
#1231 = LINE('',#1232,#1233);
#1232 = CARTESIAN_POINT('',(3.25,10.5,6.5));
#1233 = VECTOR('',#1234,1.);
#1234 = DIRECTION('',(-1.,0.,0.));
#1235 = ORIENTED_EDGE('',*,*,#1191,.F.);
#1236 = ORIENTED_EDGE('',*,*,#512,.F.);
#1237 = PLANE('',#1238);
#1238 = AXIS2_PLACEMENT_3D('',#1239,#1240,#1241);
#1239 = CARTESIAN_POINT('',(3.25,10.5,0.));
#1240 = DIRECTION('',(0.,-1.,0.));
#1241 = DIRECTION('',(-1.,0.,0.));
#1242 = ADVANCED_FACE('',(#1243),#1261,.F.);
#1243 = FACE_BOUND('',#1244,.F.);
#1244 = EDGE_LOOP('',(#1245,#1246,#1254,#1260));
#1245 = ORIENTED_EDGE('',*,*,#1207,.T.);
#1246 = ORIENTED_EDGE('',*,*,#1247,.T.);
#1247 = EDGE_CURVE('',#1200,#1248,#1250,.T.);
#1248 = VERTEX_POINT('',#1249);
#1249 = CARTESIAN_POINT('',(3.25,13.,6.5));
#1250 = LINE('',#1251,#1252);
#1251 = CARTESIAN_POINT('',(-3.25,13.,6.5));
#1252 = VECTOR('',#1253,1.);
#1253 = DIRECTION('',(1.,0.,0.));
#1254 = ORIENTED_EDGE('',*,*,#1255,.F.);
#1255 = EDGE_CURVE('',#529,#1248,#1256,.T.);
#1256 = LINE('',#1257,#1258);
#1257 = CARTESIAN_POINT('',(3.25,13.,0.));
#1258 = VECTOR('',#1259,1.);
#1259 = DIRECTION('',(0.,0.,1.));
#1260 = ORIENTED_EDGE('',*,*,#536,.F.);
#1261 = PLANE('',#1262);
#1262 = AXIS2_PLACEMENT_3D('',#1263,#1264,#1265);
#1263 = CARTESIAN_POINT('',(-3.25,13.,0.));
#1264 = DIRECTION('',(0.,1.,0.));
#1265 = DIRECTION('',(1.,0.,0.));
#1266 = ADVANCED_FACE('',(#1267),#1278,.F.);
#1267 = FACE_BOUND('',#1268,.F.);
#1268 = EDGE_LOOP('',(#1269,#1270,#1276,#1277));
#1269 = ORIENTED_EDGE('',*,*,#1255,.T.);
#1270 = ORIENTED_EDGE('',*,*,#1271,.T.);
#1271 = EDGE_CURVE('',#1248,#1223,#1272,.T.);
#1272 = LINE('',#1273,#1274);
#1273 = CARTESIAN_POINT('',(3.25,13.,6.5));
#1274 = VECTOR('',#1275,1.);
#1275 = DIRECTION('',(0.,-1.,0.));
#1276 = ORIENTED_EDGE('',*,*,#1222,.F.);
#1277 = ORIENTED_EDGE('',*,*,#553,.F.);
#1278 = PLANE('',#1279);
#1279 = AXIS2_PLACEMENT_3D('',#1280,#1281,#1282);
#1280 = CARTESIAN_POINT('',(3.25,13.,0.));
#1281 = DIRECTION('',(1.,0.,0.));
#1282 = DIRECTION('',(0.,-1.,0.));
#1283 = ADVANCED_FACE('',(#1284),#1309,.F.);
#1284 = FACE_BOUND('',#1285,.F.);
#1285 = EDGE_LOOP('',(#1286,#1294,#1302,#1308));
#1286 = ORIENTED_EDGE('',*,*,#1287,.T.);
#1287 = EDGE_CURVE('',#568,#1288,#1290,.T.);
#1288 = VERTEX_POINT('',#1289);
#1289 = CARTESIAN_POINT('',(10.5,-3.25,6.5));
#1290 = LINE('',#1291,#1292);
#1291 = CARTESIAN_POINT('',(10.5,-3.25,0.));
#1292 = VECTOR('',#1293,1.);
#1293 = DIRECTION('',(0.,0.,1.));
#1294 = ORIENTED_EDGE('',*,*,#1295,.T.);
#1295 = EDGE_CURVE('',#1288,#1296,#1298,.T.);
#1296 = VERTEX_POINT('',#1297);
#1297 = CARTESIAN_POINT('',(10.5,3.25,6.5));
#1298 = LINE('',#1299,#1300);
#1299 = CARTESIAN_POINT('',(10.5,-3.25,6.5));
#1300 = VECTOR('',#1301,1.);
#1301 = DIRECTION('',(0.,1.,0.));
#1302 = ORIENTED_EDGE('',*,*,#1303,.F.);
#1303 = EDGE_CURVE('',#577,#1296,#1304,.T.);
#1304 = LINE('',#1305,#1306);
#1305 = CARTESIAN_POINT('',(10.5,3.25,0.));
#1306 = VECTOR('',#1307,1.);
#1307 = DIRECTION('',(0.,0.,1.));
#1308 = ORIENTED_EDGE('',*,*,#584,.F.);
#1309 = PLANE('',#1310);
#1310 = AXIS2_PLACEMENT_3D('',#1311,#1312,#1313);
#1311 = CARTESIAN_POINT('',(10.5,-3.25,0.));
#1312 = DIRECTION('',(-1.,0.,0.));
#1313 = DIRECTION('',(0.,1.,0.));
#1314 = ADVANCED_FACE('',(#1315),#1333,.F.);
#1315 = FACE_BOUND('',#1316,.F.);
#1316 = EDGE_LOOP('',(#1317,#1325,#1331,#1332));
#1317 = ORIENTED_EDGE('',*,*,#1318,.T.);
#1318 = EDGE_CURVE('',#599,#1319,#1321,.T.);
#1319 = VERTEX_POINT('',#1320);
#1320 = CARTESIAN_POINT('',(13.,-3.25,6.5));
#1321 = LINE('',#1322,#1323);
#1322 = CARTESIAN_POINT('',(13.,-3.25,0.));
#1323 = VECTOR('',#1324,1.);
#1324 = DIRECTION('',(0.,0.,1.));
#1325 = ORIENTED_EDGE('',*,*,#1326,.T.);
#1326 = EDGE_CURVE('',#1319,#1288,#1327,.T.);
#1327 = LINE('',#1328,#1329);
#1328 = CARTESIAN_POINT('',(13.,-3.25,6.5));
#1329 = VECTOR('',#1330,1.);
#1330 = DIRECTION('',(-1.,0.,0.));
#1331 = ORIENTED_EDGE('',*,*,#1287,.F.);
#1332 = ORIENTED_EDGE('',*,*,#608,.F.);
#1333 = PLANE('',#1334);
#1334 = AXIS2_PLACEMENT_3D('',#1335,#1336,#1337);
#1335 = CARTESIAN_POINT('',(13.,-3.25,0.));
#1336 = DIRECTION('',(0.,-1.,0.));
#1337 = DIRECTION('',(-1.,0.,0.));
#1338 = ADVANCED_FACE('',(#1339),#1357,.F.);
#1339 = FACE_BOUND('',#1340,.F.);
#1340 = EDGE_LOOP('',(#1341,#1342,#1350,#1356));
#1341 = ORIENTED_EDGE('',*,*,#1303,.T.);
#1342 = ORIENTED_EDGE('',*,*,#1343,.T.);
#1343 = EDGE_CURVE('',#1296,#1344,#1346,.T.);
#1344 = VERTEX_POINT('',#1345);
#1345 = CARTESIAN_POINT('',(13.,3.25,6.5));
#1346 = LINE('',#1347,#1348);
#1347 = CARTESIAN_POINT('',(10.5,3.25,6.5));
#1348 = VECTOR('',#1349,1.);
#1349 = DIRECTION('',(1.,0.,0.));
#1350 = ORIENTED_EDGE('',*,*,#1351,.F.);
#1351 = EDGE_CURVE('',#625,#1344,#1352,.T.);
#1352 = LINE('',#1353,#1354);
#1353 = CARTESIAN_POINT('',(13.,3.25,0.));
#1354 = VECTOR('',#1355,1.);
#1355 = DIRECTION('',(0.,0.,1.));
#1356 = ORIENTED_EDGE('',*,*,#632,.F.);
#1357 = PLANE('',#1358);
#1358 = AXIS2_PLACEMENT_3D('',#1359,#1360,#1361);
#1359 = CARTESIAN_POINT('',(10.5,3.25,0.));
#1360 = DIRECTION('',(0.,1.,0.));
#1361 = DIRECTION('',(1.,0.,0.));
#1362 = ADVANCED_FACE('',(#1363),#1374,.F.);
#1363 = FACE_BOUND('',#1364,.F.);
#1364 = EDGE_LOOP('',(#1365,#1366,#1372,#1373));
#1365 = ORIENTED_EDGE('',*,*,#1351,.T.);
#1366 = ORIENTED_EDGE('',*,*,#1367,.T.);
#1367 = EDGE_CURVE('',#1344,#1319,#1368,.T.);
#1368 = LINE('',#1369,#1370);
#1369 = CARTESIAN_POINT('',(13.,3.25,6.5));
#1370 = VECTOR('',#1371,1.);
#1371 = DIRECTION('',(0.,-1.,0.));
#1372 = ORIENTED_EDGE('',*,*,#1318,.F.);
#1373 = ORIENTED_EDGE('',*,*,#649,.F.);
#1374 = PLANE('',#1375);
#1375 = AXIS2_PLACEMENT_3D('',#1376,#1377,#1378);
#1376 = CARTESIAN_POINT('',(13.,3.25,0.));
#1377 = DIRECTION('',(1.,0.,0.));
#1378 = DIRECTION('',(0.,-1.,0.));
#1379 = ADVANCED_FACE('',(#1380),#1405,.F.);
#1380 = FACE_BOUND('',#1381,.F.);
#1381 = EDGE_LOOP('',(#1382,#1390,#1398,#1404));
#1382 = ORIENTED_EDGE('',*,*,#1383,.T.);
#1383 = EDGE_CURVE('',#664,#1384,#1386,.T.);
#1384 = VERTEX_POINT('',#1385);
#1385 = CARTESIAN_POINT('',(-8.7,-8.7,9.3));
#1386 = LINE('',#1387,#1388);
#1387 = CARTESIAN_POINT('',(-8.7,-8.7,0.));
#1388 = VECTOR('',#1389,1.);
#1389 = DIRECTION('',(0.,0.,1.));
#1390 = ORIENTED_EDGE('',*,*,#1391,.T.);
#1391 = EDGE_CURVE('',#1384,#1392,#1394,.T.);
#1392 = VERTEX_POINT('',#1393);
#1393 = CARTESIAN_POINT('',(-8.7,8.7,9.3));
#1394 = LINE('',#1395,#1396);
#1395 = CARTESIAN_POINT('',(-8.7,-8.7,9.3));
#1396 = VECTOR('',#1397,1.);
#1397 = DIRECTION('',(0.,1.,0.));
#1398 = ORIENTED_EDGE('',*,*,#1399,.F.);
#1399 = EDGE_CURVE('',#673,#1392,#1400,.T.);
#1400 = LINE('',#1401,#1402);
#1401 = CARTESIAN_POINT('',(-8.7,8.7,0.));
#1402 = VECTOR('',#1403,1.);
#1403 = DIRECTION('',(0.,0.,1.));
#1404 = ORIENTED_EDGE('',*,*,#680,.F.);
#1405 = PLANE('',#1406);
#1406 = AXIS2_PLACEMENT_3D('',#1407,#1408,#1409);
#1407 = CARTESIAN_POINT('',(-8.7,-8.7,0.));
#1408 = DIRECTION('',(-1.,0.,0.));
#1409 = DIRECTION('',(0.,1.,0.));
#1410 = ADVANCED_FACE('',(#1411),#1429,.F.);
#1411 = FACE_BOUND('',#1412,.F.);
#1412 = EDGE_LOOP('',(#1413,#1421,#1427,#1428));
#1413 = ORIENTED_EDGE('',*,*,#1414,.T.);
#1414 = EDGE_CURVE('',#695,#1415,#1417,.T.);
#1415 = VERTEX_POINT('',#1416);
#1416 = CARTESIAN_POINT('',(8.7,-8.7,9.3));
#1417 = LINE('',#1418,#1419);
#1418 = CARTESIAN_POINT('',(8.7,-8.7,0.));
#1419 = VECTOR('',#1420,1.);
#1420 = DIRECTION('',(0.,0.,1.));
#1421 = ORIENTED_EDGE('',*,*,#1422,.T.);
#1422 = EDGE_CURVE('',#1415,#1384,#1423,.T.);
#1423 = LINE('',#1424,#1425);
#1424 = CARTESIAN_POINT('',(8.7,-8.7,9.3));
#1425 = VECTOR('',#1426,1.);
#1426 = DIRECTION('',(-1.,0.,0.));
#1427 = ORIENTED_EDGE('',*,*,#1383,.F.);
#1428 = ORIENTED_EDGE('',*,*,#704,.F.);
#1429 = PLANE('',#1430);
#1430 = AXIS2_PLACEMENT_3D('',#1431,#1432,#1433);
#1431 = CARTESIAN_POINT('',(8.7,-8.7,0.));
#1432 = DIRECTION('',(0.,-1.,0.));
#1433 = DIRECTION('',(-1.,0.,0.));
#1434 = ADVANCED_FACE('',(#1435),#1453,.F.);
#1435 = FACE_BOUND('',#1436,.F.);
#1436 = EDGE_LOOP('',(#1437,#1438,#1446,#1452));
#1437 = ORIENTED_EDGE('',*,*,#1399,.T.);
#1438 = ORIENTED_EDGE('',*,*,#1439,.T.);
#1439 = EDGE_CURVE('',#1392,#1440,#1442,.T.);
#1440 = VERTEX_POINT('',#1441);
#1441 = CARTESIAN_POINT('',(8.7,8.7,9.3));
#1442 = LINE('',#1443,#1444);
#1443 = CARTESIAN_POINT('',(-8.7,8.7,9.3));
#1444 = VECTOR('',#1445,1.);
#1445 = DIRECTION('',(1.,0.,0.));
#1446 = ORIENTED_EDGE('',*,*,#1447,.F.);
#1447 = EDGE_CURVE('',#721,#1440,#1448,.T.);
#1448 = LINE('',#1449,#1450);
#1449 = CARTESIAN_POINT('',(8.7,8.7,0.));
#1450 = VECTOR('',#1451,1.);
#1451 = DIRECTION('',(0.,0.,1.));
#1452 = ORIENTED_EDGE('',*,*,#728,.F.);
#1453 = PLANE('',#1454);
#1454 = AXIS2_PLACEMENT_3D('',#1455,#1456,#1457);
#1455 = CARTESIAN_POINT('',(-8.7,8.7,0.));
#1456 = DIRECTION('',(0.,1.,0.));
#1457 = DIRECTION('',(1.,0.,0.));
#1458 = ADVANCED_FACE('',(#1459),#1470,.F.);
#1459 = FACE_BOUND('',#1460,.F.);
#1460 = EDGE_LOOP('',(#1461,#1462,#1468,#1469));
#1461 = ORIENTED_EDGE('',*,*,#1447,.T.);
#1462 = ORIENTED_EDGE('',*,*,#1463,.T.);
#1463 = EDGE_CURVE('',#1440,#1415,#1464,.T.);
#1464 = LINE('',#1465,#1466);
#1465 = CARTESIAN_POINT('',(8.7,8.7,9.3));
#1466 = VECTOR('',#1467,1.);
#1467 = DIRECTION('',(0.,-1.,0.));
#1468 = ORIENTED_EDGE('',*,*,#1414,.F.);
#1469 = ORIENTED_EDGE('',*,*,#745,.F.);
#1470 = PLANE('',#1471);
#1471 = AXIS2_PLACEMENT_3D('',#1472,#1473,#1474);
#1472 = CARTESIAN_POINT('',(8.7,8.7,0.));
#1473 = DIRECTION('',(1.,0.,0.));
#1474 = DIRECTION('',(0.,-1.,0.));
#1475 = ADVANCED_FACE('',(#1476),#1501,.F.);
#1476 = FACE_BOUND('',#1477,.F.);
#1477 = EDGE_LOOP('',(#1478,#1486,#1494,#1500));
#1478 = ORIENTED_EDGE('',*,*,#1479,.T.);
#1479 = EDGE_CURVE('',#769,#1480,#1482,.T.);
#1480 = VERTEX_POINT('',#1481);
#1481 = CARTESIAN_POINT('',(16.994116628998,-4.E-15,8.497058314499));
#1482 = LINE('',#1483,#1484);
#1483 = CARTESIAN_POINT('',(13.74852915725,9.988891130264,
    -8.497058314499));
#1484 = VECTOR('',#1485,1.);
#1485 = DIRECTION('',(0.162459848116,-0.5,0.850650808352));
#1486 = ORIENTED_EDGE('',*,*,#1487,.T.);
#1487 = EDGE_CURVE('',#1480,#1488,#1490,.T.);
#1488 = VERTEX_POINT('',#1489);
#1489 = CARTESIAN_POINT('',(5.25147084275,16.162365358689,8.497058314499
    ));
#1490 = LINE('',#1491,#1492);
#1491 = CARTESIAN_POINT('',(16.994116628998,-4.16E-15,8.497058314499));
#1492 = VECTOR('',#1493,1.);
#1493 = DIRECTION('',(-0.587785252292,0.809016994375,0.));
#1494 = ORIENTED_EDGE('',*,*,#1495,.T.);
#1495 = EDGE_CURVE('',#1488,#760,#1496,.T.);
#1496 = LINE('',#1497,#1498);
#1497 = CARTESIAN_POINT('',(5.25147084275,16.162365358689,8.497058314499
    ));
#1498 = VECTOR('',#1499,1.);
#1499 = DIRECTION('',(0.425325404176,-0.309016994375,-0.850650808352));
#1500 = ORIENTED_EDGE('',*,*,#776,.T.);
#1501 = PLANE('',#1502);
#1502 = AXIS2_PLACEMENT_3D('',#1503,#1504,#1505);
#1503 = CARTESIAN_POINT('',(11.998038876333,8.717085496317,2.8323527715)
  );
#1504 = DIRECTION('',(-0.794654472292,-0.57735026919,-0.187592474085));
#1505 = DIRECTION('',(0.587785252292,-0.809016994375,-1.387778780781E-17
    ));
#1506 = ADVANCED_FACE('',(#1507),#1517,.T.);
#1507 = FACE_BOUND('',#1508,.T.);
#1508 = EDGE_LOOP('',(#1509,#1510,#1511));
#1509 = ORIENTED_EDGE('',*,*,#1495,.T.);
#1510 = ORIENTED_EDGE('',*,*,#800,.T.);
#1511 = ORIENTED_EDGE('',*,*,#1512,.T.);
#1512 = EDGE_CURVE('',#793,#1488,#1513,.T.);
#1513 = LINE('',#1514,#1515);
#1514 = CARTESIAN_POINT('',(-5.25147084275,16.162365358689,
    -8.497058314499));
#1515 = VECTOR('',#1516,1.);
#1516 = DIRECTION('',(0.525731112119,0.,0.850650808352));
#1517 = PLANE('',#1518);
#1518 = AXIS2_PLACEMENT_3D('',#1519,#1520,#1521);
#1519 = CARTESIAN_POINT('',(4.582843052417,14.10454061588,-2.8323527715)
  );
#1520 = DIRECTION('',(0.303530999103,0.934172358963,-0.187592474085));
#1521 = DIRECTION('',(0.951056516295,-0.309016994375,0.));
#1522 = ADVANCED_FACE('',(#1523),#1533,.T.);
#1523 = FACE_BOUND('',#1524,.T.);
#1524 = EDGE_LOOP('',(#1525,#1531,#1532));
#1525 = ORIENTED_EDGE('',*,*,#1526,.T.);
#1526 = EDGE_CURVE('',#1480,#815,#1527,.T.);
#1527 = LINE('',#1528,#1529);
#1528 = CARTESIAN_POINT('',(16.994116628998,-4.16E-15,8.497058314499));
#1529 = VECTOR('',#1530,1.);
#1530 = DIRECTION('',(-0.162459848116,-0.5,-0.850650808352));
#1531 = ORIENTED_EDGE('',*,*,#824,.T.);
#1532 = ORIENTED_EDGE('',*,*,#1479,.T.);
#1533 = PLANE('',#1534);
#1534 = AXIS2_PLACEMENT_3D('',#1535,#1536,#1537);
#1535 = CARTESIAN_POINT('',(14.830391647833,-3.79E-15,-2.8323527715));
#1536 = DIRECTION('',(0.982246946377,-1.8E-16,-0.187592474085));
#1537 = DIRECTION('',(0.187592474085,-6.162975822039E-33,0.982246946377)
  );
#1538 = ADVANCED_FACE('',(#1539),#1557,.F.);
#1539 = FACE_BOUND('',#1540,.F.);
#1540 = EDGE_LOOP('',(#1541,#1542,#1550,#1556));
#1541 = ORIENTED_EDGE('',*,*,#1512,.T.);
#1542 = ORIENTED_EDGE('',*,*,#1543,.T.);
#1543 = EDGE_CURVE('',#1488,#1544,#1546,.T.);
#1544 = VERTEX_POINT('',#1545);
#1545 = CARTESIAN_POINT('',(-13.74852915725,9.988891130264,
    8.497058314499));
#1546 = LINE('',#1547,#1548);
#1547 = CARTESIAN_POINT('',(5.25147084275,16.162365358689,8.497058314499
    ));
#1548 = VECTOR('',#1549,1.);
#1549 = DIRECTION('',(-0.951056516295,-0.309016994375,0.));
#1550 = ORIENTED_EDGE('',*,*,#1551,.T.);
#1551 = EDGE_CURVE('',#1544,#839,#1552,.T.);
#1552 = LINE('',#1553,#1554);
#1553 = CARTESIAN_POINT('',(-13.74852915725,9.988891130264,
    8.497058314499));
#1554 = VECTOR('',#1555,1.);
#1555 = DIRECTION('',(0.425325404176,0.309016994375,-0.850650808352));
#1556 = ORIENTED_EDGE('',*,*,#848,.T.);
#1557 = PLANE('',#1558);
#1558 = AXIS2_PLACEMENT_3D('',#1559,#1560,#1561);
#1559 = CARTESIAN_POINT('',(-4.582843052417,14.10454061588,2.8323527715)
  );
#1560 = DIRECTION('',(0.303530999103,-0.934172358963,-0.187592474085));
#1561 = DIRECTION('',(-0.951056516295,-0.309016994375,
    -1.387778780781E-17));
#1562 = ADVANCED_FACE('',(#1563),#1581,.F.);
#1563 = FACE_BOUND('',#1564,.F.);
#1564 = EDGE_LOOP('',(#1565,#1573,#1579,#1580));
#1565 = ORIENTED_EDGE('',*,*,#1566,.T.);
#1566 = EDGE_CURVE('',#865,#1567,#1569,.T.);
#1567 = VERTEX_POINT('',#1568);
#1568 = CARTESIAN_POINT('',(5.25147084275,-16.16236535868,8.497058314499
    ));
#1569 = LINE('',#1570,#1571);
#1570 = CARTESIAN_POINT('',(13.74852915725,-9.988891130264,
    -8.497058314499));
#1571 = VECTOR('',#1572,1.);
#1572 = DIRECTION('',(-0.425325404176,-0.309016994375,0.850650808352));
#1573 = ORIENTED_EDGE('',*,*,#1574,.T.);
#1574 = EDGE_CURVE('',#1567,#1480,#1575,.T.);
#1575 = LINE('',#1576,#1577);
#1576 = CARTESIAN_POINT('',(5.25147084275,-16.16236535868,8.497058314499
    ));
#1577 = VECTOR('',#1578,1.);
#1578 = DIRECTION('',(0.587785252292,0.809016994375,0.));
#1579 = ORIENTED_EDGE('',*,*,#1526,.T.);
#1580 = ORIENTED_EDGE('',*,*,#872,.T.);
#1581 = PLANE('',#1582);
#1582 = AXIS2_PLACEMENT_3D('',#1583,#1584,#1585);
#1583 = CARTESIAN_POINT('',(11.998038876333,-8.717085496317,2.8323527715
    ));
#1584 = DIRECTION('',(-0.794654472292,0.57735026919,-0.187592474085));
#1585 = DIRECTION('',(-0.587785252292,-0.809016994375,
    -1.387778780781E-17));
#1586 = ADVANCED_FACE('',(#1587),#1597,.T.);
#1587 = FACE_BOUND('',#1588,.T.);
#1588 = EDGE_LOOP('',(#1589,#1590,#1591));
#1589 = ORIENTED_EDGE('',*,*,#1551,.T.);
#1590 = ORIENTED_EDGE('',*,*,#896,.T.);
#1591 = ORIENTED_EDGE('',*,*,#1592,.T.);
#1592 = EDGE_CURVE('',#889,#1544,#1593,.T.);
#1593 = LINE('',#1594,#1595);
#1594 = CARTESIAN_POINT('',(-16.99411662899,6.24E-15,-8.497058314499));
#1595 = VECTOR('',#1596,1.);
#1596 = DIRECTION('',(0.162459848116,0.5,0.850650808352));
#1597 = PLANE('',#1598);
#1598 = AXIS2_PLACEMENT_3D('',#1599,#1600,#1601);
#1599 = CARTESIAN_POINT('',(-11.99803887633,8.717085496317,-2.8323527715
    ));
#1600 = DIRECTION('',(-0.794654472292,0.57735026919,-0.187592474085));
#1601 = DIRECTION('',(-0.587785252292,-0.809016994375,2.081668171172E-16
    ));
#1602 = ADVANCED_FACE('',(#1603),#1613,.T.);
#1603 = FACE_BOUND('',#1604,.T.);
#1604 = EDGE_LOOP('',(#1605,#1611,#1612));
#1605 = ORIENTED_EDGE('',*,*,#1606,.T.);
#1606 = EDGE_CURVE('',#1567,#911,#1607,.T.);
#1607 = LINE('',#1608,#1609);
#1608 = CARTESIAN_POINT('',(5.25147084275,-16.16236535868,8.497058314499
    ));
#1609 = VECTOR('',#1610,1.);
#1610 = DIRECTION('',(-0.525731112119,0.,-0.850650808352));
#1611 = ORIENTED_EDGE('',*,*,#920,.T.);
#1612 = ORIENTED_EDGE('',*,*,#1566,.T.);
#1613 = PLANE('',#1614);
#1614 = AXIS2_PLACEMENT_3D('',#1615,#1616,#1617);
#1615 = CARTESIAN_POINT('',(4.582843052417,-14.10454061588,-2.8323527715
    ));
#1616 = DIRECTION('',(0.303530999103,-0.934172358963,-0.187592474085));
#1617 = DIRECTION('',(-0.951056516295,-0.309016994375,0.));
#1618 = ADVANCED_FACE('',(#1619),#1637,.F.);
#1619 = FACE_BOUND('',#1620,.F.);
#1620 = EDGE_LOOP('',(#1621,#1622,#1630,#1636));
#1621 = ORIENTED_EDGE('',*,*,#1592,.T.);
#1622 = ORIENTED_EDGE('',*,*,#1623,.T.);
#1623 = EDGE_CURVE('',#1544,#1624,#1626,.T.);
#1624 = VERTEX_POINT('',#1625);
#1625 = CARTESIAN_POINT('',(-13.74852915725,-9.988891130264,
    8.497058314499));
#1626 = LINE('',#1627,#1628);
#1627 = CARTESIAN_POINT('',(-13.74852915725,9.988891130264,
    8.497058314499));
#1628 = VECTOR('',#1629,1.);
#1629 = DIRECTION('',(-3.6E-16,-1.,0.));
#1630 = ORIENTED_EDGE('',*,*,#1631,.T.);
#1631 = EDGE_CURVE('',#1624,#935,#1632,.T.);
#1632 = LINE('',#1633,#1634);
#1633 = CARTESIAN_POINT('',(-13.74852915725,-9.988891130264,
    8.497058314499));
#1634 = VECTOR('',#1635,1.);
#1635 = DIRECTION('',(-0.162459848116,0.5,-0.850650808352));
#1636 = ORIENTED_EDGE('',*,*,#944,.T.);
#1637 = PLANE('',#1638);
#1638 = AXIS2_PLACEMENT_3D('',#1639,#1640,#1641);
#1639 = CARTESIAN_POINT('',(-14.83039164783,4.51E-15,2.8323527715));
#1640 = DIRECTION('',(0.982246946377,-3.5E-16,-0.187592474085));
#1641 = DIRECTION('',(0.187592474085,0.,0.982246946377));
#1642 = ADVANCED_FACE('',(#1643),#1659,.F.);
#1643 = FACE_BOUND('',#1644,.F.);
#1644 = EDGE_LOOP('',(#1645,#1651,#1657,#1658));
#1645 = ORIENTED_EDGE('',*,*,#1646,.T.);
#1646 = EDGE_CURVE('',#961,#1624,#1647,.T.);
#1647 = LINE('',#1648,#1649);
#1648 = CARTESIAN_POINT('',(-5.25147084275,-16.16236535868,
    -8.497058314499));
#1649 = VECTOR('',#1650,1.);
#1650 = DIRECTION('',(-0.425325404176,0.309016994375,0.850650808352));
#1651 = ORIENTED_EDGE('',*,*,#1652,.T.);
#1652 = EDGE_CURVE('',#1624,#1567,#1653,.T.);
#1653 = LINE('',#1654,#1655);
#1654 = CARTESIAN_POINT('',(-13.74852915725,-9.988891130264,
    8.497058314499));
#1655 = VECTOR('',#1656,1.);
#1656 = DIRECTION('',(0.951056516295,-0.309016994375,0.));
#1657 = ORIENTED_EDGE('',*,*,#1606,.T.);
#1658 = ORIENTED_EDGE('',*,*,#968,.T.);
#1659 = PLANE('',#1660);
#1660 = AXIS2_PLACEMENT_3D('',#1661,#1662,#1663);
#1661 = CARTESIAN_POINT('',(-4.582843052417,-14.10454061588,2.8323527715
    ));
#1662 = DIRECTION('',(0.303530999103,0.934172358963,-0.187592474085));
#1663 = DIRECTION('',(0.951056516295,-0.309016994375,0.));
#1664 = ADVANCED_FACE('',(#1665),#1670,.T.);
#1665 = FACE_BOUND('',#1666,.T.);
#1666 = EDGE_LOOP('',(#1667,#1668,#1669));
#1667 = ORIENTED_EDGE('',*,*,#1631,.T.);
#1668 = ORIENTED_EDGE('',*,*,#985,.T.);
#1669 = ORIENTED_EDGE('',*,*,#1646,.T.);
#1670 = PLANE('',#1671);
#1671 = AXIS2_PLACEMENT_3D('',#1672,#1673,#1674);
#1672 = CARTESIAN_POINT('',(-11.99803887633,-8.717085496317,
    -2.8323527715));
#1673 = DIRECTION('',(-0.794654472292,-0.57735026919,-0.187592474085));
#1674 = DIRECTION('',(0.587785252292,-0.809016994375,-6.938893903907E-17
    ));
#1675 = ADVANCED_FACE('',(#1676),#1682,.F.);
#1676 = FACE_BOUND('',#1677,.T.);
#1677 = EDGE_LOOP('',(#1678,#1679,#1680,#1681));
#1678 = ORIENTED_EDGE('',*,*,#1079,.T.);
#1679 = ORIENTED_EDGE('',*,*,#1038,.T.);
#1680 = ORIENTED_EDGE('',*,*,#1007,.T.);
#1681 = ORIENTED_EDGE('',*,*,#1055,.T.);
#1682 = PLANE('',#1683);
#1683 = AXIS2_PLACEMENT_3D('',#1684,#1685,#1686);
#1684 = CARTESIAN_POINT('',(-2.E-16,3.9E-16,6.5));
#1685 = DIRECTION('',(0.,0.,1.));
#1686 = DIRECTION('',(1.,0.,0.));
#1687 = ADVANCED_FACE('',(#1688),#1694,.F.);
#1688 = FACE_BOUND('',#1689,.T.);
#1689 = EDGE_LOOP('',(#1690,#1691,#1692,#1693));
#1690 = ORIENTED_EDGE('',*,*,#1103,.T.);
#1691 = ORIENTED_EDGE('',*,*,#1151,.T.);
#1692 = ORIENTED_EDGE('',*,*,#1175,.T.);
#1693 = ORIENTED_EDGE('',*,*,#1134,.T.);
#1694 = PLANE('',#1695);
#1695 = AXIS2_PLACEMENT_3D('',#1696,#1697,#1698);
#1696 = CARTESIAN_POINT('',(-2.E-16,3.9E-16,6.5));
#1697 = DIRECTION('',(0.,0.,1.));
#1698 = DIRECTION('',(1.,0.,0.));
#1699 = ADVANCED_FACE('',(#1700),#1706,.F.);
#1700 = FACE_BOUND('',#1701,.T.);
#1701 = EDGE_LOOP('',(#1702,#1703,#1704,#1705));
#1702 = ORIENTED_EDGE('',*,*,#1247,.T.);
#1703 = ORIENTED_EDGE('',*,*,#1271,.T.);
#1704 = ORIENTED_EDGE('',*,*,#1230,.T.);
#1705 = ORIENTED_EDGE('',*,*,#1199,.T.);
#1706 = PLANE('',#1707);
#1707 = AXIS2_PLACEMENT_3D('',#1708,#1709,#1710);
#1708 = CARTESIAN_POINT('',(-2.E-16,3.9E-16,6.5));
#1709 = DIRECTION('',(0.,0.,1.));
#1710 = DIRECTION('',(1.,0.,0.));
#1711 = ADVANCED_FACE('',(#1712),#1718,.F.);
#1712 = FACE_BOUND('',#1713,.T.);
#1713 = EDGE_LOOP('',(#1714,#1715,#1716,#1717));
#1714 = ORIENTED_EDGE('',*,*,#1295,.T.);
#1715 = ORIENTED_EDGE('',*,*,#1343,.T.);
#1716 = ORIENTED_EDGE('',*,*,#1367,.T.);
#1717 = ORIENTED_EDGE('',*,*,#1326,.T.);
#1718 = PLANE('',#1719);
#1719 = AXIS2_PLACEMENT_3D('',#1720,#1721,#1722);
#1720 = CARTESIAN_POINT('',(-2.E-16,3.9E-16,6.5));
#1721 = DIRECTION('',(0.,0.,1.));
#1722 = DIRECTION('',(1.,0.,0.));
#1723 = ADVANCED_FACE('',(#1724),#1730,.F.);
#1724 = FACE_BOUND('',#1725,.T.);
#1725 = EDGE_LOOP('',(#1726,#1727,#1728,#1729));
#1726 = ORIENTED_EDGE('',*,*,#1391,.T.);
#1727 = ORIENTED_EDGE('',*,*,#1439,.T.);
#1728 = ORIENTED_EDGE('',*,*,#1463,.T.);
#1729 = ORIENTED_EDGE('',*,*,#1422,.T.);
#1730 = PLANE('',#1731);
#1731 = AXIS2_PLACEMENT_3D('',#1732,#1733,#1734);
#1732 = CARTESIAN_POINT('',(4.1E-16,-4.1E-16,9.3));
#1733 = DIRECTION('',(0.,0.,1.));
#1734 = DIRECTION('',(1.,0.,0.));
#1735 = ADVANCED_FACE('',(#1736),#1753,.T.);
#1736 = FACE_BOUND('',#1737,.T.);
#1737 = EDGE_LOOP('',(#1738,#1746,#1747));
#1738 = ORIENTED_EDGE('',*,*,#1739,.F.);
#1739 = EDGE_CURVE('',#1480,#1740,#1742,.T.);
#1740 = VERTEX_POINT('',#1741);
#1741 = CARTESIAN_POINT('',(0.,0.,19.));
#1742 = LINE('',#1743,#1744);
#1743 = CARTESIAN_POINT('',(16.994116628998,-4.16E-15,8.497058314499));
#1744 = VECTOR('',#1745,1.);
#1745 = DIRECTION('',(-0.850650808352,2.1E-16,0.525731112119));
#1746 = ORIENTED_EDGE('',*,*,#1487,.T.);
#1747 = ORIENTED_EDGE('',*,*,#1748,.T.);
#1748 = EDGE_CURVE('',#1488,#1740,#1749,.T.);
#1749 = LINE('',#1750,#1751);
#1750 = CARTESIAN_POINT('',(5.25147084275,16.162365358689,8.497058314499
    ));
#1751 = VECTOR('',#1752,1.);
#1752 = DIRECTION('',(-0.26286555606,-0.809016994375,0.525731112119));
#1753 = PLANE('',#1754);
#1754 = AXIS2_PLACEMENT_3D('',#1755,#1756,#1757);
#1755 = CARTESIAN_POINT('',(7.415195823916,5.387455119563,
    11.998038876333));
#1756 = DIRECTION('',(0.491123473188,0.356822089773,0.794654472292));
#1757 = DIRECTION('',(0.850650808352,-1.387778780781E-16,-0.525731112119
    ));
#1758 = ADVANCED_FACE('',(#1759),#1769,.T.);
#1759 = FACE_BOUND('',#1760,.T.);
#1760 = EDGE_LOOP('',(#1761,#1762,#1763));
#1761 = ORIENTED_EDGE('',*,*,#1748,.F.);
#1762 = ORIENTED_EDGE('',*,*,#1543,.T.);
#1763 = ORIENTED_EDGE('',*,*,#1764,.T.);
#1764 = EDGE_CURVE('',#1544,#1740,#1765,.T.);
#1765 = LINE('',#1766,#1767);
#1766 = CARTESIAN_POINT('',(-13.74852915725,9.988891130264,
    8.497058314499));
#1767 = VECTOR('',#1768,1.);
#1768 = DIRECTION('',(0.688190960236,-0.5,0.525731112119));
#1769 = PLANE('',#1770);
#1770 = AXIS2_PLACEMENT_3D('',#1771,#1772,#1773);
#1771 = CARTESIAN_POINT('',(-2.8323527715,8.717085496317,11.998038876333
    ));
#1772 = DIRECTION('',(-0.187592474085,0.57735026919,0.794654472292));
#1773 = DIRECTION('',(1.387778780781E-17,0.809016994375,-0.587785252292)
  );
#1774 = ADVANCED_FACE('',(#1775),#1785,.T.);
#1775 = FACE_BOUND('',#1776,.T.);
#1776 = EDGE_LOOP('',(#1777,#1783,#1784));
#1777 = ORIENTED_EDGE('',*,*,#1778,.F.);
#1778 = EDGE_CURVE('',#1567,#1740,#1779,.T.);
#1779 = LINE('',#1780,#1781);
#1780 = CARTESIAN_POINT('',(5.25147084275,-16.16236535868,8.497058314499
    ));
#1781 = VECTOR('',#1782,1.);
#1782 = DIRECTION('',(-0.26286555606,0.809016994375,0.525731112119));
#1783 = ORIENTED_EDGE('',*,*,#1574,.T.);
#1784 = ORIENTED_EDGE('',*,*,#1739,.T.);
#1785 = PLANE('',#1786);
#1786 = AXIS2_PLACEMENT_3D('',#1787,#1788,#1789);
#1787 = CARTESIAN_POINT('',(7.415195823916,-5.387455119563,
    11.998038876333));
#1788 = DIRECTION('',(0.491123473188,-0.356822089773,0.794654472292));
#1789 = DIRECTION('',(0.850650808352,0.,-0.525731112119));
#1790 = ADVANCED_FACE('',(#1791),#1801,.T.);
#1791 = FACE_BOUND('',#1792,.T.);
#1792 = EDGE_LOOP('',(#1793,#1794,#1795));
#1793 = ORIENTED_EDGE('',*,*,#1764,.F.);
#1794 = ORIENTED_EDGE('',*,*,#1623,.T.);
#1795 = ORIENTED_EDGE('',*,*,#1796,.F.);
#1796 = EDGE_CURVE('',#1740,#1624,#1797,.T.);
#1797 = LINE('',#1798,#1799);
#1798 = CARTESIAN_POINT('',(0.,0.,19.));
#1799 = VECTOR('',#1800,1.);
#1800 = DIRECTION('',(-0.688190960236,-0.5,-0.525731112119));
#1801 = PLANE('',#1802);
#1802 = AXIS2_PLACEMENT_3D('',#1803,#1804,#1805);
#1803 = CARTESIAN_POINT('',(-9.165686104833,1.66E-15,11.998038876333));
#1804 = DIRECTION('',(-0.607061998207,2.2E-16,0.794654472292));
#1805 = DIRECTION('',(0.794654472292,1.232595164408E-32,0.607061998207)
  );
#1806 = ADVANCED_FACE('',(#1807),#1812,.T.);
#1807 = FACE_BOUND('',#1808,.T.);
#1808 = EDGE_LOOP('',(#1809,#1810,#1811));
#1809 = ORIENTED_EDGE('',*,*,#1796,.T.);
#1810 = ORIENTED_EDGE('',*,*,#1652,.T.);
#1811 = ORIENTED_EDGE('',*,*,#1778,.T.);
#1812 = PLANE('',#1813);
#1813 = AXIS2_PLACEMENT_3D('',#1814,#1815,#1816);
#1814 = CARTESIAN_POINT('',(-2.8323527715,-8.717085496317,
    11.998038876333));
#1815 = DIRECTION('',(-0.187592474085,-0.57735026919,0.794654472292));
#1816 = DIRECTION('',(1.110223024625E-16,0.809016994375,0.587785252292)
  );
#1817 = ( GEOMETRIC_REPRESENTATION_CONTEXT(3) 
GLOBAL_UNCERTAINTY_ASSIGNED_CONTEXT((#1821)) 
GLOBAL_UNIT_ASSIGNED_CONTEXT((#1818,#1819,#1820)) REPRESENTATION_CONTEXT
('Context #1','3D Context with UNIT and UNCERTAINTY') );
#1818 = ( LENGTH_UNIT() NAMED_UNIT(*) SI_UNIT(.MILLI.,.METRE.) );
#1819 = ( NAMED_UNIT(*) PLANE_ANGLE_UNIT() SI_UNIT($,.RADIAN.) );
#1820 = ( NAMED_UNIT(*) SI_UNIT($,.STERADIAN.) SOLID_ANGLE_UNIT() );
#1821 = UNCERTAINTY_MEASURE_WITH_UNIT(LENGTH_MEASURE(5.E-05),#1818,
  'distance_accuracy_value','confusion accuracy');
#1822 = PRODUCT_RELATED_PRODUCT_CATEGORY('part',$,(#7));
#1823 = MECHANICAL_DESIGN_GEOMETRIC_PRESENTATION_REPRESENTATION('',(
    #1824),#1817);
#1824 = STYLED_ITEM('color',(#1825),#15);
#1825 = PRESENTATION_STYLE_ASSIGNMENT((#1826,#1832));
#1826 = SURFACE_STYLE_USAGE(.BOTH.,#1827);
#1827 = SURFACE_SIDE_STYLE('',(#1828));
#1828 = SURFACE_STYLE_FILL_AREA(#1829);
#1829 = FILL_AREA_STYLE('',(#1830));
#1830 = FILL_AREA_STYLE_COLOUR('',#1831);
#1831 = COLOUR_RGB('',0.447058818107,0.474509808674,0.501960817233);
#1832 = CURVE_STYLE('',#1833,POSITIVE_LENGTH_MEASURE(0.1),#1834);
#1833 = DRAUGHTING_PRE_DEFINED_CURVE_FONT('continuous');
#1834 = COLOUR_RGB('',9.803921802644E-02,9.803921802644E-02,
  9.803921802644E-02);
ENDSEC;
END-ISO-10303-21;
