ISO-10303-21;
HEADER;
FILE_DESCRIPTION(('FreeCAD Model'),'2;1');
FILE_NAME('Open CASCADE Shape Model','2025-05-13T23:43:25',(''),(''),
  'Open CASCADE STEP processor 7.8','FreeCAD','Unknown');
FILE_SCHEMA(('AUTOMOTIVE_DESIGN { 1 0 10303 214 1 1 1 1 }'));
ENDSEC;
DATA;
#1 = APPLICATION_PROTOCOL_DEFINITION('international standard',
  'automotive_design',2000,#2);
#2 = APPLICATION_CONTEXT(
  'core data for automotive mechanical design processes');
#3 = SHAPE_DEFINITION_REPRESENTATION(#4,#10);
#4 = PRODUCT_DEFINITION_SHAPE('','',#5);
#5 = PRODUCT_DEFINITION('design','',#6,#9);
#6 = PRODUCT_DEFINITION_FORMATION('','',#7);
#7 = PRODUCT('bottom','bottom','',(#8));
#8 = PRODUCT_CONTEXT('',#2,'mechanical');
#9 = PRODUCT_DEFINITION_CONTEXT('part definition',#2,'design');
#10 = ADVANCED_BREP_SHAPE_REPRESENTATION('',(#11,#15),#1817);
#11 = AXIS2_PLACEMENT_3D('',#12,#13,#14);
#12 = CARTESIAN_POINT('',(0.,0.,0.));
#13 = DIRECTION('',(0.,0.,1.));
#14 = DIRECTION('',(1.,0.,-0.));
#15 = MANIFOLD_SOLID_BREP('',#16);
#16 = CLOSED_SHELL('',(#17,#275,#306,#330,#354,#378,#402,#426,#450,#474,
    #498,#515,#546,#570,#594,#611,#642,#666,#690,#707,#738,#762,#786,
    #803,#834,#858,#882,#899,#930,#954,#978,#995,#1026,#1042,#1058,#1082
    ,#1106,#1122,#1138,#1162,#1184,#1195,#1226,#1250,#1274,#1291,#1322,
    #1346,#1370,#1387,#1418,#1442,#1466,#1483,#1514,#1538,#1562,#1579,
    #1610,#1634,#1658,#1675,#1698,#1714,#1730,#1746,#1757,#1769,#1781,
    #1793,#1805));
#17 = ADVANCED_FACE('',(#18,#100,#134,#168,#202,#236),#270,.F.);
#18 = FACE_BOUND('',#19,.F.);
#19 = EDGE_LOOP('',(#20,#30,#38,#46,#54,#62,#70,#78,#86,#94));
#20 = ORIENTED_EDGE('',*,*,#21,.F.);
#21 = EDGE_CURVE('',#22,#24,#26,.T.);
#22 = VERTEX_POINT('',#23);
#23 = CARTESIAN_POINT('',(9.345491502813,12.862965542388,0.));
#24 = VERTEX_POINT('',#25);
#25 = CARTESIAN_POINT('',(15.121322893124,4.913215641074,0.));
#26 = LINE('',#27,#28);
#27 = CARTESIAN_POINT('',(9.297745751406,12.928681931403,0.));
#28 = VECTOR('',#29,1.);
#29 = DIRECTION('',(0.587785252292,-0.809016994375,0.));
#30 = ORIENTED_EDGE('',*,*,#31,.T.);
#31 = EDGE_CURVE('',#22,#32,#34,.T.);
#32 = VERTEX_POINT('',#33);
#33 = CARTESIAN_POINT('',(-4.E-15,15.899499802629,0.));
#34 = LINE('',#35,#36);
#35 = CARTESIAN_POINT('',(9.422745751406,12.837864115402,2.2E-16));
#36 = VECTOR('',#37,1.);
#37 = DIRECTION('',(-0.951056516295,0.309016994375,0.));
#38 = ORIENTED_EDGE('',*,*,#39,.F.);
#39 = EDGE_CURVE('',#40,#32,#42,.T.);
#40 = VERTEX_POINT('',#41);
#41 = CARTESIAN_POINT('',(-9.345491502813,12.862965542388,2.E-15));
#42 = LINE('',#43,#44);
#43 = CARTESIAN_POINT('',(-9.422745751406,12.837864115402,0.));
#44 = VECTOR('',#45,1.);
#45 = DIRECTION('',(0.951056516295,0.309016994375,0.));
#46 = ORIENTED_EDGE('',*,*,#47,.T.);
#47 = EDGE_CURVE('',#40,#48,#50,.T.);
#48 = VERTEX_POINT('',#49);
#49 = CARTESIAN_POINT('',(-15.12132289312,4.913215641074,0.));
#50 = LINE('',#51,#52);
#51 = CARTESIAN_POINT('',(-9.297745751406,12.928681931403,2.2E-16));
#52 = VECTOR('',#53,1.);
#53 = DIRECTION('',(-0.587785252292,-0.809016994375,0.));
#54 = ORIENTED_EDGE('',*,*,#55,.F.);
#55 = EDGE_CURVE('',#56,#48,#58,.T.);
#56 = VERTEX_POINT('',#57);
#57 = CARTESIAN_POINT('',(-15.12132289312,-4.913215641074,0.));
#58 = LINE('',#59,#60);
#59 = CARTESIAN_POINT('',(-15.12132289312,-4.994445565132,0.));
#60 = VECTOR('',#61,1.);
#61 = DIRECTION('',(3.6E-16,1.,0.));
#62 = ORIENTED_EDGE('',*,*,#63,.T.);
#63 = EDGE_CURVE('',#56,#64,#66,.T.);
#64 = VERTEX_POINT('',#65);
#65 = CARTESIAN_POINT('',(-9.345491502813,-12.86296554238,1.E-15));
#66 = LINE('',#67,#68);
#67 = CARTESIAN_POINT('',(-15.16906864453,-4.847499252059,2.2E-16));
#68 = VECTOR('',#69,1.);
#69 = DIRECTION('',(0.587785252292,-0.809016994375,0.));
#70 = ORIENTED_EDGE('',*,*,#71,.F.);
#71 = EDGE_CURVE('',#72,#64,#74,.T.);
#72 = VERTEX_POINT('',#73);
#73 = CARTESIAN_POINT('',(2.E-15,-15.89949980262,1.E-15));
#74 = LINE('',#75,#76);
#75 = CARTESIAN_POINT('',(7.725424859373E-02,-15.92460122961,0.));
#76 = VECTOR('',#77,1.);
#77 = DIRECTION('',(-0.951056516295,0.309016994375,0.));
#78 = ORIENTED_EDGE('',*,*,#79,.T.);
#79 = EDGE_CURVE('',#72,#80,#82,.T.);
#80 = VERTEX_POINT('',#81);
#81 = CARTESIAN_POINT('',(9.345491502813,-12.86296554238,0.));
#82 = LINE('',#83,#84);
#83 = CARTESIAN_POINT('',(-7.725424859374E-02,-15.92460122961,0.));
#84 = VECTOR('',#85,1.);
#85 = DIRECTION('',(0.951056516295,0.309016994375,0.));
#86 = ORIENTED_EDGE('',*,*,#87,.F.);
#87 = EDGE_CURVE('',#88,#80,#90,.T.);
#88 = VERTEX_POINT('',#89);
#89 = CARTESIAN_POINT('',(15.121322893124,-4.913215641074,0.));
#90 = LINE('',#91,#92);
#91 = CARTESIAN_POINT('',(15.16906864453,-4.847499252059,-2.2E-16));
#92 = VECTOR('',#93,1.);
#93 = DIRECTION('',(-0.587785252292,-0.809016994375,0.));
#94 = ORIENTED_EDGE('',*,*,#95,.T.);
#95 = EDGE_CURVE('',#88,#24,#96,.T.);
#96 = LINE('',#97,#98);
#97 = CARTESIAN_POINT('',(15.121322893124,-4.994445565132,0.));
#98 = VECTOR('',#99,1.);
#99 = DIRECTION('',(1.8E-16,1.,0.));
#100 = FACE_BOUND('',#101,.F.);
#101 = EDGE_LOOP('',(#102,#112,#120,#128));
#102 = ORIENTED_EDGE('',*,*,#103,.F.);
#103 = EDGE_CURVE('',#104,#106,#108,.T.);
#104 = VERTEX_POINT('',#105);
#105 = CARTESIAN_POINT('',(10.619714073188,8.662226792444,-1.E-15));
#106 = VERTEX_POINT('',#107);
#107 = CARTESIAN_POINT('',(4.956595112563,12.776723558492,-2.E-15));
#108 = LINE('',#109,#110);
#109 = CARTESIAN_POINT('',(10.417459824594,8.809173105518,0.));
#110 = VECTOR('',#111,1.);
#111 = DIRECTION('',(-0.809016994375,0.587785252292,0.));
#112 = ORIENTED_EDGE('',*,*,#113,.F.);
#113 = EDGE_CURVE('',#114,#104,#116,.T.);
#114 = VERTEX_POINT('',#115);
#115 = CARTESIAN_POINT('',(8.85635831631,6.23517580932,-1.E-15));
#116 = LINE('',#117,#118);
#117 = CARTESIAN_POINT('',(9.003304629383,6.437430057913,0.));
#118 = VECTOR('',#119,1.);
#119 = DIRECTION('',(0.587785252292,0.809016994375,0.));
#120 = ORIENTED_EDGE('',*,*,#121,.F.);
#121 = EDGE_CURVE('',#122,#114,#124,.T.);
#122 = VERTEX_POINT('',#123);
#123 = CARTESIAN_POINT('',(3.193239355686,10.349672575367,0.));
#124 = LINE('',#125,#126);
#125 = CARTESIAN_POINT('',(3.395493604279,10.202726262294,0.));
#126 = VECTOR('',#127,1.);
#127 = DIRECTION('',(0.809016994375,-0.587785252292,0.));
#128 = ORIENTED_EDGE('',*,*,#129,.F.);
#129 = EDGE_CURVE('',#106,#122,#130,.T.);
#130 = LINE('',#131,#132);
#131 = CARTESIAN_POINT('',(4.80964879949,12.574469309898,0.));
#132 = VECTOR('',#133,1.);
#133 = DIRECTION('',(-0.587785252292,-0.809016994375,0.));
#134 = FACE_BOUND('',#135,.F.);
#135 = EDGE_LOOP('',(#136,#146,#154,#162));
#136 = ORIENTED_EDGE('',*,*,#137,.T.);
#137 = EDGE_CURVE('',#138,#140,#142,.T.);
#138 = VERTEX_POINT('',#139);
#139 = CARTESIAN_POINT('',(10.349672575367,-3.193239355686,0.));
#140 = VERTEX_POINT('',#141);
#141 = CARTESIAN_POINT('',(12.776723558492,-4.956595112563,0.));
#142 = LINE('',#143,#144);
#143 = CARTESIAN_POINT('',(10.551926823961,-3.340185668759,0.));
#144 = VECTOR('',#145,1.);
#145 = DIRECTION('',(0.809016994375,-0.587785252292,0.));
#146 = ORIENTED_EDGE('',*,*,#147,.T.);
#147 = EDGE_CURVE('',#140,#148,#150,.T.);
#148 = VERTEX_POINT('',#149);
#149 = CARTESIAN_POINT('',(8.662226792444,-10.61971407318,0.));
#150 = LINE('',#151,#152);
#151 = CARTESIAN_POINT('',(12.629777245419,-5.158849361157,0.));
#152 = VECTOR('',#153,1.);
#153 = DIRECTION('',(-0.587785252292,-0.809016994375,0.));
#154 = ORIENTED_EDGE('',*,*,#155,.F.);
#155 = EDGE_CURVE('',#156,#148,#158,.T.);
#156 = VERTEX_POINT('',#157);
#157 = CARTESIAN_POINT('',(6.23517580932,-8.85635831631,0.));
#158 = LINE('',#159,#160);
#159 = CARTESIAN_POINT('',(6.437430057913,-9.003304629383,0.));
#160 = VECTOR('',#161,1.);
#161 = DIRECTION('',(0.809016994375,-0.587785252292,0.));
#162 = ORIENTED_EDGE('',*,*,#163,.T.);
#163 = EDGE_CURVE('',#156,#138,#164,.T.);
#164 = LINE('',#165,#166);
#165 = CARTESIAN_POINT('',(6.382122122393,-8.654104067716,0.));
#166 = VECTOR('',#167,1.);
#167 = DIRECTION('',(0.587785252292,0.809016994375,0.));
#168 = FACE_BOUND('',#169,.F.);
#169 = EDGE_LOOP('',(#170,#180,#188,#196));
#170 = ORIENTED_EDGE('',*,*,#171,.T.);
#171 = EDGE_CURVE('',#172,#174,#176,.T.);
#172 = VERTEX_POINT('',#173);
#173 = CARTESIAN_POINT('',(-8.85635831631,-6.23517580932,1.E-15));
#174 = VERTEX_POINT('',#175);
#175 = CARTESIAN_POINT('',(-3.193239355686,-10.34967257536,2.E-15));
#176 = LINE('',#177,#178);
#177 = CARTESIAN_POINT('',(-8.654104067716,-6.382122122393,0.));
#178 = VECTOR('',#179,1.);
#179 = DIRECTION('',(0.809016994375,-0.587785252292,0.));
#180 = ORIENTED_EDGE('',*,*,#181,.T.);
#181 = EDGE_CURVE('',#174,#182,#184,.T.);
#182 = VERTEX_POINT('',#183);
#183 = CARTESIAN_POINT('',(-4.956595112563,-12.77672355849,0.));
#184 = LINE('',#185,#186);
#185 = CARTESIAN_POINT('',(-3.340185668759,-10.55192682396,0.));
#186 = VECTOR('',#187,1.);
#187 = DIRECTION('',(-0.587785252292,-0.809016994375,0.));
#188 = ORIENTED_EDGE('',*,*,#189,.T.);
#189 = EDGE_CURVE('',#182,#190,#192,.T.);
#190 = VERTEX_POINT('',#191);
#191 = CARTESIAN_POINT('',(-10.61971407318,-8.662226792444,0.));
#192 = LINE('',#193,#194);
#193 = CARTESIAN_POINT('',(-5.158849361157,-12.62977724541,0.));
#194 = VECTOR('',#195,1.);
#195 = DIRECTION('',(-0.809016994375,0.587785252292,0.));
#196 = ORIENTED_EDGE('',*,*,#197,.T.);
#197 = EDGE_CURVE('',#190,#172,#198,.T.);
#198 = LINE('',#199,#200);
#199 = CARTESIAN_POINT('',(-10.47276776011,-8.459972543851,0.));
#200 = VECTOR('',#201,1.);
#201 = DIRECTION('',(0.587785252292,0.809016994375,0.));
#202 = FACE_BOUND('',#203,.F.);
#203 = EDGE_LOOP('',(#204,#214,#222,#230));
#204 = ORIENTED_EDGE('',*,*,#205,.F.);
#205 = EDGE_CURVE('',#206,#208,#210,.T.);
#206 = VERTEX_POINT('',#207);
#207 = CARTESIAN_POINT('',(-6.235175809319,8.85635831631,0.));
#208 = VERTEX_POINT('',#209);
#209 = CARTESIAN_POINT('',(-8.662226792444,10.619714073188,0.));
#210 = LINE('',#211,#212);
#211 = CARTESIAN_POINT('',(-6.437430057913,9.003304629383,0.));
#212 = VECTOR('',#213,1.);
#213 = DIRECTION('',(-0.809016994375,0.587785252292,0.));
#214 = ORIENTED_EDGE('',*,*,#215,.F.);
#215 = EDGE_CURVE('',#216,#206,#218,.T.);
#216 = VERTEX_POINT('',#217);
#217 = CARTESIAN_POINT('',(-10.34967257536,3.193239355686,0.));
#218 = LINE('',#219,#220);
#219 = CARTESIAN_POINT('',(-10.20272626229,3.395493604279,0.));
#220 = VECTOR('',#221,1.);
#221 = DIRECTION('',(0.587785252292,0.809016994375,0.));
#222 = ORIENTED_EDGE('',*,*,#223,.F.);
#223 = EDGE_CURVE('',#224,#216,#226,.T.);
#224 = VERTEX_POINT('',#225);
#225 = CARTESIAN_POINT('',(-12.77672355849,4.956595112563,-1.E-15));
#226 = LINE('',#227,#228);
#227 = CARTESIAN_POINT('',(-12.57446930989,4.80964879949,0.));
#228 = VECTOR('',#229,1.);
#229 = DIRECTION('',(0.809016994375,-0.587785252292,0.));
#230 = ORIENTED_EDGE('',*,*,#231,.F.);
#231 = EDGE_CURVE('',#208,#224,#232,.T.);
#232 = LINE('',#233,#234);
#233 = CARTESIAN_POINT('',(-8.809173105517,10.417459824594,0.));
#234 = VECTOR('',#235,1.);
#235 = DIRECTION('',(-0.587785252292,-0.809016994375,0.));
#236 = FACE_BOUND('',#237,.F.);
#237 = EDGE_LOOP('',(#238,#248,#256,#264));
#238 = ORIENTED_EDGE('',*,*,#239,.F.);
#239 = EDGE_CURVE('',#240,#242,#244,.T.);
#240 = VERTEX_POINT('',#241);
#241 = CARTESIAN_POINT('',(12.501380107674,1.980024091638,0.));
#242 = VERTEX_POINT('',#243);
#243 = CARTESIAN_POINT('',(-1.980024091638,12.501380107674,1.E-15));
#244 = LINE('',#245,#246);
#245 = CARTESIAN_POINT('',(12.29912585908,2.126970404711,0.));
#246 = VECTOR('',#247,1.);
#247 = DIRECTION('',(-0.809016994375,0.587785252292,0.));
#248 = ORIENTED_EDGE('',*,*,#249,.F.);
#249 = EDGE_CURVE('',#250,#240,#252,.T.);
#250 = VERTEX_POINT('',#251);
#251 = CARTESIAN_POINT('',(1.980024091638,-12.50138010767,-1.E-15));
#252 = LINE('',#253,#254);
#253 = CARTESIAN_POINT('',(2.126970404711,-12.29912585908,0.));
#254 = VECTOR('',#255,1.);
#255 = DIRECTION('',(0.587785252292,0.809016994375,0.));
#256 = ORIENTED_EDGE('',*,*,#257,.F.);
#257 = EDGE_CURVE('',#258,#250,#260,.T.);
#258 = VERTEX_POINT('',#259);
#259 = CARTESIAN_POINT('',(-12.50138010767,-1.980024091638,2.E-15));
#260 = LINE('',#261,#262);
#261 = CARTESIAN_POINT('',(-12.29912585908,-2.126970404711,0.));
#262 = VECTOR('',#263,1.);
#263 = DIRECTION('',(0.809016994375,-0.587785252292,0.));
#264 = ORIENTED_EDGE('',*,*,#265,.F.);
#265 = EDGE_CURVE('',#242,#258,#266,.T.);
#266 = LINE('',#267,#268);
#267 = CARTESIAN_POINT('',(-2.126970404711,12.29912585908,0.));
#268 = VECTOR('',#269,1.);
#269 = DIRECTION('',(-0.587785252292,-0.809016994375,0.));
#270 = PLANE('',#271);
#271 = AXIS2_PLACEMENT_3D('',#272,#273,#274);
#272 = CARTESIAN_POINT('',(0.,7.5E-16,0.));
#273 = DIRECTION('',(0.,0.,1.));
#274 = DIRECTION('',(1.,0.,0.));
#275 = ADVANCED_FACE('',(#276),#301,.T.);
#276 = FACE_BOUND('',#277,.F.);
#277 = EDGE_LOOP('',(#278,#286,#287,#295));
#278 = ORIENTED_EDGE('',*,*,#279,.F.);
#279 = EDGE_CURVE('',#22,#280,#282,.T.);
#280 = VERTEX_POINT('',#281);
#281 = CARTESIAN_POINT('',(9.377219131703,13.164833766919,0.245561736594
    ));
#282 = LINE('',#283,#284);
#283 = CARTESIAN_POINT('',(9.359873853649,12.999804469951,0.111314812078
    ));
#284 = VECTOR('',#285,1.);
#285 = DIRECTION('',(8.126434975616E-02,0.773178640716,0.628960169645));
#286 = ORIENTED_EDGE('',*,*,#21,.T.);
#287 = ORIENTED_EDGE('',*,*,#288,.T.);
#288 = EDGE_CURVE('',#24,#289,#291,.T.);
#289 = VERTEX_POINT('',#290);
#290 = CARTESIAN_POINT('',(15.418221011645,4.850107997834,0.245561736594
    ));
#291 = LINE('',#292,#293);
#292 = CARTESIAN_POINT('',(13.675513762815,5.220531858643,
    -1.195815596915));
#293 = VECTOR('',#294,1.);
#294 = DIRECTION('',(0.760448649624,-0.161638350291,0.628960169645));
#295 = ORIENTED_EDGE('',*,*,#296,.F.);
#296 = EDGE_CURVE('',#280,#289,#297,.T.);
#297 = LINE('',#298,#299);
#298 = CARTESIAN_POINT('',(9.462058625112,13.048062222049,0.245561736594
    ));
#299 = VECTOR('',#300,1.);
#300 = DIRECTION('',(0.587785252292,-0.809016994375,0.));
#301 = PLANE('',#302);
#302 = AXIS2_PLACEMENT_3D('',#303,#304,#305);
#303 = CARTESIAN_POINT('',(9.379902188259,12.988372076726,0.122780868297
    ));
#304 = DIRECTION('',(0.6234137332,0.452936589712,-0.637341166847));
#305 = DIRECTION('',(-0.587785252292,0.809016994375,-0.));
#306 = ADVANCED_FACE('',(#307),#325,.F.);
#307 = FACE_BOUND('',#308,.T.);
#308 = EDGE_LOOP('',(#309,#310,#311,#319));
#309 = ORIENTED_EDGE('',*,*,#279,.F.);
#310 = ORIENTED_EDGE('',*,*,#31,.T.);
#311 = ORIENTED_EDGE('',*,*,#312,.T.);
#312 = EDGE_CURVE('',#32,#313,#315,.T.);
#313 = VERTEX_POINT('',#314);
#314 = CARTESIAN_POINT('',(0.151765499552,16.162365358689,0.245561736594
    ));
#315 = LINE('',#316,#317);
#316 = CARTESIAN_POINT('',(-0.739054683171,14.619419541805,
    -1.195815596915));
#317 = VECTOR('',#318,1.);
#318 = DIRECTION('',(0.388718762411,0.67328064635,0.628960169645));
#319 = ORIENTED_EDGE('',*,*,#320,.F.);
#320 = EDGE_CURVE('',#280,#313,#321,.T.);
#321 = LINE('',#322,#323);
#322 = CARTESIAN_POINT('',(9.514492315627,13.120231005698,0.245561736594
    ));
#323 = VECTOR('',#324,1.);
#324 = DIRECTION('',(-0.951056516295,0.309016994375,0.));
#325 = PLANE('',#326);
#326 = AXIS2_PLACEMENT_3D('',#327,#328,#329);
#327 = CARTESIAN_POINT('',(9.468619033517,12.97904756055,0.122780868297)
  );
#328 = DIRECTION('',(-0.19694925177,-0.606147469833,0.770581752342));
#329 = DIRECTION('',(0.951056516295,-0.309016994375,-2.775557561563E-17)
  );
#330 = ADVANCED_FACE('',(#331),#349,.F.);
#331 = FACE_BOUND('',#332,.T.);
#332 = EDGE_LOOP('',(#333,#341,#342,#343));
#333 = ORIENTED_EDGE('',*,*,#334,.F.);
#334 = EDGE_CURVE('',#88,#335,#337,.T.);
#335 = VERTEX_POINT('',#336);
#336 = CARTESIAN_POINT('',(15.418221011645,-4.850107997834,
    0.245561736594));
#337 = LINE('',#338,#339);
#338 = CARTESIAN_POINT('',(15.255908837693,-4.884608515447,
    0.111314812078));
#339 = VECTOR('',#340,1.);
#340 = DIRECTION('',(0.760448649624,0.161638350291,0.628960169645));
#341 = ORIENTED_EDGE('',*,*,#95,.T.);
#342 = ORIENTED_EDGE('',*,*,#288,.T.);
#343 = ORIENTED_EDGE('',*,*,#344,.F.);
#344 = EDGE_CURVE('',#335,#289,#345,.T.);
#345 = LINE('',#346,#347);
#346 = CARTESIAN_POINT('',(15.418221011645,-4.994445565132,
    0.245561736594));
#347 = VECTOR('',#348,1.);
#348 = DIRECTION('',(1.8E-16,1.,0.));
#349 = PLANE('',#350);
#350 = AXIS2_PLACEMENT_3D('',#351,#352,#353);
#351 = CARTESIAN_POINT('',(15.269771952385,-4.994445565132,
    0.122780868297));
#352 = DIRECTION('',(-0.637341166847,2.3E-16,0.770581752342));
#353 = DIRECTION('',(-2.567743774188E-16,-1.,8.610003867585E-17));
#354 = ADVANCED_FACE('',(#355),#373,.T.);
#355 = FACE_BOUND('',#356,.F.);
#356 = EDGE_LOOP('',(#357,#365,#366,#367));
#357 = ORIENTED_EDGE('',*,*,#358,.F.);
#358 = EDGE_CURVE('',#40,#359,#361,.T.);
#359 = VERTEX_POINT('',#360);
#360 = CARTESIAN_POINT('',(-9.622780868297,12.986422722033,
    0.245561736594));
#361 = LINE('',#362,#363);
#362 = CARTESIAN_POINT('',(-9.471188665726,12.918929524979,
    0.111314812078));
#363 = VECTOR('',#364,1.);
#364 = DIRECTION('',(-0.710224519401,0.316212329047,0.628960169645));
#365 = ORIENTED_EDGE('',*,*,#39,.T.);
#366 = ORIENTED_EDGE('',*,*,#312,.T.);
#367 = ORIENTED_EDGE('',*,*,#368,.F.);
#368 = EDGE_CURVE('',#359,#313,#369,.T.);
#369 = LINE('',#370,#371);
#370 = CARTESIAN_POINT('',(-9.485507684373,13.031025483255,
    0.245561736594));
#371 = VECTOR('',#372,1.);
#372 = DIRECTION('',(0.951056516295,0.309016994375,0.));
#373 = PLANE('',#374);
#374 = AXIS2_PLACEMENT_3D('',#375,#376,#377);
#375 = CARTESIAN_POINT('',(-9.454126717889,12.934444799328,
    0.122780868297));
#376 = DIRECTION('',(-0.238122857029,0.732866796903,-0.637341166847));
#377 = DIRECTION('',(-0.951056516295,-0.309016994375,5.551115123126E-17)
  );
#378 = ADVANCED_FACE('',(#379),#397,.T.);
#379 = FACE_BOUND('',#380,.F.);
#380 = EDGE_LOOP('',(#381,#382,#383,#391));
#381 = ORIENTED_EDGE('',*,*,#334,.F.);
#382 = ORIENTED_EDGE('',*,*,#87,.T.);
#383 = ORIENTED_EDGE('',*,*,#384,.T.);
#384 = EDGE_CURVE('',#80,#385,#387,.T.);
#385 = VERTEX_POINT('',#386);
#386 = CARTESIAN_POINT('',(9.377219131703,-13.16483376691,0.245561736594
    ));
#387 = LINE('',#388,#389);
#388 = CARTESIAN_POINT('',(9.190987002207,-11.39295341381,
    -1.195815596915));
#389 = VECTOR('',#390,1.);
#390 = DIRECTION('',(8.126434975616E-02,-0.773178640716,0.628960169645)
  );
#391 = ORIENTED_EDGE('',*,*,#392,.F.);
#392 = EDGE_CURVE('',#335,#385,#393,.T.);
#393 = LINE('',#394,#395);
#394 = CARTESIAN_POINT('',(15.333381518236,-4.966879542705,
    0.245561736594));
#395 = VECTOR('',#396,1.);
#396 = DIRECTION('',(-0.587785252292,-0.809016994375,0.));
#397 = PLANE('',#398);
#398 = AXIS2_PLACEMENT_3D('',#399,#400,#401);
#399 = CARTESIAN_POINT('',(15.251225081383,-4.907189397382,
    0.122780868297));
#400 = DIRECTION('',(0.6234137332,-0.452936589712,-0.637341166847));
#401 = DIRECTION('',(0.587785252292,0.809016994375,-0.));
#402 = ADVANCED_FACE('',(#403),#421,.F.);
#403 = FACE_BOUND('',#404,.T.);
#404 = EDGE_LOOP('',(#405,#406,#407,#415));
#405 = ORIENTED_EDGE('',*,*,#358,.F.);
#406 = ORIENTED_EDGE('',*,*,#47,.T.);
#407 = ORIENTED_EDGE('',*,*,#408,.T.);
#408 = EDGE_CURVE('',#48,#409,#411,.T.);
#409 = VERTEX_POINT('',#410);
#410 = CARTESIAN_POINT('',(-15.3244247746,5.138783132429,0.245561736594)
  );
#411 = LINE('',#412,#413);
#412 = CARTESIAN_POINT('',(-14.13227467655,3.814766313987,
    -1.195815596915));
#413 = VECTOR('',#414,1.);
#414 = DIRECTION('',(-0.52020724239,0.577748673703,0.628960169645));
#415 = ORIENTED_EDGE('',*,*,#416,.F.);
#416 = EDGE_CURVE('',#359,#409,#417,.T.);
#417 = LINE('',#418,#419);
#418 = CARTESIAN_POINT('',(-9.537941374888,13.103194266903,
    0.245561736594));
#419 = VECTOR('',#420,1.);
#420 = DIRECTION('',(-0.587785252292,-0.809016994375,0.));
#421 = PLANE('',#422);
#422 = AXIS2_PLACEMENT_3D('',#423,#424,#425);
#423 = CARTESIAN_POINT('',(-9.417843563147,13.015938099153,
    0.122780868297));
#424 = DIRECTION('',(0.515619835194,-0.374619738551,0.770581752342));
#425 = DIRECTION('',(0.587785252292,0.809016994375,-2.775557561563E-17)
  );
#426 = ADVANCED_FACE('',(#427),#445,.F.);
#427 = FACE_BOUND('',#428,.T.);
#428 = EDGE_LOOP('',(#429,#437,#438,#439));
#429 = ORIENTED_EDGE('',*,*,#430,.F.);
#430 = EDGE_CURVE('',#72,#431,#433,.T.);
#431 = VERTEX_POINT('',#432);
#432 = CARTESIAN_POINT('',(0.151765499552,-16.16236535868,0.245561736594
    ));
#433 = LINE('',#434,#435);
#434 = CARTESIAN_POINT('',(6.879633731543E-02,-16.01865855423,
    0.111314812078));
#435 = VECTOR('',#436,1.);
#436 = DIRECTION('',(0.388718762411,-0.67328064635,0.628960169645));
#437 = ORIENTED_EDGE('',*,*,#79,.T.);
#438 = ORIENTED_EDGE('',*,*,#384,.T.);
#439 = ORIENTED_EDGE('',*,*,#440,.F.);
#440 = EDGE_CURVE('',#431,#385,#441,.T.);
#441 = LINE('',#442,#443);
#442 = CARTESIAN_POINT('',(1.449231562728E-02,-16.20696811991,
    0.245561736594));
#443 = VECTOR('',#444,1.);
#444 = DIRECTION('',(0.951056516295,0.309016994375,0.));
#445 = PLANE('',#446);
#446 = AXIS2_PLACEMENT_3D('',#447,#448,#449);
#447 = CARTESIAN_POINT('',(-3.138096648323E-02,-16.06578467476,
    0.122780868297));
#448 = DIRECTION('',(-0.19694925177,0.606147469833,0.770581752342));
#449 = DIRECTION('',(-0.951056516295,-0.309016994375,-0.));
#450 = ADVANCED_FACE('',(#451),#469,.T.);
#451 = FACE_BOUND('',#452,.F.);
#452 = EDGE_LOOP('',(#453,#461,#462,#463));
#453 = ORIENTED_EDGE('',*,*,#454,.F.);
#454 = EDGE_CURVE('',#56,#455,#457,.T.);
#455 = VERTEX_POINT('',#456);
#456 = CARTESIAN_POINT('',(-15.3244247746,-5.138783132429,0.245561736594
    ));
#457 = LINE('',#458,#459);
#458 = CARTESIAN_POINT('',(-15.21339036293,-5.015466925249,
    0.111314812078));
#459 = VECTOR('',#460,1.);
#460 = DIRECTION('',(-0.52020724239,-0.577748673703,0.628960169645));
#461 = ORIENTED_EDGE('',*,*,#55,.T.);
#462 = ORIENTED_EDGE('',*,*,#408,.T.);
#463 = ORIENTED_EDGE('',*,*,#464,.F.);
#464 = EDGE_CURVE('',#455,#409,#465,.T.);
#465 = LINE('',#466,#467);
#466 = CARTESIAN_POINT('',(-15.3244247746,-4.994445565132,0.245561736594
    ));
#467 = VECTOR('',#468,1.);
#468 = DIRECTION('',(3.6E-16,1.,0.));
#469 = PLANE('',#470);
#470 = AXIS2_PLACEMENT_3D('',#471,#472,#473);
#471 = CARTESIAN_POINT('',(-15.22287383386,-4.994445565132,
    0.122780868297));
#472 = DIRECTION('',(-0.770581752342,2.7E-16,-0.637341166847));
#473 = DIRECTION('',(-3.502283901675E-16,-1.,-1.888994326498E-19));
#474 = ADVANCED_FACE('',(#475),#493,.T.);
#475 = FACE_BOUND('',#476,.F.);
#476 = EDGE_LOOP('',(#477,#478,#479,#487));
#477 = ORIENTED_EDGE('',*,*,#430,.F.);
#478 = ORIENTED_EDGE('',*,*,#71,.T.);
#479 = ORIENTED_EDGE('',*,*,#480,.T.);
#480 = EDGE_CURVE('',#64,#481,#483,.T.);
#481 = VERTEX_POINT('',#482);
#482 = CARTESIAN_POINT('',(-9.622780868297,-12.98642272203,
    0.245561736594));
#483 = LINE('',#484,#485);
#484 = CARTESIAN_POINT('',(-7.995171405292,-12.26176430062,
    -1.195815596915));
#485 = VECTOR('',#486,1.);
#486 = DIRECTION('',(-0.710224519401,-0.316212329047,0.628960169645));
#487 = ORIENTED_EDGE('',*,*,#488,.F.);
#488 = EDGE_CURVE('',#431,#481,#489,.T.);
#489 = LINE('',#490,#491);
#490 = CARTESIAN_POINT('',(1.449231562728E-02,-16.11776259746,
    0.245561736594));
#491 = VECTOR('',#492,1.);
#492 = DIRECTION('',(-0.951056516295,0.309016994375,0.));
#493 = PLANE('',#494);
#494 = AXIS2_PLACEMENT_3D('',#495,#496,#497);
#495 = CARTESIAN_POINT('',(4.587328211051E-02,-16.02118191354,
    0.122780868297));
#496 = DIRECTION('',(-0.238122857029,-0.732866796903,-0.637341166847));
#497 = DIRECTION('',(0.951056516295,-0.309016994375,-0.));
#498 = ADVANCED_FACE('',(#499),#510,.F.);
#499 = FACE_BOUND('',#500,.T.);
#500 = EDGE_LOOP('',(#501,#502,#503,#504));
#501 = ORIENTED_EDGE('',*,*,#454,.F.);
#502 = ORIENTED_EDGE('',*,*,#63,.T.);
#503 = ORIENTED_EDGE('',*,*,#480,.T.);
#504 = ORIENTED_EDGE('',*,*,#505,.F.);
#505 = EDGE_CURVE('',#455,#481,#506,.T.);
#506 = LINE('',#507,#508);
#507 = CARTESIAN_POINT('',(-15.40926426801,-5.022011587559,
    0.245561736594));
#508 = VECTOR('',#509,1.);
#509 = DIRECTION('',(0.587785252292,-0.809016994375,0.));
#510 = PLANE('',#511);
#511 = AXIS2_PLACEMENT_3D('',#512,#513,#514);
#512 = CARTESIAN_POINT('',(-15.28916645627,-4.934755419809,
    0.122780868297));
#513 = DIRECTION('',(0.515619835194,0.374619738551,0.770581752342));
#514 = DIRECTION('',(-0.587785252292,0.809016994375,8.326672684689E-17)
  );
#515 = ADVANCED_FACE('',(#516),#541,.F.);
#516 = FACE_BOUND('',#517,.F.);
#517 = EDGE_LOOP('',(#518,#526,#527,#535));
#518 = ORIENTED_EDGE('',*,*,#519,.F.);
#519 = EDGE_CURVE('',#104,#520,#522,.T.);
#520 = VERTEX_POINT('',#521);
#521 = CARTESIAN_POINT('',(10.270513511521,8.606918856924,0.25));
#522 = LINE('',#523,#524);
#523 = CARTESIAN_POINT('',(9.804912762632,8.533174942896,0.583333333333)
  );
#524 = VECTOR('',#525,1.);
#525 = DIRECTION('',(-0.806444153118,-0.127728205845,0.57735026919));
#526 = ORIENTED_EDGE('',*,*,#103,.T.);
#527 = ORIENTED_EDGE('',*,*,#528,.T.);
#528 = EDGE_CURVE('',#106,#529,#531,.T.);
#529 = VERTEX_POINT('',#530);
#530 = CARTESIAN_POINT('',(5.011903048084,12.427522996825,0.25));
#531 = LINE('',#532,#533);
#532 = CARTESIAN_POINT('',(5.233134790166,11.030720750158,1.25));
#533 = VECTOR('',#534,1.);
#534 = DIRECTION('',(0.127728205845,-0.806444153118,0.57735026919));
#535 = ORIENTED_EDGE('',*,*,#536,.F.);
#536 = EDGE_CURVE('',#520,#529,#537,.T.);
#537 = LINE('',#538,#539);
#538 = CARTESIAN_POINT('',(10.270513511521,8.606918856924,0.25));
#539 = VECTOR('',#540,1.);
#540 = DIRECTION('',(-0.809016994375,0.587785252292,0.));
#541 = PLANE('',#542);
#542 = AXIS2_PLACEMENT_3D('',#543,#544,#545);
#543 = CARTESIAN_POINT('',(10.343986668057,8.708045981221,0.125));
#544 = DIRECTION('',(0.415626937777,0.572061402818,0.707106781187));
#545 = DIRECTION('',(-0.809016994375,0.587785252292,-1.942890293094E-16)
  );
#546 = ADVANCED_FACE('',(#547),#565,.F.);
#547 = FACE_BOUND('',#548,.F.);
#548 = EDGE_LOOP('',(#549,#557,#558,#559));
#549 = ORIENTED_EDGE('',*,*,#550,.F.);
#550 = EDGE_CURVE('',#114,#551,#553,.T.);
#551 = VERTEX_POINT('',#552);
#552 = CARTESIAN_POINT('',(8.80105038079,6.584376370987,0.25));
#553 = LINE('',#554,#555);
#554 = CARTESIAN_POINT('',(8.579818638707,7.981178617654,1.25));
#555 = VECTOR('',#556,1.);
#556 = DIRECTION('',(-0.127728205845,0.806444153118,0.57735026919));
#557 = ORIENTED_EDGE('',*,*,#113,.T.);
#558 = ORIENTED_EDGE('',*,*,#519,.T.);
#559 = ORIENTED_EDGE('',*,*,#560,.F.);
#560 = EDGE_CURVE('',#551,#520,#561,.T.);
#561 = LINE('',#562,#563);
#562 = CARTESIAN_POINT('',(8.80105038079,6.584376370987,0.25));
#563 = VECTOR('',#564,1.);
#564 = DIRECTION('',(0.587785252292,0.809016994375,0.));
#565 = PLANE('',#566);
#566 = AXIS2_PLACEMENT_3D('',#567,#568,#569);
#567 = CARTESIAN_POINT('',(8.902177505087,6.51090321445,0.125));
#568 = DIRECTION('',(0.572061402818,-0.415626937777,0.707106781187));
#569 = DIRECTION('',(0.587785252292,0.809016994375,-2.775557561563E-17)
  );
#570 = ADVANCED_FACE('',(#571),#589,.F.);
#571 = FACE_BOUND('',#572,.F.);
#572 = EDGE_LOOP('',(#573,#574,#575,#583));
#573 = ORIENTED_EDGE('',*,*,#528,.F.);
#574 = ORIENTED_EDGE('',*,*,#129,.T.);
#575 = ORIENTED_EDGE('',*,*,#576,.T.);
#576 = EDGE_CURVE('',#122,#577,#579,.T.);
#577 = VERTEX_POINT('',#578);
#578 = CARTESIAN_POINT('',(3.542439917353,10.404980510888,0.25));
#579 = LINE('',#580,#581);
#580 = CARTESIAN_POINT('',(4.008040666242,10.478724424915,0.583333333333
    ));
#581 = VECTOR('',#582,1.);
#582 = DIRECTION('',(0.806444153118,0.127728205845,0.57735026919));
#583 = ORIENTED_EDGE('',*,*,#584,.F.);
#584 = EDGE_CURVE('',#529,#577,#585,.T.);
#585 = LINE('',#586,#587);
#586 = CARTESIAN_POINT('',(5.011903048084,12.427522996825,0.25));
#587 = VECTOR('',#588,1.);
#588 = DIRECTION('',(-0.587785252292,-0.809016994375,0.));
#589 = PLANE('',#590);
#590 = AXIS2_PLACEMENT_3D('',#591,#592,#593);
#591 = CARTESIAN_POINT('',(4.910775923787,12.500996153362,0.125));
#592 = DIRECTION('',(-0.572061402818,0.415626937777,0.707106781187));
#593 = DIRECTION('',(-0.587785252292,-0.809016994375,2.775557561563E-17)
  );
#594 = ADVANCED_FACE('',(#595),#606,.F.);
#595 = FACE_BOUND('',#596,.F.);
#596 = EDGE_LOOP('',(#597,#598,#599,#600));
#597 = ORIENTED_EDGE('',*,*,#576,.F.);
#598 = ORIENTED_EDGE('',*,*,#121,.T.);
#599 = ORIENTED_EDGE('',*,*,#550,.T.);
#600 = ORIENTED_EDGE('',*,*,#601,.F.);
#601 = EDGE_CURVE('',#577,#551,#602,.T.);
#602 = LINE('',#603,#604);
#603 = CARTESIAN_POINT('',(3.542439917353,10.404980510888,0.25));
#604 = VECTOR('',#605,1.);
#605 = DIRECTION('',(0.809016994375,-0.587785252292,0.));
#606 = PLANE('',#607);
#607 = AXIS2_PLACEMENT_3D('',#608,#609,#610);
#608 = CARTESIAN_POINT('',(3.468966760816,10.303853386591,0.125));
#609 = DIRECTION('',(-0.415626937777,-0.572061402818,0.707106781187));
#610 = DIRECTION('',(0.809016994375,-0.587785252292,8.326672684689E-17)
  );
#611 = ADVANCED_FACE('',(#612),#637,.T.);
#612 = FACE_BOUND('',#613,.T.);
#613 = EDGE_LOOP('',(#614,#622,#623,#631));
#614 = ORIENTED_EDGE('',*,*,#615,.F.);
#615 = EDGE_CURVE('',#138,#616,#618,.T.);
#616 = VERTEX_POINT('',#617);
#617 = CARTESIAN_POINT('',(10.404980510888,-3.542439917352,0.25));
#618 = LINE('',#619,#620);
#619 = CARTESIAN_POINT('',(10.62621225297,-4.93924216402,1.25));
#620 = VECTOR('',#621,1.);
#621 = DIRECTION('',(0.127728205845,-0.806444153118,0.57735026919));
#622 = ORIENTED_EDGE('',*,*,#137,.T.);
#623 = ORIENTED_EDGE('',*,*,#624,.T.);
#624 = EDGE_CURVE('',#140,#625,#627,.T.);
#625 = VERTEX_POINT('',#626);
#626 = CARTESIAN_POINT('',(12.427522996825,-5.011903048084,0.25));
#627 = LINE('',#628,#629);
#628 = CARTESIAN_POINT('',(11.961922247936,-5.085646962111,
    0.583333333333));
#629 = VECTOR('',#630,1.);
#630 = DIRECTION('',(-0.806444153118,-0.127728205845,0.57735026919));
#631 = ORIENTED_EDGE('',*,*,#632,.F.);
#632 = EDGE_CURVE('',#616,#625,#633,.T.);
#633 = LINE('',#634,#635);
#634 = CARTESIAN_POINT('',(10.404980510888,-3.542439917352,0.25));
#635 = VECTOR('',#636,1.);
#636 = DIRECTION('',(0.809016994375,-0.587785252292,0.));
#637 = PLANE('',#638);
#638 = AXIS2_PLACEMENT_3D('',#639,#640,#641);
#639 = CARTESIAN_POINT('',(10.478453667424,-3.441312793056,0.125));
#640 = DIRECTION('',(-0.415626937777,-0.572061402818,-0.707106781187));
#641 = DIRECTION('',(0.809016994375,-0.587785252292,1.110223024625E-16)
  );
#642 = ADVANCED_FACE('',(#643),#661,.T.);
#643 = FACE_BOUND('',#644,.T.);
#644 = EDGE_LOOP('',(#645,#653,#654,#655));
#645 = ORIENTED_EDGE('',*,*,#646,.F.);
#646 = EDGE_CURVE('',#156,#647,#649,.T.);
#647 = VERTEX_POINT('',#648);
#648 = CARTESIAN_POINT('',(6.584376370986,-8.80105038079,0.25));
#649 = LINE('',#650,#651);
#650 = CARTESIAN_POINT('',(6.467976183764,-8.819486359296,0.166666666667
    ));
#651 = VECTOR('',#652,1.);
#652 = DIRECTION('',(0.806444153118,0.127728205845,0.57735026919));
#653 = ORIENTED_EDGE('',*,*,#163,.T.);
#654 = ORIENTED_EDGE('',*,*,#615,.T.);
#655 = ORIENTED_EDGE('',*,*,#656,.F.);
#656 = EDGE_CURVE('',#647,#616,#657,.T.);
#657 = LINE('',#658,#659);
#658 = CARTESIAN_POINT('',(6.584376370986,-8.80105038079,0.25));
#659 = VECTOR('',#660,1.);
#660 = DIRECTION('',(0.587785252292,0.809016994375,0.));
#661 = PLANE('',#662);
#662 = AXIS2_PLACEMENT_3D('',#663,#664,#665);
#663 = CARTESIAN_POINT('',(6.48324924669,-8.727577224253,0.125));
#664 = DIRECTION('',(0.572061402818,-0.415626937777,-0.707106781187));
#665 = DIRECTION('',(0.587785252292,0.809016994375,0.));
#666 = ADVANCED_FACE('',(#667),#685,.T.);
#667 = FACE_BOUND('',#668,.T.);
#668 = EDGE_LOOP('',(#669,#670,#671,#679));
#669 = ORIENTED_EDGE('',*,*,#624,.F.);
#670 = ORIENTED_EDGE('',*,*,#147,.T.);
#671 = ORIENTED_EDGE('',*,*,#672,.T.);
#672 = EDGE_CURVE('',#148,#673,#675,.T.);
#673 = VERTEX_POINT('',#674);
#674 = CARTESIAN_POINT('',(8.606918856924,-10.27051351152,0.25));
#675 = LINE('',#676,#677);
#676 = CARTESIAN_POINT('',(8.293507222307,-8.291710328742,1.666666666667
    ));
#677 = VECTOR('',#678,1.);
#678 = DIRECTION('',(-0.127728205845,0.806444153118,0.57735026919));
#679 = ORIENTED_EDGE('',*,*,#680,.F.);
#680 = EDGE_CURVE('',#625,#673,#681,.T.);
#681 = LINE('',#682,#683);
#682 = CARTESIAN_POINT('',(12.427522996825,-5.011903048084,0.25));
#683 = VECTOR('',#684,1.);
#684 = DIRECTION('',(-0.587785252292,-0.809016994375,0.));
#685 = PLANE('',#686);
#686 = AXIS2_PLACEMENT_3D('',#687,#688,#689);
#687 = CARTESIAN_POINT('',(12.528650121122,-5.08537620462,0.125));
#688 = DIRECTION('',(-0.572061402818,0.415626937777,-0.707106781187));
#689 = DIRECTION('',(-0.587785252292,-0.809016994375,-2.775557561563E-17
    ));
#690 = ADVANCED_FACE('',(#691),#702,.F.);
#691 = FACE_BOUND('',#692,.F.);
#692 = EDGE_LOOP('',(#693,#694,#695,#696));
#693 = ORIENTED_EDGE('',*,*,#646,.F.);
#694 = ORIENTED_EDGE('',*,*,#155,.T.);
#695 = ORIENTED_EDGE('',*,*,#672,.T.);
#696 = ORIENTED_EDGE('',*,*,#697,.F.);
#697 = EDGE_CURVE('',#647,#673,#698,.T.);
#698 = LINE('',#699,#700);
#699 = CARTESIAN_POINT('',(6.584376370986,-8.80105038079,0.25));
#700 = VECTOR('',#701,1.);
#701 = DIRECTION('',(0.809016994375,-0.587785252292,0.));
#702 = PLANE('',#703);
#703 = AXIS2_PLACEMENT_3D('',#704,#705,#706);
#704 = CARTESIAN_POINT('',(6.51090321445,-8.902177505086,0.125));
#705 = DIRECTION('',(-0.415626937777,-0.572061402818,0.707106781187));
#706 = DIRECTION('',(0.809016994375,-0.587785252292,-2.775557561563E-17)
  );
#707 = ADVANCED_FACE('',(#708),#733,.T.);
#708 = FACE_BOUND('',#709,.T.);
#709 = EDGE_LOOP('',(#710,#718,#719,#727));
#710 = ORIENTED_EDGE('',*,*,#711,.F.);
#711 = EDGE_CURVE('',#172,#712,#714,.T.);
#712 = VERTEX_POINT('',#713);
#713 = CARTESIAN_POINT('',(-8.80105038079,-6.584376370986,0.25));
#714 = LINE('',#715,#716);
#715 = CARTESIAN_POINT('',(-8.727306466762,-7.049977119876,
    0.583333333333));
#716 = VECTOR('',#717,1.);
#717 = DIRECTION('',(0.127728205845,-0.806444153118,0.57735026919));
#718 = ORIENTED_EDGE('',*,*,#171,.T.);
#719 = ORIENTED_EDGE('',*,*,#720,.T.);
#720 = EDGE_CURVE('',#174,#721,#723,.T.);
#721 = VERTEX_POINT('',#722);
#722 = CARTESIAN_POINT('',(-3.542439917352,-10.40498051088,0.25));
#723 = LINE('',#724,#725);
#724 = CARTESIAN_POINT('',(-4.93924216402,-10.62621225297,1.25));
#725 = VECTOR('',#726,1.);
#726 = DIRECTION('',(-0.806444153118,-0.127728205845,0.57735026919));
#727 = ORIENTED_EDGE('',*,*,#728,.F.);
#728 = EDGE_CURVE('',#712,#721,#729,.T.);
#729 = LINE('',#730,#731);
#730 = CARTESIAN_POINT('',(-8.80105038079,-6.584376370986,0.25));
#731 = VECTOR('',#732,1.);
#732 = DIRECTION('',(0.809016994375,-0.587785252292,0.));
#733 = PLANE('',#734);
#734 = AXIS2_PLACEMENT_3D('',#735,#736,#737);
#735 = CARTESIAN_POINT('',(-8.727577224253,-6.483249246689,0.125));
#736 = DIRECTION('',(-0.415626937777,-0.572061402818,-0.707106781187));
#737 = DIRECTION('',(0.809016994375,-0.587785252292,5.551115123126E-17)
  );
#738 = ADVANCED_FACE('',(#739),#757,.T.);
#739 = FACE_BOUND('',#740,.T.);
#740 = EDGE_LOOP('',(#741,#749,#750,#751));
#741 = ORIENTED_EDGE('',*,*,#742,.F.);
#742 = EDGE_CURVE('',#190,#743,#745,.T.);
#743 = VERTEX_POINT('',#744);
#744 = CARTESIAN_POINT('',(-10.27051351152,-8.606918856924,0.25));
#745 = LINE('',#746,#747);
#746 = CARTESIAN_POINT('',(-8.873711264853,-8.385687114841,1.25));
#747 = VECTOR('',#748,1.);
#748 = DIRECTION('',(0.806444153118,0.127728205845,0.57735026919));
#749 = ORIENTED_EDGE('',*,*,#197,.T.);
#750 = ORIENTED_EDGE('',*,*,#711,.T.);
#751 = ORIENTED_EDGE('',*,*,#752,.F.);
#752 = EDGE_CURVE('',#743,#712,#753,.T.);
#753 = LINE('',#754,#755);
#754 = CARTESIAN_POINT('',(-10.27051351152,-8.606918856924,0.25));
#755 = VECTOR('',#756,1.);
#756 = DIRECTION('',(0.587785252292,0.809016994375,0.));
#757 = PLANE('',#758);
#758 = AXIS2_PLACEMENT_3D('',#759,#760,#761);
#759 = CARTESIAN_POINT('',(-10.37164063581,-8.533445700387,0.125));
#760 = DIRECTION('',(0.572061402818,-0.415626937777,-0.707106781187));
#761 = DIRECTION('',(0.587785252292,0.809016994375,0.));
#762 = ADVANCED_FACE('',(#763),#781,.T.);
#763 = FACE_BOUND('',#764,.T.);
#764 = EDGE_LOOP('',(#765,#766,#767,#775));
#765 = ORIENTED_EDGE('',*,*,#720,.F.);
#766 = ORIENTED_EDGE('',*,*,#181,.T.);
#767 = ORIENTED_EDGE('',*,*,#768,.T.);
#768 = EDGE_CURVE('',#182,#769,#771,.T.);
#769 = VERTEX_POINT('',#770);
#770 = CARTESIAN_POINT('',(-5.011903048084,-12.42752299682,0.25));
#771 = LINE('',#772,#773);
#772 = CARTESIAN_POINT('',(-5.085646962111,-11.96192224793,
    0.583333333333));
#773 = VECTOR('',#774,1.);
#774 = DIRECTION('',(-0.127728205845,0.806444153118,0.57735026919));
#775 = ORIENTED_EDGE('',*,*,#776,.F.);
#776 = EDGE_CURVE('',#721,#769,#777,.T.);
#777 = LINE('',#778,#779);
#778 = CARTESIAN_POINT('',(-3.542439917352,-10.40498051088,0.25));
#779 = VECTOR('',#780,1.);
#780 = DIRECTION('',(-0.587785252292,-0.809016994375,0.));
#781 = PLANE('',#782);
#782 = AXIS2_PLACEMENT_3D('',#783,#784,#785);
#783 = CARTESIAN_POINT('',(-3.441312793056,-10.47845366742,0.125));
#784 = DIRECTION('',(-0.572061402818,0.415626937777,-0.707106781187));
#785 = DIRECTION('',(-0.587785252292,-0.809016994375,0.));
#786 = ADVANCED_FACE('',(#787),#798,.T.);
#787 = FACE_BOUND('',#788,.T.);
#788 = EDGE_LOOP('',(#789,#790,#791,#792));
#789 = ORIENTED_EDGE('',*,*,#768,.F.);
#790 = ORIENTED_EDGE('',*,*,#189,.T.);
#791 = ORIENTED_EDGE('',*,*,#742,.T.);
#792 = ORIENTED_EDGE('',*,*,#793,.F.);
#793 = EDGE_CURVE('',#769,#743,#794,.T.);
#794 = LINE('',#795,#796);
#795 = CARTESIAN_POINT('',(-5.011903048084,-12.42752299682,0.25));
#796 = VECTOR('',#797,1.);
#797 = DIRECTION('',(-0.809016994375,0.587785252292,0.));
#798 = PLANE('',#799);
#799 = AXIS2_PLACEMENT_3D('',#800,#801,#802);
#800 = CARTESIAN_POINT('',(-5.08537620462,-12.52865012112,0.125));
#801 = DIRECTION('',(0.415626937777,0.572061402818,-0.707106781187));
#802 = DIRECTION('',(-0.809016994375,0.587785252292,2.22044604925E-16));
#803 = ADVANCED_FACE('',(#804),#829,.F.);
#804 = FACE_BOUND('',#805,.F.);
#805 = EDGE_LOOP('',(#806,#814,#815,#823));
#806 = ORIENTED_EDGE('',*,*,#807,.F.);
#807 = EDGE_CURVE('',#206,#808,#810,.T.);
#808 = VERTEX_POINT('',#809);
#809 = CARTESIAN_POINT('',(-6.584376370986,8.80105038079,0.25));
#810 = LINE('',#811,#812);
#811 = CARTESIAN_POINT('',(-7.981178617654,8.579818638707,1.25));
#812 = VECTOR('',#813,1.);
#813 = DIRECTION('',(-0.806444153118,-0.127728205845,0.57735026919));
#814 = ORIENTED_EDGE('',*,*,#205,.T.);
#815 = ORIENTED_EDGE('',*,*,#816,.T.);
#816 = EDGE_CURVE('',#208,#817,#819,.T.);
#817 = VERTEX_POINT('',#818);
#818 = CARTESIAN_POINT('',(-8.606918856924,10.270513511521,0.25));
#819 = LINE('',#820,#821);
#820 = CARTESIAN_POINT('',(-8.533174942896,9.804912762632,0.583333333333
    ));
#821 = VECTOR('',#822,1.);
#822 = DIRECTION('',(0.127728205845,-0.806444153118,0.57735026919));
#823 = ORIENTED_EDGE('',*,*,#824,.F.);
#824 = EDGE_CURVE('',#808,#817,#825,.T.);
#825 = LINE('',#826,#827);
#826 = CARTESIAN_POINT('',(-6.584376370986,8.80105038079,0.25));
#827 = VECTOR('',#828,1.);
#828 = DIRECTION('',(-0.809016994375,0.587785252292,0.));
#829 = PLANE('',#830);
#830 = AXIS2_PLACEMENT_3D('',#831,#832,#833);
#831 = CARTESIAN_POINT('',(-6.51090321445,8.902177505087,0.125));
#832 = DIRECTION('',(0.415626937777,0.572061402818,0.707106781187));
#833 = DIRECTION('',(-0.809016994375,0.587785252292,0.));
#834 = ADVANCED_FACE('',(#835),#853,.F.);
#835 = FACE_BOUND('',#836,.F.);
#836 = EDGE_LOOP('',(#837,#845,#846,#847));
#837 = ORIENTED_EDGE('',*,*,#838,.F.);
#838 = EDGE_CURVE('',#216,#839,#841,.T.);
#839 = VERTEX_POINT('',#840);
#840 = CARTESIAN_POINT('',(-10.40498051088,3.542439917353,0.25));
#841 = LINE('',#842,#843);
#842 = CARTESIAN_POINT('',(-10.47872442491,4.008040666242,0.583333333333
    ));
#843 = VECTOR('',#844,1.);
#844 = DIRECTION('',(-0.127728205845,0.806444153118,0.57735026919));
#845 = ORIENTED_EDGE('',*,*,#215,.T.);
#846 = ORIENTED_EDGE('',*,*,#807,.T.);
#847 = ORIENTED_EDGE('',*,*,#848,.F.);
#848 = EDGE_CURVE('',#839,#808,#849,.T.);
#849 = LINE('',#850,#851);
#850 = CARTESIAN_POINT('',(-10.40498051088,3.542439917353,0.25));
#851 = VECTOR('',#852,1.);
#852 = DIRECTION('',(0.587785252292,0.809016994375,0.));
#853 = PLANE('',#854);
#854 = AXIS2_PLACEMENT_3D('',#855,#856,#857);
#855 = CARTESIAN_POINT('',(-10.30385338659,3.468966760816,0.125));
#856 = DIRECTION('',(0.572061402818,-0.415626937777,0.707106781187));
#857 = DIRECTION('',(0.587785252292,0.809016994375,-2.22044604925E-16));
#858 = ADVANCED_FACE('',(#859),#877,.F.);
#859 = FACE_BOUND('',#860,.F.);
#860 = EDGE_LOOP('',(#861,#862,#863,#871));
#861 = ORIENTED_EDGE('',*,*,#816,.F.);
#862 = ORIENTED_EDGE('',*,*,#231,.T.);
#863 = ORIENTED_EDGE('',*,*,#864,.T.);
#864 = EDGE_CURVE('',#224,#865,#867,.T.);
#865 = VERTEX_POINT('',#866);
#866 = CARTESIAN_POINT('',(-12.42752299682,5.011903048084,0.25));
#867 = LINE('',#868,#869);
#868 = CARTESIAN_POINT('',(-11.03072075015,5.233134790166,1.25));
#869 = VECTOR('',#870,1.);
#870 = DIRECTION('',(0.806444153118,0.127728205845,0.57735026919));
#871 = ORIENTED_EDGE('',*,*,#872,.F.);
#872 = EDGE_CURVE('',#817,#865,#873,.T.);
#873 = LINE('',#874,#875);
#874 = CARTESIAN_POINT('',(-8.606918856924,10.270513511521,0.25));
#875 = VECTOR('',#876,1.);
#876 = DIRECTION('',(-0.587785252292,-0.809016994375,0.));
#877 = PLANE('',#878);
#878 = AXIS2_PLACEMENT_3D('',#879,#880,#881);
#879 = CARTESIAN_POINT('',(-8.708045981221,10.343986668057,0.125));
#880 = DIRECTION('',(-0.572061402818,0.415626937777,0.707106781187));
#881 = DIRECTION('',(-0.587785252292,-0.809016994375,0.));
#882 = ADVANCED_FACE('',(#883),#894,.F.);
#883 = FACE_BOUND('',#884,.F.);
#884 = EDGE_LOOP('',(#885,#886,#887,#888));
#885 = ORIENTED_EDGE('',*,*,#864,.F.);
#886 = ORIENTED_EDGE('',*,*,#223,.T.);
#887 = ORIENTED_EDGE('',*,*,#838,.T.);
#888 = ORIENTED_EDGE('',*,*,#889,.F.);
#889 = EDGE_CURVE('',#865,#839,#890,.T.);
#890 = LINE('',#891,#892);
#891 = CARTESIAN_POINT('',(-12.42752299682,5.011903048084,0.25));
#892 = VECTOR('',#893,1.);
#893 = DIRECTION('',(0.809016994375,-0.587785252292,0.));
#894 = PLANE('',#895);
#895 = AXIS2_PLACEMENT_3D('',#896,#897,#898);
#896 = CARTESIAN_POINT('',(-12.50099615336,4.910775923787,0.125));
#897 = DIRECTION('',(-0.415626937777,-0.572061402818,0.707106781187));
#898 = DIRECTION('',(0.809016994375,-0.587785252292,-2.775557561563E-17)
  );
#899 = ADVANCED_FACE('',(#900),#925,.F.);
#900 = FACE_BOUND('',#901,.F.);
#901 = EDGE_LOOP('',(#902,#910,#911,#919));
#902 = ORIENTED_EDGE('',*,*,#903,.F.);
#903 = EDGE_CURVE('',#240,#904,#906,.T.);
#904 = VERTEX_POINT('',#905);
#905 = CARTESIAN_POINT('',(12.152179546007,1.924716156118,0.25));
#906 = LINE('',#907,#908);
#907 = CARTESIAN_POINT('',(8.217853217893,1.301580082585,3.066666666667)
  );
#908 = VECTOR('',#909,1.);
#909 = DIRECTION('',(-0.806444153118,-0.127728205845,0.57735026919));
#910 = ORIENTED_EDGE('',*,*,#239,.T.);
#911 = ORIENTED_EDGE('',*,*,#912,.T.);
#912 = EDGE_CURVE('',#242,#913,#915,.T.);
#913 = VERTEX_POINT('',#914);
#914 = CARTESIAN_POINT('',(-1.924716156117,12.152179546007,0.25));
#915 = LINE('',#916,#917);
#916 = CARTESIAN_POINT('',(-1.301580082585,8.217853217893,3.066666666667
    ));
#917 = VECTOR('',#918,1.);
#918 = DIRECTION('',(0.127728205845,-0.806444153118,0.57735026919));
#919 = ORIENTED_EDGE('',*,*,#920,.F.);
#920 = EDGE_CURVE('',#904,#913,#921,.T.);
#921 = LINE('',#922,#923);
#922 = CARTESIAN_POINT('',(12.152179546007,1.924716156118,0.25));
#923 = VECTOR('',#924,1.);
#924 = DIRECTION('',(-0.809016994375,0.587785252292,0.));
#925 = PLANE('',#926);
#926 = AXIS2_PLACEMENT_3D('',#927,#928,#929);
#927 = CARTESIAN_POINT('',(12.225652702543,2.025843280415,0.125));
#928 = DIRECTION('',(0.415626937777,0.572061402818,0.707106781187));
#929 = DIRECTION('',(-0.809016994375,0.587785252292,8.326672684689E-17)
  );
#930 = ADVANCED_FACE('',(#931),#949,.F.);
#931 = FACE_BOUND('',#932,.F.);
#932 = EDGE_LOOP('',(#933,#941,#942,#943));
#933 = ORIENTED_EDGE('',*,*,#934,.F.);
#934 = EDGE_CURVE('',#250,#935,#937,.T.);
#935 = VERTEX_POINT('',#936);
#936 = CARTESIAN_POINT('',(1.924716156117,-12.152179546,0.25));
#937 = LINE('',#938,#939);
#938 = CARTESIAN_POINT('',(1.301580082585,-8.217853217893,3.066666666667
    ));
#939 = VECTOR('',#940,1.);
#940 = DIRECTION('',(-0.127728205845,0.806444153118,0.57735026919));
#941 = ORIENTED_EDGE('',*,*,#249,.T.);
#942 = ORIENTED_EDGE('',*,*,#903,.T.);
#943 = ORIENTED_EDGE('',*,*,#944,.F.);
#944 = EDGE_CURVE('',#935,#904,#945,.T.);
#945 = LINE('',#946,#947);
#946 = CARTESIAN_POINT('',(1.924716156117,-12.152179546,0.25));
#947 = VECTOR('',#948,1.);
#948 = DIRECTION('',(0.587785252292,0.809016994375,0.));
#949 = PLANE('',#950);
#950 = AXIS2_PLACEMENT_3D('',#951,#952,#953);
#951 = CARTESIAN_POINT('',(2.025843280414,-12.22565270254,0.125));
#952 = DIRECTION('',(0.572061402818,-0.415626937777,0.707106781187));
#953 = DIRECTION('',(0.587785252292,0.809016994375,8.326672684689E-17));
#954 = ADVANCED_FACE('',(#955),#973,.F.);
#955 = FACE_BOUND('',#956,.F.);
#956 = EDGE_LOOP('',(#957,#958,#959,#967));
#957 = ORIENTED_EDGE('',*,*,#912,.F.);
#958 = ORIENTED_EDGE('',*,*,#265,.T.);
#959 = ORIENTED_EDGE('',*,*,#960,.T.);
#960 = EDGE_CURVE('',#258,#961,#963,.T.);
#961 = VERTEX_POINT('',#962);
#962 = CARTESIAN_POINT('',(-12.152179546,-1.924716156117,0.25));
#963 = LINE('',#964,#965);
#964 = CARTESIAN_POINT('',(-8.217853217893,-1.301580082585,
    3.066666666667));
#965 = VECTOR('',#966,1.);
#966 = DIRECTION('',(0.806444153118,0.127728205845,0.57735026919));
#967 = ORIENTED_EDGE('',*,*,#968,.F.);
#968 = EDGE_CURVE('',#913,#961,#969,.T.);
#969 = LINE('',#970,#971);
#970 = CARTESIAN_POINT('',(-1.924716156117,12.152179546007,0.25));
#971 = VECTOR('',#972,1.);
#972 = DIRECTION('',(-0.587785252292,-0.809016994375,0.));
#973 = PLANE('',#974);
#974 = AXIS2_PLACEMENT_3D('',#975,#976,#977);
#975 = CARTESIAN_POINT('',(-2.025843280414,12.225652702543,0.125));
#976 = DIRECTION('',(-0.572061402818,0.415626937777,0.707106781187));
#977 = DIRECTION('',(-0.587785252292,-0.809016994375,8.326672684689E-17)
  );
#978 = ADVANCED_FACE('',(#979),#990,.F.);
#979 = FACE_BOUND('',#980,.F.);
#980 = EDGE_LOOP('',(#981,#982,#983,#984));
#981 = ORIENTED_EDGE('',*,*,#960,.F.);
#982 = ORIENTED_EDGE('',*,*,#257,.T.);
#983 = ORIENTED_EDGE('',*,*,#934,.T.);
#984 = ORIENTED_EDGE('',*,*,#985,.F.);
#985 = EDGE_CURVE('',#961,#935,#986,.T.);
#986 = LINE('',#987,#988);
#987 = CARTESIAN_POINT('',(-12.152179546,-1.924716156117,0.25));
#988 = VECTOR('',#989,1.);
#989 = DIRECTION('',(0.809016994375,-0.587785252292,0.));
#990 = PLANE('',#991);
#991 = AXIS2_PLACEMENT_3D('',#992,#993,#994);
#992 = CARTESIAN_POINT('',(-12.22565270254,-2.025843280414,0.125));
#993 = DIRECTION('',(-0.415626937777,-0.572061402818,0.707106781187));
#994 = DIRECTION('',(0.809016994375,-0.587785252292,-2.22044604925E-16)
  );
#995 = ADVANCED_FACE('',(#996),#1021,.F.);
#996 = FACE_BOUND('',#997,.F.);
#997 = EDGE_LOOP('',(#998,#1006,#1014,#1020));
#998 = ORIENTED_EDGE('',*,*,#999,.T.);
#999 = EDGE_CURVE('',#289,#1000,#1002,.T.);
#1000 = VERTEX_POINT('',#1001);
#1001 = CARTESIAN_POINT('',(16.994116628998,-4.E-15,8.497058314499));
#1002 = LINE('',#1003,#1004);
#1003 = CARTESIAN_POINT('',(13.74852915725,9.988891130264,
    -8.497058314499));
#1004 = VECTOR('',#1005,1.);
#1005 = DIRECTION('',(0.162459848116,-0.5,0.850650808352));
#1006 = ORIENTED_EDGE('',*,*,#1007,.T.);
#1007 = EDGE_CURVE('',#1000,#1008,#1010,.T.);
#1008 = VERTEX_POINT('',#1009);
#1009 = CARTESIAN_POINT('',(5.25147084275,16.162365358689,8.497058314499
    ));
#1010 = LINE('',#1011,#1012);
#1011 = CARTESIAN_POINT('',(16.994116628998,-4.16E-15,8.497058314499));
#1012 = VECTOR('',#1013,1.);
#1013 = DIRECTION('',(-0.587785252292,0.809016994375,0.));
#1014 = ORIENTED_EDGE('',*,*,#1015,.T.);
#1015 = EDGE_CURVE('',#1008,#280,#1016,.T.);
#1016 = LINE('',#1017,#1018);
#1017 = CARTESIAN_POINT('',(5.25147084275,16.162365358689,8.497058314499
    ));
#1018 = VECTOR('',#1019,1.);
#1019 = DIRECTION('',(0.425325404176,-0.309016994375,-0.850650808352));
#1020 = ORIENTED_EDGE('',*,*,#296,.T.);
#1021 = PLANE('',#1022);
#1022 = AXIS2_PLACEMENT_3D('',#1023,#1024,#1025);
#1023 = CARTESIAN_POINT('',(11.998038876333,8.717085496317,2.8323527715)
  );
#1024 = DIRECTION('',(-0.794654472292,-0.57735026919,-0.187592474085));
#1025 = DIRECTION('',(0.587785252292,-0.809016994375,-1.387778780781E-17
    ));
#1026 = ADVANCED_FACE('',(#1027),#1037,.T.);
#1027 = FACE_BOUND('',#1028,.T.);
#1028 = EDGE_LOOP('',(#1029,#1030,#1031));
#1029 = ORIENTED_EDGE('',*,*,#1015,.T.);
#1030 = ORIENTED_EDGE('',*,*,#320,.T.);
#1031 = ORIENTED_EDGE('',*,*,#1032,.T.);
#1032 = EDGE_CURVE('',#313,#1008,#1033,.T.);
#1033 = LINE('',#1034,#1035);
#1034 = CARTESIAN_POINT('',(-5.25147084275,16.162365358689,
    -8.497058314499));
#1035 = VECTOR('',#1036,1.);
#1036 = DIRECTION('',(0.525731112119,0.,0.850650808352));
#1037 = PLANE('',#1038);
#1038 = AXIS2_PLACEMENT_3D('',#1039,#1040,#1041);
#1039 = CARTESIAN_POINT('',(4.582843052417,14.10454061588,-2.8323527715)
  );
#1040 = DIRECTION('',(0.303530999103,0.934172358963,-0.187592474085));
#1041 = DIRECTION('',(0.951056516295,-0.309016994375,0.));
#1042 = ADVANCED_FACE('',(#1043),#1053,.T.);
#1043 = FACE_BOUND('',#1044,.T.);
#1044 = EDGE_LOOP('',(#1045,#1051,#1052));
#1045 = ORIENTED_EDGE('',*,*,#1046,.T.);
#1046 = EDGE_CURVE('',#1000,#335,#1047,.T.);
#1047 = LINE('',#1048,#1049);
#1048 = CARTESIAN_POINT('',(16.994116628998,-4.16E-15,8.497058314499));
#1049 = VECTOR('',#1050,1.);
#1050 = DIRECTION('',(-0.162459848116,-0.5,-0.850650808352));
#1051 = ORIENTED_EDGE('',*,*,#344,.T.);
#1052 = ORIENTED_EDGE('',*,*,#999,.T.);
#1053 = PLANE('',#1054);
#1054 = AXIS2_PLACEMENT_3D('',#1055,#1056,#1057);
#1055 = CARTESIAN_POINT('',(14.830391647833,-3.79E-15,-2.8323527715));
#1056 = DIRECTION('',(0.982246946377,-1.8E-16,-0.187592474085));
#1057 = DIRECTION('',(0.187592474085,-6.162975822039E-33,0.982246946377)
  );
#1058 = ADVANCED_FACE('',(#1059),#1077,.F.);
#1059 = FACE_BOUND('',#1060,.F.);
#1060 = EDGE_LOOP('',(#1061,#1062,#1070,#1076));
#1061 = ORIENTED_EDGE('',*,*,#1032,.T.);
#1062 = ORIENTED_EDGE('',*,*,#1063,.T.);
#1063 = EDGE_CURVE('',#1008,#1064,#1066,.T.);
#1064 = VERTEX_POINT('',#1065);
#1065 = CARTESIAN_POINT('',(-13.74852915725,9.988891130264,
    8.497058314499));
#1066 = LINE('',#1067,#1068);
#1067 = CARTESIAN_POINT('',(5.25147084275,16.162365358689,8.497058314499
    ));
#1068 = VECTOR('',#1069,1.);
#1069 = DIRECTION('',(-0.951056516295,-0.309016994375,0.));
#1070 = ORIENTED_EDGE('',*,*,#1071,.T.);
#1071 = EDGE_CURVE('',#1064,#359,#1072,.T.);
#1072 = LINE('',#1073,#1074);
#1073 = CARTESIAN_POINT('',(-13.74852915725,9.988891130264,
    8.497058314499));
#1074 = VECTOR('',#1075,1.);
#1075 = DIRECTION('',(0.425325404176,0.309016994375,-0.850650808352));
#1076 = ORIENTED_EDGE('',*,*,#368,.T.);
#1077 = PLANE('',#1078);
#1078 = AXIS2_PLACEMENT_3D('',#1079,#1080,#1081);
#1079 = CARTESIAN_POINT('',(-4.582843052417,14.10454061588,2.8323527715)
  );
#1080 = DIRECTION('',(0.303530999103,-0.934172358963,-0.187592474085));
#1081 = DIRECTION('',(-0.951056516295,-0.309016994375,
    -1.387778780781E-17));
#1082 = ADVANCED_FACE('',(#1083),#1101,.F.);
#1083 = FACE_BOUND('',#1084,.F.);
#1084 = EDGE_LOOP('',(#1085,#1093,#1099,#1100));
#1085 = ORIENTED_EDGE('',*,*,#1086,.T.);
#1086 = EDGE_CURVE('',#385,#1087,#1089,.T.);
#1087 = VERTEX_POINT('',#1088);
#1088 = CARTESIAN_POINT('',(5.25147084275,-16.16236535868,8.497058314499
    ));
#1089 = LINE('',#1090,#1091);
#1090 = CARTESIAN_POINT('',(13.74852915725,-9.988891130264,
    -8.497058314499));
#1091 = VECTOR('',#1092,1.);
#1092 = DIRECTION('',(-0.425325404176,-0.309016994375,0.850650808352));
#1093 = ORIENTED_EDGE('',*,*,#1094,.T.);
#1094 = EDGE_CURVE('',#1087,#1000,#1095,.T.);
#1095 = LINE('',#1096,#1097);
#1096 = CARTESIAN_POINT('',(5.25147084275,-16.16236535868,8.497058314499
    ));
#1097 = VECTOR('',#1098,1.);
#1098 = DIRECTION('',(0.587785252292,0.809016994375,0.));
#1099 = ORIENTED_EDGE('',*,*,#1046,.T.);
#1100 = ORIENTED_EDGE('',*,*,#392,.T.);
#1101 = PLANE('',#1102);
#1102 = AXIS2_PLACEMENT_3D('',#1103,#1104,#1105);
#1103 = CARTESIAN_POINT('',(11.998038876333,-8.717085496317,2.8323527715
    ));
#1104 = DIRECTION('',(-0.794654472292,0.57735026919,-0.187592474085));
#1105 = DIRECTION('',(-0.587785252292,-0.809016994375,
    -1.387778780781E-17));
#1106 = ADVANCED_FACE('',(#1107),#1117,.T.);
#1107 = FACE_BOUND('',#1108,.T.);
#1108 = EDGE_LOOP('',(#1109,#1110,#1111));
#1109 = ORIENTED_EDGE('',*,*,#1071,.T.);
#1110 = ORIENTED_EDGE('',*,*,#416,.T.);
#1111 = ORIENTED_EDGE('',*,*,#1112,.T.);
#1112 = EDGE_CURVE('',#409,#1064,#1113,.T.);
#1113 = LINE('',#1114,#1115);
#1114 = CARTESIAN_POINT('',(-16.99411662899,6.24E-15,-8.497058314499));
#1115 = VECTOR('',#1116,1.);
#1116 = DIRECTION('',(0.162459848116,0.5,0.850650808352));
#1117 = PLANE('',#1118);
#1118 = AXIS2_PLACEMENT_3D('',#1119,#1120,#1121);
#1119 = CARTESIAN_POINT('',(-11.99803887633,8.717085496317,-2.8323527715
    ));
#1120 = DIRECTION('',(-0.794654472292,0.57735026919,-0.187592474085));
#1121 = DIRECTION('',(-0.587785252292,-0.809016994375,2.081668171172E-16
    ));
#1122 = ADVANCED_FACE('',(#1123),#1133,.T.);
#1123 = FACE_BOUND('',#1124,.T.);
#1124 = EDGE_LOOP('',(#1125,#1131,#1132));
#1125 = ORIENTED_EDGE('',*,*,#1126,.T.);
#1126 = EDGE_CURVE('',#1087,#431,#1127,.T.);
#1127 = LINE('',#1128,#1129);
#1128 = CARTESIAN_POINT('',(5.25147084275,-16.16236535868,8.497058314499
    ));
#1129 = VECTOR('',#1130,1.);
#1130 = DIRECTION('',(-0.525731112119,0.,-0.850650808352));
#1131 = ORIENTED_EDGE('',*,*,#440,.T.);
#1132 = ORIENTED_EDGE('',*,*,#1086,.T.);
#1133 = PLANE('',#1134);
#1134 = AXIS2_PLACEMENT_3D('',#1135,#1136,#1137);
#1135 = CARTESIAN_POINT('',(4.582843052417,-14.10454061588,-2.8323527715
    ));
#1136 = DIRECTION('',(0.303530999103,-0.934172358963,-0.187592474085));
#1137 = DIRECTION('',(-0.951056516295,-0.309016994375,0.));
#1138 = ADVANCED_FACE('',(#1139),#1157,.F.);
#1139 = FACE_BOUND('',#1140,.F.);
#1140 = EDGE_LOOP('',(#1141,#1142,#1150,#1156));
#1141 = ORIENTED_EDGE('',*,*,#1112,.T.);
#1142 = ORIENTED_EDGE('',*,*,#1143,.T.);
#1143 = EDGE_CURVE('',#1064,#1144,#1146,.T.);
#1144 = VERTEX_POINT('',#1145);
#1145 = CARTESIAN_POINT('',(-13.74852915725,-9.988891130264,
    8.497058314499));
#1146 = LINE('',#1147,#1148);
#1147 = CARTESIAN_POINT('',(-13.74852915725,9.988891130264,
    8.497058314499));
#1148 = VECTOR('',#1149,1.);
#1149 = DIRECTION('',(-3.6E-16,-1.,0.));
#1150 = ORIENTED_EDGE('',*,*,#1151,.T.);
#1151 = EDGE_CURVE('',#1144,#455,#1152,.T.);
#1152 = LINE('',#1153,#1154);
#1153 = CARTESIAN_POINT('',(-13.74852915725,-9.988891130264,
    8.497058314499));
#1154 = VECTOR('',#1155,1.);
#1155 = DIRECTION('',(-0.162459848116,0.5,-0.850650808352));
#1156 = ORIENTED_EDGE('',*,*,#464,.T.);
#1157 = PLANE('',#1158);
#1158 = AXIS2_PLACEMENT_3D('',#1159,#1160,#1161);
#1159 = CARTESIAN_POINT('',(-14.83039164783,4.51E-15,2.8323527715));
#1160 = DIRECTION('',(0.982246946377,-3.5E-16,-0.187592474085));
#1161 = DIRECTION('',(0.187592474085,0.,0.982246946377));
#1162 = ADVANCED_FACE('',(#1163),#1179,.F.);
#1163 = FACE_BOUND('',#1164,.F.);
#1164 = EDGE_LOOP('',(#1165,#1171,#1177,#1178));
#1165 = ORIENTED_EDGE('',*,*,#1166,.T.);
#1166 = EDGE_CURVE('',#481,#1144,#1167,.T.);
#1167 = LINE('',#1168,#1169);
#1168 = CARTESIAN_POINT('',(-5.25147084275,-16.16236535868,
    -8.497058314499));
#1169 = VECTOR('',#1170,1.);
#1170 = DIRECTION('',(-0.425325404176,0.309016994375,0.850650808352));
#1171 = ORIENTED_EDGE('',*,*,#1172,.T.);
#1172 = EDGE_CURVE('',#1144,#1087,#1173,.T.);
#1173 = LINE('',#1174,#1175);
#1174 = CARTESIAN_POINT('',(-13.74852915725,-9.988891130264,
    8.497058314499));
#1175 = VECTOR('',#1176,1.);
#1176 = DIRECTION('',(0.951056516295,-0.309016994375,0.));
#1177 = ORIENTED_EDGE('',*,*,#1126,.T.);
#1178 = ORIENTED_EDGE('',*,*,#488,.T.);
#1179 = PLANE('',#1180);
#1180 = AXIS2_PLACEMENT_3D('',#1181,#1182,#1183);
#1181 = CARTESIAN_POINT('',(-4.582843052417,-14.10454061588,2.8323527715
    ));
#1182 = DIRECTION('',(0.303530999103,0.934172358963,-0.187592474085));
#1183 = DIRECTION('',(0.951056516295,-0.309016994375,0.));
#1184 = ADVANCED_FACE('',(#1185),#1190,.T.);
#1185 = FACE_BOUND('',#1186,.T.);
#1186 = EDGE_LOOP('',(#1187,#1188,#1189));
#1187 = ORIENTED_EDGE('',*,*,#1151,.T.);
#1188 = ORIENTED_EDGE('',*,*,#505,.T.);
#1189 = ORIENTED_EDGE('',*,*,#1166,.T.);
#1190 = PLANE('',#1191);
#1191 = AXIS2_PLACEMENT_3D('',#1192,#1193,#1194);
#1192 = CARTESIAN_POINT('',(-11.99803887633,-8.717085496317,
    -2.8323527715));
#1193 = DIRECTION('',(-0.794654472292,-0.57735026919,-0.187592474085));
#1194 = DIRECTION('',(0.587785252292,-0.809016994375,-6.938893903907E-17
    ));
#1195 = ADVANCED_FACE('',(#1196),#1221,.T.);
#1196 = FACE_BOUND('',#1197,.T.);
#1197 = EDGE_LOOP('',(#1198,#1206,#1214,#1220));
#1198 = ORIENTED_EDGE('',*,*,#1199,.T.);
#1199 = EDGE_CURVE('',#520,#1200,#1202,.T.);
#1200 = VERTEX_POINT('',#1201);
#1201 = CARTESIAN_POINT('',(10.270513511521,8.606918856924,6.5));
#1202 = LINE('',#1203,#1204);
#1203 = CARTESIAN_POINT('',(10.270513511521,8.606918856924,0.));
#1204 = VECTOR('',#1205,1.);
#1205 = DIRECTION('',(0.,0.,1.));
#1206 = ORIENTED_EDGE('',*,*,#1207,.T.);
#1207 = EDGE_CURVE('',#1200,#1208,#1210,.T.);
#1208 = VERTEX_POINT('',#1209);
#1209 = CARTESIAN_POINT('',(5.011903048084,12.427522996825,6.5));
#1210 = LINE('',#1211,#1212);
#1211 = CARTESIAN_POINT('',(10.270513511521,8.606918856924,6.5));
#1212 = VECTOR('',#1213,1.);
#1213 = DIRECTION('',(-0.809016994375,0.587785252292,-0.));
#1214 = ORIENTED_EDGE('',*,*,#1215,.F.);
#1215 = EDGE_CURVE('',#529,#1208,#1216,.T.);
#1216 = LINE('',#1217,#1218);
#1217 = CARTESIAN_POINT('',(5.011903048084,12.427522996825,0.));
#1218 = VECTOR('',#1219,1.);
#1219 = DIRECTION('',(0.,0.,1.));
#1220 = ORIENTED_EDGE('',*,*,#536,.F.);
#1221 = PLANE('',#1222);
#1222 = AXIS2_PLACEMENT_3D('',#1223,#1224,#1225);
#1223 = CARTESIAN_POINT('',(10.270513511521,8.606918856924,0.));
#1224 = DIRECTION('',(-0.587785252292,-0.809016994375,0.));
#1225 = DIRECTION('',(-0.809016994375,0.587785252292,0.));
#1226 = ADVANCED_FACE('',(#1227),#1245,.T.);
#1227 = FACE_BOUND('',#1228,.T.);
#1228 = EDGE_LOOP('',(#1229,#1237,#1243,#1244));
#1229 = ORIENTED_EDGE('',*,*,#1230,.T.);
#1230 = EDGE_CURVE('',#551,#1231,#1233,.T.);
#1231 = VERTEX_POINT('',#1232);
#1232 = CARTESIAN_POINT('',(8.80105038079,6.584376370987,6.5));
#1233 = LINE('',#1234,#1235);
#1234 = CARTESIAN_POINT('',(8.80105038079,6.584376370987,0.));
#1235 = VECTOR('',#1236,1.);
#1236 = DIRECTION('',(0.,0.,1.));
#1237 = ORIENTED_EDGE('',*,*,#1238,.T.);
#1238 = EDGE_CURVE('',#1231,#1200,#1239,.T.);
#1239 = LINE('',#1240,#1241);
#1240 = CARTESIAN_POINT('',(8.80105038079,6.584376370987,6.5));
#1241 = VECTOR('',#1242,1.);
#1242 = DIRECTION('',(0.587785252292,0.809016994375,0.));
#1243 = ORIENTED_EDGE('',*,*,#1199,.F.);
#1244 = ORIENTED_EDGE('',*,*,#560,.F.);
#1245 = PLANE('',#1246);
#1246 = AXIS2_PLACEMENT_3D('',#1247,#1248,#1249);
#1247 = CARTESIAN_POINT('',(8.80105038079,6.584376370987,0.));
#1248 = DIRECTION('',(-0.809016994375,0.587785252292,0.));
#1249 = DIRECTION('',(0.587785252292,0.809016994375,0.));
#1250 = ADVANCED_FACE('',(#1251),#1269,.T.);
#1251 = FACE_BOUND('',#1252,.T.);
#1252 = EDGE_LOOP('',(#1253,#1254,#1262,#1268));
#1253 = ORIENTED_EDGE('',*,*,#1215,.T.);
#1254 = ORIENTED_EDGE('',*,*,#1255,.T.);
#1255 = EDGE_CURVE('',#1208,#1256,#1258,.T.);
#1256 = VERTEX_POINT('',#1257);
#1257 = CARTESIAN_POINT('',(3.542439917353,10.404980510888,6.5));
#1258 = LINE('',#1259,#1260);
#1259 = CARTESIAN_POINT('',(5.011903048084,12.427522996825,6.5));
#1260 = VECTOR('',#1261,1.);
#1261 = DIRECTION('',(-0.587785252292,-0.809016994375,0.));
#1262 = ORIENTED_EDGE('',*,*,#1263,.F.);
#1263 = EDGE_CURVE('',#577,#1256,#1264,.T.);
#1264 = LINE('',#1265,#1266);
#1265 = CARTESIAN_POINT('',(3.542439917353,10.404980510888,0.));
#1266 = VECTOR('',#1267,1.);
#1267 = DIRECTION('',(0.,0.,1.));
#1268 = ORIENTED_EDGE('',*,*,#584,.F.);
#1269 = PLANE('',#1270);
#1270 = AXIS2_PLACEMENT_3D('',#1271,#1272,#1273);
#1271 = CARTESIAN_POINT('',(5.011903048084,12.427522996825,0.));
#1272 = DIRECTION('',(0.809016994375,-0.587785252292,0.));
#1273 = DIRECTION('',(-0.587785252292,-0.809016994375,0.));
#1274 = ADVANCED_FACE('',(#1275),#1286,.T.);
#1275 = FACE_BOUND('',#1276,.T.);
#1276 = EDGE_LOOP('',(#1277,#1278,#1284,#1285));
#1277 = ORIENTED_EDGE('',*,*,#1263,.T.);
#1278 = ORIENTED_EDGE('',*,*,#1279,.T.);
#1279 = EDGE_CURVE('',#1256,#1231,#1280,.T.);
#1280 = LINE('',#1281,#1282);
#1281 = CARTESIAN_POINT('',(3.542439917353,10.404980510888,6.5));
#1282 = VECTOR('',#1283,1.);
#1283 = DIRECTION('',(0.809016994375,-0.587785252292,0.));
#1284 = ORIENTED_EDGE('',*,*,#1230,.F.);
#1285 = ORIENTED_EDGE('',*,*,#601,.F.);
#1286 = PLANE('',#1287);
#1287 = AXIS2_PLACEMENT_3D('',#1288,#1289,#1290);
#1288 = CARTESIAN_POINT('',(3.542439917353,10.404980510888,0.));
#1289 = DIRECTION('',(0.587785252292,0.809016994375,0.));
#1290 = DIRECTION('',(0.809016994375,-0.587785252292,0.));
#1291 = ADVANCED_FACE('',(#1292),#1317,.F.);
#1292 = FACE_BOUND('',#1293,.F.);
#1293 = EDGE_LOOP('',(#1294,#1302,#1310,#1316));
#1294 = ORIENTED_EDGE('',*,*,#1295,.T.);
#1295 = EDGE_CURVE('',#616,#1296,#1298,.T.);
#1296 = VERTEX_POINT('',#1297);
#1297 = CARTESIAN_POINT('',(10.404980510888,-3.542439917352,6.5));
#1298 = LINE('',#1299,#1300);
#1299 = CARTESIAN_POINT('',(10.404980510888,-3.542439917352,0.));
#1300 = VECTOR('',#1301,1.);
#1301 = DIRECTION('',(0.,0.,1.));
#1302 = ORIENTED_EDGE('',*,*,#1303,.T.);
#1303 = EDGE_CURVE('',#1296,#1304,#1306,.T.);
#1304 = VERTEX_POINT('',#1305);
#1305 = CARTESIAN_POINT('',(12.427522996825,-5.011903048084,6.5));
#1306 = LINE('',#1307,#1308);
#1307 = CARTESIAN_POINT('',(10.404980510888,-3.542439917352,6.5));
#1308 = VECTOR('',#1309,1.);
#1309 = DIRECTION('',(0.809016994375,-0.587785252292,0.));
#1310 = ORIENTED_EDGE('',*,*,#1311,.F.);
#1311 = EDGE_CURVE('',#625,#1304,#1312,.T.);
#1312 = LINE('',#1313,#1314);
#1313 = CARTESIAN_POINT('',(12.427522996825,-5.011903048084,0.));
#1314 = VECTOR('',#1315,1.);
#1315 = DIRECTION('',(0.,0.,1.));
#1316 = ORIENTED_EDGE('',*,*,#632,.F.);
#1317 = PLANE('',#1318);
#1318 = AXIS2_PLACEMENT_3D('',#1319,#1320,#1321);
#1319 = CARTESIAN_POINT('',(10.404980510888,-3.542439917352,0.));
#1320 = DIRECTION('',(0.587785252292,0.809016994375,0.));
#1321 = DIRECTION('',(0.809016994375,-0.587785252292,0.));
#1322 = ADVANCED_FACE('',(#1323),#1341,.F.);
#1323 = FACE_BOUND('',#1324,.F.);
#1324 = EDGE_LOOP('',(#1325,#1333,#1339,#1340));
#1325 = ORIENTED_EDGE('',*,*,#1326,.T.);
#1326 = EDGE_CURVE('',#647,#1327,#1329,.T.);
#1327 = VERTEX_POINT('',#1328);
#1328 = CARTESIAN_POINT('',(6.584376370986,-8.80105038079,6.5));
#1329 = LINE('',#1330,#1331);
#1330 = CARTESIAN_POINT('',(6.584376370986,-8.80105038079,0.));
#1331 = VECTOR('',#1332,1.);
#1332 = DIRECTION('',(0.,0.,1.));
#1333 = ORIENTED_EDGE('',*,*,#1334,.T.);
#1334 = EDGE_CURVE('',#1327,#1296,#1335,.T.);
#1335 = LINE('',#1336,#1337);
#1336 = CARTESIAN_POINT('',(6.584376370986,-8.80105038079,6.5));
#1337 = VECTOR('',#1338,1.);
#1338 = DIRECTION('',(0.587785252292,0.809016994375,0.));
#1339 = ORIENTED_EDGE('',*,*,#1295,.F.);
#1340 = ORIENTED_EDGE('',*,*,#656,.F.);
#1341 = PLANE('',#1342);
#1342 = AXIS2_PLACEMENT_3D('',#1343,#1344,#1345);
#1343 = CARTESIAN_POINT('',(6.584376370986,-8.80105038079,0.));
#1344 = DIRECTION('',(-0.809016994375,0.587785252292,0.));
#1345 = DIRECTION('',(0.587785252292,0.809016994375,0.));
#1346 = ADVANCED_FACE('',(#1347),#1365,.F.);
#1347 = FACE_BOUND('',#1348,.F.);
#1348 = EDGE_LOOP('',(#1349,#1350,#1358,#1364));
#1349 = ORIENTED_EDGE('',*,*,#1311,.T.);
#1350 = ORIENTED_EDGE('',*,*,#1351,.T.);
#1351 = EDGE_CURVE('',#1304,#1352,#1354,.T.);
#1352 = VERTEX_POINT('',#1353);
#1353 = CARTESIAN_POINT('',(8.606918856924,-10.27051351152,6.5));
#1354 = LINE('',#1355,#1356);
#1355 = CARTESIAN_POINT('',(12.427522996825,-5.011903048084,6.5));
#1356 = VECTOR('',#1357,1.);
#1357 = DIRECTION('',(-0.587785252292,-0.809016994375,0.));
#1358 = ORIENTED_EDGE('',*,*,#1359,.F.);
#1359 = EDGE_CURVE('',#673,#1352,#1360,.T.);
#1360 = LINE('',#1361,#1362);
#1361 = CARTESIAN_POINT('',(8.606918856924,-10.27051351152,0.));
#1362 = VECTOR('',#1363,1.);
#1363 = DIRECTION('',(0.,0.,1.));
#1364 = ORIENTED_EDGE('',*,*,#680,.F.);
#1365 = PLANE('',#1366);
#1366 = AXIS2_PLACEMENT_3D('',#1367,#1368,#1369);
#1367 = CARTESIAN_POINT('',(12.427522996825,-5.011903048084,0.));
#1368 = DIRECTION('',(0.809016994375,-0.587785252292,0.));
#1369 = DIRECTION('',(-0.587785252292,-0.809016994375,0.));
#1370 = ADVANCED_FACE('',(#1371),#1382,.T.);
#1371 = FACE_BOUND('',#1372,.T.);
#1372 = EDGE_LOOP('',(#1373,#1374,#1380,#1381));
#1373 = ORIENTED_EDGE('',*,*,#1326,.T.);
#1374 = ORIENTED_EDGE('',*,*,#1375,.T.);
#1375 = EDGE_CURVE('',#1327,#1352,#1376,.T.);
#1376 = LINE('',#1377,#1378);
#1377 = CARTESIAN_POINT('',(6.584376370986,-8.80105038079,6.5));
#1378 = VECTOR('',#1379,1.);
#1379 = DIRECTION('',(0.809016994375,-0.587785252292,0.));
#1380 = ORIENTED_EDGE('',*,*,#1359,.F.);
#1381 = ORIENTED_EDGE('',*,*,#697,.F.);
#1382 = PLANE('',#1383);
#1383 = AXIS2_PLACEMENT_3D('',#1384,#1385,#1386);
#1384 = CARTESIAN_POINT('',(6.584376370986,-8.80105038079,0.));
#1385 = DIRECTION('',(0.587785252292,0.809016994375,0.));
#1386 = DIRECTION('',(0.809016994375,-0.587785252292,0.));
#1387 = ADVANCED_FACE('',(#1388),#1413,.F.);
#1388 = FACE_BOUND('',#1389,.F.);
#1389 = EDGE_LOOP('',(#1390,#1398,#1406,#1412));
#1390 = ORIENTED_EDGE('',*,*,#1391,.T.);
#1391 = EDGE_CURVE('',#712,#1392,#1394,.T.);
#1392 = VERTEX_POINT('',#1393);
#1393 = CARTESIAN_POINT('',(-8.80105038079,-6.584376370986,6.5));
#1394 = LINE('',#1395,#1396);
#1395 = CARTESIAN_POINT('',(-8.80105038079,-6.584376370986,0.));
#1396 = VECTOR('',#1397,1.);
#1397 = DIRECTION('',(0.,0.,1.));
#1398 = ORIENTED_EDGE('',*,*,#1399,.T.);
#1399 = EDGE_CURVE('',#1392,#1400,#1402,.T.);
#1400 = VERTEX_POINT('',#1401);
#1401 = CARTESIAN_POINT('',(-3.542439917352,-10.40498051088,6.5));
#1402 = LINE('',#1403,#1404);
#1403 = CARTESIAN_POINT('',(-8.80105038079,-6.584376370986,6.5));
#1404 = VECTOR('',#1405,1.);
#1405 = DIRECTION('',(0.809016994375,-0.587785252292,0.));
#1406 = ORIENTED_EDGE('',*,*,#1407,.F.);
#1407 = EDGE_CURVE('',#721,#1400,#1408,.T.);
#1408 = LINE('',#1409,#1410);
#1409 = CARTESIAN_POINT('',(-3.542439917352,-10.40498051088,0.));
#1410 = VECTOR('',#1411,1.);
#1411 = DIRECTION('',(0.,0.,1.));
#1412 = ORIENTED_EDGE('',*,*,#728,.F.);
#1413 = PLANE('',#1414);
#1414 = AXIS2_PLACEMENT_3D('',#1415,#1416,#1417);
#1415 = CARTESIAN_POINT('',(-8.80105038079,-6.584376370986,0.));
#1416 = DIRECTION('',(0.587785252292,0.809016994375,0.));
#1417 = DIRECTION('',(0.809016994375,-0.587785252292,0.));
#1418 = ADVANCED_FACE('',(#1419),#1437,.F.);
#1419 = FACE_BOUND('',#1420,.F.);
#1420 = EDGE_LOOP('',(#1421,#1429,#1435,#1436));
#1421 = ORIENTED_EDGE('',*,*,#1422,.T.);
#1422 = EDGE_CURVE('',#743,#1423,#1425,.T.);
#1423 = VERTEX_POINT('',#1424);
#1424 = CARTESIAN_POINT('',(-10.27051351152,-8.606918856924,6.5));
#1425 = LINE('',#1426,#1427);
#1426 = CARTESIAN_POINT('',(-10.27051351152,-8.606918856924,0.));
#1427 = VECTOR('',#1428,1.);
#1428 = DIRECTION('',(0.,0.,1.));
#1429 = ORIENTED_EDGE('',*,*,#1430,.T.);
#1430 = EDGE_CURVE('',#1423,#1392,#1431,.T.);
#1431 = LINE('',#1432,#1433);
#1432 = CARTESIAN_POINT('',(-10.27051351152,-8.606918856924,6.5));
#1433 = VECTOR('',#1434,1.);
#1434 = DIRECTION('',(0.587785252292,0.809016994375,0.));
#1435 = ORIENTED_EDGE('',*,*,#1391,.F.);
#1436 = ORIENTED_EDGE('',*,*,#752,.F.);
#1437 = PLANE('',#1438);
#1438 = AXIS2_PLACEMENT_3D('',#1439,#1440,#1441);
#1439 = CARTESIAN_POINT('',(-10.27051351152,-8.606918856924,0.));
#1440 = DIRECTION('',(-0.809016994375,0.587785252292,0.));
#1441 = DIRECTION('',(0.587785252292,0.809016994375,0.));
#1442 = ADVANCED_FACE('',(#1443),#1461,.F.);
#1443 = FACE_BOUND('',#1444,.F.);
#1444 = EDGE_LOOP('',(#1445,#1446,#1454,#1460));
#1445 = ORIENTED_EDGE('',*,*,#1407,.T.);
#1446 = ORIENTED_EDGE('',*,*,#1447,.T.);
#1447 = EDGE_CURVE('',#1400,#1448,#1450,.T.);
#1448 = VERTEX_POINT('',#1449);
#1449 = CARTESIAN_POINT('',(-5.011903048084,-12.42752299682,6.5));
#1450 = LINE('',#1451,#1452);
#1451 = CARTESIAN_POINT('',(-3.542439917352,-10.40498051088,6.5));
#1452 = VECTOR('',#1453,1.);
#1453 = DIRECTION('',(-0.587785252292,-0.809016994375,0.));
#1454 = ORIENTED_EDGE('',*,*,#1455,.F.);
#1455 = EDGE_CURVE('',#769,#1448,#1456,.T.);
#1456 = LINE('',#1457,#1458);
#1457 = CARTESIAN_POINT('',(-5.011903048084,-12.42752299682,0.));
#1458 = VECTOR('',#1459,1.);
#1459 = DIRECTION('',(0.,0.,1.));
#1460 = ORIENTED_EDGE('',*,*,#776,.F.);
#1461 = PLANE('',#1462);
#1462 = AXIS2_PLACEMENT_3D('',#1463,#1464,#1465);
#1463 = CARTESIAN_POINT('',(-3.542439917352,-10.40498051088,0.));
#1464 = DIRECTION('',(0.809016994375,-0.587785252292,0.));
#1465 = DIRECTION('',(-0.587785252292,-0.809016994375,0.));
#1466 = ADVANCED_FACE('',(#1467),#1478,.F.);
#1467 = FACE_BOUND('',#1468,.F.);
#1468 = EDGE_LOOP('',(#1469,#1470,#1476,#1477));
#1469 = ORIENTED_EDGE('',*,*,#1455,.T.);
#1470 = ORIENTED_EDGE('',*,*,#1471,.T.);
#1471 = EDGE_CURVE('',#1448,#1423,#1472,.T.);
#1472 = LINE('',#1473,#1474);
#1473 = CARTESIAN_POINT('',(-5.011903048084,-12.42752299682,6.5));
#1474 = VECTOR('',#1475,1.);
#1475 = DIRECTION('',(-0.809016994375,0.587785252292,-0.));
#1476 = ORIENTED_EDGE('',*,*,#1422,.F.);
#1477 = ORIENTED_EDGE('',*,*,#793,.F.);
#1478 = PLANE('',#1479);
#1479 = AXIS2_PLACEMENT_3D('',#1480,#1481,#1482);
#1480 = CARTESIAN_POINT('',(-5.011903048084,-12.42752299682,0.));
#1481 = DIRECTION('',(-0.587785252292,-0.809016994375,0.));
#1482 = DIRECTION('',(-0.809016994375,0.587785252292,0.));
#1483 = ADVANCED_FACE('',(#1484),#1509,.T.);
#1484 = FACE_BOUND('',#1485,.T.);
#1485 = EDGE_LOOP('',(#1486,#1494,#1502,#1508));
#1486 = ORIENTED_EDGE('',*,*,#1487,.T.);
#1487 = EDGE_CURVE('',#808,#1488,#1490,.T.);
#1488 = VERTEX_POINT('',#1489);
#1489 = CARTESIAN_POINT('',(-6.584376370986,8.80105038079,6.5));
#1490 = LINE('',#1491,#1492);
#1491 = CARTESIAN_POINT('',(-6.584376370986,8.80105038079,0.));
#1492 = VECTOR('',#1493,1.);
#1493 = DIRECTION('',(0.,0.,1.));
#1494 = ORIENTED_EDGE('',*,*,#1495,.T.);
#1495 = EDGE_CURVE('',#1488,#1496,#1498,.T.);
#1496 = VERTEX_POINT('',#1497);
#1497 = CARTESIAN_POINT('',(-8.606918856924,10.270513511521,6.5));
#1498 = LINE('',#1499,#1500);
#1499 = CARTESIAN_POINT('',(-6.584376370986,8.80105038079,6.5));
#1500 = VECTOR('',#1501,1.);
#1501 = DIRECTION('',(-0.809016994375,0.587785252292,-0.));
#1502 = ORIENTED_EDGE('',*,*,#1503,.F.);
#1503 = EDGE_CURVE('',#817,#1496,#1504,.T.);
#1504 = LINE('',#1505,#1506);
#1505 = CARTESIAN_POINT('',(-8.606918856924,10.270513511521,0.));
#1506 = VECTOR('',#1507,1.);
#1507 = DIRECTION('',(0.,0.,1.));
#1508 = ORIENTED_EDGE('',*,*,#824,.F.);
#1509 = PLANE('',#1510);
#1510 = AXIS2_PLACEMENT_3D('',#1511,#1512,#1513);
#1511 = CARTESIAN_POINT('',(-6.584376370986,8.80105038079,0.));
#1512 = DIRECTION('',(-0.587785252292,-0.809016994375,0.));
#1513 = DIRECTION('',(-0.809016994375,0.587785252292,0.));
#1514 = ADVANCED_FACE('',(#1515),#1533,.T.);
#1515 = FACE_BOUND('',#1516,.T.);
#1516 = EDGE_LOOP('',(#1517,#1525,#1531,#1532));
#1517 = ORIENTED_EDGE('',*,*,#1518,.T.);
#1518 = EDGE_CURVE('',#839,#1519,#1521,.T.);
#1519 = VERTEX_POINT('',#1520);
#1520 = CARTESIAN_POINT('',(-10.40498051088,3.542439917353,6.5));
#1521 = LINE('',#1522,#1523);
#1522 = CARTESIAN_POINT('',(-10.40498051088,3.542439917353,0.));
#1523 = VECTOR('',#1524,1.);
#1524 = DIRECTION('',(0.,0.,1.));
#1525 = ORIENTED_EDGE('',*,*,#1526,.T.);
#1526 = EDGE_CURVE('',#1519,#1488,#1527,.T.);
#1527 = LINE('',#1528,#1529);
#1528 = CARTESIAN_POINT('',(-10.40498051088,3.542439917353,6.5));
#1529 = VECTOR('',#1530,1.);
#1530 = DIRECTION('',(0.587785252292,0.809016994375,0.));
#1531 = ORIENTED_EDGE('',*,*,#1487,.F.);
#1532 = ORIENTED_EDGE('',*,*,#848,.F.);
#1533 = PLANE('',#1534);
#1534 = AXIS2_PLACEMENT_3D('',#1535,#1536,#1537);
#1535 = CARTESIAN_POINT('',(-10.40498051088,3.542439917353,0.));
#1536 = DIRECTION('',(-0.809016994375,0.587785252292,0.));
#1537 = DIRECTION('',(0.587785252292,0.809016994375,0.));
#1538 = ADVANCED_FACE('',(#1539),#1557,.T.);
#1539 = FACE_BOUND('',#1540,.T.);
#1540 = EDGE_LOOP('',(#1541,#1542,#1550,#1556));
#1541 = ORIENTED_EDGE('',*,*,#1503,.T.);
#1542 = ORIENTED_EDGE('',*,*,#1543,.T.);
#1543 = EDGE_CURVE('',#1496,#1544,#1546,.T.);
#1544 = VERTEX_POINT('',#1545);
#1545 = CARTESIAN_POINT('',(-12.42752299682,5.011903048084,6.5));
#1546 = LINE('',#1547,#1548);
#1547 = CARTESIAN_POINT('',(-8.606918856924,10.270513511521,6.5));
#1548 = VECTOR('',#1549,1.);
#1549 = DIRECTION('',(-0.587785252292,-0.809016994375,0.));
#1550 = ORIENTED_EDGE('',*,*,#1551,.F.);
#1551 = EDGE_CURVE('',#865,#1544,#1552,.T.);
#1552 = LINE('',#1553,#1554);
#1553 = CARTESIAN_POINT('',(-12.42752299682,5.011903048084,0.));
#1554 = VECTOR('',#1555,1.);
#1555 = DIRECTION('',(0.,0.,1.));
#1556 = ORIENTED_EDGE('',*,*,#872,.F.);
#1557 = PLANE('',#1558);
#1558 = AXIS2_PLACEMENT_3D('',#1559,#1560,#1561);
#1559 = CARTESIAN_POINT('',(-8.606918856924,10.270513511521,0.));
#1560 = DIRECTION('',(0.809016994375,-0.587785252292,0.));
#1561 = DIRECTION('',(-0.587785252292,-0.809016994375,0.));
#1562 = ADVANCED_FACE('',(#1563),#1574,.T.);
#1563 = FACE_BOUND('',#1564,.T.);
#1564 = EDGE_LOOP('',(#1565,#1566,#1572,#1573));
#1565 = ORIENTED_EDGE('',*,*,#1551,.T.);
#1566 = ORIENTED_EDGE('',*,*,#1567,.T.);
#1567 = EDGE_CURVE('',#1544,#1519,#1568,.T.);
#1568 = LINE('',#1569,#1570);
#1569 = CARTESIAN_POINT('',(-12.42752299682,5.011903048084,6.5));
#1570 = VECTOR('',#1571,1.);
#1571 = DIRECTION('',(0.809016994375,-0.587785252292,0.));
#1572 = ORIENTED_EDGE('',*,*,#1518,.F.);
#1573 = ORIENTED_EDGE('',*,*,#889,.F.);
#1574 = PLANE('',#1575);
#1575 = AXIS2_PLACEMENT_3D('',#1576,#1577,#1578);
#1576 = CARTESIAN_POINT('',(-12.42752299682,5.011903048084,0.));
#1577 = DIRECTION('',(0.587785252292,0.809016994375,0.));
#1578 = DIRECTION('',(0.809016994375,-0.587785252292,0.));
#1579 = ADVANCED_FACE('',(#1580),#1605,.T.);
#1580 = FACE_BOUND('',#1581,.T.);
#1581 = EDGE_LOOP('',(#1582,#1590,#1598,#1604));
#1582 = ORIENTED_EDGE('',*,*,#1583,.T.);
#1583 = EDGE_CURVE('',#904,#1584,#1586,.T.);
#1584 = VERTEX_POINT('',#1585);
#1585 = CARTESIAN_POINT('',(12.152179546007,1.924716156118,9.3));
#1586 = LINE('',#1587,#1588);
#1587 = CARTESIAN_POINT('',(12.152179546007,1.924716156118,0.));
#1588 = VECTOR('',#1589,1.);
#1589 = DIRECTION('',(0.,0.,1.));
#1590 = ORIENTED_EDGE('',*,*,#1591,.T.);
#1591 = EDGE_CURVE('',#1584,#1592,#1594,.T.);
#1592 = VERTEX_POINT('',#1593);
#1593 = CARTESIAN_POINT('',(-1.924716156117,12.152179546007,9.3));
#1594 = LINE('',#1595,#1596);
#1595 = CARTESIAN_POINT('',(12.152179546007,1.924716156118,9.3));
#1596 = VECTOR('',#1597,1.);
#1597 = DIRECTION('',(-0.809016994375,0.587785252292,-0.));
#1598 = ORIENTED_EDGE('',*,*,#1599,.F.);
#1599 = EDGE_CURVE('',#913,#1592,#1600,.T.);
#1600 = LINE('',#1601,#1602);
#1601 = CARTESIAN_POINT('',(-1.924716156117,12.152179546007,0.));
#1602 = VECTOR('',#1603,1.);
#1603 = DIRECTION('',(0.,0.,1.));
#1604 = ORIENTED_EDGE('',*,*,#920,.F.);
#1605 = PLANE('',#1606);
#1606 = AXIS2_PLACEMENT_3D('',#1607,#1608,#1609);
#1607 = CARTESIAN_POINT('',(12.152179546007,1.924716156118,0.));
#1608 = DIRECTION('',(-0.587785252292,-0.809016994375,0.));
#1609 = DIRECTION('',(-0.809016994375,0.587785252292,0.));
#1610 = ADVANCED_FACE('',(#1611),#1629,.T.);
#1611 = FACE_BOUND('',#1612,.T.);
#1612 = EDGE_LOOP('',(#1613,#1621,#1627,#1628));
#1613 = ORIENTED_EDGE('',*,*,#1614,.T.);
#1614 = EDGE_CURVE('',#935,#1615,#1617,.T.);
#1615 = VERTEX_POINT('',#1616);
#1616 = CARTESIAN_POINT('',(1.924716156117,-12.152179546,9.3));
#1617 = LINE('',#1618,#1619);
#1618 = CARTESIAN_POINT('',(1.924716156117,-12.152179546,0.));
#1619 = VECTOR('',#1620,1.);
#1620 = DIRECTION('',(0.,0.,1.));
#1621 = ORIENTED_EDGE('',*,*,#1622,.T.);
#1622 = EDGE_CURVE('',#1615,#1584,#1623,.T.);
#1623 = LINE('',#1624,#1625);
#1624 = CARTESIAN_POINT('',(1.924716156117,-12.152179546,9.3));
#1625 = VECTOR('',#1626,1.);
#1626 = DIRECTION('',(0.587785252292,0.809016994375,0.));
#1627 = ORIENTED_EDGE('',*,*,#1583,.F.);
#1628 = ORIENTED_EDGE('',*,*,#944,.F.);
#1629 = PLANE('',#1630);
#1630 = AXIS2_PLACEMENT_3D('',#1631,#1632,#1633);
#1631 = CARTESIAN_POINT('',(1.924716156117,-12.152179546,0.));
#1632 = DIRECTION('',(-0.809016994375,0.587785252292,0.));
#1633 = DIRECTION('',(0.587785252292,0.809016994375,0.));
#1634 = ADVANCED_FACE('',(#1635),#1653,.T.);
#1635 = FACE_BOUND('',#1636,.T.);
#1636 = EDGE_LOOP('',(#1637,#1638,#1646,#1652));
#1637 = ORIENTED_EDGE('',*,*,#1599,.T.);
#1638 = ORIENTED_EDGE('',*,*,#1639,.T.);
#1639 = EDGE_CURVE('',#1592,#1640,#1642,.T.);
#1640 = VERTEX_POINT('',#1641);
#1641 = CARTESIAN_POINT('',(-12.152179546,-1.924716156117,9.3));
#1642 = LINE('',#1643,#1644);
#1643 = CARTESIAN_POINT('',(-1.924716156117,12.152179546007,9.3));
#1644 = VECTOR('',#1645,1.);
#1645 = DIRECTION('',(-0.587785252292,-0.809016994375,0.));
#1646 = ORIENTED_EDGE('',*,*,#1647,.F.);
#1647 = EDGE_CURVE('',#961,#1640,#1648,.T.);
#1648 = LINE('',#1649,#1650);
#1649 = CARTESIAN_POINT('',(-12.152179546,-1.924716156117,0.));
#1650 = VECTOR('',#1651,1.);
#1651 = DIRECTION('',(0.,0.,1.));
#1652 = ORIENTED_EDGE('',*,*,#968,.F.);
#1653 = PLANE('',#1654);
#1654 = AXIS2_PLACEMENT_3D('',#1655,#1656,#1657);
#1655 = CARTESIAN_POINT('',(-1.924716156117,12.152179546007,0.));
#1656 = DIRECTION('',(0.809016994375,-0.587785252292,0.));
#1657 = DIRECTION('',(-0.587785252292,-0.809016994375,0.));
#1658 = ADVANCED_FACE('',(#1659),#1670,.T.);
#1659 = FACE_BOUND('',#1660,.T.);
#1660 = EDGE_LOOP('',(#1661,#1662,#1668,#1669));
#1661 = ORIENTED_EDGE('',*,*,#1647,.T.);
#1662 = ORIENTED_EDGE('',*,*,#1663,.T.);
#1663 = EDGE_CURVE('',#1640,#1615,#1664,.T.);
#1664 = LINE('',#1665,#1666);
#1665 = CARTESIAN_POINT('',(-12.152179546,-1.924716156117,9.3));
#1666 = VECTOR('',#1667,1.);
#1667 = DIRECTION('',(0.809016994375,-0.587785252292,0.));
#1668 = ORIENTED_EDGE('',*,*,#1614,.F.);
#1669 = ORIENTED_EDGE('',*,*,#985,.F.);
#1670 = PLANE('',#1671);
#1671 = AXIS2_PLACEMENT_3D('',#1672,#1673,#1674);
#1672 = CARTESIAN_POINT('',(-12.152179546,-1.924716156117,0.));
#1673 = DIRECTION('',(0.587785252292,0.809016994375,0.));
#1674 = DIRECTION('',(0.809016994375,-0.587785252292,0.));
#1675 = ADVANCED_FACE('',(#1676),#1693,.T.);
#1676 = FACE_BOUND('',#1677,.T.);
#1677 = EDGE_LOOP('',(#1678,#1686,#1687));
#1678 = ORIENTED_EDGE('',*,*,#1679,.F.);
#1679 = EDGE_CURVE('',#1000,#1680,#1682,.T.);
#1680 = VERTEX_POINT('',#1681);
#1681 = CARTESIAN_POINT('',(0.,0.,19.));
#1682 = LINE('',#1683,#1684);
#1683 = CARTESIAN_POINT('',(16.994116628998,-4.16E-15,8.497058314499));
#1684 = VECTOR('',#1685,1.);
#1685 = DIRECTION('',(-0.850650808352,2.1E-16,0.525731112119));
#1686 = ORIENTED_EDGE('',*,*,#1007,.T.);
#1687 = ORIENTED_EDGE('',*,*,#1688,.T.);
#1688 = EDGE_CURVE('',#1008,#1680,#1689,.T.);
#1689 = LINE('',#1690,#1691);
#1690 = CARTESIAN_POINT('',(5.25147084275,16.162365358689,8.497058314499
    ));
#1691 = VECTOR('',#1692,1.);
#1692 = DIRECTION('',(-0.26286555606,-0.809016994375,0.525731112119));
#1693 = PLANE('',#1694);
#1694 = AXIS2_PLACEMENT_3D('',#1695,#1696,#1697);
#1695 = CARTESIAN_POINT('',(7.415195823916,5.387455119563,
    11.998038876333));
#1696 = DIRECTION('',(0.491123473188,0.356822089773,0.794654472292));
#1697 = DIRECTION('',(0.850650808352,-1.387778780781E-16,-0.525731112119
    ));
#1698 = ADVANCED_FACE('',(#1699),#1709,.T.);
#1699 = FACE_BOUND('',#1700,.T.);
#1700 = EDGE_LOOP('',(#1701,#1702,#1703));
#1701 = ORIENTED_EDGE('',*,*,#1688,.F.);
#1702 = ORIENTED_EDGE('',*,*,#1063,.T.);
#1703 = ORIENTED_EDGE('',*,*,#1704,.T.);
#1704 = EDGE_CURVE('',#1064,#1680,#1705,.T.);
#1705 = LINE('',#1706,#1707);
#1706 = CARTESIAN_POINT('',(-13.74852915725,9.988891130264,
    8.497058314499));
#1707 = VECTOR('',#1708,1.);
#1708 = DIRECTION('',(0.688190960236,-0.5,0.525731112119));
#1709 = PLANE('',#1710);
#1710 = AXIS2_PLACEMENT_3D('',#1711,#1712,#1713);
#1711 = CARTESIAN_POINT('',(-2.8323527715,8.717085496317,11.998038876333
    ));
#1712 = DIRECTION('',(-0.187592474085,0.57735026919,0.794654472292));
#1713 = DIRECTION('',(1.387778780781E-17,0.809016994375,-0.587785252292)
  );
#1714 = ADVANCED_FACE('',(#1715),#1725,.T.);
#1715 = FACE_BOUND('',#1716,.T.);
#1716 = EDGE_LOOP('',(#1717,#1723,#1724));
#1717 = ORIENTED_EDGE('',*,*,#1718,.F.);
#1718 = EDGE_CURVE('',#1087,#1680,#1719,.T.);
#1719 = LINE('',#1720,#1721);
#1720 = CARTESIAN_POINT('',(5.25147084275,-16.16236535868,8.497058314499
    ));
#1721 = VECTOR('',#1722,1.);
#1722 = DIRECTION('',(-0.26286555606,0.809016994375,0.525731112119));
#1723 = ORIENTED_EDGE('',*,*,#1094,.T.);
#1724 = ORIENTED_EDGE('',*,*,#1679,.T.);
#1725 = PLANE('',#1726);
#1726 = AXIS2_PLACEMENT_3D('',#1727,#1728,#1729);
#1727 = CARTESIAN_POINT('',(7.415195823916,-5.387455119563,
    11.998038876333));
#1728 = DIRECTION('',(0.491123473188,-0.356822089773,0.794654472292));
#1729 = DIRECTION('',(0.850650808352,0.,-0.525731112119));
#1730 = ADVANCED_FACE('',(#1731),#1741,.T.);
#1731 = FACE_BOUND('',#1732,.T.);
#1732 = EDGE_LOOP('',(#1733,#1734,#1735));
#1733 = ORIENTED_EDGE('',*,*,#1704,.F.);
#1734 = ORIENTED_EDGE('',*,*,#1143,.T.);
#1735 = ORIENTED_EDGE('',*,*,#1736,.F.);
#1736 = EDGE_CURVE('',#1680,#1144,#1737,.T.);
#1737 = LINE('',#1738,#1739);
#1738 = CARTESIAN_POINT('',(0.,0.,19.));
#1739 = VECTOR('',#1740,1.);
#1740 = DIRECTION('',(-0.688190960236,-0.5,-0.525731112119));
#1741 = PLANE('',#1742);
#1742 = AXIS2_PLACEMENT_3D('',#1743,#1744,#1745);
#1743 = CARTESIAN_POINT('',(-9.165686104833,1.66E-15,11.998038876333));
#1744 = DIRECTION('',(-0.607061998207,2.2E-16,0.794654472292));
#1745 = DIRECTION('',(0.794654472292,1.232595164408E-32,0.607061998207)
  );
#1746 = ADVANCED_FACE('',(#1747),#1752,.T.);
#1747 = FACE_BOUND('',#1748,.T.);
#1748 = EDGE_LOOP('',(#1749,#1750,#1751));
#1749 = ORIENTED_EDGE('',*,*,#1736,.T.);
#1750 = ORIENTED_EDGE('',*,*,#1172,.T.);
#1751 = ORIENTED_EDGE('',*,*,#1718,.T.);
#1752 = PLANE('',#1753);
#1753 = AXIS2_PLACEMENT_3D('',#1754,#1755,#1756);
#1754 = CARTESIAN_POINT('',(-2.8323527715,-8.717085496317,
    11.998038876333));
#1755 = DIRECTION('',(-0.187592474085,-0.57735026919,0.794654472292));
#1756 = DIRECTION('',(1.110223024625E-16,0.809016994375,0.587785252292)
  );
#1757 = ADVANCED_FACE('',(#1758),#1764,.F.);
#1758 = FACE_BOUND('',#1759,.F.);
#1759 = EDGE_LOOP('',(#1760,#1761,#1762,#1763));
#1760 = ORIENTED_EDGE('',*,*,#1279,.T.);
#1761 = ORIENTED_EDGE('',*,*,#1238,.T.);
#1762 = ORIENTED_EDGE('',*,*,#1207,.T.);
#1763 = ORIENTED_EDGE('',*,*,#1255,.T.);
#1764 = PLANE('',#1765);
#1765 = AXIS2_PLACEMENT_3D('',#1766,#1767,#1768);
#1766 = CARTESIAN_POINT('',(5.092E-14,6.839E-14,6.5));
#1767 = DIRECTION('',(0.,0.,1.));
#1768 = DIRECTION('',(1.,0.,0.));
#1769 = ADVANCED_FACE('',(#1770),#1776,.F.);
#1770 = FACE_BOUND('',#1771,.T.);
#1771 = EDGE_LOOP('',(#1772,#1773,#1774,#1775));
#1772 = ORIENTED_EDGE('',*,*,#1334,.T.);
#1773 = ORIENTED_EDGE('',*,*,#1303,.T.);
#1774 = ORIENTED_EDGE('',*,*,#1351,.T.);
#1775 = ORIENTED_EDGE('',*,*,#1375,.F.);
#1776 = PLANE('',#1777);
#1777 = AXIS2_PLACEMENT_3D('',#1778,#1779,#1780);
#1778 = CARTESIAN_POINT('',(5.092E-14,6.839E-14,6.5));
#1779 = DIRECTION('',(0.,0.,1.));
#1780 = DIRECTION('',(1.,0.,0.));
#1781 = ADVANCED_FACE('',(#1782),#1788,.F.);
#1782 = FACE_BOUND('',#1783,.T.);
#1783 = EDGE_LOOP('',(#1784,#1785,#1786,#1787));
#1784 = ORIENTED_EDGE('',*,*,#1399,.T.);
#1785 = ORIENTED_EDGE('',*,*,#1447,.T.);
#1786 = ORIENTED_EDGE('',*,*,#1471,.T.);
#1787 = ORIENTED_EDGE('',*,*,#1430,.T.);
#1788 = PLANE('',#1789);
#1789 = AXIS2_PLACEMENT_3D('',#1790,#1791,#1792);
#1790 = CARTESIAN_POINT('',(5.092E-14,6.839E-14,6.5));
#1791 = DIRECTION('',(0.,0.,1.));
#1792 = DIRECTION('',(1.,0.,0.));
#1793 = ADVANCED_FACE('',(#1794),#1800,.F.);
#1794 = FACE_BOUND('',#1795,.F.);
#1795 = EDGE_LOOP('',(#1796,#1797,#1798,#1799));
#1796 = ORIENTED_EDGE('',*,*,#1543,.T.);
#1797 = ORIENTED_EDGE('',*,*,#1567,.T.);
#1798 = ORIENTED_EDGE('',*,*,#1526,.T.);
#1799 = ORIENTED_EDGE('',*,*,#1495,.T.);
#1800 = PLANE('',#1801);
#1801 = AXIS2_PLACEMENT_3D('',#1802,#1803,#1804);
#1802 = CARTESIAN_POINT('',(5.092E-14,6.839E-14,6.5));
#1803 = DIRECTION('',(0.,0.,1.));
#1804 = DIRECTION('',(1.,0.,0.));
#1805 = ADVANCED_FACE('',(#1806),#1812,.F.);
#1806 = FACE_BOUND('',#1807,.F.);
#1807 = EDGE_LOOP('',(#1808,#1809,#1810,#1811));
#1808 = ORIENTED_EDGE('',*,*,#1663,.T.);
#1809 = ORIENTED_EDGE('',*,*,#1622,.T.);
#1810 = ORIENTED_EDGE('',*,*,#1591,.T.);
#1811 = ORIENTED_EDGE('',*,*,#1639,.T.);
#1812 = PLANE('',#1813);
#1813 = AXIS2_PLACEMENT_3D('',#1814,#1815,#1816);
#1814 = CARTESIAN_POINT('',(5.227E-14,3.65E-14,9.3));
#1815 = DIRECTION('',(0.,0.,1.));
#1816 = DIRECTION('',(1.,0.,0.));
#1817 = ( GEOMETRIC_REPRESENTATION_CONTEXT(3) 
GLOBAL_UNCERTAINTY_ASSIGNED_CONTEXT((#1821)) 
GLOBAL_UNIT_ASSIGNED_CONTEXT((#1818,#1819,#1820)) REPRESENTATION_CONTEXT
('Context #1','3D Context with UNIT and UNCERTAINTY') );
#1818 = ( LENGTH_UNIT() NAMED_UNIT(*) SI_UNIT(.MILLI.,.METRE.) );
#1819 = ( NAMED_UNIT(*) PLANE_ANGLE_UNIT() SI_UNIT($,.RADIAN.) );
#1820 = ( NAMED_UNIT(*) SI_UNIT($,.STERADIAN.) SOLID_ANGLE_UNIT() );
#1821 = UNCERTAINTY_MEASURE_WITH_UNIT(LENGTH_MEASURE(5.E-05),#1818,
  'distance_accuracy_value','confusion accuracy');
#1822 = PRODUCT_RELATED_PRODUCT_CATEGORY('part',$,(#7));
#1823 = MECHANICAL_DESIGN_GEOMETRIC_PRESENTATION_REPRESENTATION('',(
    #1824),#1817);
#1824 = STYLED_ITEM('color',(#1825),#15);
#1825 = PRESENTATION_STYLE_ASSIGNMENT((#1826,#1834));
#1826 = SURFACE_STYLE_USAGE(.BOTH.,#1827);
#1827 = SURFACE_SIDE_STYLE('',(#1828,#1832));
#1828 = SURFACE_STYLE_FILL_AREA(#1829);
#1829 = FILL_AREA_STYLE('',(#1830));
#1830 = FILL_AREA_STYLE_COLOUR('',#1831);
#1831 = COLOUR_RGB('',0.447058818107,0.474509808674,0.501960817233);
#1832 = SURFACE_STYLE_RENDERING_WITH_PROPERTIES(.NORMAL_SHADING.,#1831,(
    #1833));
#1833 = SURFACE_STYLE_TRANSPARENT(0.699999988079);
#1834 = CURVE_STYLE('',#1835,POSITIVE_LENGTH_MEASURE(0.1),#1836);
#1835 = DRAUGHTING_PRE_DEFINED_CURVE_FONT('continuous');
#1836 = COLOUR_RGB('',9.803921802644E-02,9.803921802644E-02,
  9.803921802644E-02);
ENDSEC;
END-ISO-10303-21;
