ISO-10303-21;
HEADER;
FILE_DESCRIPTION(('FreeCAD Model'),'2;1');
FILE_NAME('Open CASCADE Shape Model','2025-05-13T23:43:36',(''),(''),
  'Open CASCADE STEP processor 7.8','FreeCAD','Unknown');
FILE_SCHEMA(('AUTOMOTIVE_DESIGN { 1 0 10303 214 1 1 1 1 }'));
ENDSEC;
DATA;
#1 = APPLICATION_PROTOCOL_DEFINITION('international standard',
  'automotive_design',2000,#2);
#2 = APPLICATION_CONTEXT(
  'core data for automotive mechanical design processes');
#3 = SHAPE_DEFINITION_REPRESENTATION(#4,#10);
#4 = PRODUCT_DEFINITION_SHAPE('','',#5);
#5 = PRODUCT_DEFINITION('design','',#6,#9);
#6 = PRODUCT_DEFINITION_FORMATION('','',#7);
#7 = PRODUCT('insert','insert','',(#8));
#8 = PRODUCT_CONTEXT('',#2,'mechanical');
#9 = PRODUCT_DEFINITION_CONTEXT('part definition',#2,'design');
#10 = ADVANCED_BREP_SHAPE_REPRESENTATION('',(#11,#15),#1135);
#11 = AXIS2_PLACEMENT_3D('',#12,#13,#14);
#12 = CARTESIAN_POINT('',(0.,0.,0.));
#13 = DIRECTION('',(0.,0.,1.));
#14 = DIRECTION('',(1.,0.,-0.));
#15 = MANIFOLD_SOLID_BREP('',#16);
#16 = CLOSED_SHELL('',(#17,#57,#88,#119,#152,#183,#214,#238,#263,#319,
    #336,#462,#480,#511,#542,#559,#577,#606,#628,#640,#652,#670,#688,
    #713,#730,#761,#786,#811,#835,#859,#884,#909,#926,#943,#955,#988,
    #1005,#1022,#1047,#1072,#1089,#1106,#1123));
#17 = ADVANCED_FACE('',(#18),#52,.F.);
#18 = FACE_BOUND('',#19,.F.);
#19 = EDGE_LOOP('',(#20,#30,#38,#46));
#20 = ORIENTED_EDGE('',*,*,#21,.T.);
#21 = EDGE_CURVE('',#22,#24,#26,.T.);
#22 = VERTEX_POINT('',#23);
#23 = CARTESIAN_POINT('',(16.8,17.3,0.1));
#24 = VERTEX_POINT('',#25);
#25 = CARTESIAN_POINT('',(16.8,17.3,0.15));
#26 = LINE('',#27,#28);
#27 = CARTESIAN_POINT('',(16.8,17.3,0.));
#28 = VECTOR('',#29,1.);
#29 = DIRECTION('',(0.,0.,1.));
#30 = ORIENTED_EDGE('',*,*,#31,.T.);
#31 = EDGE_CURVE('',#24,#32,#34,.T.);
#32 = VERTEX_POINT('',#33);
#33 = CARTESIAN_POINT('',(0.5,17.3,0.15));
#34 = LINE('',#35,#36);
#35 = CARTESIAN_POINT('',(16.8,17.3,0.15));
#36 = VECTOR('',#37,1.);
#37 = DIRECTION('',(-1.,0.,0.));
#38 = ORIENTED_EDGE('',*,*,#39,.F.);
#39 = EDGE_CURVE('',#40,#32,#42,.T.);
#40 = VERTEX_POINT('',#41);
#41 = CARTESIAN_POINT('',(0.5,17.3,0.1));
#42 = LINE('',#43,#44);
#43 = CARTESIAN_POINT('',(0.5,17.3,0.));
#44 = VECTOR('',#45,1.);
#45 = DIRECTION('',(0.,0.,1.));
#46 = ORIENTED_EDGE('',*,*,#47,.F.);
#47 = EDGE_CURVE('',#22,#40,#48,.T.);
#48 = LINE('',#49,#50);
#49 = CARTESIAN_POINT('',(16.8,17.3,1.E-01));
#50 = VECTOR('',#51,1.);
#51 = DIRECTION('',(-1.,0.,0.));
#52 = PLANE('',#53);
#53 = AXIS2_PLACEMENT_3D('',#54,#55,#56);
#54 = CARTESIAN_POINT('',(17.3,17.3,0.));
#55 = DIRECTION('',(0.,-1.,0.));
#56 = DIRECTION('',(-1.,0.,0.));
#57 = ADVANCED_FACE('',(#58),#83,.T.);
#58 = FACE_BOUND('',#59,.F.);
#59 = EDGE_LOOP('',(#60,#70,#76,#77));
#60 = ORIENTED_EDGE('',*,*,#61,.T.);
#61 = EDGE_CURVE('',#62,#64,#66,.T.);
#62 = VERTEX_POINT('',#63);
#63 = CARTESIAN_POINT('',(17.3,16.8,0.1));
#64 = VERTEX_POINT('',#65);
#65 = CARTESIAN_POINT('',(17.3,16.8,0.15));
#66 = LINE('',#67,#68);
#67 = CARTESIAN_POINT('',(17.3,16.8,0.));
#68 = VECTOR('',#69,1.);
#69 = DIRECTION('',(0.,0.,1.));
#70 = ORIENTED_EDGE('',*,*,#71,.T.);
#71 = EDGE_CURVE('',#64,#24,#72,.T.);
#72 = LINE('',#73,#74);
#73 = CARTESIAN_POINT('',(17.3,16.8,0.15));
#74 = VECTOR('',#75,1.);
#75 = DIRECTION('',(-0.707106781187,0.707106781187,0.));
#76 = ORIENTED_EDGE('',*,*,#21,.F.);
#77 = ORIENTED_EDGE('',*,*,#78,.F.);
#78 = EDGE_CURVE('',#62,#22,#79,.T.);
#79 = LINE('',#80,#81);
#80 = CARTESIAN_POINT('',(17.3,16.8,1.E-01));
#81 = VECTOR('',#82,1.);
#82 = DIRECTION('',(-0.707106781187,0.707106781187,0.));
#83 = PLANE('',#84);
#84 = AXIS2_PLACEMENT_3D('',#85,#86,#87);
#85 = CARTESIAN_POINT('',(17.05,17.05,0.));
#86 = DIRECTION('',(0.707106781187,0.707106781187,0.));
#87 = DIRECTION('',(-0.,-0.,-1.));
#88 = ADVANCED_FACE('',(#89),#114,.F.);
#89 = FACE_BOUND('',#90,.T.);
#90 = EDGE_LOOP('',(#91,#99,#100,#108));
#91 = ORIENTED_EDGE('',*,*,#92,.F.);
#92 = EDGE_CURVE('',#24,#93,#95,.T.);
#93 = VERTEX_POINT('',#94);
#94 = CARTESIAN_POINT('',(16.696446609407,17.05,0.4));
#95 = LINE('',#96,#97);
#96 = CARTESIAN_POINT('',(16.724380358475,17.117438035847,0.332561964153
    ));
#97 = VECTOR('',#98,1.);
#98 = DIRECTION('',(-0.281084637715,-0.678598344546,0.678598344546));
#99 = ORIENTED_EDGE('',*,*,#31,.T.);
#100 = ORIENTED_EDGE('',*,*,#101,.T.);
#101 = EDGE_CURVE('',#32,#102,#104,.T.);
#102 = VERTEX_POINT('',#103);
#103 = CARTESIAN_POINT('',(0.603553390593,17.05,0.4));
#104 = LINE('',#105,#106);
#105 = CARTESIAN_POINT('',(1.219539516034,15.562877941728,1.887122058272
    ));
#106 = VECTOR('',#107,1.);
#107 = DIRECTION('',(0.281084637715,-0.678598344546,0.678598344546));
#108 = ORIENTED_EDGE('',*,*,#109,.F.);
#109 = EDGE_CURVE('',#93,#102,#110,.T.);
#110 = LINE('',#111,#112);
#111 = CARTESIAN_POINT('',(16.8,17.05,0.4));
#112 = VECTOR('',#113,1.);
#113 = DIRECTION('',(-1.,0.,0.));
#114 = PLANE('',#115);
#115 = AXIS2_PLACEMENT_3D('',#116,#117,#118);
#116 = CARTESIAN_POINT('',(16.8,17.175,0.275));
#117 = DIRECTION('',(0.,-0.707106781187,-0.707106781187));
#118 = DIRECTION('',(1.,-0.,-0.));
#119 = ADVANCED_FACE('',(#120),#147,.T.);
#120 = FACE_BOUND('',#121,.F.);
#121 = EDGE_LOOP('',(#122,#131,#132,#141));
#122 = ORIENTED_EDGE('',*,*,#123,.T.);
#123 = EDGE_CURVE('',#124,#22,#126,.T.);
#124 = VERTEX_POINT('',#125);
#125 = CARTESIAN_POINT('',(16.758578643763,17.2,0.));
#126 = ELLIPSE('',#127,0.108239220029,0.1);
#127 = AXIS2_PLACEMENT_3D('',#128,#129,#130);
#128 = CARTESIAN_POINT('',(16.758578643763,17.2,1.E-01));
#129 = DIRECTION('',(0.923879532511,-0.382683432365,0.));
#130 = DIRECTION('',(-0.382683432365,-0.923879532511,0.));
#131 = ORIENTED_EDGE('',*,*,#47,.T.);
#132 = ORIENTED_EDGE('',*,*,#133,.F.);
#133 = EDGE_CURVE('',#134,#40,#136,.T.);
#134 = VERTEX_POINT('',#135);
#135 = CARTESIAN_POINT('',(0.541421356237,17.2,0.));
#136 = ELLIPSE('',#137,0.108239220029,0.1);
#137 = AXIS2_PLACEMENT_3D('',#138,#139,#140);
#138 = CARTESIAN_POINT('',(0.541421356237,17.2,1.E-01));
#139 = DIRECTION('',(0.923879532511,0.382683432365,-0.));
#140 = DIRECTION('',(-0.382683432365,0.923879532511,0.));
#141 = ORIENTED_EDGE('',*,*,#142,.F.);
#142 = EDGE_CURVE('',#124,#134,#143,.T.);
#143 = LINE('',#144,#145);
#144 = CARTESIAN_POINT('',(16.8,17.2,-1.E-17));
#145 = VECTOR('',#146,1.);
#146 = DIRECTION('',(-1.,0.,0.));
#147 = CYLINDRICAL_SURFACE('',#148,0.1);
#148 = AXIS2_PLACEMENT_3D('',#149,#150,#151);
#149 = CARTESIAN_POINT('',(16.8,17.2,1.E-01));
#150 = DIRECTION('',(-1.,0.,0.));
#151 = DIRECTION('',(0.,0.,-1.));
#152 = ADVANCED_FACE('',(#153),#178,.T.);
#153 = FACE_BOUND('',#154,.T.);
#154 = EDGE_LOOP('',(#155,#165,#171,#172));
#155 = ORIENTED_EDGE('',*,*,#156,.T.);
#156 = EDGE_CURVE('',#157,#159,#161,.T.);
#157 = VERTEX_POINT('',#158);
#158 = CARTESIAN_POINT('',(0.,16.8,0.1));
#159 = VERTEX_POINT('',#160);
#160 = CARTESIAN_POINT('',(0.,16.8,0.15));
#161 = LINE('',#162,#163);
#162 = CARTESIAN_POINT('',(0.,16.8,0.));
#163 = VECTOR('',#164,1.);
#164 = DIRECTION('',(0.,0.,1.));
#165 = ORIENTED_EDGE('',*,*,#166,.T.);
#166 = EDGE_CURVE('',#159,#32,#167,.T.);
#167 = LINE('',#168,#169);
#168 = CARTESIAN_POINT('',(-4.2E-16,16.8,0.15));
#169 = VECTOR('',#170,1.);
#170 = DIRECTION('',(0.707106781187,0.707106781187,0.));
#171 = ORIENTED_EDGE('',*,*,#39,.F.);
#172 = ORIENTED_EDGE('',*,*,#173,.F.);
#173 = EDGE_CURVE('',#157,#40,#174,.T.);
#174 = LINE('',#175,#176);
#175 = CARTESIAN_POINT('',(-4.3E-16,16.8,1.E-01));
#176 = VECTOR('',#177,1.);
#177 = DIRECTION('',(0.707106781187,0.707106781187,0.));
#178 = PLANE('',#179);
#179 = AXIS2_PLACEMENT_3D('',#180,#181,#182);
#180 = CARTESIAN_POINT('',(0.25,17.05,0.));
#181 = DIRECTION('',(-0.707106781187,0.707106781187,0.));
#182 = DIRECTION('',(0.,0.,1.));
#183 = ADVANCED_FACE('',(#184),#209,.F.);
#184 = FACE_BOUND('',#185,.F.);
#185 = EDGE_LOOP('',(#186,#196,#202,#203));
#186 = ORIENTED_EDGE('',*,*,#187,.T.);
#187 = EDGE_CURVE('',#188,#190,#192,.T.);
#188 = VERTEX_POINT('',#189);
#189 = CARTESIAN_POINT('',(17.3,0.5,0.1));
#190 = VERTEX_POINT('',#191);
#191 = CARTESIAN_POINT('',(17.3,0.5,0.15));
#192 = LINE('',#193,#194);
#193 = CARTESIAN_POINT('',(17.3,0.5,0.));
#194 = VECTOR('',#195,1.);
#195 = DIRECTION('',(0.,0.,1.));
#196 = ORIENTED_EDGE('',*,*,#197,.T.);
#197 = EDGE_CURVE('',#190,#64,#198,.T.);
#198 = LINE('',#199,#200);
#199 = CARTESIAN_POINT('',(17.3,0.5,0.15));
#200 = VECTOR('',#201,1.);
#201 = DIRECTION('',(0.,1.,0.));
#202 = ORIENTED_EDGE('',*,*,#61,.F.);
#203 = ORIENTED_EDGE('',*,*,#204,.F.);
#204 = EDGE_CURVE('',#188,#62,#205,.T.);
#205 = LINE('',#206,#207);
#206 = CARTESIAN_POINT('',(17.3,0.5,1.E-01));
#207 = VECTOR('',#208,1.);
#208 = DIRECTION('',(0.,1.,0.));
#209 = PLANE('',#210);
#210 = AXIS2_PLACEMENT_3D('',#211,#212,#213);
#211 = CARTESIAN_POINT('',(17.3,0.,0.));
#212 = DIRECTION('',(-1.,0.,0.));
#213 = DIRECTION('',(0.,1.,0.));
#214 = ADVANCED_FACE('',(#215),#233,.F.);
#215 = FACE_BOUND('',#216,.T.);
#216 = EDGE_LOOP('',(#217,#225,#226,#227));
#217 = ORIENTED_EDGE('',*,*,#218,.F.);
#218 = EDGE_CURVE('',#64,#219,#221,.T.);
#219 = VERTEX_POINT('',#220);
#220 = CARTESIAN_POINT('',(17.05,16.696446609407,0.4));
#221 = LINE('',#222,#223);
#222 = CARTESIAN_POINT('',(15.630315977576,16.108394233034,
    1.819684022424));
#223 = VECTOR('',#224,1.);
#224 = DIRECTION('',(-0.678598344546,-0.281084637715,0.678598344546));
#225 = ORIENTED_EDGE('',*,*,#71,.T.);
#226 = ORIENTED_EDGE('',*,*,#92,.T.);
#227 = ORIENTED_EDGE('',*,*,#228,.F.);
#228 = EDGE_CURVE('',#219,#93,#229,.T.);
#229 = LINE('',#230,#231);
#230 = CARTESIAN_POINT('',(17.123223304703,16.623223304703,0.4));
#231 = VECTOR('',#232,1.);
#232 = DIRECTION('',(-0.707106781187,0.707106781187,0.));
#233 = PLANE('',#234);
#234 = AXIS2_PLACEMENT_3D('',#235,#236,#237);
#235 = CARTESIAN_POINT('',(17.211611652352,16.711611652352,0.275));
#236 = DIRECTION('',(-0.5,-0.5,-0.707106781187));
#237 = DIRECTION('',(0.707106781187,-0.707106781187,-5.551115123126E-17)
  );
#238 = ADVANCED_FACE('',(#239),#258,.T.);
#239 = FACE_BOUND('',#240,.F.);
#240 = EDGE_LOOP('',(#241,#250,#251,#252));
#241 = ORIENTED_EDGE('',*,*,#242,.T.);
#242 = EDGE_CURVE('',#243,#62,#245,.T.);
#243 = VERTEX_POINT('',#244);
#244 = CARTESIAN_POINT('',(17.2,16.758578643763,0.));
#245 = ELLIPSE('',#246,0.108239220029,0.1);
#246 = AXIS2_PLACEMENT_3D('',#247,#248,#249);
#247 = CARTESIAN_POINT('',(17.2,16.758578643763,1.E-01));
#248 = DIRECTION('',(0.382683432365,-0.923879532511,0.));
#249 = DIRECTION('',(-0.923879532511,-0.382683432365,0.));
#250 = ORIENTED_EDGE('',*,*,#78,.T.);
#251 = ORIENTED_EDGE('',*,*,#123,.F.);
#252 = ORIENTED_EDGE('',*,*,#253,.F.);
#253 = EDGE_CURVE('',#243,#124,#254,.T.);
#254 = LINE('',#255,#256);
#255 = CARTESIAN_POINT('',(17.229289321881,16.729289321881,-1.E-17));
#256 = VECTOR('',#257,1.);
#257 = DIRECTION('',(-0.707106781187,0.707106781187,0.));
#258 = CYLINDRICAL_SURFACE('',#259,0.1);
#259 = AXIS2_PLACEMENT_3D('',#260,#261,#262);
#260 = CARTESIAN_POINT('',(17.229289321881,16.729289321881,1.E-01));
#261 = DIRECTION('',(-0.707106781187,0.707106781187,0.));
#262 = DIRECTION('',(0.,0.,-1.));
#263 = ADVANCED_FACE('',(#264),#314,.T.);
#264 = FACE_BOUND('',#265,.T.);
#265 = EDGE_LOOP('',(#266,#276,#284,#290,#291,#292,#300,#308));
#266 = ORIENTED_EDGE('',*,*,#267,.T.);
#267 = EDGE_CURVE('',#268,#270,#272,.T.);
#268 = VERTEX_POINT('',#269);
#269 = CARTESIAN_POINT('',(0.603553390593,0.25,0.4));
#270 = VERTEX_POINT('',#271);
#271 = CARTESIAN_POINT('',(16.696446609407,0.25,0.4));
#272 = LINE('',#273,#274);
#273 = CARTESIAN_POINT('',(0.5,0.25,0.4));
#274 = VECTOR('',#275,1.);
#275 = DIRECTION('',(1.,0.,0.));
#276 = ORIENTED_EDGE('',*,*,#277,.T.);
#277 = EDGE_CURVE('',#270,#278,#280,.T.);
#278 = VERTEX_POINT('',#279);
#279 = CARTESIAN_POINT('',(17.05,0.603553390593,0.4));
#280 = LINE('',#281,#282);
#281 = CARTESIAN_POINT('',(16.623223304703,0.176776695297,0.4));
#282 = VECTOR('',#283,1.);
#283 = DIRECTION('',(0.707106781187,0.707106781187,0.));
#284 = ORIENTED_EDGE('',*,*,#285,.T.);
#285 = EDGE_CURVE('',#278,#219,#286,.T.);
#286 = LINE('',#287,#288);
#287 = CARTESIAN_POINT('',(17.05,0.5,0.4));
#288 = VECTOR('',#289,1.);
#289 = DIRECTION('',(0.,1.,0.));
#290 = ORIENTED_EDGE('',*,*,#228,.T.);
#291 = ORIENTED_EDGE('',*,*,#109,.T.);
#292 = ORIENTED_EDGE('',*,*,#293,.F.);
#293 = EDGE_CURVE('',#294,#102,#296,.T.);
#294 = VERTEX_POINT('',#295);
#295 = CARTESIAN_POINT('',(0.25,16.696446609407,0.4));
#296 = LINE('',#297,#298);
#297 = CARTESIAN_POINT('',(0.176776695297,16.623223304703,0.4));
#298 = VECTOR('',#299,1.);
#299 = DIRECTION('',(0.707106781187,0.707106781187,0.));
#300 = ORIENTED_EDGE('',*,*,#301,.T.);
#301 = EDGE_CURVE('',#294,#302,#304,.T.);
#302 = VERTEX_POINT('',#303);
#303 = CARTESIAN_POINT('',(0.25,0.603553390593,0.4));
#304 = LINE('',#305,#306);
#305 = CARTESIAN_POINT('',(0.25,16.8,0.4));
#306 = VECTOR('',#307,1.);
#307 = DIRECTION('',(0.,-1.,0.));
#308 = ORIENTED_EDGE('',*,*,#309,.F.);
#309 = EDGE_CURVE('',#268,#302,#310,.T.);
#310 = LINE('',#311,#312);
#311 = CARTESIAN_POINT('',(0.676776695297,0.176776695297,0.4));
#312 = VECTOR('',#313,1.);
#313 = DIRECTION('',(-0.707106781187,0.707106781187,0.));
#314 = PLANE('',#315);
#315 = AXIS2_PLACEMENT_3D('',#316,#317,#318);
#316 = CARTESIAN_POINT('',(8.65,8.65,0.4));
#317 = DIRECTION('',(0.,0.,1.));
#318 = DIRECTION('',(1.,0.,0.));
#319 = ADVANCED_FACE('',(#320),#331,.T.);
#320 = FACE_BOUND('',#321,.F.);
#321 = EDGE_LOOP('',(#322,#328,#329,#330));
#322 = ORIENTED_EDGE('',*,*,#323,.F.);
#323 = EDGE_CURVE('',#159,#294,#324,.T.);
#324 = LINE('',#325,#326);
#325 = CARTESIAN_POINT('',(0.115123928305,16.752314107542,0.265123928305
    ));
#326 = VECTOR('',#327,1.);
#327 = DIRECTION('',(0.678598344546,-0.281084637715,0.678598344546));
#328 = ORIENTED_EDGE('',*,*,#166,.T.);
#329 = ORIENTED_EDGE('',*,*,#101,.T.);
#330 = ORIENTED_EDGE('',*,*,#293,.F.);
#331 = PLANE('',#332);
#332 = AXIS2_PLACEMENT_3D('',#333,#334,#335);
#333 = CARTESIAN_POINT('',(8.838834764832E-02,16.711611652352,0.275));
#334 = DIRECTION('',(-0.5,0.5,0.707106781187));
#335 = DIRECTION('',(-0.707106781187,-0.707106781187,-0.));
#336 = ADVANCED_FACE('',(#337,#387),#457,.F.);
#337 = FACE_BOUND('',#338,.F.);
#338 = EDGE_LOOP('',(#339,#340,#348,#356,#364,#372,#380,#386));
#339 = ORIENTED_EDGE('',*,*,#142,.T.);
#340 = ORIENTED_EDGE('',*,*,#341,.F.);
#341 = EDGE_CURVE('',#342,#134,#344,.T.);
#342 = VERTEX_POINT('',#343);
#343 = CARTESIAN_POINT('',(0.1,16.758578643763,0.));
#344 = LINE('',#345,#346);
#345 = CARTESIAN_POINT('',(7.071067811865E-02,16.729289321881,-1.E-17));
#346 = VECTOR('',#347,1.);
#347 = DIRECTION('',(0.707106781187,0.707106781187,0.));
#348 = ORIENTED_EDGE('',*,*,#349,.T.);
#349 = EDGE_CURVE('',#342,#350,#352,.T.);
#350 = VERTEX_POINT('',#351);
#351 = CARTESIAN_POINT('',(0.1,0.541421356237,0.));
#352 = LINE('',#353,#354);
#353 = CARTESIAN_POINT('',(1.E-01,16.8,-1.E-17));
#354 = VECTOR('',#355,1.);
#355 = DIRECTION('',(0.,-1.,0.));
#356 = ORIENTED_EDGE('',*,*,#357,.F.);
#357 = EDGE_CURVE('',#358,#350,#360,.T.);
#358 = VERTEX_POINT('',#359);
#359 = CARTESIAN_POINT('',(0.541421356237,0.1,0.));
#360 = LINE('',#361,#362);
#361 = CARTESIAN_POINT('',(0.570710678119,7.071067811865E-02,-1.E-17));
#362 = VECTOR('',#363,1.);
#363 = DIRECTION('',(-0.707106781187,0.707106781187,0.));
#364 = ORIENTED_EDGE('',*,*,#365,.T.);
#365 = EDGE_CURVE('',#358,#366,#368,.T.);
#366 = VERTEX_POINT('',#367);
#367 = CARTESIAN_POINT('',(16.758578643763,0.1,0.));
#368 = LINE('',#369,#370);
#369 = CARTESIAN_POINT('',(0.5,1.E-01,-1.E-17));
#370 = VECTOR('',#371,1.);
#371 = DIRECTION('',(1.,0.,0.));
#372 = ORIENTED_EDGE('',*,*,#373,.T.);
#373 = EDGE_CURVE('',#366,#374,#376,.T.);
#374 = VERTEX_POINT('',#375);
#375 = CARTESIAN_POINT('',(17.2,0.541421356237,0.));
#376 = LINE('',#377,#378);
#377 = CARTESIAN_POINT('',(16.729289321881,7.071067811865E-02,-1.E-17));
#378 = VECTOR('',#379,1.);
#379 = DIRECTION('',(0.707106781187,0.707106781187,0.));
#380 = ORIENTED_EDGE('',*,*,#381,.T.);
#381 = EDGE_CURVE('',#374,#243,#382,.T.);
#382 = LINE('',#383,#384);
#383 = CARTESIAN_POINT('',(17.2,0.5,-1.E-17));
#384 = VECTOR('',#385,1.);
#385 = DIRECTION('',(0.,1.,0.));
#386 = ORIENTED_EDGE('',*,*,#253,.T.);
#387 = FACE_BOUND('',#388,.F.);
#388 = EDGE_LOOP('',(#389,#399,#408,#416,#425,#433,#442,#450));
#389 = ORIENTED_EDGE('',*,*,#390,.T.);
#390 = EDGE_CURVE('',#391,#393,#395,.T.);
#391 = VERTEX_POINT('',#392);
#392 = CARTESIAN_POINT('',(6.4,13.65,0.));
#393 = VERTEX_POINT('',#394);
#394 = CARTESIAN_POINT('',(6.4,14.15,0.));
#395 = LINE('',#396,#397);
#396 = CARTESIAN_POINT('',(6.4,12.65,0.));
#397 = VECTOR('',#398,1.);
#398 = DIRECTION('',(0.,1.,0.));
#399 = ORIENTED_EDGE('',*,*,#400,.T.);
#400 = EDGE_CURVE('',#393,#401,#403,.T.);
#401 = VERTEX_POINT('',#402);
#402 = CARTESIAN_POINT('',(7.4,15.15,0.));
#403 = CIRCLE('',#404,1.);
#404 = AXIS2_PLACEMENT_3D('',#405,#406,#407);
#405 = CARTESIAN_POINT('',(7.4,14.15,0.));
#406 = DIRECTION('',(0.,0.,-1.));
#407 = DIRECTION('',(0.,1.,0.));
#408 = ORIENTED_EDGE('',*,*,#409,.T.);
#409 = EDGE_CURVE('',#401,#410,#412,.T.);
#410 = VERTEX_POINT('',#411);
#411 = CARTESIAN_POINT('',(9.9,15.15,0.));
#412 = LINE('',#413,#414);
#413 = CARTESIAN_POINT('',(6.4,15.15,0.));
#414 = VECTOR('',#415,1.);
#415 = DIRECTION('',(1.,0.,0.));
#416 = ORIENTED_EDGE('',*,*,#417,.F.);
#417 = EDGE_CURVE('',#418,#410,#420,.T.);
#418 = VERTEX_POINT('',#419);
#419 = CARTESIAN_POINT('',(10.9,14.15,0.));
#420 = CIRCLE('',#421,1.);
#421 = AXIS2_PLACEMENT_3D('',#422,#423,#424);
#422 = CARTESIAN_POINT('',(9.9,14.15,0.));
#423 = DIRECTION('',(0.,-0.,1.));
#424 = DIRECTION('',(0.,1.,0.));
#425 = ORIENTED_EDGE('',*,*,#426,.T.);
#426 = EDGE_CURVE('',#418,#427,#429,.T.);
#427 = VERTEX_POINT('',#428);
#428 = CARTESIAN_POINT('',(10.9,13.65,0.));
#429 = LINE('',#430,#431);
#430 = CARTESIAN_POINT('',(10.9,15.15,0.));
#431 = VECTOR('',#432,1.);
#432 = DIRECTION('',(0.,-1.,0.));
#433 = ORIENTED_EDGE('',*,*,#434,.F.);
#434 = EDGE_CURVE('',#435,#427,#437,.T.);
#435 = VERTEX_POINT('',#436);
#436 = CARTESIAN_POINT('',(9.9,12.65,0.));
#437 = CIRCLE('',#438,1.);
#438 = AXIS2_PLACEMENT_3D('',#439,#440,#441);
#439 = CARTESIAN_POINT('',(9.9,13.65,0.));
#440 = DIRECTION('',(0.,-0.,1.));
#441 = DIRECTION('',(0.,1.,0.));
#442 = ORIENTED_EDGE('',*,*,#443,.T.);
#443 = EDGE_CURVE('',#435,#444,#446,.T.);
#444 = VERTEX_POINT('',#445);
#445 = CARTESIAN_POINT('',(7.4,12.65,0.));
#446 = LINE('',#447,#448);
#447 = CARTESIAN_POINT('',(10.9,12.65,0.));
#448 = VECTOR('',#449,1.);
#449 = DIRECTION('',(-1.,0.,0.));
#450 = ORIENTED_EDGE('',*,*,#451,.F.);
#451 = EDGE_CURVE('',#391,#444,#452,.T.);
#452 = CIRCLE('',#453,1.);
#453 = AXIS2_PLACEMENT_3D('',#454,#455,#456);
#454 = CARTESIAN_POINT('',(7.4,13.65,0.));
#455 = DIRECTION('',(0.,-0.,1.));
#456 = DIRECTION('',(0.,1.,0.));
#457 = PLANE('',#458);
#458 = AXIS2_PLACEMENT_3D('',#459,#460,#461);
#459 = CARTESIAN_POINT('',(8.65,8.65,0.));
#460 = DIRECTION('',(0.,0.,1.));
#461 = DIRECTION('',(1.,0.,0.));
#462 = ADVANCED_FACE('',(#463),#475,.T.);
#463 = FACE_BOUND('',#464,.T.);
#464 = EDGE_LOOP('',(#465,#472,#473,#474));
#465 = ORIENTED_EDGE('',*,*,#466,.T.);
#466 = EDGE_CURVE('',#342,#157,#467,.T.);
#467 = ELLIPSE('',#468,0.108239220029,0.1);
#468 = AXIS2_PLACEMENT_3D('',#469,#470,#471);
#469 = CARTESIAN_POINT('',(1.E-01,16.758578643763,1.E-01));
#470 = DIRECTION('',(0.382683432365,0.923879532511,0.));
#471 = DIRECTION('',(0.923879532511,-0.382683432365,0.));
#472 = ORIENTED_EDGE('',*,*,#173,.T.);
#473 = ORIENTED_EDGE('',*,*,#133,.F.);
#474 = ORIENTED_EDGE('',*,*,#341,.F.);
#475 = CYLINDRICAL_SURFACE('',#476,0.1);
#476 = AXIS2_PLACEMENT_3D('',#477,#478,#479);
#477 = CARTESIAN_POINT('',(7.071067811865E-02,16.729289321881,1.E-01));
#478 = DIRECTION('',(0.707106781187,0.707106781187,0.));
#479 = DIRECTION('',(0.,0.,-1.));
#480 = ADVANCED_FACE('',(#481),#506,.F.);
#481 = FACE_BOUND('',#482,.F.);
#482 = EDGE_LOOP('',(#483,#484,#492,#500));
#483 = ORIENTED_EDGE('',*,*,#156,.T.);
#484 = ORIENTED_EDGE('',*,*,#485,.T.);
#485 = EDGE_CURVE('',#159,#486,#488,.T.);
#486 = VERTEX_POINT('',#487);
#487 = CARTESIAN_POINT('',(-1.E-15,0.5,0.15));
#488 = LINE('',#489,#490);
#489 = CARTESIAN_POINT('',(0.,16.8,0.15));
#490 = VECTOR('',#491,1.);
#491 = DIRECTION('',(0.,-1.,0.));
#492 = ORIENTED_EDGE('',*,*,#493,.F.);
#493 = EDGE_CURVE('',#494,#486,#496,.T.);
#494 = VERTEX_POINT('',#495);
#495 = CARTESIAN_POINT('',(0.,0.5,0.1));
#496 = LINE('',#497,#498);
#497 = CARTESIAN_POINT('',(0.,0.5,0.));
#498 = VECTOR('',#499,1.);
#499 = DIRECTION('',(0.,0.,1.));
#500 = ORIENTED_EDGE('',*,*,#501,.F.);
#501 = EDGE_CURVE('',#157,#494,#502,.T.);
#502 = LINE('',#503,#504);
#503 = CARTESIAN_POINT('',(-1.E-17,16.8,1.E-01));
#504 = VECTOR('',#505,1.);
#505 = DIRECTION('',(0.,-1.,0.));
#506 = PLANE('',#507);
#507 = AXIS2_PLACEMENT_3D('',#508,#509,#510);
#508 = CARTESIAN_POINT('',(0.,17.3,0.));
#509 = DIRECTION('',(1.,0.,0.));
#510 = DIRECTION('',(0.,-1.,0.));
#511 = ADVANCED_FACE('',(#512),#537,.T.);
#512 = FACE_BOUND('',#513,.F.);
#513 = EDGE_LOOP('',(#514,#524,#530,#531));
#514 = ORIENTED_EDGE('',*,*,#515,.T.);
#515 = EDGE_CURVE('',#516,#518,#520,.T.);
#516 = VERTEX_POINT('',#517);
#517 = CARTESIAN_POINT('',(16.8,0.,0.1));
#518 = VERTEX_POINT('',#519);
#519 = CARTESIAN_POINT('',(16.8,0.,0.15));
#520 = LINE('',#521,#522);
#521 = CARTESIAN_POINT('',(16.8,0.,0.));
#522 = VECTOR('',#523,1.);
#523 = DIRECTION('',(0.,0.,1.));
#524 = ORIENTED_EDGE('',*,*,#525,.T.);
#525 = EDGE_CURVE('',#518,#190,#526,.T.);
#526 = LINE('',#527,#528);
#527 = CARTESIAN_POINT('',(16.8,-4.2E-16,0.15));
#528 = VECTOR('',#529,1.);
#529 = DIRECTION('',(0.707106781187,0.707106781187,0.));
#530 = ORIENTED_EDGE('',*,*,#187,.F.);
#531 = ORIENTED_EDGE('',*,*,#532,.F.);
#532 = EDGE_CURVE('',#516,#188,#533,.T.);
#533 = LINE('',#534,#535);
#534 = CARTESIAN_POINT('',(16.8,-4.3E-16,1.E-01));
#535 = VECTOR('',#536,1.);
#536 = DIRECTION('',(0.707106781187,0.707106781187,0.));
#537 = PLANE('',#538);
#538 = AXIS2_PLACEMENT_3D('',#539,#540,#541);
#539 = CARTESIAN_POINT('',(17.05,0.25,0.));
#540 = DIRECTION('',(0.707106781187,-0.707106781187,0.));
#541 = DIRECTION('',(-0.,-0.,-1.));
#542 = ADVANCED_FACE('',(#543),#554,.F.);
#543 = FACE_BOUND('',#544,.T.);
#544 = EDGE_LOOP('',(#545,#551,#552,#553));
#545 = ORIENTED_EDGE('',*,*,#546,.F.);
#546 = EDGE_CURVE('',#190,#278,#547,.T.);
#547 = LINE('',#548,#549);
#548 = CARTESIAN_POINT('',(17.117438035847,0.575619641525,0.332561964153
    ));
#549 = VECTOR('',#550,1.);
#550 = DIRECTION('',(-0.678598344546,0.281084637715,0.678598344546));
#551 = ORIENTED_EDGE('',*,*,#197,.T.);
#552 = ORIENTED_EDGE('',*,*,#218,.T.);
#553 = ORIENTED_EDGE('',*,*,#285,.F.);
#554 = PLANE('',#555);
#555 = AXIS2_PLACEMENT_3D('',#556,#557,#558);
#556 = CARTESIAN_POINT('',(17.175,0.5,0.275));
#557 = DIRECTION('',(-0.707106781187,0.,-0.707106781187));
#558 = DIRECTION('',(-0.,-1.,-0.));
#559 = ADVANCED_FACE('',(#560),#572,.T.);
#560 = FACE_BOUND('',#561,.F.);
#561 = EDGE_LOOP('',(#562,#569,#570,#571));
#562 = ORIENTED_EDGE('',*,*,#563,.T.);
#563 = EDGE_CURVE('',#374,#188,#564,.T.);
#564 = ELLIPSE('',#565,0.108239220029,0.1);
#565 = AXIS2_PLACEMENT_3D('',#566,#567,#568);
#566 = CARTESIAN_POINT('',(17.2,0.541421356237,1.E-01));
#567 = DIRECTION('',(-0.382683432365,-0.923879532511,-0.));
#568 = DIRECTION('',(-0.923879532511,0.382683432365,0.));
#569 = ORIENTED_EDGE('',*,*,#204,.T.);
#570 = ORIENTED_EDGE('',*,*,#242,.F.);
#571 = ORIENTED_EDGE('',*,*,#381,.F.);
#572 = CYLINDRICAL_SURFACE('',#573,0.1);
#573 = AXIS2_PLACEMENT_3D('',#574,#575,#576);
#574 = CARTESIAN_POINT('',(17.2,0.5,1.E-01));
#575 = DIRECTION('',(0.,1.,0.));
#576 = DIRECTION('',(0.,0.,-1.));
#577 = ADVANCED_FACE('',(#578),#601,.F.);
#578 = FACE_BOUND('',#579,.T.);
#579 = EDGE_LOOP('',(#580,#588,#594,#600));
#580 = ORIENTED_EDGE('',*,*,#581,.F.);
#581 = EDGE_CURVE('',#582,#268,#584,.T.);
#582 = VERTEX_POINT('',#583);
#583 = CARTESIAN_POINT('',(0.5,0.,0.15));
#584 = LINE('',#585,#586);
#585 = CARTESIAN_POINT('',(0.547685892458,0.115123928305,0.265123928305)
  );
#586 = VECTOR('',#587,1.);
#587 = DIRECTION('',(0.281084637715,0.678598344546,0.678598344546));
#588 = ORIENTED_EDGE('',*,*,#589,.T.);
#589 = EDGE_CURVE('',#582,#518,#590,.T.);
#590 = LINE('',#591,#592);
#591 = CARTESIAN_POINT('',(0.5,0.,0.15));
#592 = VECTOR('',#593,1.);
#593 = DIRECTION('',(1.,0.,0.));
#594 = ORIENTED_EDGE('',*,*,#595,.T.);
#595 = EDGE_CURVE('',#518,#270,#596,.T.);
#596 = LINE('',#597,#598);
#597 = CARTESIAN_POINT('',(16.108394233034,1.669684022424,1.819684022424
    ));
#598 = VECTOR('',#599,1.);
#599 = DIRECTION('',(-0.281084637715,0.678598344546,0.678598344546));
#600 = ORIENTED_EDGE('',*,*,#267,.F.);
#601 = PLANE('',#602);
#602 = AXIS2_PLACEMENT_3D('',#603,#604,#605);
#603 = CARTESIAN_POINT('',(0.5,0.125,0.275));
#604 = DIRECTION('',(0.,0.707106781187,-0.707106781187));
#605 = DIRECTION('',(-1.,-0.,-0.));
#606 = ADVANCED_FACE('',(#607),#623,.T.);
#607 = FACE_BOUND('',#608,.F.);
#608 = EDGE_LOOP('',(#609,#610,#616,#622));
#609 = ORIENTED_EDGE('',*,*,#581,.F.);
#610 = ORIENTED_EDGE('',*,*,#611,.T.);
#611 = EDGE_CURVE('',#582,#486,#612,.T.);
#612 = LINE('',#613,#614);
#613 = CARTESIAN_POINT('',(0.5,-9.4E-16,0.15));
#614 = VECTOR('',#615,1.);
#615 = DIRECTION('',(-0.707106781187,0.707106781187,0.));
#616 = ORIENTED_EDGE('',*,*,#617,.T.);
#617 = EDGE_CURVE('',#486,#302,#618,.T.);
#618 = LINE('',#619,#620);
#619 = CARTESIAN_POINT('',(1.737122058271,1.219539516034,1.887122058271)
  );
#620 = VECTOR('',#621,1.);
#621 = DIRECTION('',(0.678598344546,0.281084637715,0.678598344546));
#622 = ORIENTED_EDGE('',*,*,#309,.F.);
#623 = PLANE('',#624);
#624 = AXIS2_PLACEMENT_3D('',#625,#626,#627);
#625 = CARTESIAN_POINT('',(0.588388347648,8.838834764832E-02,0.275));
#626 = DIRECTION('',(-0.5,-0.5,0.707106781187));
#627 = DIRECTION('',(0.707106781187,-0.707106781187,-0.));
#628 = ADVANCED_FACE('',(#629),#635,.F.);
#629 = FACE_BOUND('',#630,.T.);
#630 = EDGE_LOOP('',(#631,#632,#633,#634));
#631 = ORIENTED_EDGE('',*,*,#595,.F.);
#632 = ORIENTED_EDGE('',*,*,#525,.T.);
#633 = ORIENTED_EDGE('',*,*,#546,.T.);
#634 = ORIENTED_EDGE('',*,*,#277,.F.);
#635 = PLANE('',#636);
#636 = AXIS2_PLACEMENT_3D('',#637,#638,#639);
#637 = CARTESIAN_POINT('',(16.711611652352,8.838834764832E-02,0.275));
#638 = DIRECTION('',(-0.5,0.5,-0.707106781187));
#639 = DIRECTION('',(-0.707106781187,-0.707106781187,-0.));
#640 = ADVANCED_FACE('',(#641),#647,.F.);
#641 = FACE_BOUND('',#642,.T.);
#642 = EDGE_LOOP('',(#643,#644,#645,#646));
#643 = ORIENTED_EDGE('',*,*,#323,.F.);
#644 = ORIENTED_EDGE('',*,*,#485,.T.);
#645 = ORIENTED_EDGE('',*,*,#617,.T.);
#646 = ORIENTED_EDGE('',*,*,#301,.F.);
#647 = PLANE('',#648);
#648 = AXIS2_PLACEMENT_3D('',#649,#650,#651);
#649 = CARTESIAN_POINT('',(0.125,16.8,0.275));
#650 = DIRECTION('',(0.707106781187,0.,-0.707106781187));
#651 = DIRECTION('',(-0.,1.,-0.));
#652 = ADVANCED_FACE('',(#653),#665,.T.);
#653 = FACE_BOUND('',#654,.F.);
#654 = EDGE_LOOP('',(#655,#656,#657,#664));
#655 = ORIENTED_EDGE('',*,*,#466,.T.);
#656 = ORIENTED_EDGE('',*,*,#501,.T.);
#657 = ORIENTED_EDGE('',*,*,#658,.F.);
#658 = EDGE_CURVE('',#350,#494,#659,.T.);
#659 = ELLIPSE('',#660,0.108239220029,0.1);
#660 = AXIS2_PLACEMENT_3D('',#661,#662,#663);
#661 = CARTESIAN_POINT('',(1.E-01,0.541421356237,1.E-01));
#662 = DIRECTION('',(-0.382683432365,0.923879532511,0.));
#663 = DIRECTION('',(-0.923879532511,-0.382683432365,0.));
#664 = ORIENTED_EDGE('',*,*,#349,.F.);
#665 = CYLINDRICAL_SURFACE('',#666,0.1);
#666 = AXIS2_PLACEMENT_3D('',#667,#668,#669);
#667 = CARTESIAN_POINT('',(1.E-01,16.8,1.E-01));
#668 = DIRECTION('',(0.,-1.,0.));
#669 = DIRECTION('',(-0.,-0.,-1.));
#670 = ADVANCED_FACE('',(#671),#683,.T.);
#671 = FACE_BOUND('',#672,.F.);
#672 = EDGE_LOOP('',(#673,#680,#681,#682));
#673 = ORIENTED_EDGE('',*,*,#674,.T.);
#674 = EDGE_CURVE('',#366,#516,#675,.T.);
#675 = ELLIPSE('',#676,0.108239220029,0.1);
#676 = AXIS2_PLACEMENT_3D('',#677,#678,#679);
#677 = CARTESIAN_POINT('',(16.758578643763,1.E-01,1.E-01));
#678 = DIRECTION('',(-0.923879532511,-0.382683432365,-0.));
#679 = DIRECTION('',(-0.382683432365,0.923879532511,0.));
#680 = ORIENTED_EDGE('',*,*,#532,.T.);
#681 = ORIENTED_EDGE('',*,*,#563,.F.);
#682 = ORIENTED_EDGE('',*,*,#373,.F.);
#683 = CYLINDRICAL_SURFACE('',#684,0.1);
#684 = AXIS2_PLACEMENT_3D('',#685,#686,#687);
#685 = CARTESIAN_POINT('',(16.729289321881,7.071067811865E-02,1.E-01));
#686 = DIRECTION('',(0.707106781187,0.707106781187,0.));
#687 = DIRECTION('',(0.,0.,-1.));
#688 = ADVANCED_FACE('',(#689),#708,.T.);
#689 = FACE_BOUND('',#690,.T.);
#690 = EDGE_LOOP('',(#691,#700,#706,#707));
#691 = ORIENTED_EDGE('',*,*,#692,.T.);
#692 = EDGE_CURVE('',#358,#693,#695,.T.);
#693 = VERTEX_POINT('',#694);
#694 = CARTESIAN_POINT('',(0.5,0.,0.1));
#695 = ELLIPSE('',#696,0.108239220029,0.1);
#696 = AXIS2_PLACEMENT_3D('',#697,#698,#699);
#697 = CARTESIAN_POINT('',(0.541421356237,1.E-01,1.E-01));
#698 = DIRECTION('',(-0.923879532511,0.382683432365,0.));
#699 = DIRECTION('',(0.382683432365,0.923879532511,0.));
#700 = ORIENTED_EDGE('',*,*,#701,.T.);
#701 = EDGE_CURVE('',#693,#494,#702,.T.);
#702 = LINE('',#703,#704);
#703 = CARTESIAN_POINT('',(0.5,-9.6E-16,1.E-01));
#704 = VECTOR('',#705,1.);
#705 = DIRECTION('',(-0.707106781187,0.707106781187,0.));
#706 = ORIENTED_EDGE('',*,*,#658,.F.);
#707 = ORIENTED_EDGE('',*,*,#357,.F.);
#708 = CYLINDRICAL_SURFACE('',#709,0.1);
#709 = AXIS2_PLACEMENT_3D('',#710,#711,#712);
#710 = CARTESIAN_POINT('',(0.570710678119,7.071067811865E-02,1.E-01));
#711 = DIRECTION('',(-0.707106781187,0.707106781187,0.));
#712 = DIRECTION('',(0.,0.,-1.));
#713 = ADVANCED_FACE('',(#714),#725,.T.);
#714 = FACE_BOUND('',#715,.F.);
#715 = EDGE_LOOP('',(#716,#717,#723,#724));
#716 = ORIENTED_EDGE('',*,*,#692,.T.);
#717 = ORIENTED_EDGE('',*,*,#718,.T.);
#718 = EDGE_CURVE('',#693,#516,#719,.T.);
#719 = LINE('',#720,#721);
#720 = CARTESIAN_POINT('',(0.5,-1.E-17,1.E-01));
#721 = VECTOR('',#722,1.);
#722 = DIRECTION('',(1.,0.,0.));
#723 = ORIENTED_EDGE('',*,*,#674,.F.);
#724 = ORIENTED_EDGE('',*,*,#365,.F.);
#725 = CYLINDRICAL_SURFACE('',#726,0.1);
#726 = AXIS2_PLACEMENT_3D('',#727,#728,#729);
#727 = CARTESIAN_POINT('',(0.5,1.E-01,1.E-01));
#728 = DIRECTION('',(1.,0.,0.));
#729 = DIRECTION('',(0.,0.,-1.));
#730 = ADVANCED_FACE('',(#731),#756,.F.);
#731 = FACE_BOUND('',#732,.F.);
#732 = EDGE_LOOP('',(#733,#741,#749,#755));
#733 = ORIENTED_EDGE('',*,*,#734,.T.);
#734 = EDGE_CURVE('',#391,#735,#737,.T.);
#735 = VERTEX_POINT('',#736);
#736 = CARTESIAN_POINT('',(6.4,13.65,-1.));
#737 = LINE('',#738,#739);
#738 = CARTESIAN_POINT('',(6.4,13.65,0.));
#739 = VECTOR('',#740,1.);
#740 = DIRECTION('',(0.,0.,-1.));
#741 = ORIENTED_EDGE('',*,*,#742,.T.);
#742 = EDGE_CURVE('',#735,#743,#745,.T.);
#743 = VERTEX_POINT('',#744);
#744 = CARTESIAN_POINT('',(6.4,14.15,-1.));
#745 = LINE('',#746,#747);
#746 = CARTESIAN_POINT('',(6.4,13.65,-1.));
#747 = VECTOR('',#748,1.);
#748 = DIRECTION('',(0.,1.,0.));
#749 = ORIENTED_EDGE('',*,*,#750,.F.);
#750 = EDGE_CURVE('',#393,#743,#751,.T.);
#751 = LINE('',#752,#753);
#752 = CARTESIAN_POINT('',(6.4,14.15,0.));
#753 = VECTOR('',#754,1.);
#754 = DIRECTION('',(0.,0.,-1.));
#755 = ORIENTED_EDGE('',*,*,#390,.F.);
#756 = PLANE('',#757);
#757 = AXIS2_PLACEMENT_3D('',#758,#759,#760);
#758 = CARTESIAN_POINT('',(6.4,12.65,0.));
#759 = DIRECTION('',(1.,0.,0.));
#760 = DIRECTION('',(0.,1.,0.));
#761 = ADVANCED_FACE('',(#762),#781,.T.);
#762 = FACE_BOUND('',#763,.F.);
#763 = EDGE_LOOP('',(#764,#765,#766,#774));
#764 = ORIENTED_EDGE('',*,*,#734,.F.);
#765 = ORIENTED_EDGE('',*,*,#451,.T.);
#766 = ORIENTED_EDGE('',*,*,#767,.T.);
#767 = EDGE_CURVE('',#444,#768,#770,.T.);
#768 = VERTEX_POINT('',#769);
#769 = CARTESIAN_POINT('',(7.4,12.65,-1.));
#770 = LINE('',#771,#772);
#771 = CARTESIAN_POINT('',(7.4,12.65,0.));
#772 = VECTOR('',#773,1.);
#773 = DIRECTION('',(0.,0.,-1.));
#774 = ORIENTED_EDGE('',*,*,#775,.T.);
#775 = EDGE_CURVE('',#768,#735,#776,.T.);
#776 = CIRCLE('',#777,1.);
#777 = AXIS2_PLACEMENT_3D('',#778,#779,#780);
#778 = CARTESIAN_POINT('',(7.4,13.65,-1.));
#779 = DIRECTION('',(-0.,-0.,-1.));
#780 = DIRECTION('',(0.,-1.,0.));
#781 = CYLINDRICAL_SURFACE('',#782,1.);
#782 = AXIS2_PLACEMENT_3D('',#783,#784,#785);
#783 = CARTESIAN_POINT('',(7.4,13.65,0.));
#784 = DIRECTION('',(0.,0.,-1.));
#785 = DIRECTION('',(-1.,-0.,-0.));
#786 = ADVANCED_FACE('',(#787),#806,.T.);
#787 = FACE_BOUND('',#788,.T.);
#788 = EDGE_LOOP('',(#789,#790,#791,#799));
#789 = ORIENTED_EDGE('',*,*,#750,.F.);
#790 = ORIENTED_EDGE('',*,*,#400,.T.);
#791 = ORIENTED_EDGE('',*,*,#792,.T.);
#792 = EDGE_CURVE('',#401,#793,#795,.T.);
#793 = VERTEX_POINT('',#794);
#794 = CARTESIAN_POINT('',(7.4,15.15,-1.));
#795 = LINE('',#796,#797);
#796 = CARTESIAN_POINT('',(7.4,15.15,0.));
#797 = VECTOR('',#798,1.);
#798 = DIRECTION('',(0.,0.,-1.));
#799 = ORIENTED_EDGE('',*,*,#800,.F.);
#800 = EDGE_CURVE('',#743,#793,#801,.T.);
#801 = CIRCLE('',#802,1.);
#802 = AXIS2_PLACEMENT_3D('',#803,#804,#805);
#803 = CARTESIAN_POINT('',(7.4,14.15,-1.));
#804 = DIRECTION('',(0.,0.,-1.));
#805 = DIRECTION('',(-1.,0.,0.));
#806 = CYLINDRICAL_SURFACE('',#807,1.);
#807 = AXIS2_PLACEMENT_3D('',#808,#809,#810);
#808 = CARTESIAN_POINT('',(7.4,14.15,0.));
#809 = DIRECTION('',(0.,0.,-1.));
#810 = DIRECTION('',(-1.,-0.,-0.));
#811 = ADVANCED_FACE('',(#812),#830,.F.);
#812 = FACE_BOUND('',#813,.F.);
#813 = EDGE_LOOP('',(#814,#822,#828,#829));
#814 = ORIENTED_EDGE('',*,*,#815,.T.);
#815 = EDGE_CURVE('',#435,#816,#818,.T.);
#816 = VERTEX_POINT('',#817);
#817 = CARTESIAN_POINT('',(9.9,12.65,-1.));
#818 = LINE('',#819,#820);
#819 = CARTESIAN_POINT('',(9.9,12.65,0.));
#820 = VECTOR('',#821,1.);
#821 = DIRECTION('',(0.,0.,-1.));
#822 = ORIENTED_EDGE('',*,*,#823,.T.);
#823 = EDGE_CURVE('',#816,#768,#824,.T.);
#824 = LINE('',#825,#826);
#825 = CARTESIAN_POINT('',(9.9,12.65,-1.));
#826 = VECTOR('',#827,1.);
#827 = DIRECTION('',(-1.,0.,0.));
#828 = ORIENTED_EDGE('',*,*,#767,.F.);
#829 = ORIENTED_EDGE('',*,*,#443,.F.);
#830 = PLANE('',#831);
#831 = AXIS2_PLACEMENT_3D('',#832,#833,#834);
#832 = CARTESIAN_POINT('',(10.9,12.65,0.));
#833 = DIRECTION('',(0.,1.,0.));
#834 = DIRECTION('',(-1.,0.,0.));
#835 = ADVANCED_FACE('',(#836),#854,.F.);
#836 = FACE_BOUND('',#837,.F.);
#837 = EDGE_LOOP('',(#838,#839,#847,#853));
#838 = ORIENTED_EDGE('',*,*,#792,.T.);
#839 = ORIENTED_EDGE('',*,*,#840,.T.);
#840 = EDGE_CURVE('',#793,#841,#843,.T.);
#841 = VERTEX_POINT('',#842);
#842 = CARTESIAN_POINT('',(9.9,15.15,-1.));
#843 = LINE('',#844,#845);
#844 = CARTESIAN_POINT('',(7.4,15.15,-1.));
#845 = VECTOR('',#846,1.);
#846 = DIRECTION('',(1.,0.,0.));
#847 = ORIENTED_EDGE('',*,*,#848,.F.);
#848 = EDGE_CURVE('',#410,#841,#849,.T.);
#849 = LINE('',#850,#851);
#850 = CARTESIAN_POINT('',(9.9,15.15,0.));
#851 = VECTOR('',#852,1.);
#852 = DIRECTION('',(0.,0.,-1.));
#853 = ORIENTED_EDGE('',*,*,#409,.F.);
#854 = PLANE('',#855);
#855 = AXIS2_PLACEMENT_3D('',#856,#857,#858);
#856 = CARTESIAN_POINT('',(6.4,15.15,0.));
#857 = DIRECTION('',(0.,-1.,0.));
#858 = DIRECTION('',(1.,0.,0.));
#859 = ADVANCED_FACE('',(#860),#879,.T.);
#860 = FACE_BOUND('',#861,.F.);
#861 = EDGE_LOOP('',(#862,#863,#864,#872));
#862 = ORIENTED_EDGE('',*,*,#815,.F.);
#863 = ORIENTED_EDGE('',*,*,#434,.T.);
#864 = ORIENTED_EDGE('',*,*,#865,.T.);
#865 = EDGE_CURVE('',#427,#866,#868,.T.);
#866 = VERTEX_POINT('',#867);
#867 = CARTESIAN_POINT('',(10.9,13.65,-1.));
#868 = LINE('',#869,#870);
#869 = CARTESIAN_POINT('',(10.9,13.65,0.));
#870 = VECTOR('',#871,1.);
#871 = DIRECTION('',(0.,0.,-1.));
#872 = ORIENTED_EDGE('',*,*,#873,.T.);
#873 = EDGE_CURVE('',#866,#816,#874,.T.);
#874 = CIRCLE('',#875,1.);
#875 = AXIS2_PLACEMENT_3D('',#876,#877,#878);
#876 = CARTESIAN_POINT('',(9.9,13.65,-1.));
#877 = DIRECTION('',(0.,0.,-1.));
#878 = DIRECTION('',(1.,0.,0.));
#879 = CYLINDRICAL_SURFACE('',#880,1.);
#880 = AXIS2_PLACEMENT_3D('',#881,#882,#883);
#881 = CARTESIAN_POINT('',(9.9,13.65,0.));
#882 = DIRECTION('',(0.,0.,-1.));
#883 = DIRECTION('',(0.,-1.,0.));
#884 = ADVANCED_FACE('',(#885),#904,.T.);
#885 = FACE_BOUND('',#886,.F.);
#886 = EDGE_LOOP('',(#887,#895,#896,#897));
#887 = ORIENTED_EDGE('',*,*,#888,.F.);
#888 = EDGE_CURVE('',#418,#889,#891,.T.);
#889 = VERTEX_POINT('',#890);
#890 = CARTESIAN_POINT('',(10.9,14.15,-1.));
#891 = LINE('',#892,#893);
#892 = CARTESIAN_POINT('',(10.9,14.15,0.));
#893 = VECTOR('',#894,1.);
#894 = DIRECTION('',(0.,0.,-1.));
#895 = ORIENTED_EDGE('',*,*,#417,.T.);
#896 = ORIENTED_EDGE('',*,*,#848,.T.);
#897 = ORIENTED_EDGE('',*,*,#898,.T.);
#898 = EDGE_CURVE('',#841,#889,#899,.T.);
#899 = CIRCLE('',#900,1.);
#900 = AXIS2_PLACEMENT_3D('',#901,#902,#903);
#901 = CARTESIAN_POINT('',(9.9,14.15,-1.));
#902 = DIRECTION('',(0.,0.,-1.));
#903 = DIRECTION('',(0.,1.,0.));
#904 = CYLINDRICAL_SURFACE('',#905,1.);
#905 = AXIS2_PLACEMENT_3D('',#906,#907,#908);
#906 = CARTESIAN_POINT('',(9.9,14.15,0.));
#907 = DIRECTION('',(0.,0.,-1.));
#908 = DIRECTION('',(1.,0.,0.));
#909 = ADVANCED_FACE('',(#910),#921,.F.);
#910 = FACE_BOUND('',#911,.F.);
#911 = EDGE_LOOP('',(#912,#913,#919,#920));
#912 = ORIENTED_EDGE('',*,*,#888,.T.);
#913 = ORIENTED_EDGE('',*,*,#914,.T.);
#914 = EDGE_CURVE('',#889,#866,#915,.T.);
#915 = LINE('',#916,#917);
#916 = CARTESIAN_POINT('',(10.9,14.15,-1.));
#917 = VECTOR('',#918,1.);
#918 = DIRECTION('',(0.,-1.,0.));
#919 = ORIENTED_EDGE('',*,*,#865,.F.);
#920 = ORIENTED_EDGE('',*,*,#426,.F.);
#921 = PLANE('',#922);
#922 = AXIS2_PLACEMENT_3D('',#923,#924,#925);
#923 = CARTESIAN_POINT('',(10.9,15.15,0.));
#924 = DIRECTION('',(-1.,-0.,-0.));
#925 = DIRECTION('',(0.,-1.,0.));
#926 = ADVANCED_FACE('',(#927),#938,.T.);
#927 = FACE_BOUND('',#928,.T.);
#928 = EDGE_LOOP('',(#929,#935,#936,#937));
#929 = ORIENTED_EDGE('',*,*,#930,.T.);
#930 = EDGE_CURVE('',#693,#582,#931,.T.);
#931 = LINE('',#932,#933);
#932 = CARTESIAN_POINT('',(0.5,0.,0.));
#933 = VECTOR('',#934,1.);
#934 = DIRECTION('',(0.,0.,1.));
#935 = ORIENTED_EDGE('',*,*,#611,.T.);
#936 = ORIENTED_EDGE('',*,*,#493,.F.);
#937 = ORIENTED_EDGE('',*,*,#701,.F.);
#938 = PLANE('',#939);
#939 = AXIS2_PLACEMENT_3D('',#940,#941,#942);
#940 = CARTESIAN_POINT('',(0.25,0.25,0.));
#941 = DIRECTION('',(-0.707106781187,-0.707106781187,0.));
#942 = DIRECTION('',(0.,0.,1.));
#943 = ADVANCED_FACE('',(#944),#950,.F.);
#944 = FACE_BOUND('',#945,.F.);
#945 = EDGE_LOOP('',(#946,#947,#948,#949));
#946 = ORIENTED_EDGE('',*,*,#930,.T.);
#947 = ORIENTED_EDGE('',*,*,#589,.T.);
#948 = ORIENTED_EDGE('',*,*,#515,.F.);
#949 = ORIENTED_EDGE('',*,*,#718,.F.);
#950 = PLANE('',#951);
#951 = AXIS2_PLACEMENT_3D('',#952,#953,#954);
#952 = CARTESIAN_POINT('',(0.,0.,0.));
#953 = DIRECTION('',(0.,1.,0.));
#954 = DIRECTION('',(1.,0.,0.));
#955 = ADVANCED_FACE('',(#956),#983,.T.);
#956 = FACE_BOUND('',#957,.F.);
#957 = EDGE_LOOP('',(#958,#967,#975,#982));
#958 = ORIENTED_EDGE('',*,*,#959,.T.);
#959 = EDGE_CURVE('',#735,#960,#962,.T.);
#960 = VERTEX_POINT('',#961);
#961 = CARTESIAN_POINT('',(7.4,13.65,-2.));
#962 = CIRCLE('',#963,1.);
#963 = AXIS2_PLACEMENT_3D('',#964,#965,#966);
#964 = CARTESIAN_POINT('',(7.4,13.65,-1.));
#965 = DIRECTION('',(6.E-17,-1.,0.));
#966 = DIRECTION('',(-1.,-6.E-17,0.));
#967 = ORIENTED_EDGE('',*,*,#968,.T.);
#968 = EDGE_CURVE('',#960,#969,#971,.T.);
#969 = VERTEX_POINT('',#970);
#970 = CARTESIAN_POINT('',(7.4,14.15,-2.));
#971 = LINE('',#972,#973);
#972 = CARTESIAN_POINT('',(7.4,13.65,-2.));
#973 = VECTOR('',#974,1.);
#974 = DIRECTION('',(0.,1.,0.));
#975 = ORIENTED_EDGE('',*,*,#976,.F.);
#976 = EDGE_CURVE('',#743,#969,#977,.T.);
#977 = CIRCLE('',#978,1.);
#978 = AXIS2_PLACEMENT_3D('',#979,#980,#981);
#979 = CARTESIAN_POINT('',(7.4,14.15,-1.));
#980 = DIRECTION('',(-0.,-1.,-0.));
#981 = DIRECTION('',(-1.,0.,0.));
#982 = ORIENTED_EDGE('',*,*,#742,.F.);
#983 = CYLINDRICAL_SURFACE('',#984,1.);
#984 = AXIS2_PLACEMENT_3D('',#985,#986,#987);
#985 = CARTESIAN_POINT('',(7.4,13.65,-1.));
#986 = DIRECTION('',(0.,1.,0.));
#987 = DIRECTION('',(-1.,0.,0.));
#988 = ADVANCED_FACE('',(#989),#1000,.T.);
#989 = FACE_BOUND('',#990,.T.);
#990 = EDGE_LOOP('',(#991,#998,#999));
#991 = ORIENTED_EDGE('',*,*,#992,.F.);
#992 = EDGE_CURVE('',#768,#960,#993,.T.);
#993 = CIRCLE('',#994,1.);
#994 = AXIS2_PLACEMENT_3D('',#995,#996,#997);
#995 = CARTESIAN_POINT('',(7.4,13.65,-1.));
#996 = DIRECTION('',(1.,0.,-0.));
#997 = DIRECTION('',(0.,-1.,0.));
#998 = ORIENTED_EDGE('',*,*,#775,.T.);
#999 = ORIENTED_EDGE('',*,*,#959,.T.);
#1000 = SPHERICAL_SURFACE('',#1001,1.);
#1001 = AXIS2_PLACEMENT_3D('',#1002,#1003,#1004);
#1002 = CARTESIAN_POINT('',(7.4,13.65,-1.));
#1003 = DIRECTION('',(-0.,-0.,-1.));
#1004 = DIRECTION('',(0.,-1.,0.));
#1005 = ADVANCED_FACE('',(#1006),#1017,.T.);
#1006 = FACE_BOUND('',#1007,.T.);
#1007 = EDGE_LOOP('',(#1008,#1009,#1010));
#1008 = ORIENTED_EDGE('',*,*,#976,.F.);
#1009 = ORIENTED_EDGE('',*,*,#800,.T.);
#1010 = ORIENTED_EDGE('',*,*,#1011,.T.);
#1011 = EDGE_CURVE('',#793,#969,#1012,.T.);
#1012 = CIRCLE('',#1013,1.);
#1013 = AXIS2_PLACEMENT_3D('',#1014,#1015,#1016);
#1014 = CARTESIAN_POINT('',(7.4,14.15,-1.));
#1015 = DIRECTION('',(-1.,0.,0.));
#1016 = DIRECTION('',(0.,1.,0.));
#1017 = SPHERICAL_SURFACE('',#1018,1.);
#1018 = AXIS2_PLACEMENT_3D('',#1019,#1020,#1021);
#1019 = CARTESIAN_POINT('',(7.4,14.15,-1.));
#1020 = DIRECTION('',(-0.,-0.,-1.));
#1021 = DIRECTION('',(-1.,0.,0.));
#1022 = ADVANCED_FACE('',(#1023),#1042,.T.);
#1023 = FACE_BOUND('',#1024,.F.);
#1024 = EDGE_LOOP('',(#1025,#1034,#1040,#1041));
#1025 = ORIENTED_EDGE('',*,*,#1026,.T.);
#1026 = EDGE_CURVE('',#816,#1027,#1029,.T.);
#1027 = VERTEX_POINT('',#1028);
#1028 = CARTESIAN_POINT('',(9.9,13.65,-2.));
#1029 = CIRCLE('',#1030,1.);
#1030 = AXIS2_PLACEMENT_3D('',#1031,#1032,#1033);
#1031 = CARTESIAN_POINT('',(9.9,13.65,-1.));
#1032 = DIRECTION('',(1.,6.E-17,0.));
#1033 = DIRECTION('',(6.E-17,-1.,0.));
#1034 = ORIENTED_EDGE('',*,*,#1035,.T.);
#1035 = EDGE_CURVE('',#1027,#960,#1036,.T.);
#1036 = LINE('',#1037,#1038);
#1037 = CARTESIAN_POINT('',(9.9,13.65,-2.));
#1038 = VECTOR('',#1039,1.);
#1039 = DIRECTION('',(-1.,0.,0.));
#1040 = ORIENTED_EDGE('',*,*,#992,.F.);
#1041 = ORIENTED_EDGE('',*,*,#823,.F.);
#1042 = CYLINDRICAL_SURFACE('',#1043,1.);
#1043 = AXIS2_PLACEMENT_3D('',#1044,#1045,#1046);
#1044 = CARTESIAN_POINT('',(9.9,13.65,-1.));
#1045 = DIRECTION('',(-1.,0.,0.));
#1046 = DIRECTION('',(0.,-1.,0.));
#1047 = ADVANCED_FACE('',(#1048),#1067,.T.);
#1048 = FACE_BOUND('',#1049,.F.);
#1049 = EDGE_LOOP('',(#1050,#1051,#1059,#1066));
#1050 = ORIENTED_EDGE('',*,*,#1011,.T.);
#1051 = ORIENTED_EDGE('',*,*,#1052,.T.);
#1052 = EDGE_CURVE('',#969,#1053,#1055,.T.);
#1053 = VERTEX_POINT('',#1054);
#1054 = CARTESIAN_POINT('',(9.9,14.15,-2.));
#1055 = LINE('',#1056,#1057);
#1056 = CARTESIAN_POINT('',(7.4,14.15,-2.));
#1057 = VECTOR('',#1058,1.);
#1058 = DIRECTION('',(1.,0.,0.));
#1059 = ORIENTED_EDGE('',*,*,#1060,.F.);
#1060 = EDGE_CURVE('',#841,#1053,#1061,.T.);
#1061 = CIRCLE('',#1062,1.);
#1062 = AXIS2_PLACEMENT_3D('',#1063,#1064,#1065);
#1063 = CARTESIAN_POINT('',(9.9,14.15,-1.));
#1064 = DIRECTION('',(-1.,0.,0.));
#1065 = DIRECTION('',(0.,1.,0.));
#1066 = ORIENTED_EDGE('',*,*,#840,.F.);
#1067 = CYLINDRICAL_SURFACE('',#1068,1.);
#1068 = AXIS2_PLACEMENT_3D('',#1069,#1070,#1071);
#1069 = CARTESIAN_POINT('',(7.4,14.15,-1.));
#1070 = DIRECTION('',(1.,0.,0.));
#1071 = DIRECTION('',(0.,1.,0.));
#1072 = ADVANCED_FACE('',(#1073),#1084,.T.);
#1073 = FACE_BOUND('',#1074,.T.);
#1074 = EDGE_LOOP('',(#1075,#1082,#1083));
#1075 = ORIENTED_EDGE('',*,*,#1076,.F.);
#1076 = EDGE_CURVE('',#866,#1027,#1077,.T.);
#1077 = CIRCLE('',#1078,1.);
#1078 = AXIS2_PLACEMENT_3D('',#1079,#1080,#1081);
#1079 = CARTESIAN_POINT('',(9.9,13.65,-1.));
#1080 = DIRECTION('',(-0.,1.,0.));
#1081 = DIRECTION('',(1.,0.,0.));
#1082 = ORIENTED_EDGE('',*,*,#873,.T.);
#1083 = ORIENTED_EDGE('',*,*,#1026,.T.);
#1084 = SPHERICAL_SURFACE('',#1085,1.);
#1085 = AXIS2_PLACEMENT_3D('',#1086,#1087,#1088);
#1086 = CARTESIAN_POINT('',(9.9,13.65,-1.));
#1087 = DIRECTION('',(-0.,-0.,-1.));
#1088 = DIRECTION('',(1.,0.,0.));
#1089 = ADVANCED_FACE('',(#1090),#1101,.T.);
#1090 = FACE_BOUND('',#1091,.T.);
#1091 = EDGE_LOOP('',(#1092,#1093,#1094));
#1092 = ORIENTED_EDGE('',*,*,#1060,.F.);
#1093 = ORIENTED_EDGE('',*,*,#898,.T.);
#1094 = ORIENTED_EDGE('',*,*,#1095,.T.);
#1095 = EDGE_CURVE('',#889,#1053,#1096,.T.);
#1096 = CIRCLE('',#1097,1.);
#1097 = AXIS2_PLACEMENT_3D('',#1098,#1099,#1100);
#1098 = CARTESIAN_POINT('',(9.9,14.15,-1.));
#1099 = DIRECTION('',(-6.E-17,1.,0.));
#1100 = DIRECTION('',(1.,6.E-17,0.));
#1101 = SPHERICAL_SURFACE('',#1102,1.);
#1102 = AXIS2_PLACEMENT_3D('',#1103,#1104,#1105);
#1103 = CARTESIAN_POINT('',(9.9,14.15,-1.));
#1104 = DIRECTION('',(-0.,-0.,-1.));
#1105 = DIRECTION('',(0.,1.,0.));
#1106 = ADVANCED_FACE('',(#1107),#1118,.T.);
#1107 = FACE_BOUND('',#1108,.F.);
#1108 = EDGE_LOOP('',(#1109,#1110,#1116,#1117));
#1109 = ORIENTED_EDGE('',*,*,#1095,.T.);
#1110 = ORIENTED_EDGE('',*,*,#1111,.T.);
#1111 = EDGE_CURVE('',#1053,#1027,#1112,.T.);
#1112 = LINE('',#1113,#1114);
#1113 = CARTESIAN_POINT('',(9.9,14.15,-2.));
#1114 = VECTOR('',#1115,1.);
#1115 = DIRECTION('',(0.,-1.,0.));
#1116 = ORIENTED_EDGE('',*,*,#1076,.F.);
#1117 = ORIENTED_EDGE('',*,*,#914,.F.);
#1118 = CYLINDRICAL_SURFACE('',#1119,1.);
#1119 = AXIS2_PLACEMENT_3D('',#1120,#1121,#1122);
#1120 = CARTESIAN_POINT('',(9.9,14.15,-1.));
#1121 = DIRECTION('',(0.,-1.,0.));
#1122 = DIRECTION('',(1.,0.,0.));
#1123 = ADVANCED_FACE('',(#1124),#1130,.F.);
#1124 = FACE_BOUND('',#1125,.F.);
#1125 = EDGE_LOOP('',(#1126,#1127,#1128,#1129));
#1126 = ORIENTED_EDGE('',*,*,#1052,.F.);
#1127 = ORIENTED_EDGE('',*,*,#968,.F.);
#1128 = ORIENTED_EDGE('',*,*,#1035,.F.);
#1129 = ORIENTED_EDGE('',*,*,#1111,.F.);
#1130 = PLANE('',#1131);
#1131 = AXIS2_PLACEMENT_3D('',#1132,#1133,#1134);
#1132 = CARTESIAN_POINT('',(8.65,13.9,-2.));
#1133 = DIRECTION('',(0.,0.,1.));
#1134 = DIRECTION('',(1.,0.,0.));
#1135 = ( GEOMETRIC_REPRESENTATION_CONTEXT(3) 
GLOBAL_UNCERTAINTY_ASSIGNED_CONTEXT((#1139)) 
GLOBAL_UNIT_ASSIGNED_CONTEXT((#1136,#1137,#1138)) REPRESENTATION_CONTEXT
('Context #1','3D Context with UNIT and UNCERTAINTY') );
#1136 = ( LENGTH_UNIT() NAMED_UNIT(*) SI_UNIT(.MILLI.,.METRE.) );
#1137 = ( NAMED_UNIT(*) PLANE_ANGLE_UNIT() SI_UNIT($,.RADIAN.) );
#1138 = ( NAMED_UNIT(*) SI_UNIT($,.STERADIAN.) SOLID_ANGLE_UNIT() );
#1139 = UNCERTAINTY_MEASURE_WITH_UNIT(LENGTH_MEASURE(2.E-05),#1136,
  'distance_accuracy_value','confusion accuracy');
#1140 = PRODUCT_RELATED_PRODUCT_CATEGORY('part',$,(#7));
#1141 = MECHANICAL_DESIGN_GEOMETRIC_PRESENTATION_REPRESENTATION('',(
    #1142),#1135);
#1142 = STYLED_ITEM('color',(#1143),#15);
#1143 = PRESENTATION_STYLE_ASSIGNMENT((#1144,#1150));
#1144 = SURFACE_STYLE_USAGE(.BOTH.,#1145);
#1145 = SURFACE_SIDE_STYLE('',(#1146));
#1146 = SURFACE_STYLE_FILL_AREA(#1147);
#1147 = FILL_AREA_STYLE('',(#1148));
#1148 = FILL_AREA_STYLE_COLOUR('',#1149);
#1149 = COLOUR_RGB('',0.447058818107,0.474509808674,0.501960817233);
#1150 = CURVE_STYLE('',#1151,POSITIVE_LENGTH_MEASURE(0.1),#1152);
#1151 = DRAUGHTING_PRE_DEFINED_CURVE_FONT('continuous');
#1152 = COLOUR_RGB('',9.803921802644E-02,9.803921802644E-02,
  9.803921802644E-02);
ENDSEC;
END-ISO-10303-21;
